<?xml version="1.0"?>
<svg width="348" height="819" xmlns="http://www.w3.org/2000/svg" xmlns:svg="http://www.w3.org/2000/svg" xmlns:xlink="http://www.w3.org/1999/xlink" enable-background="new 0 0 348 819" version="1.1" xml:space="preserve">
 <g class="layer">
  <title>Layer 1</title>
  <rect fill="#FFFFFF" height="357" id="svg_10" width="348" x="-0.27" y="-0.37"/>
  <rect fill="#010101" height="100.5" id="svg_11" width="349.67" x="-0.27" y="719.63"/>
  <g id="svg_12">
   <defs>
    <rect height="363" id="SVGID_1_" width="349.33" x="-0.27" y="356.63"/>
   </defs>
   <use fill="#FFFFFF" id="svg_14" overflow="visible" xlink:href="#SVGID_1_"/>
   <clipPath id="SVGID_2_">
    <use id="svg_15" overflow="visible" xlink:href="#SVGID_1_"/>
   </clipPath>
   <g clip-path="url(#SVGID_2_)" id="svg_16" transform="matrix(1 0 0 1 0 3.051758e-005)">
    <image height="558" id="svg_1" overflow="visible" preserveAspectRatio="none" transform="matrix(1,0,0,1,0,0)" width="836.1" x="-254.84" xlink:href="96DB4B76.jpg" y="285.13"/>
   </g>
  </g>
  <path d="m196.87,203.63c-3.35,0 -6.06,2.71 -6.06,6.05c0,4.77 3.71,6.81 7.51,10.24c1.11,1 2.48,2.19 3.53,3.49c1.05,-1.3 2.42,-2.5 3.53,-3.49c3.8,-3.43 7.5,-5.48 7.51,-10.24c0,-3.34 -2.71,-6.05 -6.06,-6.05c-2.06,0 -3.89,1.2 -4.98,2.77c-1.09,-1.57 -2.92,-2.77 -4.98,-2.77z" fill="#D72027" id="svg_13" transform="matrix(1 0 0 1 0 0)"/>
  <text fill="#010101" font-family="&#x27;SimKyungha&#x27;" font-size="75.78" id="svg_2" transform="matrix(1,0,0,1,0,0)" x="27.94" y="100.77">당장</text>
  <text fill="#010101" font-family="&#x27;SimKyungha&#x27;" font-size="75.78" id="svg_3" transform="matrix(1,0,0,1,0,0)" x="27.94" y="174.83">안경 벗어</text>
  <text fill="#D72027" font-family="&#x27;SimKyungha&#x27;" font-size="75.78" id="svg_7" transform="matrix(1,0,0,1,0,0)" x="229.61" y="174.83">라</text>
  <text fill="#010101" font-family="&#x27;SimKyungha&#x27;" font-size="75.78" id="svg_4" transform="matrix(1,0,0,1,0,0)" x="27.94" y="244.83">넌 그게</text>
  <text fill="#D72027" font-family="&#x27;SimKyungha&#x27;" font-size="75.78" id="svg_8" transform="matrix(1,0,0,1,0,0)" x="223.17" y="244.83">섹</text>
  <text fill="#010101" font-family="&#x27;SimKyungha&#x27;" font-size="75.78" id="svg_9" transform="matrix(1,0,0,1,0,0)" x="274.12" y="244.83">시</text>
  <text fill="#010101" font-family="&#x27;SimKyungha&#x27;" font-size="75.78" id="svg_5" transform="matrix(1,0,0,1,0,0)" x="27.94" y="323.83">하니까</text>
  <text fill="#FFFFFF" font-family="&#x27;YanoljaYacheR&#x27;" font-size="50" id="svg_6" transform="matrix(1,0,0,1,0,0)" x="94.08" y="783.44">맑은눈안과</text>
 </g>
</svg>