<?xml version="1.0"?>
<svg width="1920" height="1080" xmlns="http://www.w3.org/2000/svg" xmlns:svg="http://www.w3.org/2000/svg" xmlns:xlink="http://www.w3.org/1999/xlink" enable-background="new 0 0 1920 1080" version="1.1" xml:space="preserve">
 <g class="layer">
  <title>Layer 1</title>
  <g id="svg_5">
   <g id="svg_36">
    <rect height="1080" id="svg_52" width="1920"/>
    <image height="1080" id="svg_1" overflow="visible" preserveAspectRatio="none" transform="matrix(1,0,0,1,0,0)" width="1920" x="0" xlink:href="7FCE0926.png" y="0"/>
    <rect height="1000" id="svg_53" stroke="#76471E" stroke-miterlimit="10" stroke-width="4" width="889" x="970.5" y="40"/>
    <rect height="1000" id="svg_54" stroke="#76471E" stroke-miterlimit="10" stroke-width="4" width="850" x="59.07" y="40"/>
   </g>
   <g id="svg_59">
    <line fill="#00000000" id="svg_47" stroke="#ECECEC" stroke-linecap="round" stroke-linejoin="round" stroke-miterlimit="10" x1="1038.69" x2="1788.69" y1="1007.36" y2="1007.36"/>
    <line fill="#00000000" id="svg_48" stroke="#ECECEC" stroke-linecap="round" stroke-linejoin="round" stroke-miterlimit="10" x1="1037.67" x2="1787.67" y1="943.52" y2="943.52"/>
    <g id="svg_58">
     <line fill="#00000000" id="svg_45" stroke="#ECECEC" stroke-linecap="round" stroke-linejoin="round" stroke-miterlimit="10" x1="1037.67" x2="1787.67" y1="666.82" y2="666.82"/>
     <line fill="#00000000" id="svg_46" stroke="#ECECEC" stroke-linecap="round" stroke-linejoin="round" stroke-miterlimit="10" x1="1035.61" x2="1785.61" y1="730.65" y2="730.65"/>
     <line fill="#00000000" id="svg_49" stroke="#ECECEC" stroke-linecap="round" stroke-linejoin="round" stroke-miterlimit="10" x1="1037.67" x2="1787.67" y1="879.69" y2="879.69"/>
     <line fill="#00000000" id="svg_50" stroke="#ECECEC" stroke-linecap="round" stroke-linejoin="round" stroke-miterlimit="10" x1="1037.67" x2="1787.67" y1="815.86" y2="815.86"/>
     <g id="svg_57">
      <line fill="#00000000" id="svg_37" stroke="#ECECEC" stroke-linecap="round" stroke-linejoin="round" stroke-miterlimit="10" x1="1037.67" x2="1787.67" y1="142.21" y2="142.21"/>
      <line fill="#00000000" id="svg_38" stroke="#ECECEC" stroke-linecap="round" stroke-linejoin="round" stroke-miterlimit="10" x1="1037.67" x2="1787.67" y1="206.04" y2="206.04"/>
      <line fill="#00000000" id="svg_39" stroke="#ECECEC" stroke-linecap="round" stroke-linejoin="round" stroke-miterlimit="10" x1="1037.67" x2="1787.67" y1="269.87" y2="269.87"/>
      <line fill="#00000000" id="svg_40" stroke="#ECECEC" stroke-linecap="round" stroke-linejoin="round" stroke-miterlimit="10" x1="1040" x2="1790" y1="333.7" y2="333.7"/>
      <line fill="#00000000" id="svg_41" stroke="#ECECEC" stroke-linecap="round" stroke-linejoin="round" stroke-miterlimit="10" x1="1040" x2="1790" y1="397.54" y2="397.54"/>
      <line fill="#00000000" id="svg_42" stroke="#ECECEC" stroke-linecap="round" stroke-linejoin="round" stroke-miterlimit="10" x1="1037.67" x2="1787.67" y1="539.15" y2="539.15"/>
      <line fill="#00000000" id="svg_43" stroke="#ECECEC" stroke-linecap="round" stroke-linejoin="round" stroke-miterlimit="10" x1="1037.67" x2="1787.67" y1="475.04" y2="475.04"/>
      <line fill="#00000000" id="svg_44" stroke="#ECECEC" stroke-linecap="round" stroke-linejoin="round" stroke-miterlimit="10" x1="1038" x2="1788" y1="602.99" y2="602.99"/>
     </g>
    </g>
   </g>
  </g>
  <g id="svg_51">
   <defs>
    <rect height="484" id="SVGID_1_" width="646" x="161.02" y="308.24"/>
   </defs>
   <clipPath id="SVGID_2_">
    <use id="svg_55" overflow="visible" xlink:href="#SVGID_1_"/>
   </clipPath>
   <g clip-path="url(#SVGID_2_)" id="svg_56">
    <image height="532.44" id="svg_2" overflow="visible" preserveAspectRatio="none" transform="matrix(1,0,0,1,0,0)" width="710" x="118.7" xlink:href="7FCE092A.jpg" y="285.99"/>
   </g>
  </g>
  <text fill="#FFFFFF" font-family="&#x27;NEXONLv1GothicRegular&#x27;" font-size="32" id="svg_14" transform="matrix(1,0,0,1,0,0)" x="1048.69" y="185.97">후라이드 치킨</text>
  <text fill="#FFFFFF" font-family="&#x27;NEXONLv1GothicRegular&#x27;" font-size="32" id="svg_15" transform="matrix(1,0,0,1,0,0)" x="1048.69" y="249.81">양념 치킨</text>
  <text fill="#FFFFFF" font-family="&#x27;NEXONLv1GothicRegular&#x27;" font-size="32" id="svg_16" transform="matrix(1,0,0,1,0,0)" x="1048.69" y="313.64">반반 치킨</text>
  <text fill="#FFFFFF" font-family="&#x27;NEXONLv1GothicRegular&#x27;" font-size="32" id="svg_17" transform="matrix(1,0,0,1,0,0)" x="1048.69" y="377.47">파닭 치킨</text>
  <text fill="#FFFFFF" font-family="&#x27;NEXONLv1GothicRegular&#x27;" font-size="32" id="svg_18" transform="matrix(1,0,0,1,0,0)" x="1048.69" y="519.09">부대찌개</text>
  <text fill="#FFFFFF" font-family="&#x27;NEXONLv1GothicRegular&#x27;" font-size="32" id="svg_19" transform="matrix(1,0,0,1,0,0)" x="1048.69" y="582.92">두부김치</text>
  <text fill="#FFFFFF" font-family="&#x27;NEXONLv1GothicRegular&#x27;" font-size="32" id="svg_20" transform="matrix(1 0 0 1 0 0) matrix(1 0 0 1 0 0)" x="1048.69" y="646.76">모듬튀김</text>
  <text fill="#FFFFFF" font-family="&#x27;NEXONLv1GothicRegular&#x27;" font-size="32" id="svg_21" transform="matrix(1,0,0,1,0,0)" x="1048.69" y="710.59">마른안주</text>
  <text fill="#FFFFFF" font-family="&#x27;NEXONLv1GothicRegular&#x27;" font-size="32" id="svg_22" transform="matrix(1,0,0,1,0,0)" x="1048.69" y="859.63">맥주</text>
  <text fill="#FFFFFF" font-family="&#x27;NEXONLv1GothicRegular&#x27;" font-size="32" id="svg_23" transform="matrix(1,0,0,1,0,0)" x="1048.69" y="923.47">소주</text>
  <text fill="#FFFFFF" font-family="&#x27;NEXONLv1GothicRegular&#x27;" font-size="32" id="svg_24" transform="matrix(1,0,0,1,0,0)" x="1048.76" y="987.96">음료(콜라·사이다)</text>
  <text fill="#FFFFFF" font-family="&#x27;NEXONLv1GothicBold&#x27;" font-size="32" id="svg_25" transform="matrix(1,0,0,1,0,0)" x="1715.46" y="185.85">16.0</text>
  <text fill="#FFFFFF" font-family="&#x27;NEXONLv1GothicBold&#x27;" font-size="32" id="svg_26" transform="matrix(1,0,0,1,0,0)" x="1715.46" y="249.69">17.0</text>
  <text fill="#FFFFFF" font-family="&#x27;NEXONLv1GothicBold&#x27;" font-size="32" id="svg_27" transform="matrix(1,0,0,1,0,0)" x="1715.46" y="313.52">17.0</text>
  <text fill="#FFFFFF" font-family="&#x27;NEXONLv1GothicBold&#x27;" font-size="32" id="svg_28" transform="matrix(1,0,0,1,0,0)" x="1713.54" y="377.35">18.0</text>
  <text fill="#FFFFFF" font-family="&#x27;NEXONLv1GothicBold&#x27;" font-size="32" id="svg_29" transform="matrix(1,0,0,1,0,0)" x="1713.99" y="518.97">14.0</text>
  <text fill="#FFFFFF" font-family="&#x27;NEXONLv1GothicBold&#x27;" font-size="32" id="svg_30" transform="matrix(1,0,0,1,0,0)" x="1715.46" y="582.8">12.0</text>
  <text fill="#FFFFFF" font-family="&#x27;NEXONLv1GothicBold&#x27;" font-size="32" id="svg_31" transform="matrix(1,0,0,1,0,0)" x="1715.46" y="646.64">12.0</text>
  <text fill="#FFFFFF" font-family="&#x27;NEXONLv1GothicBold&#x27;" font-size="32" id="svg_32" transform="matrix(1,0,0,1,0,0)" x="1715.46" y="710.47">12.0</text>
  <text fill="#FFFFFF" font-family="&#x27;NEXONLv1GothicBold&#x27;" font-size="32" id="svg_33" transform="matrix(1,0,0,1,0,0)" x="1733.19" y="859.51">6.0</text>
  <text fill="#FFFFFF" font-family="&#x27;NEXONLv1GothicBold&#x27;" font-size="32" id="svg_34" transform="matrix(1,0,0,1,0,0)" x="1733.19" y="923.35">5.0</text>
  <text fill="#FFFFFF" font-family="&#x27;NEXONLv1GothicBold&#x27;" font-size="32" id="svg_35" transform="matrix(1,0,0,1,0,0)" x="1733.25" y="987.17">5.0</text>
  <text fill="#CCA671" font-family="&#x27;ROKAF-Sans-Medium&#x27;" font-size="36" id="svg_11" transform="matrix(1 0 0 1 0 0) matrix(1 0 0 1 0 0)" x="1283.64" y="119.11">치킨(국내산)</text>
  <text fill="#CCA671" font-family="&#x27;ROKAF-Sans-Medium&#x27;" font-size="36" id="svg_12" transform="matrix(1 0 0 1 0 0)" x="1201.29" y="455.52">안주류</text>
  <text fill="#CCA671" font-family="&#x27;ROKAF-Sans-Medium&#x27;" font-size="36" id="svg_13" transform="matrix(1 0 0 1 0 0)" x="1204.29" y="788.85">음료·주류</text>
  <text fill="#FFFFFF" font-family="&#x27;ROKAF-Sans-Medium&#x27;" font-size="58" id="svg_8" transform="matrix(1 0 0 1 0 0)" x="1035.61" y="117.62">Chicken</text>
  <text fill="#FFFFFF" font-family="&#x27;ROKAF-Sans-Medium&#x27;" font-size="58" id="svg_9" transform="matrix(1 0 0 1 0 0)" x="1035.61" y="457.86">Food</text>
  <text fill="#FFFFFF" font-family="&#x27;ROKAF-Sans-Medium&#x27;" font-size="58" id="svg_10" x="1035.61" y="791.87">Drink</text>
  <text fill="#FFFFFF" font-family="&#x27;GangwonEduAllBold&#x27;" font-size="88" id="svg_6" transform="matrix(1 0 0 1 0 0)" x="123.91" y="931.01">골뱅이무침</text>
  <text fill="#F24C36" font-family="&#x27;ELANDNiceM&#x27;" font-size="82" id="svg_7" x="490.04" y="930.29">\18,000</text>
  <text fill="#F2F0ED" font-family="&#x27;ROKAF-Slab-Serif-Medium&#x27;" font-size="92" id="svg_3" transform="matrix(1 0 0 1 0 0) matrix(1 0 0 1 0 0)" x="346.05" y="152.49">이달의</text>
  <text fill="#F2F0ED" font-family="&#x27;ROKAF-Slab-Serif-Medium&#x27;" font-size="92" id="svg_4" transform="matrix(1 0 0 1 0 0)" x="289.01" y="256.63">추천 메뉴</text>
 </g>
</svg>