<?xml version="1.0"?>
<svg width="348" height="819" xmlns="http://www.w3.org/2000/svg" xmlns:svg="http://www.w3.org/2000/svg" xmlns:xlink="http://www.w3.org/1999/xlink" enable-background="new 0 0 348 819" version="1.1" xml:space="preserve">
 <g class="layer">
  <title>Layer 1</title>
  <rect fill="#EFE0CC" height="579.56" id="배경" width="348.01" x="-0.01" y="239.44"/>
  <path d="m330,643.23c0,14.38 -11.66,26.04 -26.05,26.04l-256.9,0c-14.39,0 -26.05,-11.66 -26.05,-26.04l0,0c0,-14.39 11.66,-26.05 26.05,-26.05l256.9,0c14.39,0 26.05,11.66 26.05,26.05l0,0z" fill="#814627" id="도형" transform="matrix(1 0 0 1 0 0)"/>
  <g id="사진" transform="matrix(1 0 0 1 0 0)">
   <defs>
    <rect height="239.44" id="SVGID_3_" width="348.01" x="-0.01"/>
   </defs>
   <clipPath id="SVGID_4_">
    <use id="svg_93" overflow="visible" xlink:href="#SVGID_3_"/>
   </clipPath>
   <g clip-path="url(#SVGID_4_)" id="svg_94">
    <image height="246.09" id="사진_1_" overflow="visible" preserveAspectRatio="none" transform="matrix(1,0,0,1,0,0)" width="368.03" x="-19.08" xlink:href="37252BAF.jpg" y="0"/>
   </g>
  </g>
  <text fill="#010101" font-family="&#x27;TmonMonsoriBlack&#x27;" font-size="71.49" id="_x31_0자_2_" transform="matrix(1,0,0,1,0,0)" x="44.97" y="332.95">돼지털은</text>
  <text fill="#010101" font-family="&#x27;TmonMonsoriBlack&#x27;" font-size="71.49" id="_x31_0자_1_" transform="matrix(1,0,0,1,0,0)" x="44.97" y="415.97">고데기도</text>
  <text fill="#010101" font-family="&#x27;TmonMonsoriBlack&#x27;" font-size="71.49" id="_x31_0자" transform="matrix(1,0,0,1,0,0)" x="44.97" y="499.94">잘안먹음</text>
  <text fill="#FFFFFF" font-family="&#x27;BazziRegular&#x27;" font-size="36" id="_x31_5자_1_" transform="matrix(1,0,0,1,0,0)" x="51.57" y="654.23">먹지말고 양보하세요</text>
  <text fill="#814627" font-family="&#x27;RecipekoreaM&#x27;" font-size="35" id="_x31_5자" transform="matrix(1,0,0,1,0,0)" x="106.25" y="713.92">무료상담</text>
  <g id="svg_75" transform="matrix(1 0 0 1 0 0) matrix(1 0 0 1 0 0)">
   <g id="svg_76">
    <path d="m312.62,569.21c-0.08,0.04 -0.16,0.07 -0.26,0.08c-0.15,0.01 -0.31,-0.04 -0.43,-0.14c-0.29,-0.26 -7.19,-6.35 -8.13,-13.12c-0.04,-0.3 0.14,-0.57 0.43,-0.64l10.06,-2.56c0.24,-0.06 0.5,0.04 0.63,0.25l4.57,7.16c0.14,0.21 0.12,0.48 -0.04,0.68l-6.69,8.16c-0.04,0.05 -0.09,0.09 -0.14,0.13zm-7.6,-12.83c0.98,5.21 5.75,10.09 7.23,11.5l6.04,-7.37l-4.12,-6.46l-9.15,2.33z" fill="#814627" id="svg_77"/>
    <path d="m366.35,569.76l-2.24,1.38c-0.25,0.15 -0.58,0.09 -0.76,-0.14l-16.84,-21.65c-1.39,0.83 -5.75,3.27 -10.09,4.12c-5.13,1 -13.74,4.8 -17.04,7.52c-0.25,0.21 -0.61,0.17 -0.82,-0.07c-0.2,-0.25 -0.16,-0.61 0.08,-0.82c3.42,-2.81 12.28,-6.74 17.56,-7.77c4.93,-0.96 10.08,-4.2 10.14,-4.23c0.26,-0.17 0.58,-0.1 0.76,0.13l16.84,21.65l1.49,-0.92c-1.25,-11.81 -7.58,-17.41 -10.64,-20.12c-3.67,-3.24 -2.98,-4.82 -2.8,-5.1c0.04,-0.07 0.1,-0.13 0.17,-0.18l3.68,-2.48c-1.13,-9.13 -6.87,-12.34 -8.08,-12.91c-0.69,0.3 -3.09,1.42 -7.53,4.22c-4.62,2.92 -7.04,5.36 -11.41,9.8c-0.73,0.75 -1.52,1.54 -2.38,2.4c-5.91,5.94 -11.34,8.92 -11.56,9.05c-0.29,0.15 -0.64,0.05 -0.79,-0.23c-0.15,-0.28 -0.05,-0.64 0.23,-0.78c0.06,-0.03 5.52,-3.04 11.3,-8.85c0.86,-0.86 1.64,-1.66 2.38,-2.4c4.29,-4.35 6.88,-6.98 11.62,-9.97c5.47,-3.44 7.85,-4.37 7.95,-4.41c0.13,-0.05 0.29,-0.05 0.42,0c0.32,0.13 7.84,3.32 9.04,14.3c0.02,0.21 -0.08,0.42 -0.26,0.54l-3.81,2.58c-0.03,0.36 0.35,1.57 2.59,3.56c3.2,2.83 9.86,8.72 11.07,21.23c0.02,0.22 -0.09,0.43 -0.27,0.55z" fill="#814627" id="svg_78"/>
    <path d="m347.86,544.64c-3.09,1.9 -7.15,0.94 -9.05,-2.15c-1.91,-3.09 -0.94,-7.15 2.14,-9.05c3.09,-1.9 7.15,-0.94 9.06,2.15c1.9,3.09 0.93,7.15 -2.15,9.05zm-6.3,-10.22c-2.55,1.57 -3.34,4.92 -1.77,7.46s4.92,3.35 7.46,1.78c2.55,-1.57 3.34,-4.92 1.77,-7.47c-1.57,-2.55 -4.91,-3.34 -7.46,-1.77z" fill="#814627" id="svg_79"/>
    <path d="m317.21,560.84c-0.03,0.02 -0.07,0.04 -0.11,0.06c-0.53,0.18 -1.04,0.38 -1.54,0.57c-1.78,0.68 -3.46,1.32 -5.49,1.43c-0.31,0.02 -0.59,-0.22 -0.6,-0.54c-0.02,-0.32 0.22,-0.59 0.54,-0.61c1.85,-0.1 3.45,-0.71 5.14,-1.36c0.51,-0.19 1.03,-0.39 1.57,-0.58c0.3,-0.11 0.63,0.05 0.73,0.35c0.09,0.26 -0.01,0.54 -0.24,0.68z" fill="#814627" id="svg_80"/>
    <path d="m309.27,561.08c-0.17,0.1 -0.4,0.11 -0.59,0c-0.27,-0.15 -0.37,-0.51 -0.21,-0.78c1.01,-1.76 2.34,-2.97 3.74,-4.25c0.4,-0.36 0.8,-0.74 1.21,-1.12c0.23,-0.23 0.59,-0.22 0.81,0.01c0.22,0.23 0.22,0.59 -0.01,0.82c-0.41,0.39 -0.83,0.77 -1.24,1.14c-1.33,1.22 -2.59,2.37 -3.51,3.97c-0.05,0.09 -0.12,0.16 -0.2,0.21z" fill="#814627" id="svg_81"/>
    <path d="m356.78,561.95c-0.04,0.03 -0.09,0.05 -0.15,0.06l-2.57,0.72c-0.28,0.08 -0.57,-0.07 -0.68,-0.34l-3.26,-7.98c-0.11,-0.29 0.02,-0.63 0.32,-0.75c0.29,-0.12 0.63,0.02 0.75,0.32l3.06,7.5l2.08,-0.58c0.3,-0.08 0.62,0.1 0.7,0.41c0.08,0.25 -0.03,0.51 -0.25,0.64z" fill="#814627" id="svg_82"/>
    <path d="m365.16,563.6l-4.36,2.69c-0.27,0.17 -0.63,0.08 -0.79,-0.19c-0.17,-0.27 -0.09,-0.63 0.19,-0.8l4.35,-2.68c0.28,-0.17 0.64,-0.09 0.8,0.19c0.17,0.27 0.09,0.62 -0.19,0.79z" fill="#814627" id="svg_83"/>
   </g>
   <path d="m336.75,553.09c-0.18,0.11 -0.41,0.13 -0.6,0.01c-1.1,-0.65 -2.05,-2.01 -2.9,-3.2c-0.22,-0.32 -0.44,-0.62 -0.64,-0.89c-1.57,-2.08 -3.52,-4.67 -4.58,-7.27c-0.12,-0.3 0.01,-0.64 0.31,-0.76c0.3,-0.12 0.63,0.02 0.75,0.32c1.01,2.46 2.91,4.99 4.44,7.02c0.21,0.27 0.43,0.58 0.67,0.92c0.77,1.1 1.65,2.34 2.54,2.87c0.28,0.16 0.36,0.51 0.2,0.79c-0.05,0.08 -0.11,0.14 -0.19,0.19z" fill="#814627" id="svg_84"/>
   <path d="m355.96,551.71l-1.37,0.85c-0.27,0.17 -0.63,0.08 -0.8,-0.19c-0.16,-0.27 -0.08,-0.62 0.19,-0.79l1.38,-0.85c0.27,-0.17 0.63,-0.09 0.79,0.19c0.17,0.27 0.09,0.62 -0.19,0.79z" fill="#814627" id="svg_85"/>
   <path d="m356.34,553.49c-0.04,0.02 -0.08,0.05 -0.13,0.07c-0.28,0.15 -0.63,0.04 -0.78,-0.24c-0.14,-0.29 -0.04,-0.62 0.25,-0.78c0.16,-0.09 0.31,-0.23 0.48,-0.4c0.1,-0.1 0.2,-0.2 0.31,-0.3c0.24,-0.2 0.61,-0.18 0.81,0.07c0.21,0.24 0.19,0.6 -0.06,0.81c-0.09,0.07 -0.17,0.16 -0.25,0.24c-0.17,0.17 -0.37,0.37 -0.63,0.53z" fill="#814627" id="svg_86"/>
   <path d="m360.36,560.01c-0.16,0.1 -0.32,0.18 -0.46,0.25c-0.29,0.14 -0.63,0.02 -0.77,-0.26c-0.14,-0.29 -0.02,-0.64 0.26,-0.77c0.58,-0.29 1.17,-0.75 1.49,-1.19c0.19,-0.26 0.55,-0.31 0.81,-0.12c0.25,0.19 0.31,0.55 0.12,0.81c-0.39,0.52 -0.95,0.97 -1.45,1.28z" fill="#814627" id="svg_87"/>
   <path d="m348.01,536.75c-0.2,0.13 -0.46,0.12 -0.65,-0.03c-1.31,-1 -2.55,-1.43 -4.04,-1.39c-0.32,0.02 -0.59,-0.23 -0.6,-0.56c-0.01,-0.31 0.24,-0.58 0.56,-0.59c1.75,-0.06 3.27,0.46 4.79,1.62c0.24,0.2 0.29,0.56 0.1,0.81c-0.05,0.06 -0.1,0.11 -0.16,0.14z" fill="#814627" id="svg_88"/>
   <path d="m348.2,540.65c-0.07,0.05 -0.15,0.08 -0.23,0.08c-0.32,0.04 -0.61,-0.18 -0.65,-0.5c-0.01,-0.14 -0.04,-0.28 -0.07,-0.41c-0.07,-0.31 0.12,-0.62 0.43,-0.7c0.31,-0.07 0.62,0.12 0.7,0.43c0.04,0.18 0.07,0.36 0.09,0.54c0.03,0.24 -0.08,0.45 -0.27,0.56z" fill="#814627" id="svg_89"/>
   <path d="m331.7,552.61c-0.25,0.16 -0.58,0.1 -0.76,-0.14c-0.23,-0.31 -0.49,-0.6 -0.74,-0.89c-0.44,-0.51 -0.9,-1.03 -1.26,-1.66c-0.16,-0.28 -0.08,-0.67 0.22,-0.79c0.27,-0.16 0.63,-0.06 0.78,0.21c0.31,0.54 0.71,1 1.13,1.48c0.27,0.31 0.54,0.62 0.79,0.96c0.19,0.25 0.14,0.62 -0.12,0.8c-0.01,0.02 -0.02,0.02 -0.04,0.03z" fill="#814627" id="svg_90"/>
   <path d="m329.24,553.08c-0.01,0 -0.02,0 -0.02,0.01c-0.28,0.15 -0.63,0.05 -0.79,-0.23c-0.12,-0.22 -0.29,-0.43 -0.46,-0.66c-0.08,-0.1 -0.16,-0.19 -0.23,-0.3c-0.19,-0.26 -0.14,-0.62 0.12,-0.81c0.26,-0.19 0.62,-0.13 0.8,0.13c0.07,0.09 0.15,0.18 0.22,0.27c0.19,0.25 0.39,0.51 0.56,0.81c0.15,0.27 0.06,0.61 -0.2,0.78z" fill="#814627" id="svg_91"/>
   <path d="m323.23,554.98c-0.27,0.17 -0.62,0.08 -0.79,-0.19l-0.52,-0.84c-0.17,-0.27 -0.08,-0.63 0.19,-0.79c0.27,-0.17 0.62,-0.09 0.79,0.18l0.52,0.85c0.17,0.27 0.09,0.62 -0.19,0.79z" fill="#814627" id="svg_92"/>
  </g>
  <g id="svg_58" transform="matrix(1 0 0 1 0 0)">
   <path d="m79.5,825.09c-0.19,0 -0.38,-0.1 -0.49,-0.29c-0.16,-0.27 -0.07,-0.62 0.2,-0.78c12.46,-7.49 19.03,-18.88 19.1,-18.99c0.16,-0.28 0.51,-0.38 0.79,-0.22c0.27,0.16 0.37,0.51 0.21,0.79c-0.06,0.11 -6.79,11.77 -19.5,19.4c-0.1,0.06 -0.2,0.09 -0.31,0.09z" fill="#814627" id="svg_59"/>
   <g id="svg_60">
    <path d="m92.32,784.13l-0.01,0l-6.43,-0.07c-0.31,0 -0.57,-0.27 -0.56,-0.58c0,-0.32 0.26,-0.58 0.57,-0.58l0.01,0l5.82,0.07l-0.11,-4.38l-5.78,0.13c-0.31,0.01 -0.58,-0.25 -0.59,-0.56c0,-0.32 0.25,-0.59 0.57,-0.6l6.35,-0.14c0.32,0.01 0.58,0.25 0.59,0.56l0.14,5.56c0.01,0.16 -0.05,0.31 -0.16,0.42c-0.11,0.11 -0.26,0.17 -0.41,0.17z" fill="#814627" id="svg_61"/>
    <path d="m89.07,793.84c-0.14,0 -0.27,0 -0.41,0c-6.69,-0.11 -9.58,-2.45 -9.7,-2.55c-0.12,-0.1 -0.2,-0.24 -0.21,-0.39c-0.02,-0.16 0.03,-0.31 0.14,-0.43l6.27,-7.4c0.21,-0.24 0.57,-0.27 0.82,-0.06c0.24,0.2 0.27,0.57 0.06,0.81l-5.86,6.91c1.04,0.61 3.75,1.88 8.5,1.96c3.51,0.06 6.65,-0.67 9.11,-2.12c-1,-1.23 -3.82,-4.62 -5.66,-6.83c-0.21,-0.24 -0.18,-0.6 0.06,-0.81c0.25,-0.2 0.61,-0.17 0.82,0.07c6.34,7.56 6.34,7.56 6.14,7.98c-0.06,0.13 -0.16,0.23 -0.28,0.28l-0.09,0.06c-2.6,1.65 -5.95,2.52 -9.71,2.52z" fill="#814627" id="svg_62"/>
    <path d="m88.71,829.17c-6.4,0 -9.54,-4.14 -9.67,-4.32c-0.07,-0.1 -0.11,-0.21 -0.11,-0.33l-0.21,-33.57c-0.01,-0.31 0.25,-0.58 0.57,-0.58l0,0c0.32,0 0.58,0.26 0.58,0.58l0.21,33.35c0.59,0.69 3.47,3.71 8.64,3.71c0.08,0 0.15,0 0.23,0c6.11,-0.1 9.25,-2.33 9.93,-3.86l-0.82,-33.4c-0.01,-0.32 0.24,-0.59 0.56,-0.59c0.32,0.01 0.58,0.24 0.59,0.56l0.83,33.52c0,0.08 -0.01,0.15 -0.04,0.22c-0.87,2.27 -4.61,4.6 -11.03,4.7c-0.08,0.01 -0.17,0.01 -0.26,0.01z" fill="#814627" id="svg_63"/>
    <path d="m88.22,796.16c-6.27,0 -8.95,-2.33 -9.06,-2.43c-0.24,-0.22 -0.26,-0.58 -0.05,-0.82c0.22,-0.24 0.58,-0.26 0.82,-0.04l0,0c0.02,0.02 2.76,2.36 9.23,2.12c6.56,-0.24 8.95,-2.02 8.97,-2.04c0.26,-0.2 0.62,-0.15 0.82,0.1c0.19,0.25 0.14,0.62 -0.11,0.81c-0.11,0.08 -2.71,2.03 -9.64,2.28c-0.34,0.02 -0.66,0.02 -0.98,0.02z" fill="#814627" id="svg_64"/>
    <path d="m79.52,809.21c-0.17,0 -0.33,-0.07 -0.45,-0.21c-0.2,-0.25 -0.16,-0.62 0.09,-0.82c6.64,-5.32 12.1,-12.73 12.15,-12.81c0.19,-0.26 0.55,-0.31 0.81,-0.12c0.26,0.18 0.31,0.55 0.12,0.81c-0.05,0.07 -5.6,7.6 -12.36,13.03c-0.11,0.08 -0.23,0.12 -0.36,0.12z" fill="#814627" id="svg_65"/>
    <path d="m88.37,780.9c0,0.46 -0.3,0.84 -0.67,0.84c-0.38,0 -0.68,-0.38 -0.68,-0.84c0,-0.47 0.3,-0.85 0.68,-0.85c0.37,0 0.67,0.38 0.67,0.85z" fill="#814627" id="svg_66"/>
    <path d="m75.48,786c-1.2,0 -2.32,-0.91 -2.71,-1.28c-1.68,-0.28 -2.61,-0.85 -2.88,-1.75c-0.31,-1.09 0.57,-2.14 1,-2.58c-0.06,-1.16 0.15,-1.97 0.62,-2.49c0.35,-0.37 0.83,-0.57 1.39,-0.57c0.65,0 1.33,0.27 1.78,0.5c0.59,-0.97 1.29,-1.46 2.07,-1.46c0.87,0 1.56,0.61 1.95,1.08c0.67,-0.42 1.31,-0.63 1.92,-0.63c1.25,0 2,0.84 2.37,1.39c0.57,-0.17 1.09,-0.25 1.56,-0.25c2.18,0 2.88,1.74 2.94,2.66c0.01,0.05 0,0.11 -0.01,0.17c-0.46,1.98 -1.72,3.07 -3.55,3.07l0,0c-0.91,0 -1.77,-0.27 -2.3,-0.48c-0.69,1.24 -1.58,1.52 -2.24,1.52c-0.66,0 -1.28,-0.29 -1.72,-0.57c-0.59,1.36 -1.49,1.67 -2.19,1.67zm-2.59,-7.52c-0.31,0 -0.45,0.12 -0.53,0.2c-0.15,0.17 -0.4,0.64 -0.3,1.89c0.02,0.18 -0.06,0.36 -0.19,0.48c-0.35,0.3 -1.02,1.09 -0.87,1.6c0.13,0.42 0.9,0.77 2.12,0.96c0.12,0.02 0.24,0.08 0.33,0.16c0.29,0.3 1.24,1.08 2.03,1.08c0.22,0 0.91,0 1.35,-1.62c0.06,-0.2 0.21,-0.35 0.41,-0.4c0.2,-0.06 0.42,0 0.56,0.14c0.22,0.22 0.93,0.77 1.59,0.77c0.58,0 1.06,-0.45 1.44,-1.33c0.06,-0.15 0.18,-0.27 0.33,-0.32c0.15,-0.06 0.32,-0.05 0.46,0.03c0.02,0.01 1.15,0.58 2.31,0.58l0,0c1.26,0 2.05,-0.68 2.4,-2.08c-0.05,-0.34 -0.32,-1.51 -1.78,-1.51c-0.46,0 -1.02,0.12 -1.63,0.34c-0.29,0.1 -0.61,-0.03 -0.73,-0.31c-0.02,-0.05 -0.52,-1.16 -1.57,-1.16c-0.5,0 -1.07,0.24 -1.7,0.72c-0.13,0.1 -0.3,0.14 -0.46,0.11c-0.16,-0.03 -0.3,-0.13 -0.38,-0.27c-0.17,-0.26 -0.76,-1.02 -1.33,-1.02c-0.43,0 -0.9,0.48 -1.33,1.36c-0.08,0.15 -0.21,0.26 -0.37,0.3c-0.16,0.04 -0.34,0.01 -0.48,-0.08c-0.25,-0.17 -1.05,-0.62 -1.68,-0.62z" fill="#814627" id="svg_67"/>
   </g>
   <path d="m87.77,791.46c-0.02,0 -0.05,0 -0.08,-0.01c-1.9,-0.28 -3.39,-0.57 -4.97,-1.18l-0.15,-0.05c-0.3,-0.1 -0.8,-0.27 -0.64,-0.8c0.08,-0.3 0.41,-0.47 0.71,-0.4c0.04,0.01 0.09,0.03 0.13,0.05c0.05,0.02 0.11,0.03 0.17,0.06l0.19,0.06c1.48,0.57 2.91,0.85 4.73,1.12c0.31,0.05 0.53,0.34 0.48,0.66c-0.04,0.28 -0.29,0.49 -0.57,0.49z" fill="#814627" id="svg_68"/>
   <path d="m86.4,788.93c-0.02,0 -0.05,0 -0.07,0c-0.61,-0.07 -1.25,-0.26 -1.85,-0.56c-0.29,-0.14 -0.4,-0.49 -0.26,-0.78c0.15,-0.28 0.49,-0.4 0.78,-0.26c0.47,0.24 0.99,0.4 1.46,0.45c0.32,0.04 0.55,0.32 0.51,0.64c-0.03,0.3 -0.28,0.51 -0.57,0.51z" fill="#814627" id="svg_69"/>
   <path d="m84.16,798.17c-0.02,0 -0.05,0 -0.08,0c-0.19,-0.03 -0.41,-0.05 -0.63,-0.07c-0.79,-0.06 -1.68,-0.12 -2.32,-0.64c-0.25,-0.2 -0.29,-0.56 -0.09,-0.81c0.2,-0.25 0.56,-0.29 0.81,-0.09c0.36,0.29 1.07,0.35 1.69,0.39c0.25,0.02 0.49,0.04 0.71,0.07c0.31,0.05 0.53,0.34 0.48,0.65c-0.04,0.3 -0.29,0.5 -0.57,0.5z" fill="#814627" id="svg_70"/>
   <path d="m82.72,801.21c-0.08,0 -0.16,-0.02 -0.23,-0.05l-0.86,-0.37c-0.3,-0.12 -0.43,-0.46 -0.31,-0.75c0.12,-0.29 0.46,-0.44 0.76,-0.31l0.87,0.36c0.29,0.13 0.43,0.47 0.3,0.76c-0.1,0.22 -0.31,0.36 -0.53,0.36z" fill="#814627" id="svg_71"/>
   <path d="m91.21,825.96c-1.11,0 -2.2,-0.13 -3.24,-0.3c-0.32,-0.05 -0.53,-0.35 -0.48,-0.66c0.05,-0.32 0.35,-0.53 0.66,-0.48c2.56,0.41 4.72,0.48 6.97,-0.47c0.3,-0.12 0.63,0.01 0.76,0.31c0.13,0.29 -0.01,0.63 -0.31,0.75c-1.48,0.63 -2.94,0.85 -4.36,0.85z" fill="#814627" id="svg_72"/>
   <path d="m93.91,823.29c-0.46,0 -0.93,-0.02 -1.38,-0.04c-0.28,-0.02 -0.55,-0.03 -0.81,-0.04c-0.32,-0.01 -0.57,-0.28 -0.56,-0.6c0.01,-0.32 0.29,-0.57 0.6,-0.56c0.27,0.01 0.55,0.02 0.83,0.04c1.24,0.07 2.53,0.13 3.61,-0.34c0.29,-0.13 0.63,0 0.76,0.29s-0.01,0.63 -0.3,0.76c-0.89,0.4 -1.82,0.49 -2.75,0.49z" fill="#814627" id="svg_73"/>
   <path d="m94.3,817.24c-0.63,0 -1.27,-0.03 -1.9,-0.18c-0.31,-0.07 -0.5,-0.38 -0.43,-0.69c0.07,-0.31 0.38,-0.5 0.69,-0.43c0.74,0.17 1.56,0.15 2.36,0.14c0.26,-0.01 0.52,-0.01 0.76,-0.01c0.32,0 0.58,0.26 0.58,0.57s-0.26,0.58 -0.58,0.58c-0.01,0.02 -0.02,0 -0.04,0c-0.23,0 -0.46,0.01 -0.69,0.01c-0.25,0.01 -0.5,0.01 -0.75,0.01z" fill="#814627" id="svg_74"/>
  </g>
  <g id="svg_51" transform="matrix(1 0 0 1 0 0)">
   <path d="m23.64,739.28c-2.39,1.68 -5.43,3.13 -9.03,4.29c-0.25,0.08 -0.52,-0.01 -0.66,-0.23l-7.69,-11.77c-0.4,-0.4 -3.75,-3.6 -6.2,-3.88c-0.26,-0.03 -0.59,-0.06 -0.97,-0.1c-6.49,-0.65 -13.26,-1.72 -14.2,-4.68c-0.27,-0.84 -0.01,-1.58 0.73,-2.1c1.68,-1.18 5.81,-1.08 7.96,-0.93c-1.79,-2.42 -6.23,-8.44 -7.73,-10.58c-1.84,-2.63 -2.85,-4.6 -1.75,-5.72c0.08,-0.08 0.16,-0.16 0.26,-0.23c1.4,-0.98 3.54,0.23 6.96,3.9c2.74,2.95 4.02,4.26 4.57,4.8l0.07,-0.07l-6.9,-9.36c-0.16,-0.17 -1.8,-2.09 -1.65,-3.82c0.05,-0.62 0.34,-1.17 0.82,-1.57c2.32,-1.87 4.52,0.85 6.85,3.72c1.89,2.33 4.55,6.13 5.52,7.54l0.29,-0.27l-4.78,-6.64c-0.37,-0.42 -3.91,-4.49 -2.02,-6.43c0.11,-0.11 0.23,-0.21 0.34,-0.29c2,-1.4 4.36,1.22 6.62,4.26c0.57,0.76 1.17,1.57 1.74,2.34l-1.33,-2.09c-0.93,-1.22 -2.11,-3.7 -0.44,-5.04c0.51,-0.4 1.04,-0.55 1.57,-0.45c1.18,0.23 2.09,1.61 3.24,3.36c0.28,0.43 0.58,0.88 0.89,1.32c2.16,3.13 5.1,7.71 7.47,11.68c2.34,3.91 3.48,6.98 3.72,7.67l11.74,11.02c0.1,0.09 0.16,0.22 0.18,0.35c0.02,0.21 0.54,5.27 -6.19,10zm-8.97,3.06c3.31,-1.11 6.11,-2.45 8.31,-4c5.47,-3.85 5.73,-7.8 5.71,-8.73l-11.67,-10.95c-0.07,-0.07 -0.12,-0.15 -0.15,-0.24c-0.01,-0.04 -1.14,-3.34 -3.67,-7.58c-2.36,-3.96 -5.28,-8.51 -7.43,-11.62c-0.31,-0.45 -0.61,-0.91 -0.9,-1.34c-0.92,-1.4 -1.79,-2.73 -2.49,-2.86c-0.11,-0.02 -0.29,-0.03 -0.55,0.16l-0.08,0.06c-1.21,0.96 0.64,3.44 0.66,3.47l3.95,6.25c0.14,0.22 0.11,0.5 -0.05,0.69l-0.56,0.64c-0.12,0.13 -0.29,0.21 -0.46,0.2c-0.18,-0.01 -0.34,-0.1 -0.45,-0.24c0,0 -2.53,-3.5 -4.71,-6.44c-0.91,-1.23 -3.68,-4.95 -5.03,-4c-0.06,0.04 -0.13,0.09 -0.18,0.15c-0.9,0.92 1.02,3.7 2.09,4.9l5.12,7.11c0.18,0.24 0.14,0.56 -0.08,0.76l-1.16,1.06c-0.12,0.11 -0.29,0.17 -0.45,0.15c-0.17,-0.02 -0.32,-0.12 -0.41,-0.25c-0.04,-0.05 -3.54,-5.16 -5.85,-8.02c-2.39,-2.95 -3.89,-4.61 -5.21,-3.54c-0.26,0.21 -0.39,0.45 -0.41,0.77c-0.09,1.07 0.98,2.53 1.39,3l7.26,9.82c0.18,0.25 0.14,0.59 -0.08,0.78l-0.88,0.77c-0.21,0.19 -0.54,0.19 -0.76,0c-0.03,-0.03 -0.92,-0.82 -5.01,-5.22c-3.95,-4.26 -5.17,-3.94 -5.45,-3.75c-0.04,0.03 -0.08,0.06 -0.11,0.09c-0.29,0.31 -0.21,1.28 1.88,4.25c1.88,2.68 8.4,11.5 8.46,11.58c0.14,0.19 0.15,0.44 0.04,0.64c-0.11,0.2 -0.33,0.31 -0.56,0.28c-1.83,-0.19 -6.91,-0.47 -8.46,0.61c-0.37,0.27 -0.38,0.52 -0.29,0.81c0.84,2.64 10.16,3.57 13.22,3.89c0.39,0.03 0.72,0.07 0.98,0.1c3,0.34 6.77,4.09 6.93,4.25c0.03,0.02 0.06,0.06 0.08,0.09l7.47,11.45z" fill="#814627" id="svg_52"/>
   <path d="m21.9,738.37c-1.98,1.39 -4.55,2.72 -7.87,3.82c-0.31,0.1 -0.63,-0.06 -0.73,-0.36c-0.1,-0.31 0.06,-0.63 0.36,-0.73c6.86,-2.28 10.25,-5.58 11.88,-7.95c1.77,-2.55 1.93,-4.6 1.93,-4.62c0.02,-0.32 0.3,-0.56 0.62,-0.54c0.31,0.02 0.56,0.3 0.53,0.61c-0.01,0.28 -0.43,5.34 -6.72,9.77z" fill="#814627" id="svg_53"/>
   <path d="m11.45,725.86c-0.31,0.22 -0.63,0.4 -0.98,0.51c-0.3,0.09 -0.62,-0.08 -0.72,-0.38c-0.09,-0.31 0.08,-0.63 0.38,-0.73c0.47,-0.14 0.94,-0.55 1.4,-0.95c0.15,-0.12 0.28,-0.24 0.42,-0.35c1.2,-0.97 2.24,-2.05 3.1,-2.99c0.22,-0.23 0.58,-0.24 0.82,-0.03c0.23,0.21 0.25,0.58 0.03,0.81c-0.83,0.91 -1.96,2.09 -3.23,3.11c-0.12,0.1 -0.25,0.21 -0.39,0.33c-0.26,0.22 -0.53,0.46 -0.83,0.67z" fill="#814627" id="svg_54"/>
   <path d="m16.34,724.5c-0.05,0.04 -0.1,0.07 -0.15,0.1c-0.27,0.17 -0.63,0.08 -0.79,-0.19c-0.17,-0.27 -0.09,-0.63 0.19,-0.79c0.39,-0.24 0.75,-0.67 0.85,-1.01c0.09,-0.31 0.42,-0.48 0.72,-0.39c0.31,0.1 0.48,0.42 0.39,0.72c-0.2,0.64 -0.73,1.22 -1.21,1.56z" fill="#814627" id="svg_55"/>
   <path d="m7.69,716.02c-1.62,1.14 -4.64,1.52 -6.37,1.09c-0.31,-0.07 -0.5,-0.39 -0.42,-0.7c0.08,-0.31 0.39,-0.5 0.7,-0.42c1.47,0.37 4.29,0.01 5.56,-1.01c0.25,-0.2 0.61,-0.15 0.81,0.1c0.2,0.25 0.15,0.61 -0.1,0.81c-0.05,0.04 -0.11,0.09 -0.18,0.13z" fill="#814627" id="svg_56"/>
   <path d="m20.35,735.02c-2,1.41 -4.18,2.72 -6.81,2.33c-0.32,-0.05 -0.54,-0.34 -0.49,-0.65c0.05,-0.32 0.34,-0.54 0.66,-0.49c2.25,0.34 4.2,-0.91 6.07,-2.21l0.01,0c0.25,-0.18 0.61,-0.12 0.8,0.14c0.18,0.26 0.12,0.62 -0.14,0.81c-0.03,0.02 -0.07,0.04 -0.1,0.07z" fill="#814627" id="svg_57"/>
  </g>
  <g id="아이콘4" transform="matrix(1 0 0 1 0 0)">
   <g id="svg_24">
    <g id="svg_25">
     <path d="m304.44,721.65c-0.17,0.02 -0.34,-0.03 -0.48,-0.16c-0.22,-0.23 -0.22,-0.6 0.01,-0.82l4.79,-4.79l-4.92,4.53c-0.23,0.22 -0.6,0.2 -0.81,-0.03c-0.22,-0.24 -0.21,-0.6 0.03,-0.82l7.05,-6.48c0.23,-0.21 0.58,-0.21 0.8,0.01l0.73,0.73c0.11,0.11 0.17,0.26 0.17,0.41c0,0.15 -0.06,0.3 -0.17,0.41l-6.86,6.84c-0.09,0.1 -0.21,0.16 -0.34,0.17z" fill="#814627" id="svg_26"/>
     <path d="m306.21,723.59c-0.17,0.02 -0.35,-0.04 -0.48,-0.17c-0.23,-0.23 -0.23,-0.59 0,-0.82l4.84,-4.83l-4.97,4.57c-0.23,0.22 -0.6,0.2 -0.81,-0.03c-0.22,-0.23 -0.2,-0.6 0.03,-0.82l7.05,-6.48c0.23,-0.21 0.58,-0.2 0.8,0.01l0.73,0.74c0.11,0.11 0.17,0.25 0.17,0.41s-0.06,0.3 -0.17,0.41l-6.85,6.84c-0.1,0.1 -0.22,0.15 -0.34,0.17z" fill="#814627" id="svg_27"/>
     <path d="m307.97,725.52c-0.17,0.02 -0.35,-0.04 -0.48,-0.16c-0.23,-0.23 -0.22,-0.59 0,-0.82l4.81,-4.8l-4.94,4.54c-0.23,0.22 -0.6,0.2 -0.81,-0.03c-0.22,-0.24 -0.2,-0.6 0.03,-0.82l7.05,-6.49c0.23,-0.2 0.58,-0.19 0.8,0.02l0.74,0.73c0.1,0.11 0.17,0.26 0.17,0.41c0,0.15 -0.06,0.3 -0.17,0.41l-6.86,6.85c-0.1,0.09 -0.22,0.15 -0.34,0.16z" fill="#814627" id="svg_28"/>
     <path d="m309.73,727.46c-0.17,0.02 -0.34,-0.04 -0.48,-0.17c-0.22,-0.23 -0.22,-0.59 0,-0.81l4.86,-4.85l-4.99,4.59c-0.23,0.21 -0.59,0.19 -0.81,-0.04c-0.22,-0.23 -0.2,-0.6 0.03,-0.82l7.06,-6.48c0.22,-0.21 0.58,-0.2 0.8,0.02l0.73,0.73c0.11,0.11 0.17,0.25 0.17,0.41c0,0.15 -0.06,0.3 -0.17,0.4l-6.86,6.85c-0.09,0.09 -0.22,0.15 -0.34,0.17z" fill="#814627" id="svg_29"/>
     <path d="m311.49,729.39c-0.17,0.02 -0.34,-0.03 -0.48,-0.16c-0.22,-0.23 -0.22,-0.6 0.01,-0.82l4.79,-4.79l-4.92,4.53c-0.24,0.22 -0.6,0.2 -0.82,-0.03c-0.21,-0.23 -0.2,-0.6 0.04,-0.82l7.05,-6.48c0.22,-0.21 0.58,-0.2 0.8,0.01l0.73,0.73c0.11,0.11 0.17,0.26 0.17,0.41c0,0.15 -0.06,0.3 -0.17,0.41l-6.86,6.85c-0.09,0.09 -0.21,0.15 -0.34,0.16z" fill="#814627" id="svg_30"/>
     <path d="m313.25,731.33c-0.17,0.02 -0.34,-0.04 -0.47,-0.17c-0.23,-0.23 -0.23,-0.59 0,-0.82l4.86,-4.85l-4.99,4.6c-0.23,0.21 -0.6,0.2 -0.81,-0.04c-0.22,-0.23 -0.2,-0.59 0.03,-0.81l7.05,-6.49c0.23,-0.21 0.58,-0.2 0.8,0.01l0.73,0.74c0.23,0.23 0.23,0.59 0,0.82l-6.85,6.84c-0.1,0.1 -0.22,0.15 -0.35,0.17z" fill="#814627" id="svg_31"/>
     <path d="m315.02,733.26c-0.17,0.02 -0.35,-0.03 -0.48,-0.16c-0.22,-0.23 -0.22,-0.59 0,-0.82l4.83,-4.82l-4.96,4.56c-0.23,0.22 -0.6,0.2 -0.81,-0.03c-0.22,-0.23 -0.2,-0.6 0.03,-0.82l7.05,-6.48c0.23,-0.21 0.58,-0.2 0.8,0.01l0.74,0.73c0.1,0.11 0.17,0.26 0.17,0.42c0,0.15 -0.06,0.29 -0.17,0.4l-6.86,6.85c-0.1,0.09 -0.22,0.15 -0.34,0.16z" fill="#814627" id="svg_32"/>
     <path d="m316.78,735.2c-0.17,0.02 -0.35,-0.04 -0.48,-0.17c-0.22,-0.23 -0.22,-0.59 0,-0.82l4.85,-4.83l-4.98,4.58c-0.23,0.22 -0.6,0.2 -0.81,-0.04c-0.22,-0.23 -0.2,-0.6 0.03,-0.81l7.06,-6.49c0.23,-0.21 0.58,-0.2 0.79,0.02l0.74,0.73c0.11,0.11 0.17,0.26 0.17,0.41c0,0.15 -0.06,0.3 -0.17,0.41l-6.86,6.84c-0.09,0.1 -0.22,0.15 -0.34,0.17z" fill="#814627" id="svg_33"/>
     <path d="m318.71,737.32c-0.17,0.02 -0.35,-0.04 -0.48,-0.17c-0.22,-0.23 -0.22,-0.59 0,-0.82l4.84,-4.83l-4.97,4.58c-0.23,0.21 -0.6,0.19 -0.81,-0.04c-0.22,-0.23 -0.2,-0.6 0.03,-0.81l7.05,-6.49c0.23,-0.21 0.58,-0.2 0.8,0.01l0.74,0.74c0.11,0.1 0.17,0.25 0.17,0.4c0,0.16 -0.06,0.31 -0.17,0.41l-6.86,6.85c-0.1,0.1 -0.22,0.15 -0.34,0.17z" fill="#814627" id="svg_34"/>
    </g>
    <path d="m337.26,765.18c-0.17,0.02 -0.35,-0.04 -0.48,-0.18l-15.43,-16.21c-0.13,-0.16 -8.72,-11.48 -15.01,-10.76c-0.22,0.03 -0.45,0.07 -0.66,0.12c-0.28,0.08 -0.57,-0.06 -0.68,-0.32l-6.78,-15.74c-0.12,-0.29 0,-0.61 0.28,-0.75l4.36,-2.1c0.23,-0.11 0.51,-0.06 0.68,0.14l21.23,23.68c0.12,0.13 0.17,0.31 0.14,0.49l-0.61,3.35l13.36,17.35c0.18,0.25 0.15,0.6 -0.09,0.79c-0.09,0.08 -0.19,0.12 -0.31,0.14zm-31.05,-28.3c6.94,-0.8 15.65,10.68 16.02,11.17l7.8,8.19l-6.8,-8.84c-0.1,-0.13 -0.14,-0.3 -0.11,-0.46l0.6,-3.32l-20.75,-23.15l-3.47,1.67l6.37,14.79c0.11,-0.02 0.23,-0.03 0.34,-0.05z" fill="#814627" id="svg_35"/>
    <path d="m296.59,741.42c-0.24,0.03 -0.48,-0.1 -0.59,-0.34l-7.01,-15.99c-0.07,-0.15 -0.07,-0.32 0,-0.47c0.07,-0.15 0.2,-0.27 0.35,-0.32l9.12,-2.82c0.3,-0.1 0.63,0.08 0.72,0.38c0.1,0.31 -0.07,0.63 -0.38,0.72l-8.5,2.64l6.54,14.9l8.49,-3.07c0.3,-0.1 0.63,0.05 0.74,0.35c0.11,0.3 -0.05,0.64 -0.35,0.74l-8.99,3.25c-0.05,0.02 -0.09,0.03 -0.14,0.03z" fill="#814627" id="svg_36"/>
    <path d="m290.4,726.7c-0.27,0.03 -0.53,-0.13 -0.62,-0.4c-0.1,-0.31 0.07,-0.63 0.37,-0.73l8.77,-2.84c0.3,-0.1 0.63,0.06 0.73,0.37c0.1,0.3 -0.07,0.63 -0.37,0.73l-8.77,2.84c-0.04,0.01 -0.08,0.02 -0.11,0.03z" fill="#814627" id="svg_37"/>
    <path d="m291,728.01c-0.27,0.03 -0.53,-0.12 -0.61,-0.39c-0.11,-0.3 0.06,-0.63 0.36,-0.73l8.84,-2.9c0.3,-0.11 0.63,0.06 0.73,0.36c0.1,0.3 -0.07,0.63 -0.37,0.73l-8.83,2.91c-0.04,0.01 -0.08,0.02 -0.12,0.02z" fill="#814627" id="svg_38"/>
    <path d="m291.56,729.58c-0.27,0.03 -0.53,-0.13 -0.62,-0.39c-0.1,-0.3 0.06,-0.63 0.36,-0.73l8.89,-3.02c0.3,-0.1 0.63,0.06 0.73,0.36c0.1,0.31 -0.06,0.64 -0.36,0.74l-8.89,3.01c-0.04,0.01 -0.08,0.02 -0.11,0.03z" fill="#814627" id="svg_39"/>
    <path d="m292.16,730.76c-0.26,0.03 -0.52,-0.12 -0.61,-0.39c-0.1,-0.3 0.06,-0.63 0.36,-0.73l8.7,-2.91c0.31,-0.11 0.64,0.06 0.74,0.37c0.1,0.29 -0.07,0.62 -0.37,0.72l-8.7,2.91c-0.04,0.02 -0.08,0.03 -0.12,0.03z" fill="#814627" id="svg_40"/>
    <path d="m292.76,732.29c-0.27,0.03 -0.53,-0.12 -0.62,-0.38c-0.1,-0.31 0.06,-0.63 0.36,-0.74l8.96,-3.07c0.3,-0.11 0.63,0.06 0.73,0.36c0.1,0.29 -0.06,0.62 -0.36,0.73l-8.95,3.08c-0.04,0.01 -0.08,0.02 -0.12,0.02z" fill="#814627" id="svg_41"/>
    <path d="m293.68,734.19c-0.25,0.03 -0.51,-0.12 -0.6,-0.37c-0.12,-0.3 0.03,-0.63 0.33,-0.74l8.55,-3.24c0.29,-0.12 0.63,0.04 0.74,0.33c0.11,0.3 -0.04,0.63 -0.34,0.75l-8.54,3.24c-0.05,0.01 -0.09,0.02 -0.14,0.03z" fill="#814627" id="svg_42"/>
    <path d="m294.27,735.72c-0.25,0.03 -0.51,-0.12 -0.6,-0.36c-0.12,-0.31 0.03,-0.64 0.33,-0.75l8.65,-3.34c0.3,-0.12 0.63,0.03 0.75,0.33c0.11,0.3 -0.04,0.63 -0.33,0.75l-8.66,3.34c-0.04,0.01 -0.09,0.03 -0.14,0.03z" fill="#814627" id="svg_43"/>
    <path d="m294.91,737.15c-0.25,0.03 -0.51,-0.12 -0.61,-0.36c-0.12,-0.3 0.03,-0.63 0.33,-0.75l8.76,-3.51c0.3,-0.12 0.63,0.03 0.75,0.32c0.12,0.3 -0.03,0.64 -0.32,0.76l-8.76,3.5c-0.05,0.02 -0.1,0.03 -0.15,0.04z" fill="#814627" id="svg_44"/>
    <path d="m295.78,738.62c-0.25,0.03 -0.49,-0.11 -0.59,-0.35c-0.13,-0.3 0.01,-0.63 0.3,-0.76l8.31,-3.49c0.29,-0.12 0.63,0.02 0.76,0.31c0.12,0.3 -0.02,0.64 -0.31,0.76l-8.31,3.49c-0.05,0.02 -0.11,0.03 -0.16,0.04z" fill="#814627" id="svg_45"/>
    <path d="m296.31,740.01c-0.25,0.03 -0.5,-0.11 -0.6,-0.36c-0.12,-0.3 0.03,-0.64 0.33,-0.75l8.44,-3.28c0.29,-0.11 0.63,0.03 0.74,0.33c0.12,0.3 -0.03,0.63 -0.33,0.75l-8.44,3.28c-0.04,0.01 -0.09,0.02 -0.14,0.03z" fill="#814627" id="svg_46"/>
   </g>
   <path d="m321.96,743.83c-0.15,0.01 -0.3,-0.03 -0.43,-0.13c-1.66,-1.34 -3.19,-2.86 -4.54,-4.51c-0.2,-0.24 -0.16,-0.61 0.09,-0.81c0.24,-0.2 0.61,-0.17 0.81,0.08c1.29,1.59 2.76,3.05 4.37,4.34c0.24,0.2 0.28,0.57 0.08,0.82c-0.1,0.12 -0.24,0.19 -0.38,0.21z" fill="#814627" id="svg_47"/>
   <path d="m315.62,737.48c-0.08,0.01 -0.17,0 -0.25,-0.03c-0.44,-0.15 -0.72,-0.5 -0.97,-0.8c-0.09,-0.11 -0.18,-0.23 -0.29,-0.33c-0.23,-0.22 -0.23,-0.58 -0.01,-0.81c0.22,-0.23 0.59,-0.24 0.81,-0.02c0.14,0.14 0.26,0.28 0.38,0.42c0.17,0.2 0.33,0.4 0.46,0.45c0.3,0.1 0.46,0.43 0.35,0.73c-0.07,0.22 -0.27,0.36 -0.48,0.39z" fill="#814627" id="svg_48"/>
   <path d="m307.25,734.69c-0.24,0.03 -0.47,-0.1 -0.58,-0.32c-0.63,-1.29 -1.18,-2.34 -1.72,-3.29c-0.15,-0.28 -0.06,-0.63 0.22,-0.79s0.63,-0.06 0.79,0.22c0.55,0.98 1.11,2.04 1.75,3.35c0.14,0.29 0.02,0.63 -0.27,0.77c-0.06,0.03 -0.12,0.05 -0.19,0.06z" fill="#814627" id="svg_49"/>
  </g>
  <g id="아이콘1">
   <path d="m232.52,608.72c-0.2,0.05 -0.4,-0.01 -0.55,-0.14c-0.15,-0.13 -1.38,-1.07 -2.82,-2.14c-5.06,-3.81 -14.48,-10.88 -15.93,-12.47c-1.86,-2.03 -2.68,-6.93 -2.82,-7.84l-6.56,-9.31c-0.9,0.05 -3.25,-0.03 -5.16,-1.96c-2.37,-2.38 -2.06,-5.44 -2.04,-5.57c1.62,-10.96 2.54,-11.33 2.84,-11.45c0.03,-0.01 0.13,-0.04 0.15,-0.05c0.3,-0.08 0.61,-0.02 0.85,0.17c0.68,0.51 0.75,1.94 0.76,2.37l-0.27,3.83c3.52,-0.47 6.75,1.74 7.87,5.49c0.85,2.86 -0.82,5.07 -2.13,6.11l5.76,8.12c0.69,0.34 3.58,1.91 6.57,5.88c3.35,4.45 13.43,17.59 13.77,18.02c0.01,0.02 0.03,0.03 0.04,0.05c0.1,0.16 0.13,0.36 0.06,0.53c-0.06,0.18 -0.21,0.31 -0.39,0.36zm-32.63,-49.64c-0.55,1.24 -1.47,6.02 -2.11,10.36c0,0 -0.25,2.63 1.72,4.6c1.96,1.98 4.5,1.61 4.53,1.6c0.22,-0.03 0.44,0.06 0.56,0.24l6.83,9.7c0.06,0.07 0.09,0.16 0.1,0.25c0.01,0.05 0.78,5.43 2.55,7.36c1.33,1.45 10.38,8.27 15.22,11.91c-3.36,-4.39 -9.02,-11.79 -11.17,-14.65c-3.16,-4.18 -6.24,-5.57 -6.27,-5.58c-0.09,-0.04 -0.18,-0.11 -0.24,-0.19l-6.18,-8.73c-0.09,-0.12 -0.13,-0.29 -0.09,-0.45c0.03,-0.15 0.12,-0.29 0.26,-0.37c0.13,-0.08 3.08,-1.95 2.13,-5.15c-1.03,-3.47 -4.01,-5.34 -7.26,-4.55c-0.18,0.05 -0.37,0 -0.51,-0.12c-0.14,-0.12 -0.21,-0.3 -0.2,-0.48l0.32,-4.53c-0.01,-0.42 -0.09,-0.93 -0.19,-1.22z" fill="#814627" id="svg_18"/>
   <path d="m204,574.78c-1.92,0.51 -3.63,-0.2 -4.81,-2c-0.94,-1.41 -1.29,-2.91 -0.99,-4.22c0.25,-1.08 0.9,-1.96 1.9,-2.55c0.06,-0.03 0.27,-0.12 0.62,-0.22c0.99,-0.26 3.51,-0.58 5.47,2.01c1.27,1.67 1.28,3.04 1.07,3.91c-0.34,1.37 -1.41,2.3 -2.3,2.72c-0.32,0.15 -0.64,0.27 -0.96,0.35zm-2.98,-7.87c-0.23,0.06 -0.37,0.12 -0.39,0.13c-0.66,0.39 -1.13,1.02 -1.3,1.77c-0.23,1 0.06,2.18 0.81,3.33c0.92,1.39 2.12,1.9 3.56,1.53c0.26,-0.07 0.51,-0.16 0.77,-0.29c0.62,-0.28 1.43,-0.97 1.67,-1.95c0.22,-0.9 -0.07,-1.89 -0.86,-2.93c-1.49,-1.97 -3.31,-1.84 -4.26,-1.59z" fill="#814627" id="svg_19"/>
   <path d="m213.39,593.85c-0.16,0.04 -0.34,0.01 -0.49,-0.09c-3.32,-2.41 -4.18,-4.32 -4.41,-5.09l-8.61,-3.95c-1.86,1.75 -4.78,2.32 -6.95,1.3c-1.39,-0.65 -3.68,-2.53 -4.28,-5.08c-0.39,-1.63 0,-3.24 1.13,-4.68c2.87,-3.65 6.57,-2.18 7.62,-1.65c0.54,-0.24 1.67,-0.6 2.43,0c0.63,0.49 1.56,1.63 1,3.71c0.28,0.51 0.74,1.72 0.37,3.82l8.58,4l0.43,-0.49c0.22,-0.24 0.58,-0.26 0.82,-0.05c0.24,0.21 0.26,0.58 0.05,0.82l-0.72,0.81c-0.17,0.19 -0.45,0.24 -0.68,0.14l-9.38,-4.37c-0.25,-0.12 -0.38,-0.39 -0.32,-0.65c0.55,-2.5 -0.23,-3.57 -0.24,-3.59c-0.11,-0.14 -0.15,-0.35 -0.1,-0.53c0.49,-1.51 -0.01,-2.31 -0.53,-2.72c-0.25,-0.2 -1.01,0.02 -1.45,0.25c-0.18,0.1 -0.41,0.09 -0.58,-0.01c-0.15,-0.1 -3.67,-2.23 -6.39,1.23c-0.92,1.16 -1.23,2.4 -0.92,3.69c0.51,2.13 2.51,3.78 3.65,4.31c2.04,0.95 4.61,0.06 5.92,-1.35c0.17,-0.18 0.43,-0.23 0.66,-0.13l9.23,4.24c0.19,0.09 0.31,0.26 0.34,0.46c0,0.01 0.32,1.95 4.01,4.62c0.26,0.19 0.31,0.55 0.13,0.81c-0.09,0.11 -0.2,0.18 -0.32,0.22z" fill="#814627" id="svg_20"/>
   <path d="m196.27,584.94c-1.3,0.34 -3.28,0.21 -5.32,-2.37c-0.86,-1.07 -1.54,-3.58 0.28,-5.71c0.06,-0.07 0.99,-1 2.36,-1.36c1.08,-0.28 2.73,-0.27 4.36,1.4c1.89,1.92 2.02,3.59 1.8,4.65c-0.28,1.39 -1.34,2.55 -2.9,3.2c-0.2,0.08 -0.39,0.14 -0.58,0.19zm-2.39,-8.32c-1.05,0.27 -1.79,1.01 -1.8,1.02c-1.4,1.63 -0.76,3.55 -0.23,4.21c1.33,1.68 2.72,2.34 4.13,1.97c0.14,-0.04 0.28,-0.08 0.43,-0.14c1.2,-0.5 2,-1.36 2.21,-2.37c0.23,-1.12 -0.28,-2.37 -1.49,-3.6c-1,-1.03 -2.1,-1.39 -3.25,-1.09z" fill="#814627" id="svg_21"/>
   <path d="m213.19,590.41c0.38,0.33 0.96,0.3 1.29,-0.08c0.33,-0.37 0.3,-0.95 -0.08,-1.29c-0.37,-0.33 -0.95,-0.3 -1.29,0.08c-0.33,0.38 -0.3,0.95 0.08,1.29z" fill="#814627" id="svg_22"/>
   <path d="m231.22,607.43c-0.2,0.05 -0.41,0 -0.56,-0.15l-14.35,-14.85l-1.65,1.91c-0.21,0.24 -0.57,0.27 -0.81,0.06c-0.25,-0.21 -0.27,-0.57 -0.06,-0.81l2.06,-2.4c0.1,-0.12 0.25,-0.19 0.42,-0.19c0.16,-0.01 0.32,0.05 0.43,0.17l14.78,15.3c0.22,0.23 0.22,0.6 -0.01,0.82c-0.07,0.07 -0.16,0.12 -0.25,0.14z" fill="#814627" id="svg_23"/>
  </g>
  <g id="아이콘2" transform="matrix(1 0 0 1 0 0)">
   <path d="m207.69,776.81c-0.05,0.02 -0.1,0.03 -0.16,0.03l-1.69,0.16c-0.28,0.02 -0.53,-0.15 -0.61,-0.42c-1.01,-3.68 -4.31,-11.06 -5.2,-13.05l-3.59,1.43c-0.3,0.12 -0.64,-0.03 -0.75,-0.32l-2,-5.06c-0.06,-0.14 -0.06,-0.3 0,-0.44c0.07,-0.15 0.17,-0.27 0.33,-0.31l13.51,-5.1c0.11,-0.03 8.61,-2.83 13.49,4.03c0.1,0.14 0.13,0.32 0.09,0.49c-0.05,0.17 -0.17,0.31 -0.33,0.38l-3.59,1.53l1.32,3.36c0.12,0.29 -0.02,0.63 -0.32,0.74c-0.3,0.12 -0.63,-0.02 -0.75,-0.32l-1.53,-3.87c-0.12,-0.29 0.02,-0.62 0.31,-0.74l3.43,-1.47c-4.45,-5.43 -11.65,-3.06 -11.73,-3.04l-12.95,4.88l1.58,3.97l3.56,-1.41c0.28,-0.11 0.61,0.02 0.74,0.3c0.17,0.37 4.02,8.77 5.36,13.24l0.68,-0.05c-0.06,-1.55 -0.4,-6.31 -2.36,-11.78c-0.06,-0.15 -0.05,-0.31 0.02,-0.44c0.07,-0.14 0.19,-0.24 0.34,-0.3l6.78,-2.23c0.29,-0.1 0.6,0.05 0.71,0.33l1.72,4.33c0.11,0.3 -0.03,0.63 -0.33,0.75c-0.29,0.11 -0.63,-0.03 -0.75,-0.33l-1.51,-3.81l-5.7,1.87c2.25,6.59 2.25,11.91 2.25,12.14c-0.01,0.23 -0.15,0.44 -0.37,0.53z" fill="#814627" id="svg_8"/>
   <path d="m200.3,763.23c-0.3,0.12 -0.63,-0.03 -0.75,-0.32l-1.78,-4.5c-0.12,-0.29 0.03,-0.63 0.32,-0.75s0.64,0.03 0.75,0.33l1.78,4.49c0.12,0.3 -0.02,0.64 -0.32,0.75z" fill="#814627" id="svg_9"/>
   <path d="m207,763.57c-0.3,0.12 -0.64,-0.03 -0.75,-0.32l-2.83,-7.14c-0.11,-0.29 0.03,-0.63 0.33,-0.75c0.29,-0.11 0.63,0.03 0.75,0.33l2.82,7.13c0.12,0.3 -0.03,0.63 -0.32,0.75z" fill="#814627" id="svg_10"/>
   <path d="m220.7,768.47l-6.07,2.4c-0.29,0.12 -0.63,-0.02 -0.75,-0.32l-1.67,-4.21c-0.12,-0.3 0.03,-0.64 0.33,-0.75l6.06,-2.41c0.3,-0.11 0.63,0.03 0.75,0.33l1.67,4.21c0.12,0.3 -0.03,0.63 -0.32,0.75zm-5.96,1.12l4.99,-1.98l-1.24,-3.14l-4.99,1.98l1.24,3.14z" fill="#814627" id="svg_11"/>
   <path d="m229.73,798.49c-2.14,0.84 -8.31,2.67 -12.32,-2.38c-3.47,-4.37 -3.6,-9.18 -2.65,-16.01c0.82,-5.92 -0.84,-9.48 -0.86,-9.51c-0.14,-0.29 -0.02,-0.64 0.27,-0.77c0.3,-0.14 0.63,-0.02 0.77,0.27c0.08,0.15 1.84,3.88 0.96,10.17c-0.9,6.52 -0.8,11.08 2.41,15.13c3.67,4.61 9.5,2.65 11.21,1.93c2.42,-1 7,-5.26 4.9,-11.35c-1.87,-5.43 -4.99,-7.79 -7.06,-9.35c-0.23,-0.18 -0.46,-0.34 -0.66,-0.5c-2.46,-1.94 -5.53,-5.05 -6.75,-7.96c-0.12,-0.3 0.02,-0.64 0.31,-0.76c0,0 0.01,0 0.01,-0.01c0.29,-0.11 0.62,0.03 0.75,0.32c1.13,2.71 4.05,5.65 6.39,7.5c0.2,0.15 0.42,0.31 0.65,0.49c2.05,1.54 5.47,4.13 7.45,9.89c2.15,6.26 -2.04,11.34 -5.54,12.8c-0.08,0.03 -0.15,0.06 -0.24,0.1z" fill="#814627" id="svg_12"/>
   <path d="m213.17,758.98c-0.92,0.36 -1.95,-0.09 -2.32,-1s0.09,-1.95 1,-2.32c0.92,-0.36 1.96,0.09 2.32,1s-0.09,1.96 -1,2.32zm-0.89,-2.25c-0.33,0.13 -0.48,0.5 -0.35,0.82c0.12,0.32 0.49,0.48 0.81,0.35c0.32,-0.12 0.48,-0.49 0.35,-0.82c-0.12,-0.32 -0.49,-0.47 -0.81,-0.35z" fill="#814627" id="svg_13"/>
   <path d="m231.94,787.02c-0.05,0.02 -0.11,0.03 -0.17,0.04c-0.31,0.02 -0.59,-0.22 -0.61,-0.54c-0.03,-0.41 -0.32,-0.94 -0.57,-1.41c-0.12,-0.21 -0.23,-0.42 -0.32,-0.61c-0.34,-0.71 -0.76,-1.43 -1.25,-2.15c-1.3,-1.89 -2.67,-3.34 -4.32,-4.58c-0.26,-0.19 -0.31,-0.56 -0.12,-0.81c0.19,-0.26 0.56,-0.3 0.81,-0.12c1.76,1.32 3.21,2.86 4.58,4.86c0.53,0.76 0.98,1.54 1.34,2.31c0.08,0.17 0.18,0.36 0.29,0.55c0.31,0.57 0.66,1.22 0.71,1.88c0.01,0.26 -0.14,0.49 -0.37,0.58z" fill="#814627" id="svg_14"/>
   <path d="m232.66,789.98c-0.08,0.03 -0.16,0.05 -0.25,0.04c-0.32,-0.02 -0.56,-0.3 -0.54,-0.62c0.01,-0.14 0.01,-0.28 0,-0.43c-0.03,-0.32 0.21,-0.6 0.53,-0.62c0.32,-0.02 0.6,0.22 0.62,0.53c0.01,0.22 0.02,0.41 0.01,0.61c-0.02,0.22 -0.17,0.41 -0.37,0.49z" fill="#814627" id="svg_15"/>
   <path d="m224.63,795.76c-0.04,0.02 -0.08,0.03 -0.12,0.04c-0.54,0.09 -1.12,0.03 -1.71,-0.18c-0.3,-0.11 -0.46,-0.43 -0.35,-0.74c0.1,-0.3 0.43,-0.45 0.73,-0.35c0.41,0.15 0.78,0.19 1.13,0.13c0.32,-0.05 0.62,0.15 0.67,0.47c0.05,0.27 -0.11,0.53 -0.35,0.63z" fill="#814627" id="svg_16"/>
   <path d="m218.13,777.42c-0.08,0.03 -0.17,0.04 -0.27,0.04c-0.31,-0.04 -0.55,-0.32 -0.51,-0.64c0.1,-1.08 -0.13,-2.44 -0.6,-3.48c-0.14,-0.29 -0.01,-0.63 0.28,-0.76c0.26,-0.12 0.64,0 0.77,0.29c0.55,1.2 0.82,2.8 0.7,4.07c-0.03,0.22 -0.17,0.4 -0.37,0.48z" fill="#814627" id="svg_17"/>
  </g>
  <g id="아이콘3">
   <path d="m47.15,580.03c-0.94,-0.57 -1.61,-1.42 -2.01,-2.55c-0.05,-0.15 -0.03,-0.32 0.06,-0.46l8.95,-13.93l1.35,-13.36c0.01,-0.07 0.03,-0.14 0.07,-0.2l8.57,-15.01c0.52,-0.87 1.89,-2.25 3.34,-1.37c0.16,0.09 0.31,0.21 0.45,0.35c0.09,0.08 0.15,0.2 0.16,0.33c0,0.03 0.52,3.99 7.79,8.11c5.3,3.01 7.9,3.99 9.3,4.52c0.58,0.22 0.97,0.36 1.28,0.55l0.11,0.07c1.29,0.87 2.73,2.51 0.49,6.69c-2.17,4.05 -6.93,10.92 -6.98,10.99c-0.08,0.12 -1.85,2.38 -5.89,2.84c-3.54,0.4 -13.02,-0.55 -14.93,-0.75l-8.71,13.65c-0.09,0.13 -0.23,0.22 -0.39,0.24c-0.06,0 -1.58,0.15 -3.01,-0.71zm-0.92,-2.66c0.32,0.77 0.81,1.36 1.47,1.76c0.82,0.49 1.7,0.56 2.11,0.56l8.73,-13.69c0.11,-0.16 0.31,-0.26 0.51,-0.23c0.11,0.01 11.27,1.2 15.02,0.77c3.59,-0.4 5.15,-2.39 5.16,-2.4c0.04,-0.05 4.76,-6.87 6.9,-10.87c2.05,-3.82 0.57,-4.83 -0.15,-5.32c-0.01,0 -0.01,0 -0.01,0c-0.3,-0.18 -0.64,-0.31 -1.16,-0.51c-1.43,-0.54 -4.08,-1.53 -9.45,-4.58c-6.94,-3.94 -8.1,-7.75 -8.28,-8.71c-0.99,-0.8 -2.02,0.89 -2.03,0.91l-8.51,14.89l-1.35,13.37c-0.01,0.08 -0.03,0.16 -0.08,0.24l-8.88,13.81z" fill="#814627" id="svg_2"/>
   <path d="m74.82,546.73c-0.84,-0.51 -1.63,-1.07 -2.41,-1.62l-0.42,-0.29c-2.04,-1.43 -3.53,-2.71 -4.71,-4.02c-0.05,-0.07 -0.13,-0.15 -0.23,-0.25c-1.25,-1.33 -1.94,-2.24 -1.7,-2.96c0.09,-0.28 0.38,-0.43 0.66,-0.34c0.27,0.08 0.43,0.36 0.35,0.64c0.01,0.19 0.27,0.68 1.46,1.94c0.1,0.1 0.19,0.2 0.25,0.26c1.12,1.26 2.56,2.49 4.53,3.87l0.41,0.29c1.11,0.77 2.25,1.58 3.45,2.18c1.63,0.82 3.16,1.4 4.31,1.61c0.29,0.06 0.48,0.33 0.42,0.62c-0.05,0.29 -0.33,0.48 -0.62,0.42c-1.59,-0.3 -3.37,-1.09 -4.58,-1.71c-0.4,-0.2 -0.79,-0.41 -1.17,-0.64z" fill="#814627" id="svg_3"/>
   <path d="m79.51,559.88c0,0 -0.01,-0.01 -0.01,-0.01c-0.25,-0.16 -0.32,-0.49 -0.16,-0.73c1.33,-2.05 2.13,-4.26 2.97,-6.6c0.15,-0.41 0.3,-0.81 0.45,-1.22c0.1,-0.28 0.4,-0.42 0.68,-0.32c0.27,0.1 0.41,0.41 0.31,0.68c-0.15,0.41 -0.3,0.82 -0.44,1.22c-0.83,2.3 -1.69,4.66 -3.08,6.81c-0.16,0.25 -0.48,0.31 -0.72,0.17z" fill="#814627" id="svg_4"/>
   <path d="m77.85,562.75c-0.25,-0.15 -0.33,-0.48 -0.18,-0.73l0.52,-0.86c0.15,-0.25 0.48,-0.33 0.73,-0.18c0.25,0.15 0.33,0.48 0.18,0.73l-0.52,0.86c-0.15,0.25 -0.48,0.33 -0.73,0.18z" fill="#814627" id="svg_5"/>
   <path d="m60.67,564.19c-0.16,-0.1 -0.27,-0.28 -0.26,-0.48c0.03,-0.3 0.28,-0.52 0.57,-0.5c0.39,0.03 0.77,0.07 1.15,0.12c0.56,0.07 1.1,0.14 1.63,0.14c0.3,0 0.53,0.23 0.53,0.52c0.01,0.29 -0.23,0.53 -0.52,0.53c-0.61,0 -1.2,-0.07 -1.76,-0.14c-0.37,-0.05 -0.73,-0.09 -1.1,-0.11c-0.09,-0.01 -0.17,-0.04 -0.24,-0.08z" fill="#814627" id="svg_6"/>
   <path d="m49.88,577.38c-0.25,-0.16 -0.33,-0.48 -0.18,-0.73c0.86,-1.43 1.71,-2.86 2.56,-4.29c0.85,-1.44 1.7,-2.87 2.56,-4.3c0.15,-0.25 0.48,-0.33 0.73,-0.18c0.24,0.15 0.33,0.47 0.18,0.72c-0.86,1.43 -1.71,2.86 -2.56,4.29c-0.85,1.44 -1.7,2.88 -2.56,4.31c-0.15,0.25 -0.48,0.33 -0.73,0.18z" fill="#814627" id="svg_7"/>
  </g>
 </g>
</svg>