<?xml version="1.0" encoding="utf-8"?>
<!-- Generator: Adobe Illustrator 16.0.0, SVG Export Plug-In . SVG Version: 6.00 Build 0)  -->
<!DOCTYPE svg PUBLIC "-//W3C//DTD SVG 1.1//EN" "http://www.w3.org/Graphics/SVG/1.1/DTD/svg11.dtd">
<svg version="1.1" id="Layer_1" xmlns="http://www.w3.org/2000/svg" xmlns:xlink="http://www.w3.org/1999/xlink" x="0px" y="0px"
	 width="49px" height="36px" viewBox="25.5 32 49 36" enable-background="new 25.5 32 49 36" xml:space="preserve">
<path fill="#6D767E" d="M71.158,32.028H28.841c-1.845,0-3.341,1.494-3.341,3.34v29.263c0,1.846,1.496,3.342,3.341,3.342h42.317
	c1.846,0,3.342-1.496,3.342-3.342V35.368C74.5,33.522,73.004,32.028,71.158,32.028z M42.915,38.029c2.12,0,3.839,1.72,3.839,3.839
	c0,2.12-1.72,3.841-3.839,3.841c-2.122,0-3.838-1.72-3.838-3.841C39.077,39.75,40.793,38.029,42.915,38.029z M67.925,60.955
	c-0.337,0.619-0.958,1.014-1.636,1.014H33.71c-0.732,0-1.355-0.395-1.638-1.014c-0.282-0.566-0.225-1.301,0.168-1.865L39.188,50
	c0.338-0.453,0.845-0.733,1.411-0.733c0.564,0,1.071,0.281,1.41,0.733l2.994,4.008l8.073-10.614c0.34-0.453,0.849-0.735,1.413-0.735
	s1.072,0.282,1.413,0.735l11.856,15.694C68.152,59.598,68.21,60.332,67.925,60.955z"/>
</svg>
