<?xml version="1.0"?>
<svg width="1820" height="118" xmlns="http://www.w3.org/2000/svg" xmlns:svg="http://www.w3.org/2000/svg" enable-background="new 0 0 1820 118" version="1.1" xml:space="preserve">
 <g class="layer">
  <title>Layer 1</title>
  <rect fill="#FFC943" height="118.01" id="배경3" transform="matrix(1 0 0 1 0 0)" width="1820" x="0" y="-0.01"/>
  <path d="m1767.64,117.45c0,-3.1 -1.2,-5.9 -3.16,-7.92c-1.84,-1.66 -3,-4.09 -3,-6.81c0,-2.8 1.24,-5.3 3.17,-6.95c1.86,-2.02 2.99,-4.74 2.99,-7.75c0,-3.09 -1.2,-5.89 -3.16,-7.92c-1.84,-1.65 -3,-4.08 -3,-6.8c0,-2.8 1.24,-5.31 3.17,-6.96c1.86,-2.01 3,-4.74 3,-7.74c0,-3.09 -1.21,-5.89 -3.17,-7.92c-1.83,-1.65 -3,-4.09 -3,-6.8c0,-2.81 1.24,-5.31 3.17,-6.96c1.86,-2.02 3,-4.74 3,-7.74c0,-3.1 -1.21,-5.89 -3.17,-7.92c-1.83,-1.66 -3,-4.09 -3,-6.81c0,-2.8 1.24,-5.3 3.17,-6.95c1.86,-2.02 3,-4.5 3,-7.5l-1715.29,0.24c0,3.1 1.21,5.96 3.16,7.99c1.84,1.65 3,4.08 3,6.8c0,2.8 -1.24,5.31 -3.17,6.96c-1.85,2.01 -2.99,4.74 -2.99,7.74c0,3.09 1.21,5.89 3.16,7.92c1.84,1.65 3,4.09 3,6.8c0,2.81 -1.24,5.31 -3.17,6.96c-1.85,2.02 -2.99,4.74 -2.99,7.74c0,3.1 1.21,5.9 3.16,7.92c1.84,1.66 3,4.09 3,6.81c0,2.8 -1.24,5.3 -3.17,6.95c-1.85,2.02 -2.99,4.74 -2.99,7.75c0,3.09 1.21,5.89 3.16,7.92c1.84,1.65 3,4.08 3,6.8c0,2.8 -1.24,5.31 -3.17,6.96c-1.85,2.01 -2.99,4.74 -2.99,7.74" fill="#F78F1E" id="배경2" transform="matrix(1 0 0 1 0 0)"/>
  <path d="m1734.34,118l-1648.68,0.02c0,-2.72 -1.16,-4.6 -3,-6.25c-1.95,-2.03 -3.16,-4.83 -3.16,-7.92c0,-3 1.14,-5.73 2.99,-7.74c1.94,-1.65 3.17,-4.16 3.17,-6.96c0,-2.72 -1.16,-5.15 -3,-6.8c-1.95,-2.03 -3.16,-4.83 -3.16,-7.92c0,-3.01 1.14,-5.73 2.99,-7.75c1.94,-1.65 3.17,-4.15 3.17,-6.95c0,-2.72 -1.16,-5.15 -3,-6.81c-1.95,-2.02 -3.16,-4.82 -3.16,-7.92c0,-3 1.14,-5.72 2.99,-7.74c1.94,-1.65 3.17,-4.15 3.17,-6.95c0,-2.72 -1.16,-5.15 -3,-6.81c-1.95,-2.03 -3.16,-4.83 -3.16,-7.92c0,-3 1.14,-5.73 2.99,-7.74c1.94,-1.65 3.17,-5.04 3.17,-7.84l1648.68,0c0,2.72 1.16,5.15 3,6.8c1.95,2.03 3.16,4.83 3.16,7.92c0,3.01 -1.14,5.73 -2.99,7.75c-1.94,1.65 -3.17,4.15 -3.17,6.95c0,2.72 1.16,5.15 3,6.81c1.95,2.02 3.16,4.82 3.16,7.92c0,3 -1.14,5.73 -2.99,7.74c-1.94,1.65 -3.17,4.15 -3.17,6.95c0,2.72 1.16,5.16 3,6.81c1.95,2.03 3.16,4.83 3.16,7.92c0,3 -1.14,5.73 -2.99,7.74c-1.94,1.65 -3.17,4.16 -3.17,6.96c0,2.71 1.16,5.15 3,6.8c1.95,2.03 3.16,4.83 3.16,7.92c0,3 -1.14,5.73 -2.99,7.74c-1.94,1.66 -3.17,4.16 -3.17,6.96" fill="#C3CE2F" id="배경1" transform="matrix(1 0 0 1 0 0)"/>
  <text fill="#FFFAF5" font-family="&#x27;BMJUA&#x27;" font-size="80" id="_x31_6자" x="563.64" y="82.49">마음이 편안해지는 카페</text>
  <g id="아이콘2" transform="matrix(1 0 0 1 0 0)">
   <g id="svg_1">
    <g id="svg_2">
     <path d="m1698.38,60.09c1.49,-1.59 -0.54,-3.41 -5.05,-4.94c0,0 5.45,-4.17 3.35,-5.87c-1.98,-1.6 -4.32,5.26 -4.32,5.26s-0.44,-6.77 -3.06,-5.78c-2.43,0.91 2.09,6.31 2.09,6.31s-5.46,-1.04 -5.76,1.53c-0.28,2.54 5.7,-0.42 5.7,-0.42s-3.02,4.69 -0.71,5.92c2.48,1.32 2.07,-5.42 2.07,-5.42s4.26,4.94 5.69,3.41z" fill="#FFFAF5" id="svg_3" stroke="#FFFFFF" stroke-miterlimit="10" stroke-width="5"/>
     <path d="m1728.79,69.42c-3.9,-3.47 -8.88,-1.46 -11.23,-0.17c0.5,-0.92 0.86,-1.85 1.02,-2.78l0,0c0.03,-0.19 0.06,-0.39 0.08,-0.58l0,0c0.02,-0.25 0.03,-0.49 0.02,-0.73c-0.01,-0.39 -0.08,-0.76 -0.21,-1.12l-55.66,0c-0.13,0.36 -0.2,0.73 -0.21,1.12c-0.02,0.42 0.02,0.84 0.09,1.26l-0.33,0c0,0.12 0,0.25 0.01,0.38l0.4,0c1.51,6.73 12.65,13.04 14.42,20.61c0.76,3.21 2.43,5.06 4.4,6.12c0,0.04 -0.01,0.07 -0.01,0.11c0,2.28 4.01,4.12 8.96,4.12c4.95,0 8.96,-1.84 8.96,-4.12c0,0 0,0 0,-0.01c2.06,-1.05 3.81,-2.91 4.58,-6.22c0.36,-1.5 1.08,-2.96 2.02,-4.37c3.94,0.06 8.82,-0.03 13.64,-0.56c10.81,-1.18 14.34,-8.35 9.05,-13.06zm-4.01,8.28c-1.8,2.34 -10.82,3.64 -17.95,4.31c2.62,-3.51 6.38,-6.81 8.97,-10.11c6.8,-3.58 12.82,0.79 8.98,5.8z" fill="#FFFAF5" id="svg_4" stroke="#FFFFFF" stroke-miterlimit="10" stroke-width="5"/>
     <path d="m1682.55,45.66c0,0 -3.57,2.03 -2.38,3.08c1.19,1.05 2.87,-2.8 2.87,-2.8s0.07,3.36 1.19,3.43c1.12,0.07 -0.77,-3.5 -0.77,-3.5s4.34,-0.14 4.34,-1.19c0,-1.05 -4.27,0.56 -4.27,0.56s1.05,-3.57 0.07,-3.78c-0.98,-0.21 -0.84,3.71 -0.84,3.71s-3.43,-2.24 -3.85,-0.98c-0.42,1.26 3.64,1.47 3.64,1.47z" fill="#FFFAF5" id="svg_5" stroke="#FFFFFF" stroke-miterlimit="10" stroke-width="5"/>
     <polygon fill="#FFFAF5" id="svg_6" points="1689.52,31.572 1688.764,32.551 
				1690.241,33.064 1689.643,33.816 1690.855,33.984 1690.605,35.558 1698.002,28.832 1697.92,38.829 1698.676,37.604 
				1699.673,38.453 1699.952,37.316 1700.854,38.184 1701.174,36.989 1702.65,37.504 1699.688,28.74 1707.484,32.759 
				1707.441,31.484 1709.176,31.26 1708.165,30.068 1709.725,29.975 1708.833,28.366 1709.624,27.578 1700.165,27.074 
				1707.229,20.287 1705.352,19.995 1705.609,19.01 1704.184,19.277 1704.386,18.253 1703.313,18.848 1702.383,17.295 
				1698.37,26.176 1693.689,17.979 1692.925,19.699 1691.814,18.771 1691.811,20.598 1690.655,20.221 1690.773,21.381 
				1689.209,21.97 1697.464,27.134 1688.368,30.701 			" stroke="#FFFFFF" stroke-miterlimit="10" stroke-width="5"/>
     <path d="m1706.84,47.98c0.52,1.55 1.77,2.47 3.35,2.47c0.01,0 0.02,0 0.02,0c1.57,-0.02 2.98,-0.98 3.41,-2.35c0.48,-1.51 -0.19,-2.56 -1.08,-2.94c-0.77,-0.33 -1.82,-0.17 -2.32,0.76c-0.05,0.1 -0.02,0.23 0.09,0.29s0.23,0.01 0.28,-0.09c0.4,-0.75 1.21,-0.82 1.79,-0.57c0.66,0.28 1.27,1.08 0.84,2.43c-0.38,1.19 -1.62,2.04 -3.01,2.05c-0.01,0 -0.02,0 -0.02,0c-1.4,0 -2.49,-0.81 -2.95,-2.18c-0.59,-1.74 0.68,-3.63 2.11,-4.65c1.36,-0.96 3.4,-1.54 5.03,-0.27c1.39,1.08 2.07,2.81 1.86,4.75c-0.24,2.16 -1.5,4.01 -3.28,4.86c-0.21,0.1 -0.42,0.19 -0.63,0.29c-3.41,1.59 -6.63,3.09 -7.54,8.62c-0.02,0.11 0.06,0.22 0.17,0.24c0.01,0 0.02,0 0.04,0c0.1,0 0.18,-0.07 0.2,-0.17c0.88,-5.31 3.86,-6.7 7.31,-8.31c0.21,-0.1 0.42,-0.2 0.63,-0.3c1.91,-0.9 3.26,-2.89 3.51,-5.18c0.23,-2.09 -0.5,-3.96 -2.01,-5.13c-1.81,-1.41 -4.05,-0.79 -5.53,0.26c-1.9,1.35 -2.83,3.46 -2.27,5.12z" fill="#FFFAF5" id="svg_7" stroke="#FFFFFF" stroke-miterlimit="10" stroke-width="5"/>
     <path d="m1670.1,51.49c0.16,0.06 0.32,0.12 0.47,0.18c2.55,0.98 4.76,1.83 5.48,5.56c0.02,0.1 0.11,0.17 0.21,0.17c0.01,0 0.03,0 0.04,-0.01c0.11,-0.02 0.19,-0.13 0.16,-0.24c-0.77,-3.96 -3.18,-4.89 -5.74,-5.87c-0.15,-0.06 -0.31,-0.12 -0.46,-0.18c-1.27,-0.49 -2.2,-1.7 -2.44,-3.15c-0.23,-1.39 0.24,-2.72 1.25,-3.57c1.22,-1.02 2.81,-0.62 3.79,0.04c1,0.67 1.85,1.88 1.47,3.07c-0.38,1.21 -1.39,1.66 -2.21,1.68c-0.98,0.02 -1.81,-0.5 -2.1,-1.29c-0.33,-0.91 0.11,-1.49 0.57,-1.72c0.4,-0.19 0.96,-0.17 1.24,0.31c0.07,0.1 0.19,0.13 0.29,0.07c0.1,-0.06 0.13,-0.19 0.07,-0.29c-0.35,-0.59 -1.1,-0.79 -1.78,-0.47c-0.67,0.32 -1.18,1.14 -0.78,2.24c0.34,0.96 1.34,1.59 2.49,1.57c0.97,-0.02 2.16,-0.55 2.61,-1.97c0.44,-1.4 -0.51,-2.79 -1.64,-3.55c-1.45,-0.97 -3.14,-0.98 -4.29,-0.01c-1.13,0.94 -1.65,2.42 -1.4,3.95c0.27,1.6 1.3,2.94 2.7,3.48z" fill="#FFFAF5" id="svg_8" stroke="#FFFFFF" stroke-miterlimit="10" stroke-width="5"/>
    </g>
   </g>
   <g id="svg_9">
    <path d="m1714.1,66.19c0.01,-0.12 0.01,-0.25 0.01,-0.38l-51.47,0c-0.01,0.13 0,0.26 0,0.38l51.46,0z" fill="#36B663" id="svg_10"/>
    <g id="svg_11">
     <path d="m1693.6,54.54c0,0 5.45,-4.17 3.35,-5.86c-1.98,-1.61 -4.32,5.25 -4.32,5.25s-0.44,-6.76 -3.06,-5.78c-2.43,0.91 2.09,6.31 2.09,6.31s-5.46,-1.03 -5.75,1.54c-0.29,2.54 5.69,-0.43 5.69,-0.43s-3.02,4.69 -0.71,5.92c2.48,1.32 2.07,-5.42 2.07,-5.42s4.26,4.95 5.69,3.41c1.5,-1.59 -0.53,-3.41 -5.05,-4.94z" fill="#BCDFB8" id="svg_12"/>
     <g id="svg_13">
      <path d="m1692.85,54.63c-0.08,-0.04 -0.12,-0.14 -0.07,-0.22c0.05,-0.08 0.16,-0.12 0.25,-0.08c0.08,0.03 0.11,0.13 0.06,0.21c-0.05,0.09 -0.15,0.12 -0.24,0.09z" fill="#FFFFFF" id="svg_14"/>
      <path d="m1692.04,54.88c-0.09,-0.03 -0.12,-0.13 -0.07,-0.21c0.05,-0.08 0.15,-0.11 0.24,-0.08c0.08,0.04 0.11,0.13 0.06,0.21c-0.04,0.08 -0.15,0.12 -0.23,0.08z" fill="#FFFFFF" id="svg_15"/>
      <path d="m1692.26,55.66c-0.08,-0.04 -0.11,-0.14 -0.06,-0.22c0.04,-0.08 0.15,-0.11 0.24,-0.07c0.08,0.03 0.11,0.13 0.06,0.21c-0.05,0.08 -0.15,0.11 -0.24,0.08z" fill="#FFFFFF" id="svg_16"/>
      <path d="m1693.16,55.42c-0.09,-0.04 -0.12,-0.14 -0.07,-0.22c0.05,-0.08 0.16,-0.11 0.25,-0.08c0.08,0.04 0.12,0.13 0.07,0.22c-0.05,0.08 -0.16,0.11 -0.25,0.08z" fill="#FFFFFF" id="svg_17"/>
      <path d="m1693.23,55.67c0,0 0.05,0.03 0.14,0.08c0.09,0.06 0.22,0.14 0.36,0.24c0.15,0.11 0.33,0.22 0.51,0.36c0.19,0.13 0.38,0.27 0.58,0.42c0.2,0.15 0.39,0.3 0.58,0.44c0.18,0.15 0.35,0.29 0.49,0.41c0.15,0.12 0.27,0.22 0.35,0.29c0.09,0.08 0.13,0.12 0.13,0.12s-0.05,-0.03 -0.15,-0.09c-0.09,-0.07 -0.23,-0.15 -0.39,-0.26c-0.15,-0.11 -0.34,-0.23 -0.53,-0.37c-0.19,-0.14 -0.39,-0.28 -0.59,-0.43c-0.19,-0.15 -0.39,-0.3 -0.56,-0.44s-0.34,-0.27 -0.48,-0.39c-0.14,-0.11 -0.24,-0.21 -0.32,-0.28c-0.08,-0.06 -0.12,-0.1 -0.12,-0.1z" fill="#FEBF10" id="svg_18"/>
      <path d="m1693.72,55.43c0,0 0.05,0.02 0.14,0.05c0.08,0.03 0.21,0.07 0.35,0.12c0.29,0.11 0.68,0.26 1.07,0.43c0.39,0.17 0.77,0.36 1.06,0.5c0.15,0.08 0.26,0.14 0.35,0.19c0.08,0.05 0.13,0.07 0.13,0.07s-0.06,-0.01 -0.15,-0.05c-0.09,-0.03 -0.22,-0.07 -0.37,-0.13c-0.31,-0.12 -0.71,-0.28 -1.1,-0.45c-0.39,-0.17 -0.76,-0.35 -1.03,-0.49c-0.14,-0.07 -0.25,-0.13 -0.32,-0.17s-0.13,-0.07 -0.13,-0.07z" fill="#FEBF10" id="svg_19"/>
      <path d="m1691.39,54.96c0,0 -0.07,0 -0.17,0.01c-0.1,0.01 -0.26,0.02 -0.43,0.03c-0.18,0.01 -0.39,0.02 -0.61,0.03c-0.22,0.01 -0.45,0.01 -0.68,0.01c-0.23,0 -0.45,0 -0.66,0c-0.21,0 -0.4,-0.01 -0.57,-0.01c-0.16,-0.01 -0.3,-0.02 -0.39,-0.03s-0.15,-0.01 -0.15,-0.01s0.05,0 0.15,-0.01c0.09,-0.01 0.23,-0.02 0.4,-0.03c0.16,-0.01 0.36,-0.02 0.57,-0.03c0.21,0 0.43,-0.01 0.66,-0.01c0.23,0 0.46,0 0.68,0c0.22,0 0.42,0.01 0.6,0.01c0.18,0.01 0.33,0.02 0.43,0.03c0.11,0 0.17,0.01 0.17,0.01z" fill="#FEBF10" id="svg_20"/>
      <path d="m1692.04,54.23c0,0 -0.03,-0.04 -0.09,-0.12c-0.06,-0.08 -0.15,-0.19 -0.24,-0.32c-0.1,-0.14 -0.21,-0.29 -0.32,-0.46c-0.12,-0.17 -0.23,-0.35 -0.35,-0.53c-0.12,-0.18 -0.23,-0.36 -0.34,-0.53c-0.1,-0.17 -0.19,-0.33 -0.27,-0.47c-0.08,-0.13 -0.14,-0.25 -0.18,-0.33c-0.05,-0.08 -0.07,-0.13 -0.07,-0.13s0.04,0.04 0.1,0.11c0.05,0.07 0.13,0.18 0.22,0.31c0.1,0.13 0.21,0.27 0.32,0.44c0.11,0.16 0.23,0.34 0.35,0.52c0.11,0.18 0.23,0.37 0.33,0.54c0.11,0.18 0.2,0.34 0.28,0.48c0.09,0.14 0.15,0.27 0.19,0.35c0.05,0.09 0.07,0.14 0.07,0.14z" fill="#FEBF10" id="svg_21"/>
      <path d="m1692.3,54.06c0,0 -0.01,-0.03 -0.04,-0.09c-0.03,-0.06 -0.07,-0.13 -0.11,-0.23c-0.09,-0.19 -0.19,-0.45 -0.29,-0.72c-0.09,-0.26 -0.17,-0.53 -0.22,-0.74c-0.03,-0.1 -0.04,-0.19 -0.06,-0.24c-0.01,-0.07 -0.02,-0.1 -0.02,-0.1s0.02,0.03 0.05,0.08c0.03,0.06 0.07,0.14 0.11,0.23c0.08,0.19 0.19,0.45 0.28,0.72c0.09,0.26 0.17,0.53 0.23,0.74c0.02,0.1 0.04,0.19 0.05,0.25c0.02,0.06 0.02,0.1 0.02,0.1z" fill="#FEBF10" id="svg_22"/>
      <path d="m1693.28,54.08c0,0 0.03,-0.05 0.1,-0.14c0.07,-0.09 0.16,-0.22 0.27,-0.36c0.13,-0.15 0.26,-0.33 0.41,-0.52s0.31,-0.38 0.48,-0.58c0.17,-0.2 0.34,-0.4 0.51,-0.59c0.16,-0.18 0.33,-0.36 0.46,-0.51c0.14,-0.15 0.26,-0.27 0.34,-0.35c0.08,-0.09 0.13,-0.14 0.13,-0.14s-0.03,0.06 -0.1,0.15c-0.07,0.09 -0.17,0.23 -0.3,0.39c-0.12,0.15 -0.26,0.34 -0.42,0.53c-0.15,0.19 -0.32,0.39 -0.49,0.59c-0.17,0.2 -0.34,0.4 -0.5,0.58c-0.16,0.18 -0.32,0.35 -0.45,0.49c-0.13,0.14 -0.24,0.25 -0.31,0.33c-0.08,0.09 -0.13,0.13 -0.13,0.13z" fill="#FEBF10" id="svg_23"/>
      <path d="m1691.21,55.29c0,0 -0.04,0.01 -0.13,0.04c-0.08,0.02 -0.2,0.06 -0.35,0.1c-0.29,0.07 -0.67,0.16 -1.05,0.24c-0.37,0.08 -0.75,0.15 -1.02,0.19c-0.14,0.02 -0.25,0.03 -0.33,0.04c-0.08,0.01 -0.13,0.02 -0.13,0.02s0.05,-0.02 0.12,-0.04c0.08,-0.02 0.19,-0.06 0.33,-0.09c0.27,-0.08 0.64,-0.16 1.01,-0.24c0.38,-0.08 0.77,-0.15 1.06,-0.2c0.15,-0.02 0.27,-0.03 0.36,-0.04c0.08,-0.02 0.13,-0.02 0.13,-0.02z" fill="#FEBF10" id="svg_24"/>
      <path d="m1691.91,56.16c0,0 -0.01,0.06 -0.03,0.15c-0.03,0.09 -0.05,0.22 -0.1,0.38c-0.04,0.16 -0.09,0.35 -0.14,0.54c-0.06,0.2 -0.12,0.41 -0.19,0.61c-0.06,0.21 -0.13,0.42 -0.19,0.61c-0.07,0.19 -0.14,0.37 -0.19,0.52c-0.05,0.15 -0.11,0.27 -0.14,0.36s-0.06,0.14 -0.06,0.14s0.01,-0.05 0.03,-0.14c0.02,-0.1 0.05,-0.23 0.09,-0.38c0.04,-0.16 0.09,-0.34 0.14,-0.53c0.06,-0.19 0.12,-0.4 0.18,-0.61c0.07,-0.2 0.14,-0.41 0.2,-0.6c0.07,-0.2 0.14,-0.38 0.19,-0.53c0.06,-0.16 0.11,-0.28 0.15,-0.38c0.03,-0.09 0.06,-0.14 0.06,-0.14z" fill="#FEBF10" id="svg_25"/>
      <path d="m1692.12,56.05c0,0 0,0.04 0,0.12c0,0.09 0,0.2 -0.01,0.34c-0.01,0.28 -0.04,0.65 -0.08,1.02c-0.04,0.37 -0.1,0.74 -0.15,1.02c-0.02,0.14 -0.05,0.25 -0.06,0.33c-0.02,0.08 -0.03,0.12 -0.03,0.12s0,-0.04 0,-0.12c0,-0.08 0,-0.2 0.01,-0.34c0.01,-0.28 0.04,-0.64 0.08,-1.01c0.04,-0.37 0.1,-0.74 0.15,-1.02c0.02,-0.14 0.05,-0.26 0.06,-0.34c0.02,-0.08 0.03,-0.12 0.03,-0.12z" fill="#FEBF10" id="svg_26"/>
      <path d="m1694.4,51.54c0,0 -0.01,0.04 -0.04,0.1c-0.03,0.07 -0.07,0.17 -0.12,0.28c-0.1,0.23 -0.24,0.52 -0.4,0.82c-0.16,0.29 -0.32,0.58 -0.46,0.79c-0.06,0.1 -0.12,0.19 -0.16,0.25c-0.04,0.06 -0.07,0.09 -0.07,0.09s0.02,-0.03 0.04,-0.1c0.03,-0.06 0.07,-0.16 0.11,-0.27c0.1,-0.22 0.25,-0.52 0.4,-0.81c0.16,-0.29 0.32,-0.58 0.46,-0.8c0.07,-0.11 0.13,-0.19 0.17,-0.26c0.04,-0.06 0.07,-0.09 0.07,-0.09z" fill="#FEBF10" id="svg_27"/>
     </g>
    </g>
    <g id="svg_28">
     <ellipse cx="1690.81" cy="93.04" fill="#41B878" id="svg_29" rx="8.96" ry="4.12"/>
     <path d="m1690.81,96.05c-5.03,0 -9.13,-1.93 -9.13,-4.29c0,-2.37 4.1,-4.29 9.13,-4.29s9.14,1.92 9.14,4.29c0,2.36 -4.1,4.29 -9.14,4.29zm0,-8.24c-4.85,0 -8.79,1.77 -8.79,3.95s3.94,3.95 8.79,3.95c4.85,0 8.8,-1.77 8.8,-3.95c0,-2.18 -3.95,-3.95 -8.8,-3.95z" fill="#FFFFFF" id="svg_30"/>
     <path d="m1716.5,69.48c0,0 7.27,-5.37 12.56,-0.66c5.29,4.7 1.76,11.87 -9.05,13.06c-10.81,1.18 -21.98,0.16 -21.98,0.16s23.97,-0.97 27.02,-4.94c3.93,-5.12 -2.44,-9.58 -9.43,-5.56c-6.99,4.02 0.88,-2.06 0.88,-2.06z" fill="#41B65C" id="svg_31"/>
     <path d="m1663.08,63.44c-0.13,0.35 -0.2,0.73 -0.21,1.11c-0.19,7.36 12.68,14.07 14.6,22.25c1.92,8.18 9.79,7.54 13.44,7.54c3.65,0 11.52,0.64 13.44,-7.54c1.93,-8.18 14.79,-14.89 14.6,-22.25c-0.01,-0.39 -0.08,-0.76 -0.21,-1.11l-55.66,0z" fill="#FFFFFF" id="svg_32"/>
     <path d="m1718.85,65.86c0.04,-0.19 0.07,-0.39 0.08,-0.58l-56.04,0c0.02,0.19 0.05,0.39 0.08,0.58l55.88,0z" fill="#36B663" id="svg_33"/>
     <g id="svg_34">
      <path d="m1674.73,75.69c0,0 -2.5,1.73 -1.4,2.81c1.1,1.08 1.97,-2.4 1.97,-2.4s0.64,3.8 2.12,3.6c1.48,-0.2 -1.61,-3.82 -1.61,-3.82s3.45,1.1 3.49,-0.44c0.03,-1.54 -3.52,-0.18 -3.52,-0.18s1.52,-2.53 0.06,-3.31c-1.46,-0.78 -0.85,2.95 -0.85,2.95s-2.47,-2.83 -3.07,-2.08c-0.6,0.75 0.44,1.77 2.81,2.87z" fill="#86C661" id="svg_35"/>
      <g id="svg_36">
       <ellipse cx="1675.12" cy="75.76" fill="#FFFFFF" id="svg_37" rx="0.1" ry="0.09" transform="matrix(-0.8834 -0.4686 0.4686 -0.8834 3119.4692 927.5739)"/>
       <ellipse cx="1675.55" cy="75.67" fill="#FFFFFF" id="svg_38" rx="0.1" ry="0.09" transform="matrix(-0.8837 -0.4681 0.4681 -0.8837 3120.7683 926.8849)"/>
       <ellipse cx="1675.43" cy="75.2" fill="#FFFFFF" id="svg_39" rx="0.1" ry="0.08" transform="matrix(-0.8876 -0.4606 0.4606 -0.8876 3127.9275 913.6506)"/>
       <ellipse cx="1674.9" cy="75.34" fill="#FFFFFF" id="svg_40" rx="0.1" ry="0.08" transform="matrix(-0.8808 -0.4735 0.4735 -0.8808 3114.4282 934.8234)"/>
       <path d="m1674.86,75.1c0,0 -0.02,-0.02 -0.07,-0.06c-0.06,-0.03 -0.13,-0.09 -0.22,-0.15c-0.08,-0.06 -0.18,-0.14 -0.29,-0.22c-0.1,-0.08 -0.21,-0.17 -0.32,-0.26c-0.11,-0.09 -0.22,-0.18 -0.32,-0.27c-0.11,-0.09 -0.2,-0.17 -0.28,-0.24c-0.08,-0.07 -0.14,-0.13 -0.19,-0.17c-0.05,-0.05 -0.07,-0.07 -0.07,-0.07s0.03,0.02 0.08,0.06c0.05,0.03 0.13,0.08 0.21,0.15c0.09,0.06 0.19,0.14 0.29,0.22c0.11,0.08 0.22,0.17 0.33,0.26c0.11,0.09 0.22,0.19 0.32,0.27c0.1,0.09 0.19,0.17 0.27,0.24c0.08,0.07 0.15,0.13 0.19,0.17c0.05,0.05 0.07,0.07 0.07,0.07z" fill="#0A753C" id="svg_41"/>
       <path d="m1674.61,75.2c0,0 -0.02,-0.01 -0.07,-0.04c-0.05,-0.02 -0.12,-0.05 -0.2,-0.09c-0.16,-0.07 -0.37,-0.18 -0.58,-0.3c-0.2,-0.11 -0.41,-0.23 -0.56,-0.32c-0.08,-0.05 -0.14,-0.09 -0.18,-0.12c-0.05,-0.02 -0.07,-0.04 -0.07,-0.04s0.03,0.01 0.07,0.03c0.05,0.02 0.12,0.05 0.2,0.09c0.16,0.08 0.37,0.19 0.58,0.3s0.41,0.23 0.56,0.33c0.08,0.04 0.14,0.09 0.19,0.11c0.04,0.03 0.06,0.05 0.06,0.05z" fill="#0A753C" id="svg_42"/>
       <path d="m1675.94,75.63c0,0 0.03,0 0.1,0c0.06,0 0.14,0.01 0.25,0.02c0.1,0.01 0.22,0.02 0.35,0.03c0.13,0.01 0.27,0.03 0.41,0.04c0.14,0.02 0.27,0.04 0.4,0.06c0.13,0.02 0.26,0.04 0.36,0.05c0.1,0.02 0.19,0.04 0.25,0.05c0.06,0.01 0.09,0.02 0.09,0.02s-0.03,0 -0.09,-0.01c-0.06,0 -0.15,0 -0.25,-0.01c-0.1,-0.01 -0.23,-0.02 -0.36,-0.03c-0.12,-0.02 -0.27,-0.03 -0.4,-0.05c-0.14,-0.02 -0.28,-0.03 -0.41,-0.05c-0.13,-0.02 -0.25,-0.04 -0.36,-0.06c-0.1,-0.02 -0.18,-0.03 -0.24,-0.04c-0.07,-0.02 -0.1,-0.02 -0.1,-0.02z" fill="#0A753C" id="svg_43"/>
       <path d="m1675.61,75.98c0,0 0.02,0.03 0.06,0.08c0.03,0.04 0.09,0.11 0.15,0.2c0.06,0.08 0.14,0.18 0.21,0.28c0.08,0.1 0.15,0.22 0.23,0.33c0.08,0.11 0.16,0.23 0.23,0.33c0.07,0.11 0.14,0.21 0.19,0.3c0.06,0.09 0.1,0.16 0.13,0.21c0.03,0.05 0.05,0.08 0.05,0.08s-0.02,-0.02 -0.06,-0.07c-0.04,-0.05 -0.1,-0.12 -0.16,-0.2c-0.06,-0.09 -0.13,-0.18 -0.21,-0.29s-0.15,-0.21 -0.23,-0.33c-0.08,-0.11 -0.16,-0.22 -0.23,-0.33c-0.07,-0.11 -0.13,-0.21 -0.19,-0.3c-0.06,-0.08 -0.1,-0.16 -0.13,-0.21c-0.03,-0.05 -0.04,-0.08 -0.04,-0.08z" fill="#0A753C" id="svg_44"/>
       <path d="m1675.47,76.06c0,0 0.01,0.02 0.03,0.05c0.02,0.03 0.05,0.08 0.08,0.14c0.06,0.11 0.13,0.27 0.2,0.43c0.07,0.15 0.13,0.31 0.17,0.43c0.02,0.06 0.03,0.11 0.05,0.15c0.01,0.03 0.01,0.05 0.01,0.05s-0.01,-0.02 -0.03,-0.05c-0.02,-0.03 -0.04,-0.08 -0.07,-0.14c-0.07,-0.11 -0.14,-0.27 -0.21,-0.42c-0.06,-0.16 -0.12,-0.32 -0.17,-0.44c-0.02,-0.06 -0.03,-0.11 -0.04,-0.15c-0.01,-0.03 -0.02,-0.05 -0.02,-0.05z" fill="#0A753C" id="svg_45"/>
       <path d="m1674.93,75.97c0,0 -0.02,0.02 -0.05,0.06c-0.03,0.05 -0.07,0.11 -0.13,0.18c-0.05,0.07 -0.11,0.16 -0.18,0.25c-0.07,0.09 -0.15,0.18 -0.23,0.27c-0.08,0.09 -0.15,0.19 -0.23,0.27c-0.07,0.09 -0.14,0.16 -0.21,0.23c-0.06,0.06 -0.11,0.12 -0.15,0.16c-0.04,0.03 -0.06,0.05 -0.06,0.05s0.01,-0.02 0.05,-0.06c0.03,-0.04 0.07,-0.11 0.12,-0.18c0.06,-0.07 0.12,-0.16 0.19,-0.24c0.07,-0.09 0.15,-0.19 0.22,-0.28c0.08,-0.09 0.16,-0.18 0.24,-0.27c0.07,-0.08 0.14,-0.16 0.21,-0.23c0.06,-0.06 0.11,-0.11 0.15,-0.15c0.04,-0.04 0.06,-0.06 0.06,-0.06z" fill="#0A753C" id="svg_46"/>
       <path d="m1676.02,75.45c0,0 0.02,-0.01 0.07,-0.01c0.05,-0.01 0.12,-0.02 0.2,-0.03c0.16,-0.02 0.39,-0.05 0.61,-0.07c0.22,-0.01 0.44,-0.02 0.61,-0.03c0.09,0 0.16,0 0.21,0c0.05,0 0.08,0 0.08,0s-0.03,0.01 -0.08,0.02c-0.04,0 -0.11,0.02 -0.2,0.03c-0.16,0.02 -0.38,0.04 -0.6,0.06s-0.45,0.03 -0.62,0.03c-0.08,0 -0.16,0 -0.2,0c-0.05,0 -0.08,0 -0.08,0z" fill="#0A753C" id="svg_47"/>
       <path d="m1675.57,74.91c0,0 0,-0.03 0.01,-0.08c0.01,-0.05 0.02,-0.12 0.03,-0.21c0.01,-0.08 0.03,-0.18 0.05,-0.29c0.02,-0.11 0.04,-0.22 0.07,-0.34c0.02,-0.11 0.05,-0.22 0.07,-0.33c0.03,-0.1 0.06,-0.2 0.08,-0.28c0.02,-0.09 0.05,-0.15 0.06,-0.2c0.02,-0.05 0.03,-0.08 0.03,-0.08s-0.01,0.03 -0.01,0.08c-0.01,0.05 -0.02,0.13 -0.03,0.21c-0.02,0.09 -0.03,0.19 -0.06,0.3c-0.01,0.1 -0.04,0.22 -0.06,0.33c-0.03,0.11 -0.05,0.23 -0.08,0.33c-0.02,0.11 -0.05,0.2 -0.08,0.29c-0.02,0.08 -0.04,0.15 -0.06,0.2c-0.01,0.05 -0.02,0.07 -0.02,0.07z" fill="#0A753C" id="svg_48"/>
       <path d="m1675.45,74.96c0,0 0,-0.02 0,-0.07c-0.01,-0.04 -0.01,-0.11 -0.02,-0.19c-0.01,-0.15 -0.01,-0.36 -0.01,-0.56c0,-0.2 0.01,-0.41 0.02,-0.56c0.01,-0.08 0.02,-0.14 0.02,-0.19c0.01,-0.04 0.01,-0.06 0.01,-0.06s0.01,0.02 0.01,0.07c0,0.04 0.01,0.11 0.01,0.19c0.01,0.15 0.02,0.36 0.02,0.56c-0.01,0.21 -0.02,0.41 -0.03,0.56c0,0.08 -0.01,0.14 -0.01,0.19c-0.01,0.04 -0.02,0.06 -0.02,0.06z" fill="#0A753C" id="svg_49"/>
       <path d="m1674.47,77.25c0,0 0.01,-0.02 0.02,-0.05c0.01,-0.04 0.03,-0.09 0.05,-0.14c0.04,-0.12 0.1,-0.27 0.17,-0.41c0.06,-0.14 0.14,-0.29 0.2,-0.39c0.03,-0.05 0.05,-0.1 0.07,-0.12c0.02,-0.04 0.03,-0.05 0.03,-0.05s0,0.02 -0.01,0.05c-0.02,0.04 -0.03,0.09 -0.05,0.14c-0.04,0.12 -0.1,0.26 -0.17,0.41c-0.07,0.14 -0.14,0.29 -0.2,0.39c-0.03,0.05 -0.06,0.1 -0.08,0.12c-0.02,0.04 -0.03,0.05 -0.03,0.05z" fill="#0A753C" id="svg_50"/>
      </g>
     </g>
     <g id="svg_51">
      <path d="m1691.08,76.86c0,0 0.42,-5.23 2.74,-4.86c2.32,0.36 -1.74,5.2 -1.74,5.2s5.65,-3.12 6.53,-0.9c0.89,2.22 -6.44,1.82 -6.44,1.82s4.18,3.54 2.11,5.21c-2.07,1.66 -2.97,-4.6 -2.97,-4.6s-2.27,4.72 -4.45,3.56s3.34,-4.25 3.34,-4.25s-5.75,-0.39 -5.19,-1.99c0.56,-1.6 2.74,-1.26 6.07,0.81z" fill="#FED401" id="svg_52"/>
      <g id="svg_53">
       <circle cx="1691.48" cy="77.26" fill="#FFFFFF" id="svg_54" r="0.15"/>
       <circle cx="1691.71" cy="77.94" fill="#FFFFFF" id="svg_55" r="0.15"/>
       <circle cx="1690.97" cy="78.18" fill="#FFFFFF" id="svg_56" r="0.15"/>
       <circle cx="1690.69" cy="77.45" fill="#FFFFFF" id="svg_57" r="0.15"/>
       <path d="m1690.39,77.66c0,0 -0.05,-0.02 -0.15,-0.05c-0.09,-0.03 -0.21,-0.08 -0.36,-0.12c-0.16,-0.05 -0.34,-0.11 -0.53,-0.16c-0.2,-0.06 -0.4,-0.12 -0.61,-0.18c-0.21,-0.05 -0.42,-0.1 -0.61,-0.15c-0.2,-0.05 -0.38,-0.09 -0.54,-0.12c-0.16,-0.04 -0.29,-0.06 -0.38,-0.08c-0.09,-0.02 -0.15,-0.03 -0.15,-0.03s0.05,0.02 0.14,0.05c0.09,0.03 0.22,0.08 0.37,0.13c0.16,0.05 0.34,0.1 0.53,0.16c0.19,0.06 0.4,0.11 0.61,0.17c0.2,0.06 0.41,0.11 0.61,0.16c0.19,0.05 0.38,0.08 0.54,0.12c0.15,0.03 0.29,0.06 0.38,0.08c0.09,0.01 0.15,0.02 0.15,0.02z" fill="#FEBF10" id="svg_58"/>
       <path d="m1690.32,77.22c0,0 -0.04,-0.03 -0.1,-0.07c-0.07,-0.04 -0.16,-0.1 -0.28,-0.17c-0.23,-0.14 -0.53,-0.31 -0.85,-0.47c-0.32,-0.17 -0.64,-0.32 -0.88,-0.43c-0.13,-0.06 -0.23,-0.1 -0.3,-0.13c-0.07,-0.03 -0.12,-0.04 -0.12,-0.04s0.04,0.02 0.11,0.06c0.06,0.05 0.16,0.11 0.27,0.17c0.23,0.14 0.54,0.32 0.86,0.48c0.31,0.16 0.63,0.32 0.88,0.43c0.12,0.05 0.22,0.09 0.29,0.12c0.08,0.03 0.12,0.05 0.12,0.05z" fill="#FEBF10" id="svg_59"/>
       <path d="m1691.93,78.57c0,0 0.03,0.04 0.08,0.12c0.05,0.08 0.12,0.19 0.21,0.33c0.1,0.13 0.2,0.28 0.32,0.44c0.12,0.17 0.25,0.34 0.38,0.51c0.13,0.17 0.26,0.34 0.39,0.5c0.13,0.15 0.25,0.3 0.35,0.42s0.19,0.23 0.26,0.3c0.06,0.07 0.1,0.11 0.1,0.11s-0.03,-0.05 -0.08,-0.13c-0.06,-0.08 -0.13,-0.19 -0.22,-0.32c-0.09,-0.13 -0.2,-0.29 -0.32,-0.45c-0.11,-0.16 -0.25,-0.33 -0.37,-0.51c-0.14,-0.17 -0.27,-0.34 -0.39,-0.49c-0.13,-0.16 -0.25,-0.3 -0.36,-0.43c-0.1,-0.12 -0.19,-0.22 -0.25,-0.29c-0.06,-0.07 -0.1,-0.11 -0.1,-0.11z" fill="#FEBF10" id="svg_60"/>
       <path d="m1692.16,77.74c0,0 0.05,0 0.15,0.01c0.09,0 0.23,0 0.39,0c0.16,-0.01 0.35,-0.01 0.55,-0.01c0.2,-0.01 0.41,-0.02 0.63,-0.03c0.21,-0.02 0.43,-0.03 0.63,-0.05c0.2,-0.01 0.38,-0.03 0.55,-0.05c0.15,-0.01 0.29,-0.04 0.38,-0.05c0.1,-0.01 0.15,-0.02 0.15,-0.02s-0.06,0 -0.15,0c-0.09,0 -0.23,-0.01 -0.39,0c-0.16,0 -0.35,0 -0.55,0.01c-0.2,0 -0.41,0.02 -0.63,0.03c-0.21,0.01 -0.43,0.02 -0.63,0.04c-0.2,0.02 -0.39,0.04 -0.55,0.05c-0.16,0.02 -0.29,0.04 -0.38,0.05c-0.1,0.01 -0.15,0.02 -0.15,0.02z" fill="#FEBF10" id="svg_61"/>
       <path d="m1692.15,77.48c0,0 0.04,-0.01 0.1,-0.01c0.06,-0.02 0.14,-0.03 0.25,-0.05c0.2,-0.03 0.47,-0.1 0.73,-0.17c0.26,-0.07 0.53,-0.15 0.72,-0.22c0.1,-0.03 0.18,-0.07 0.23,-0.09c0.06,-0.02 0.09,-0.04 0.09,-0.04s-0.03,0.01 -0.09,0.02c-0.06,0.01 -0.15,0.02 -0.25,0.04c-0.2,0.04 -0.47,0.1 -0.74,0.17c-0.26,0.07 -0.52,0.15 -0.72,0.22c-0.09,0.04 -0.17,0.07 -0.23,0.09c-0.05,0.03 -0.09,0.04 -0.09,0.04z" fill="#FEBF10" id="svg_62"/>
       <path d="m1691.61,76.84c0,0 0.02,-0.05 0.06,-0.14c0.03,-0.08 0.09,-0.2 0.14,-0.35c0.06,-0.15 0.12,-0.33 0.19,-0.52c0.07,-0.19 0.13,-0.39 0.2,-0.59c0.06,-0.2 0.13,-0.4 0.18,-0.6c0.06,-0.19 0.11,-0.37 0.15,-0.52c0.05,-0.15 0.07,-0.29 0.1,-0.37c0.02,-0.1 0.03,-0.15 0.03,-0.15s-0.02,0.05 -0.06,0.14c-0.03,0.08 -0.08,0.21 -0.14,0.35c-0.06,0.15 -0.12,0.33 -0.19,0.52c-0.06,0.19 -0.13,0.39 -0.2,0.59c-0.06,0.2 -0.12,0.41 -0.18,0.6c-0.06,0.19 -0.11,0.37 -0.15,0.52c-0.04,0.15 -0.07,0.29 -0.1,0.38c-0.02,0.09 -0.03,0.14 -0.03,0.14z" fill="#FEBF10" id="svg_63"/>
       <path d="m1691.75,78.86c0,0 0.02,0.04 0.04,0.11c0.03,0.07 0.07,0.18 0.12,0.3c0.09,0.25 0.23,0.58 0.38,0.9c0.15,0.32 0.31,0.64 0.43,0.87c0.07,0.12 0.12,0.21 0.16,0.28c0.04,0.07 0.06,0.11 0.06,0.11s-0.01,-0.05 -0.04,-0.12c-0.02,-0.07 -0.06,-0.18 -0.11,-0.3c-0.1,-0.25 -0.23,-0.57 -0.38,-0.9c-0.15,-0.31 -0.31,-0.64 -0.44,-0.87c-0.06,-0.12 -0.12,-0.21 -0.15,-0.28c-0.04,-0.06 -0.07,-0.1 -0.07,-0.1z" fill="#FEBF10" id="svg_64"/>
       <path d="m1690.68,78.82c0,0 -0.04,0.03 -0.11,0.09c-0.06,0.07 -0.15,0.15 -0.26,0.26c-0.1,0.12 -0.23,0.24 -0.36,0.38c-0.13,0.14 -0.27,0.29 -0.4,0.44c-0.14,0.16 -0.27,0.31 -0.39,0.46c-0.12,0.14 -0.23,0.28 -0.33,0.4c-0.1,0.12 -0.17,0.22 -0.23,0.29c-0.05,0.08 -0.08,0.12 -0.08,0.12s0.04,-0.04 0.1,-0.1c0.06,-0.06 0.16,-0.15 0.27,-0.26c0.1,-0.11 0.23,-0.24 0.36,-0.38c0.13,-0.14 0.26,-0.29 0.4,-0.44c0.13,-0.15 0.27,-0.31 0.39,-0.45c0.12,-0.15 0.23,-0.29 0.33,-0.41c0.09,-0.12 0.17,-0.22 0.22,-0.29s0.09,-0.11 0.09,-0.11z" fill="#FEBF10" id="svg_65"/>
       <path d="m1690.66,78.61c0,0 -0.04,0.02 -0.11,0.06c-0.06,0.04 -0.15,0.1 -0.26,0.18c-0.22,0.15 -0.51,0.36 -0.78,0.58c-0.27,0.21 -0.55,0.44 -0.74,0.62c-0.1,0.08 -0.18,0.16 -0.24,0.21c-0.05,0.06 -0.08,0.09 -0.08,0.09s0.03,-0.02 0.1,-0.07s0.16,-0.1 0.27,-0.17c0.22,-0.16 0.5,-0.36 0.77,-0.58s0.55,-0.44 0.75,-0.62c0.09,-0.09 0.17,-0.17 0.23,-0.22c0.06,-0.05 0.09,-0.08 0.09,-0.08z" fill="#FEBF10" id="svg_66"/>
       <path d="m1693.01,74.87c0,0 -0.03,0.03 -0.07,0.08c-0.03,0.05 -0.09,0.12 -0.15,0.21c-0.12,0.17 -0.27,0.41 -0.42,0.65c-0.15,0.25 -0.28,0.49 -0.38,0.69c-0.04,0.09 -0.08,0.17 -0.11,0.23c-0.02,0.06 -0.04,0.09 -0.04,0.09s0.03,-0.03 0.06,-0.08c0.04,-0.05 0.1,-0.12 0.16,-0.2c0.12,-0.18 0.28,-0.42 0.42,-0.66c0.15,-0.24 0.28,-0.49 0.38,-0.69c0.04,-0.09 0.08,-0.17 0.11,-0.23c0.02,-0.06 0.04,-0.09 0.04,-0.09z" fill="#FEBF10" id="svg_67"/>
      </g>
     </g>
     <g id="svg_68">
      <path d="m1709.29,73.13c0,0 -1.74,-2.31 -2.71,-1.47c-0.97,0.83 2.34,1.91 2.34,1.91s-3.54,0.18 -3.29,1.47c0.24,1.28 3.52,-1.01 3.52,-1.01s-0.89,2.84 0.56,3.02s0.02,-2.99 0.02,-2.99s2.45,1.54 3.12,0.37c0.67,-1.17 -2.81,-1.01 -2.81,-1.01s2.56,-1.83 1.82,-2.42c-0.72,-0.58 -1.64,0.21 -2.57,2.13z" fill="#86C661" id="svg_69"/>
      <g id="svg_70">
       <circle cx="1709.22" cy="73.43" fill="#FFFFFF" id="svg_71" r="0.08"/>
       <circle cx="1709.32" cy="73.81" fill="#FFFFFF" id="svg_72" r="0.08"/>
       <circle cx="1709.73" cy="73.71" fill="#FFFFFF" id="svg_73" r="0.08"/>
       <circle cx="1709.64" cy="73.29" fill="#FFFFFF" id="svg_74" r="0.08"/>
       <path d="m1709.85,73.3c0,0 0.02,-0.02 0.04,-0.06c0.04,-0.05 0.08,-0.1 0.14,-0.17c0.11,-0.14 0.27,-0.31 0.43,-0.48c0.16,-0.17 0.32,-0.34 0.45,-0.46c0.06,-0.06 0.12,-0.11 0.16,-0.15c0.03,-0.03 0.06,-0.05 0.06,-0.05s-0.02,0.02 -0.05,0.06s-0.08,0.1 -0.14,0.17c-0.1,0.14 -0.26,0.31 -0.42,0.48c-0.16,0.17 -0.33,0.34 -0.46,0.46c-0.06,0.06 -0.11,0.11 -0.15,0.15c-0.04,0.03 -0.06,0.05 -0.06,0.05z" fill="#0A753C" id="svg_75"/>
       <path d="m1709.74,73.07c0,0 0.01,-0.02 0.03,-0.06c0.02,-0.04 0.04,-0.09 0.07,-0.16c0.07,-0.13 0.16,-0.3 0.26,-0.47c0.1,-0.16 0.2,-0.33 0.29,-0.44c0.04,-0.07 0.07,-0.11 0.1,-0.15s0.04,-0.06 0.04,-0.06s-0.01,0.03 -0.03,0.07c-0.01,0.04 -0.04,0.09 -0.07,0.16c-0.06,0.13 -0.16,0.3 -0.26,0.47c-0.09,0.16 -0.2,0.33 -0.28,0.45c-0.04,0.06 -0.08,0.1 -0.1,0.14c-0.03,0.04 -0.05,0.05 -0.05,0.05z" fill="#0A753C" id="svg_76"/>
       <path d="m1709.4,74.16c0,0 0,0.03 0,0.08c0,0.06 0,0.13 0,0.22c-0.01,0.17 -0.02,0.41 -0.04,0.64c-0.02,0.24 -0.05,0.47 -0.07,0.64c-0.02,0.09 -0.03,0.16 -0.04,0.21c-0.01,0.06 -0.02,0.08 -0.02,0.08s0,-0.03 0,-0.08s0,-0.12 0.01,-0.21c0,-0.18 0.01,-0.41 0.03,-0.64c0.02,-0.24 0.05,-0.47 0.08,-0.65c0.01,-0.08 0.02,-0.16 0.03,-0.21c0.01,-0.05 0.02,-0.08 0.02,-0.08z" fill="#0A753C" id="svg_77"/>
       <path d="m1709.05,73.85c0,0 -0.03,0.02 -0.07,0.04s-0.1,0.07 -0.18,0.12c-0.15,0.09 -0.35,0.21 -0.56,0.32c-0.2,0.11 -0.41,0.22 -0.57,0.29c-0.08,0.04 -0.15,0.07 -0.2,0.09c-0.04,0.02 -0.07,0.03 -0.07,0.03s0.02,-0.02 0.07,-0.05c0.04,-0.02 0.1,-0.06 0.17,-0.11c0.15,-0.09 0.36,-0.21 0.56,-0.32c0.21,-0.12 0.42,-0.22 0.58,-0.29c0.08,-0.04 0.15,-0.07 0.19,-0.09c0.05,-0.02 0.08,-0.03 0.08,-0.03z" fill="#0A753C" id="svg_78"/>
       <path d="m1708.97,73.72c0,0 -0.06,0.04 -0.17,0.08c-0.11,0.04 -0.25,0.09 -0.39,0.14s-0.29,0.08 -0.4,0.1c-0.11,0.02 -0.19,0.03 -0.19,0.03s0.07,-0.04 0.17,-0.08c0.11,-0.04 0.25,-0.09 0.39,-0.14c0.15,-0.04 0.29,-0.07 0.41,-0.1c0.11,-0.02 0.18,-0.03 0.18,-0.03z" fill="#0A753C" id="svg_79"/>
       <path d="m1709.03,73.27c0,0 -0.02,-0.02 -0.06,-0.05c-0.04,-0.02 -0.11,-0.07 -0.18,-0.12c-0.14,-0.1 -0.32,-0.25 -0.5,-0.4c-0.18,-0.15 -0.36,-0.3 -0.49,-0.42c-0.06,-0.06 -0.11,-0.12 -0.15,-0.15c-0.04,-0.04 -0.05,-0.06 -0.05,-0.06s0.02,0.02 0.06,0.04c0.04,0.03 0.1,0.07 0.17,0.13c0.15,0.1 0.33,0.25 0.51,0.4c0.18,0.14 0.36,0.3 0.49,0.42c0.06,0.06 0.11,0.11 0.15,0.15c0.03,0.04 0.05,0.06 0.05,0.06z" fill="#0A753C" id="svg_80"/>
       <path d="m1709.56,74.25c0,0 0.01,0.02 0.02,0.06c0.01,0.04 0.03,0.1 0.04,0.17c0.03,0.15 0.07,0.34 0.09,0.53c0.02,0.19 0.05,0.38 0.05,0.53c0.01,0.07 0.01,0.13 0.01,0.17c0,0.05 0,0.07 0,0.07s-0.01,-0.02 -0.02,-0.06c-0.01,-0.04 -0.02,-0.1 -0.04,-0.18c-0.02,-0.14 -0.06,-0.33 -0.09,-0.52c-0.02,-0.19 -0.04,-0.38 -0.05,-0.53c0,-0.07 0,-0.13 0,-0.18c-0.01,-0.04 -0.01,-0.06 -0.01,-0.06z" fill="#0A753C" id="svg_81"/>
       <path d="m1710.05,73.92c0,0 0.03,0 0.08,0.01c0.05,0.01 0.11,0.03 0.2,0.05c0.16,0.03 0.38,0.09 0.6,0.15c0.21,0.07 0.42,0.14 0.58,0.2c0.08,0.03 0.15,0.05 0.19,0.07c0.05,0.02 0.07,0.03 0.07,0.03s-0.03,0 -0.07,-0.01c-0.05,-0.02 -0.12,-0.03 -0.21,-0.05c-0.16,-0.04 -0.38,-0.09 -0.59,-0.15c-0.22,-0.07 -0.43,-0.14 -0.59,-0.2c-0.08,-0.03 -0.14,-0.05 -0.19,-0.07c-0.04,-0.02 -0.07,-0.03 -0.07,-0.03z" fill="#0A753C" id="svg_82"/>
       <path d="m1710,73.82c0,0 0.02,-0.01 0.07,-0.01c0.04,0.01 0.1,0 0.17,0.01c0.15,0 0.34,0.02 0.53,0.04c0.19,0.02 0.39,0.05 0.53,0.08c0.07,0.01 0.13,0.02 0.17,0.03c0.04,0.01 0.07,0.02 0.07,0.02s-0.03,0 -0.07,0c-0.04,0 -0.1,0 -0.18,-0.01c-0.14,0 -0.34,-0.02 -0.53,-0.04c-0.19,-0.02 -0.38,-0.05 -0.52,-0.07c-0.07,-0.02 -0.13,-0.03 -0.18,-0.04c-0.04,-0.01 -0.06,-0.01 -0.06,-0.01z" fill="#0A753C" id="svg_83"/>
       <path d="m1707.81,72.76c0,0 0.07,0.02 0.18,0.07c0.11,0.04 0.26,0.1 0.4,0.17s0.27,0.15 0.37,0.22c0.1,0.06 0.16,0.11 0.16,0.11s-0.07,-0.02 -0.18,-0.07c-0.11,-0.04 -0.25,-0.11 -0.39,-0.18c-0.14,-0.07 -0.28,-0.15 -0.38,-0.21c-0.1,-0.06 -0.16,-0.11 -0.16,-0.11z" fill="#0A753C" id="svg_84"/>
      </g>
     </g>
     <g id="svg_85">
      <path d="m1681.05,76.08c0,0 -0.35,-2.84 3.49,-2.87c0,0 -0.46,3.54 -3.49,2.87z" fill="#60B863" id="svg_86"/>
      <path d="m1681.1,76.04c0,0 2.75,-2.1 3.31,-2.74c0,0 -2.12,1.51 -3.31,2.74z" fill="#FFFFFF" id="svg_87"/>
     </g>
     <g id="svg_88">
      <path d="m1699.85,78.76c0,0 -0.39,-3.2 3.94,-3.24c0,0 -0.52,3.99 -3.94,3.24z" fill="#60B863" id="svg_89"/>
      <path d="m1699.9,78.71c0,0 3.1,-2.37 3.74,-3.09c0,0 -2.39,1.71 -3.74,3.09z" fill="#FFFFFF" id="svg_90"/>
     </g>
     <g id="svg_91">
      <path d="m1704.67,74.02c0,0 -1.21,0.87 -2.19,-0.87c0,0 1.74,-0.68 2.19,0.87z" fill="#60B863" id="svg_92"/>
      <path d="m1704.64,74.01c0,0 -1.65,-0.73 -2.08,-0.83c0,0 1.22,0.59 2.08,0.83z" fill="#FFFFFF" id="svg_93"/>
     </g>
     <g id="svg_94">
      <path d="m1670.66,73.99c0,0 -1.76,0.23 -1.8,-2.15c0,0 2.2,0.25 1.8,2.15z" fill="#60B863" id="svg_95"/>
      <path d="m1670.64,73.96c0,0 -1.33,-1.7 -1.73,-2.04c0,0 0.96,1.3 1.73,2.04z" fill="#FFFFFF" id="svg_96"/>
     </g>
     <g id="svg_97">
      <path d="m1681.83,78.31c0,0 -1.48,1 -2.57,-1.12c0,0 2.09,-0.74 2.57,1.12z" fill="#60B863" id="svg_98"/>
      <path d="m1681.79,78.3c0,0 -1.94,-0.93 -2.45,-1.06c0,0 1.44,0.74 2.45,1.06z" fill="#FFFFFF" id="svg_99"/>
     </g>
    </g>
    <path d="m1683.03,44.56c0,0 -3.43,-2.24 -3.85,-0.98c-0.42,1.26 3.64,1.47 3.64,1.47s-3.57,2.03 -2.38,3.08c1.19,1.05 2.87,-2.8 2.87,-2.8s0.07,3.36 1.19,3.43c1.12,0.07 -0.77,-3.5 -0.77,-3.5s4.34,-0.14 4.34,-1.19c0,-1.05 -4.27,0.56 -4.27,0.56s1.05,-3.56 0.07,-3.77c-0.98,-0.21 -0.84,3.7 -0.84,3.7z" fill="#F8ED3B" id="svg_100"/>
    <g id="svg_101">
     <polygon fill="#EF4D78" id="svg_102" points="1698.643,25.57 1702.655,16.689 1703.585,18.24 1704.657,17.646 1704.455,18.67 1705.883,18.403 
				1705.622,19.389 1707.5,19.68 1700.438,26.467 1709.896,26.972 1709.104,27.76 1709.996,29.369 1708.438,29.461 1709.447,30.653 
				1707.714,30.877 1707.757,32.152 1699.958,28.134 1702.922,36.896 1701.445,36.383 1701.125,37.576 1700.225,36.709 
				1699.943,37.846 1698.947,36.997 1698.191,38.223 1698.273,28.227 1690.878,34.951 1691.128,33.377 1689.913,33.209 
				1690.513,32.457 1689.036,31.943 1689.79,30.965 1688.641,30.096 1697.736,26.527 1689.48,21.363 1691.045,20.774 
				1690.927,19.615 1692.082,19.99 1692.088,18.166 1693.196,19.093 1693.962,17.373 			"/>
     <path d="m1698.76,27.16c-0.1,0.16 -0.32,0.2 -0.48,0.09s-0.2,-0.32 -0.09,-0.48c0.11,-0.16 0.33,-0.2 0.48,-0.09c0.16,0.11 0.2,0.33 0.09,0.48z" fill="#48C5DD" id="svg_103"/>
     <circle cx="1699.75" cy="26.47" fill="#48C5DD" id="svg_104" r="0.24"/>
     <circle cx="1699" cy="26.34" fill="#48C5DD" id="svg_105" r="0.35"/>
     <circle cx="1699.83" cy="27.38" fill="#48C5DD" id="svg_106" r="0.36"/>
     <circle cx="1699.02" cy="27.7" fill="#48C5DD" id="svg_107" r="0.23"/>
     <path d="m1699.58,25.43c0,0 0.04,-0.07 0.11,-0.21c0.07,-0.13 0.17,-0.32 0.3,-0.54c0.12,-0.22 0.27,-0.49 0.43,-0.77c0.16,-0.28 0.33,-0.57 0.5,-0.87c0.18,-0.29 0.35,-0.59 0.52,-0.86c0.16,-0.28 0.32,-0.53 0.46,-0.75c0.13,-0.22 0.25,-0.4 0.33,-0.53c0.08,-0.13 0.13,-0.2 0.13,-0.2s-0.04,0.08 -0.11,0.21c-0.08,0.13 -0.17,0.32 -0.3,0.55c-0.13,0.22 -0.27,0.48 -0.44,0.76c-0.16,0.28 -0.33,0.58 -0.5,0.87c-0.18,0.3 -0.35,0.59 -0.52,0.87c-0.16,0.28 -0.32,0.53 -0.46,0.75c-0.13,0.22 -0.24,0.4 -0.33,0.53c-0.08,0.12 -0.12,0.19 -0.12,0.19z" fill="#48C5DD" id="svg_108"/>
     <path d="m1700.06,25.64c0,0 0.03,-0.04 0.07,-0.1c0.06,-0.06 0.12,-0.14 0.21,-0.24c0.09,-0.1 0.19,-0.22 0.3,-0.34c0.11,-0.12 0.23,-0.25 0.35,-0.38c0.12,-0.13 0.24,-0.25 0.36,-0.37c0.11,-0.12 0.23,-0.22 0.31,-0.31c0.1,-0.1 0.18,-0.17 0.24,-0.22c0.06,-0.06 0.09,-0.08 0.09,-0.08s-0.03,0.03 -0.08,0.09c-0.05,0.06 -0.12,0.15 -0.2,0.25c-0.09,0.09 -0.19,0.21 -0.3,0.33c-0.11,0.13 -0.23,0.25 -0.35,0.38c-0.12,0.13 -0.24,0.26 -0.36,0.37c-0.11,0.12 -0.22,0.23 -0.32,0.32c-0.09,0.09 -0.17,0.16 -0.23,0.22c-0.06,0.05 -0.09,0.08 -0.09,0.08z" fill="#48C5DD" id="svg_109"/>
     <path d="m1700.93,27.05c0,0 0.07,0 0.19,0.01c0.12,0.01 0.29,0.03 0.51,0.05c0.2,0.02 0.44,0.05 0.7,0.08c0.26,0.03 0.53,0.06 0.81,0.1c0.27,0.04 0.55,0.07 0.8,0.11c0.26,0.04 0.5,0.08 0.71,0.11c0.2,0.03 0.37,0.07 0.49,0.09c0.12,0.02 0.19,0.03 0.19,0.03s-0.07,0 -0.19,-0.01c-0.12,-0.01 -0.29,-0.03 -0.5,-0.05c-0.2,-0.02 -0.45,-0.05 -0.71,-0.08c-0.26,-0.03 -0.53,-0.06 -0.8,-0.1c-0.28,-0.04 -0.55,-0.07 -0.81,-0.11c-0.26,-0.04 -0.5,-0.08 -0.7,-0.11c-0.21,-0.03 -0.38,-0.07 -0.5,-0.09c-0.12,-0.02 -0.19,-0.03 -0.19,-0.03z" fill="#48C5DD" id="svg_110"/>
     <path d="m1700.83,27.57c0,0 0.02,0 0.07,0.02c0.05,0.02 0.12,0.05 0.2,0.08c0.16,0.06 0.37,0.16 0.58,0.27c0.21,0.1 0.42,0.21 0.57,0.3c0.07,0.05 0.13,0.09 0.18,0.12c0.04,0.02 0.07,0.04 0.07,0.04s-0.03,-0.01 -0.08,-0.03c-0.05,-0.02 -0.12,-0.04 -0.2,-0.07c-0.16,-0.07 -0.37,-0.17 -0.58,-0.27c-0.21,-0.1 -0.42,-0.22 -0.57,-0.31c-0.07,-0.04 -0.13,-0.08 -0.18,-0.11c-0.04,-0.03 -0.06,-0.04 -0.06,-0.04z" fill="#48C5DD" id="svg_111"/>
     <path d="m1699.5,28.46c0,0 0.01,0.05 0.04,0.15c0.03,0.09 0.08,0.23 0.12,0.39c0.05,0.16 0.11,0.35 0.16,0.55c0.06,0.2 0.11,0.42 0.17,0.64c0.05,0.21 0.11,0.43 0.16,0.64c0.04,0.2 0.08,0.39 0.12,0.56c0.04,0.16 0.06,0.3 0.08,0.4c0.02,0.09 0.03,0.15 0.03,0.15s-0.01,-0.06 -0.05,-0.15c-0.03,-0.09 -0.07,-0.23 -0.11,-0.39s-0.11,-0.35 -0.16,-0.55c-0.06,-0.2 -0.11,-0.42 -0.17,-0.64c-0.06,-0.22 -0.11,-0.43 -0.16,-0.64c-0.05,-0.2 -0.09,-0.4 -0.13,-0.56c-0.03,-0.17 -0.06,-0.3 -0.08,-0.4c-0.01,-0.09 -0.02,-0.15 -0.02,-0.15z" fill="#48C5DD" id="svg_112"/>
     <path d="m1698.93,28.51c0,0 0.01,0.08 0.02,0.23c0.01,0.14 0.03,0.35 0.05,0.59s0.03,0.54 0.05,0.85c0.01,0.3 0.03,0.63 0.05,0.96c0.01,0.33 0.02,0.66 0.03,0.97c0.01,0.31 0.02,0.59 0.02,0.84c0.01,0.25 0,0.45 0.01,0.6c0,0.14 0,0.23 0,0.23s-0.01,-0.09 -0.03,-0.23c0,-0.14 -0.02,-0.35 -0.04,-0.6c-0.01,-0.24 -0.03,-0.53 -0.05,-0.84c-0.02,-0.31 -0.03,-0.64 -0.05,-0.97c-0.01,-0.32 -0.02,-0.65 -0.03,-0.96c-0.01,-0.31 -0.02,-0.6 -0.02,-0.85c-0.01,-0.24 -0.01,-0.45 -0.01,-0.59c0,-0.15 0,-0.23 0,-0.23z" fill="#48C5DD" id="svg_113"/>
     <path d="m1698.05,27.66c0,0 -0.04,0.04 -0.11,0.1c-0.06,0.07 -0.16,0.16 -0.28,0.27c-0.12,0.11 -0.26,0.24 -0.41,0.38c-0.16,0.14 -0.32,0.28 -0.48,0.42c-0.17,0.14 -0.34,0.28 -0.49,0.41c-0.16,0.13 -0.31,0.25 -0.44,0.35c-0.12,0.11 -0.23,0.19 -0.31,0.24c-0.08,0.06 -0.12,0.1 -0.12,0.1s0.04,-0.04 0.1,-0.11c0.07,-0.06 0.17,-0.16 0.29,-0.27c0.12,-0.11 0.26,-0.24 0.41,-0.38c0.15,-0.13 0.32,-0.27 0.48,-0.42c0.17,-0.14 0.34,-0.28 0.49,-0.41c0.16,-0.13 0.31,-0.25 0.44,-0.35c0.13,-0.1 0.24,-0.18 0.31,-0.24c0.08,-0.06 0.12,-0.09 0.12,-0.09z" fill="#48C5DD" id="svg_114"/>
     <path d="m1697.8,27.2c0,0 -0.06,0.04 -0.18,0.09c-0.11,0.05 -0.27,0.13 -0.47,0.22c-0.2,0.09 -0.43,0.19 -0.68,0.3c-0.25,0.11 -0.51,0.23 -0.78,0.34c-0.26,0.11 -0.53,0.22 -0.78,0.32c-0.25,0.1 -0.48,0.19 -0.69,0.27c-0.2,0.08 -0.37,0.14 -0.48,0.19c-0.12,0.04 -0.19,0.07 -0.19,0.07s0.06,-0.04 0.18,-0.09c0.11,-0.05 0.27,-0.13 0.47,-0.22c0.2,-0.09 0.43,-0.2 0.68,-0.3c0.24,-0.11 0.51,-0.23 0.77,-0.34c0.27,-0.11 0.54,-0.22 0.79,-0.32c0.25,-0.1 0.48,-0.19 0.69,-0.27c0.2,-0.08 0.37,-0.14 0.48,-0.19c0.12,-0.04 0.19,-0.07 0.19,-0.07z" fill="#48C5DD" id="svg_115"/>
     <path d="m1698.1,25.54c0,0 -0.02,-0.03 -0.07,-0.09c-0.05,-0.06 -0.12,-0.15 -0.19,-0.25c-0.08,-0.11 -0.17,-0.23 -0.27,-0.37c-0.09,-0.13 -0.19,-0.27 -0.29,-0.42c-0.1,-0.14 -0.19,-0.29 -0.28,-0.43c-0.09,-0.14 -0.17,-0.27 -0.24,-0.38c-0.06,-0.11 -0.12,-0.2 -0.16,-0.27c-0.04,-0.07 -0.06,-0.11 -0.06,-0.11s0.03,0.04 0.08,0.1c0.04,0.06 0.11,0.15 0.19,0.25c0.08,0.11 0.17,0.23 0.26,0.36c0.1,0.14 0.2,0.28 0.29,0.42c0.1,0.15 0.2,0.29 0.28,0.43c0.09,0.14 0.17,0.27 0.24,0.38c0.07,0.12 0.12,0.21 0.16,0.28c0.04,0.06 0.06,0.1 0.06,0.1z" fill="#48C5DD" id="svg_116"/>
     <path d="m1697.8,25.8c0,0 -0.07,-0.05 -0.18,-0.14c-0.11,-0.09 -0.27,-0.21 -0.47,-0.37c-0.19,-0.15 -0.41,-0.33 -0.64,-0.53c-0.24,-0.2 -0.49,-0.41 -0.74,-0.62c-0.25,-0.21 -0.5,-0.43 -0.73,-0.63c-0.23,-0.2 -0.45,-0.39 -0.63,-0.55c-0.19,-0.17 -0.34,-0.31 -0.44,-0.4c-0.11,-0.1 -0.17,-0.15 -0.17,-0.15s0.07,0.05 0.18,0.13c0.11,0.09 0.27,0.22 0.47,0.37c0.19,0.16 0.41,0.34 0.65,0.54c0.23,0.19 0.48,0.4 0.73,0.61c0.25,0.22 0.5,0.43 0.73,0.63c0.23,0.2 0.45,0.4 0.63,0.56c0.19,0.16 0.34,0.3 0.44,0.4c0.11,0.09 0.17,0.15 0.17,0.15z" fill="#48C5DD" id="svg_117"/>
    </g>
    <path d="m1705.27,61.08c-0.02,0 -0.03,0 -0.04,0c-0.11,-0.02 -0.19,-0.13 -0.17,-0.24c0.91,-5.53 4.13,-7.03 7.54,-8.62c0.21,-0.1 0.42,-0.19 0.63,-0.29c1.78,-0.85 3.04,-2.7 3.28,-4.85c0.21,-1.95 -0.47,-3.68 -1.86,-4.76c-1.63,-1.27 -3.67,-0.69 -5.03,0.28c-1.43,1.01 -2.7,2.9 -2.11,4.64c0.46,1.37 1.56,2.18 2.95,2.18c0.01,0 0.02,0 0.02,0c1.39,-0.01 2.63,-0.86 3.01,-2.05c0.43,-1.35 -0.18,-2.15 -0.84,-2.43c-0.58,-0.25 -1.39,-0.17 -1.79,0.57c-0.06,0.1 -0.18,0.14 -0.28,0.09c-0.11,-0.06 -0.14,-0.19 -0.09,-0.29c0.51,-0.93 1.55,-1.08 2.32,-0.76c0.89,0.38 1.57,1.43 1.08,2.94c-0.44,1.37 -1.83,2.33 -3.4,2.35c-0.01,0 -0.03,0 -0.03,0c-1.58,0 -2.83,-0.92 -3.35,-2.47c-0.56,-1.66 0.37,-3.77 2.27,-5.12c1.48,-1.05 3.72,-1.67 5.53,-0.26c1.51,1.17 2.24,3.04 2.01,5.13c-0.25,2.29 -1.6,4.28 -3.52,5.19c-0.21,0.09 -0.41,0.19 -0.62,0.29c-3.45,1.61 -6.43,3 -7.31,8.31c-0.02,0.1 -0.1,0.17 -0.2,0.17z" fill="#EE2163" id="svg_118"/>
    <path d="m1676.53,56.79c-0.1,0 -0.19,-0.07 -0.21,-0.17c-0.73,-3.73 -2.93,-4.57 -5.48,-5.55c-0.15,-0.06 -0.31,-0.12 -0.46,-0.18c-1.41,-0.55 -2.44,-1.88 -2.7,-3.48c-0.26,-1.54 0.27,-3.02 1.39,-3.96c1.16,-0.97 2.84,-0.96 4.29,0.02c1.14,0.75 2.08,2.14 1.64,3.54c-0.45,1.42 -1.64,1.95 -2.61,1.97c-1.15,0.02 -2.14,-0.61 -2.49,-1.56c-0.39,-1.11 0.11,-1.92 0.79,-2.24c0.67,-0.32 1.43,-0.13 1.78,0.46c0.06,0.1 0.02,0.23 -0.07,0.29c-0.11,0.06 -0.23,0.03 -0.29,-0.07c-0.29,-0.48 -0.85,-0.49 -1.24,-0.31c-0.47,0.23 -0.9,0.81 -0.57,1.73c0.28,0.78 1.12,1.3 2.09,1.28c0.82,-0.01 1.83,-0.46 2.22,-1.68c0.37,-1.18 -0.47,-2.39 -1.48,-3.07c-0.98,-0.65 -2.56,-1.06 -3.78,-0.04c-1.02,0.85 -1.48,2.18 -1.26,3.57c0.24,1.46 1.18,2.66 2.44,3.16c0.16,0.06 0.31,0.12 0.47,0.18c2.56,0.98 4.97,1.9 5.74,5.86c0.02,0.12 -0.05,0.23 -0.17,0.25c-0.01,0 -0.03,0 -0.04,0z" fill="#EE2163" id="svg_119"/>
   </g>
  </g>
  <g id="아이콘1" transform="matrix(1 0 0 1 0 0)">
   <g id="svg_120">
    <path d="m160.11,52.95c2.58,-5.38 4.9,-10.92 6.97,-16.57c0.14,0.1 0.38,0.16 0.49,0.05c1.01,-0.93 2.22,-1.54 3.51,-1.39c0,0.01 -0.01,0.01 -0.02,0.02c-0.43,0.62 -0.67,1.35 -0.75,2.11c-0.09,0.01 -0.18,0.03 -0.26,0.06c-0.33,0.13 -0.48,0.45 -0.5,0.79c-0.03,0.13 -0.05,0.26 -0.05,0.4c0.03,0.82 0.72,1.31 1.39,1.13c0.62,-0.17 1.16,-0.91 0.78,-1.62c-0.15,-0.28 -0.42,-0.51 -0.71,-0.65c-0.01,0 -0.02,-0.01 -0.03,-0.01c0.06,-0.51 0.2,-0.99 0.44,-1.44c0.1,0.61 0.37,1.16 0.77,1.62c-0.19,0.33 -0.07,0.77 0.17,1.02c0.29,0.3 0.77,0.4 1.1,0.14c0.3,-0.25 0.34,-0.74 0.09,-1.06c-0.02,-0.02 -0.04,-0.03 -0.06,-0.05c-0.01,-0.06 -0.05,-0.12 -0.1,-0.17c-0.21,-0.17 -0.51,-0.24 -0.77,-0.19c-0.44,-0.52 -0.65,-1.21 -0.62,-1.93c0.41,0.01 0.82,0.06 1.23,0.17c-0.02,0.09 -0.03,0.2 -0.01,0.32c0.07,0.55 0.6,0.85 1.04,0.63c0.27,-0.05 0.5,-0.23 0.57,-0.58c0.02,-0.1 0.01,-0.19 0,-0.28c0.03,-0.22 0,-0.44 -0.12,-0.62c-0.32,-0.47 -0.98,-0.39 -1.3,0.03c-0.01,0.02 -0.02,0.04 -0.03,0.06c-0.49,-0.13 -0.99,-0.19 -1.49,-0.21c0.07,-0.44 0.21,-0.86 0.41,-1.24c0.31,0.13 0.69,0.12 0.98,-0.03c0.57,-0.29 0.78,-1.1 0.34,-1.65c-0.33,-0.42 -0.92,-0.47 -1.35,-0.2c-0.34,0.17 -0.59,0.52 -0.56,1.02c0.01,0.17 0.06,0.3 0.12,0.42c-0.29,0.48 -0.48,1.01 -0.57,1.58c-1.45,-0.24 -2.8,0.3 -3.98,1.32c0.88,-2.42 1.71,-4.85 2.49,-7.3c0.04,-0.01 0.07,-0.02 0.1,-0.05c0.03,-0.02 0.05,-0.03 0.07,-0.05c1.41,-0.03 2.68,0.44 3.8,1.34c-0.13,0.29 -0.18,0.63 -0.05,0.94c0.23,0.52 0.86,0.69 1.33,0.7c0.47,0 1.02,-0.19 1.21,-0.73c0.14,-0.4 0.01,-0.79 -0.24,-1.05c-0.35,-0.56 -1.3,-0.79 -1.81,-0.42c-0.09,0.06 -0.16,0.14 -0.23,0.22c-1.07,-0.76 -2.26,-1.21 -3.52,-1.34c0.89,-0.63 1.82,-1.15 2.8,-1.54c0.25,0.41 0.69,0.72 1.11,0.66c0.17,-0.02 0.28,-0.12 0.37,-0.24c0.29,-0.1 0.53,-0.3 0.61,-0.61c0.17,-0.29 0.23,-0.65 0.12,-0.98c-0.16,-0.49 -0.63,-0.75 -1.06,-0.78c-0.4,-0.02 -0.72,0.2 -0.91,0.52c-0.04,0.02 -0.08,0.04 -0.11,0.07c-0.24,0.2 -0.32,0.46 -0.32,0.72c-0.97,0.37 -1.9,0.83 -2.78,1.41c0.19,-1.41 0.29,-2.83 0.3,-4.26c0,0 0,0 0.01,0c0.41,0.06 0.86,-0.09 1.02,-0.56c0.08,-0.23 0.07,-0.45 0,-0.66c0.01,-0.23 -0.06,-0.47 -0.23,-0.64c-0.33,-0.35 -0.93,-0.49 -1.36,-0.3c-0.12,0.05 -0.21,0.13 -0.29,0.22c-0.13,0.08 -0.2,0.19 -0.23,0.32c-0.05,0.11 -0.09,0.22 -0.1,0.37c-0.03,0.41 0.15,0.73 0.43,0.94c0,1.47 -0.1,2.92 -0.3,4.37c-0.64,-1.33 -1.55,-2.45 -2.66,-3.31c0.01,-0.02 0.02,-0.03 0.02,-0.06c0.04,-0.19 0.03,-0.35 0,-0.5c-0.02,-0.37 -0.13,-0.75 -0.31,-0.94c-0.57,-0.61 -1.4,-0.2 -1.82,0.4c-0.94,1.35 1.11,2.51 1.88,1.59c1.1,0.94 1.96,2.15 2.53,3.6c-1.17,3.73 -2.46,7.41 -3.86,11.03c-0.07,-1.04 -0.35,-2.03 -0.95,-2.88c0.33,-0.35 0.59,-0.78 0.76,-1.26c0.14,-0.02 0.27,-0.07 0.4,-0.18c0.24,-0.21 0.33,-0.53 0.32,-0.85c0,-0.06 0,-0.13 -0.01,-0.2c-0.08,-0.59 -0.59,-0.99 -1.11,-0.84c-0.55,0.17 -0.74,0.86 -0.53,1.42c0.07,0.21 0.2,0.37 0.36,0.49c-0.13,0.34 -0.3,0.66 -0.51,0.94c-0.23,-0.44 -0.49,-0.86 -0.8,-1.23c0.03,-0.08 0.06,-0.17 0.07,-0.28c0.03,-0.51 -0.33,-0.96 -0.8,-0.84c-0.11,0.02 -0.2,0.09 -0.29,0.17c-0.15,0.07 -0.28,0.21 -0.35,0.45c-0.04,0.15 -0.02,0.29 0.03,0.43c0,0.01 0,0.02 0,0.03c0.04,0.51 0.55,0.74 0.93,0.55c0.05,-0.03 0.08,-0.07 0.12,-0.11c0.24,0.33 0.47,0.68 0.65,1.05c-0.39,0.35 -0.86,0.49 -1.35,0.37c-0.05,-0.24 -0.21,-0.44 -0.42,-0.55c-0.06,-0.03 -0.17,-0.06 -0.26,-0.04c-0.12,-0.03 -0.24,-0.03 -0.35,0c-0.29,0.1 -0.46,0.46 -0.39,0.79c0.09,0.4 0.44,0.61 0.78,0.61c0.23,0 0.47,-0.12 0.59,-0.34c0.44,0.1 0.88,0.07 1.29,-0.12c-0.16,0.43 -0.39,0.8 -0.68,1.12c-0.36,-0.3 -0.87,-0.43 -1.22,-0.1c-0.39,0.36 -0.39,1.1 -0.15,1.55c0.3,0.54 0.96,0.62 1.39,0.24c0.05,-0.04 0.08,-0.1 0.11,-0.15c0.32,-0.25 0.38,-0.68 0.22,-1.06c0.43,-0.42 0.75,-0.96 0.95,-1.57c0.62,1.1 0.75,2.44 0.61,3.75c-0.01,0.04 0.01,0.08 0.02,0.11c-1.61,4.09 -3.35,8.1 -5.24,12.04c-0.19,0.41 0.51,0.75 0.68,0.39z" fill="#FFFFFF" id="svg_121" stroke="#FFFFFF" stroke-miterlimit="10" stroke-width="5"/>
    <path d="m137.87,93.25c-0.03,-0.01 -2.15,-0.64 -5.14,-2.39c0.65,-0.81 2.13,-3.14 0.53,-5.98c0,0 -2.54,2.48 -1.16,5.6c-1.44,-0.88 -3.05,-2 -4.7,-3.43c-0.34,-0.29 -0.68,-0.59 -1.02,-0.91c0.48,-0.37 1.69,-1.77 0.49,-6.19c0,0 -2.17,3.28 -1.1,5.6c-1.35,-1.31 -2.76,-2.88 -4.14,-4.73c2.32,-2.19 1.04,-6.03 1.04,-6.03s0.23,-0.51 -1.14,2.04c-0.69,1.29 -0.71,2.35 -0.56,3.08c-1.46,-2.08 -2.86,-4.48 -4.12,-7.26c3.12,-2.63 2.04,-7.02 2.04,-7.02c-2.41,1.82 -2.85,3.85 -2.77,5.3c-1.14,-2.81 -2.11,-5.98 -2.83,-9.53c0.71,-1.01 2.41,-4.35 -1.4,-9.22c0,0 -2.49,5.42 0.66,9.03c0.32,1.63 0.69,3.19 1.1,4.66c-1.02,-1.82 -3.15,-4.43 -7.26,-5.21c0,0 3.32,5.78 7.79,6.95c1.04,3.25 2.3,6.11 3.68,8.61c-2.38,-2.95 -6.59,-2.96 -6.59,-2.96c3.08,4.13 6.45,3.77 7,3.69c1.29,2.24 2.66,4.18 4.04,5.86c-2.59,-1.86 -6.61,-1.37 -6.61,-1.37s0,0 2.13,1.26c1.83,1.09 4.26,0.72 4.89,0.6c1.22,1.43 2.42,2.65 3.57,3.69c-3.14,-1.39 -6.07,0.06 -6.07,0.06c1.06,1 2.39,1.4 3.65,1.52c0.19,1.11 0.68,2.6 1.94,3.65c-1.89,-1.12 -4.05,-2.16 -6.54,-3.05c-0.72,-3.44 -5.05,-6.11 -5.05,-6.11c0.44,3.19 2.42,4.88 3.77,5.69c-1.13,-0.36 -2.32,-0.69 -3.59,-0.98c-2.66,-2.49 -6.94,-0.73 -6.94,-0.73c3.59,3.02 6.23,1.82 7.05,1.3c2.71,0.63 5.11,1.45 7.23,2.38c-1.12,-0.09 -2.7,0.2 -4.19,1.99c0,0 3.34,0.92 5.5,-1.38c2.17,1.06 4.04,2.24 5.62,3.45c0.33,0.1 0.66,0.2 0.98,0.31l-0.29,-0.45c-0.92,-0.73 -1.94,-1.44 -3.06,-2.13c0.07,-0.33 0.35,-2.01 -1.07,-3.91c1.09,-0.06 1.99,-0.27 2.47,-0.41c5.29,4.33 9.79,5.66 9.98,5.72c0.04,0.01 0.07,0.02 0.1,0.02c0.15,0 0.29,-0.1 0.33,-0.25c0.05,-0.18 -0.05,-0.37 -0.24,-0.43z" fill="#FFFFFF" id="svg_122" stroke="#FFFFFF" stroke-miterlimit="10" stroke-width="5"/>
    <path d="m218.94,64.81c-1.01,0.94 -1.94,1.89 -2.8,2.84c0.83,-1.52 1.73,-4.18 0.47,-7.41c0,0 -2.61,4.88 -1.47,8.54c-1.83,2.17 -3.29,4.32 -4.45,6.4c1.05,-2.98 -0.81,-5.96 -0.81,-5.96c-1.55,3.98 0.17,6.2 0.49,6.56c-0.68,1.26 -1.25,2.49 -1.72,3.68l-0.03,0.6c0.24,-0.29 0.49,-0.56 0.74,-0.84c0.83,-2.01 1.94,-4.14 3.4,-6.33c3.23,1.04 5.86,-1.66 5.86,-1.66c-2.36,-0.9 -3.99,-0.31 -4.97,0.39c1.48,-2.04 3.28,-4.12 5.47,-6.19c1.01,0.05 4.13,-0.2 5.89,-5.05c0,0 -4.91,0.63 -6.07,4.43z" fill="#FFFFFF" id="svg_123" stroke="#FFFFFF" stroke-miterlimit="10" stroke-width="5"/>
    <path d="m202.46,75.35c0.86,-2.32 1.6,-4.93 2.15,-7.83c0.62,-0.11 4.39,-1 6.16,-6.6c0,0 -4.54,1.59 -5.99,5.66c0.54,-3.2 0.82,-6.76 0.72,-10.65c4.38,-2.93 5.78,-10.41 5.78,-10.41c-4.13,2.38 -5.45,6.01 -5.86,8.34c-0.11,-1.74 -0.3,-3.56 -0.57,-5.42c2.04,-5.08 -2.67,-9.98 -2.67,-9.98c-2.28,6.67 0.81,9.63 1.95,10.45c0.56,4.1 0.71,7.87 0.54,11.33c-0.46,-1.6 -1.7,-3.62 -4.98,-4.67c0,0 0.49,5.13 4.83,6.8c-0.3,3.46 -0.91,6.57 -1.7,9.35c-0.11,-0.84 -0.53,-1.97 -1.76,-3.1c-2.44,-2.24 -2,-1.77 -2,-1.77s0.07,4.62 3.39,6.1c-0.79,2.52 -1.71,4.73 -2.68,6.65c0.28,-2.9 -3.29,-5.62 -3.29,-5.62c0.37,5.21 2.21,6.27 2.86,6.48c-0.25,0.47 -0.5,0.93 -0.75,1.36c-1.25,2.16 -2.56,3.98 -3.77,5.47c0.31,-3.88 -3.36,-5.61 -3.36,-5.61c-0.65,3.67 1.82,5.62 2.82,6.25c-2.56,3.01 -4.61,4.48 -4.64,4.5c-0.18,0.13 -0.22,0.38 -0.09,0.55c0.1,0.15 0.28,0.2 0.45,0.15c0.03,-0.02 0.06,-0.03 0.09,-0.05c0.19,-0.14 4.53,-3.26 8.6,-9.91c1.4,-0.09 5.85,-0.64 7.62,-4.04c0,0 -3.69,-0.46 -6.56,2.21c0.85,-1.55 1.69,-3.31 2.46,-5.31c0.72,-0.1 3.47,-0.63 5.04,-2.49c1.82,-2.16 1.82,-2.16 1.82,-2.16s-4.51,0.99 -6.61,3.97z" fill="#FFFFFF" id="svg_124" stroke="#FFFFFF" stroke-miterlimit="10" stroke-width="5"/>
    <path d="m135.87,43.06c1.28,-0.1 2.68,-0.92 3.59,-1.54c0.04,0.17 0.18,0.3 0.36,0.34c-1.61,1.59 -4.59,4.84 -3.42,6.27c1.49,1.83 3.77,1.6 4.3,-5.89c0.1,-0.04 0.18,-0.11 0.24,-0.19c-0.02,1.62 0.16,4.9 1.99,5.06c2.3,0.19 3.15,-2.87 -1.14,-5.5c0,-0.01 0,-0.01 0,-0.02c0,-0.04 -0.01,-0.08 -0.02,-0.11c0.01,0 0.02,0 0.03,0c0.06,0 0.11,-0.01 0.17,-0.03c1.65,0.86 4.87,2.31 5.64,1.03c0.98,-1.64 -0.56,-3.03 -5.52,-1.87c-0.01,0 -0.02,-0.01 -0.02,-0.02c0.06,-0.08 0.1,-0.18 0.1,-0.29l0,0c2.15,-0.89 6.81,-3.05 4.76,-4.14c-1.79,-0.96 -3.82,1.51 -4.93,3.18c-0.05,0.05 -0.09,0.09 -0.12,0.13c-0.02,0.03 -0.03,0.05 -0.02,0.08c0,0 -0.01,0 -0.01,0c-0.08,-0.09 -0.21,-0.16 -0.35,-0.16c1.16,-2.97 3.42,-9.61 0.3,-9.61c-3.08,0 -1.96,6.43 -1.27,9.46c0,0.01 -0.01,0.02 -0.01,0.02c-0.08,-0.05 -0.17,-0.09 -0.26,-0.09c-0.04,0 -0.07,0.02 -0.1,0.02c-0.58,-2.22 -2.02,-6.2 -4.94,-5.56c-3.13,0.68 1.79,4.54 4.13,6.21c-0.08,0.09 -0.13,0.2 -0.13,0.32c0,0.09 0.03,0.16 0.07,0.23c-1.55,-0.48 -4.29,-1.14 -5.86,-0.3c-2.28,1.22 0.35,3.15 2.44,2.97z" fill="#FFFFFF" id="svg_125" stroke="#FFFFFF" stroke-miterlimit="10" stroke-width="5"/>
    <path d="m185.56,56.73c0.03,0.14 0.09,0.26 0.18,0.34c-1.77,-0.26 -5.36,-0.49 -5.75,1.87c-0.49,2.96 2.74,4.5 6.12,-0.7c0.01,0 0.02,0 0.02,0c0.05,0.01 0.09,0 0.13,-0.01c0,0.02 -0.01,0.03 -0.01,0.05c-0.01,0.07 0,0.14 0.02,0.21c-1.14,2.03 -3.1,6 -1.79,7.18c1.66,1.5 3.37,-0.29 2.69,-6.9c0,-0.01 0.01,-0.02 0.02,-0.03c0.08,0.1 0.18,0.17 0.3,0.18c0.09,0.01 0.17,-0.01 0.25,-0.04c0.75,3 2.49,8.99 3.89,6.55c1.32,-2.3 -1.43,-5.47 -3.11,-7.09c0.02,-0.05 0.04,-0.11 0.05,-0.17c0,0 0,-0.01 0,-0.01c2.61,1.56 7.85,4.16 8.21,0.25c0.09,-2.56 -5.12,-2.01 -7.93,-1.53c0.05,-0.08 0.09,-0.17 0.1,-0.28c0.01,-0.05 0,-0.09 -0.01,-0.13c2.49,-0.43 7.01,-1.74 6.66,-5.62c-0.37,-4.17 -5.16,1.68 -7.27,4.47c-0.08,-0.11 -0.2,-0.19 -0.33,-0.21c-0.09,-0.01 -0.18,0.02 -0.26,0.06c0.71,-1.94 1.76,-5.4 1.03,-7.57c-1.07,-3.12 -3.48,0.01 -3.54,2.76c-0.03,1.67 0.69,3.6 1.26,4.87c-0.19,0.03 -0.35,0.19 -0.42,0.41c-1.53,-2.31 -4.73,-6.64 -6.43,-5.32c-2.16,1.67 -2.19,4.67 5.92,6.41z" fill="#FFFFFF" id="svg_126" stroke="#FFFFFF" stroke-miterlimit="10" stroke-width="5"/>
    <path d="m186.66,67.15c-2.32,-2.01 -7.27,-1.07 -9.15,-0.61c-0.08,-2.06 -0.17,-3.49 -0.24,-3.84c-0.36,-1.67 -1.2,-5.13 -11.57,-5.01c-7.87,0.09 -26.95,-1.31 -26.71,5.25c0.01,0.29 0.03,2.29 0.06,5.14c-0.02,0.03 -0.04,0.06 -0.05,0.1c-0.02,0.1 0,0.19 0.06,0.27c0.01,0.57 0.01,1.17 0.02,1.8c-0.03,0.04 -0.06,0.08 -0.08,0.13c-0.03,0.11 0.01,0.23 0.09,0.3c0.1,8.48 0.3,21.03 0.62,22.55c0.47,2.26 1.43,3.22 8.1,3.22c6.68,0 16.46,0 20.16,0c3.69,0 9.77,-0.72 10.01,-3.34c0.08,-0.81 0.07,-3.86 0.02,-7.73c0.96,0.23 2.54,0.55 4.19,0.55c1.79,-0.01 3.64,-0.37 4.77,-1.62c1.6,-1.75 2.09,-6.33 1.86,-10.09c-0.11,-2.05 -0.56,-5.69 -2.16,-7.07zm-1.28,15.71c-1.41,1.54 -5.73,0.76 -7.42,0.29c-0.08,-4.77 -0.22,-10.3 -0.36,-14.42c2.32,-0.62 6.29,-1.14 7.66,0.04c0.57,0.5 1.24,2.42 1.42,5.57c0.23,3.74 -0.35,7.47 -1.3,8.52z" fill="#FFFFFF" id="svg_127" stroke="#FFFFFF" stroke-miterlimit="10" stroke-width="5"/>
   </g>
   <g id="svg_128">
    <g id="svg_129">
     <g id="svg_130">
      <path d="m170.14,28.21c-2.69,8.53 -5.95,16.79 -9.76,24.74c-0.17,0.36 -0.86,0.02 -0.67,-0.39c3.79,-7.9 7.02,-16.12 9.69,-24.58c0.12,-0.41 0.86,-0.17 0.74,0.23l0,0z" fill="#58A1B8" id="svg_131"/>
      <path d="m169.4,28.05c-0.71,-1.81 -1.85,-3.27 -3.35,-4.26c-0.44,-0.28 0.22,-0.43 0.47,-0.26c1.59,1.04 2.83,2.59 3.57,4.5c0.15,0.38 -0.59,0.29 -0.69,0.02l0,0z" fill="#58A1B8" id="svg_132"/>
      <path d="m169.65,27.96c0.29,-1.91 0.43,-3.83 0.39,-5.77c-0.01,-0.41 0.74,-0.26 0.75,0.09c0.04,1.99 -0.1,3.96 -0.4,5.92c-0.06,0.36 -0.8,0.14 -0.74,-0.24l0,0z" fill="#58A1B8" id="svg_133"/>
      <path d="m169.53,28.12c1.34,-1.04 2.79,-1.81 4.34,-2.32c0.3,-0.09 0.88,0.41 0.43,0.55c-1.51,0.49 -2.9,1.24 -4.2,2.25c-0.25,0.2 -0.91,-0.21 -0.57,-0.48l0,0z" fill="#58A1B8" id="svg_134"/>
      <path d="m169.58,28.16c2.03,-0.08 3.97,0.65 5.51,2.15c0.29,0.29 -0.44,0.19 -0.58,0.05c-1.27,-1.24 -2.77,-1.88 -4.46,-1.81c-0.18,0.01 -0.85,-0.37 -0.47,-0.39l0,0z" fill="#58A1B8" id="svg_135"/>
      <path d="m176.04,29.59c0.37,0.25 0.59,0.72 0.42,1.21c-0.19,0.54 -0.75,0.73 -1.21,0.73c-0.47,-0.01 -1.1,-0.19 -1.33,-0.7c-0.23,-0.54 0.08,-1.21 0.49,-1.5c0.74,-0.53 2.4,0.19 1.81,1.37c-0.26,0.52 -0.8,0.66 -1.28,0.53c-0.43,-0.11 -0.94,-0.5 -0.86,-1.07c0.08,-0.63 0.78,-0.68 1.19,-0.48c0.39,0.19 0.71,0.83 0.23,1.15c-0.17,0.12 -0.49,0.02 -0.64,-0.12c-0.25,-0.26 -0.41,-0.66 -0.24,-1.04c0.19,-0.4 0.62,-0.38 0.94,-0.2c0.32,0.19 0.4,0.65 0.28,1.03c-0.14,0.44 -0.6,0.41 -0.91,0.24c-0.28,-0.15 -0.5,-0.63 -0.26,-0.95c0.21,-0.27 0.78,-0.1 0.92,0.18c0.17,0.34 -0.04,0.86 -0.39,0.91c-0.26,0.03 -0.8,-0.12 -0.82,-0.49c-0.01,-0.29 0.73,-0.1 0.74,0.14c-0.34,0.06 -0.45,0.02 -0.32,-0.14c0.04,-0.05 0.06,-0.11 0.07,-0.18c0.03,-0.12 0.03,-0.26 -0.02,-0.38c0.08,0.07 0.15,0.14 0.23,0.21c-0.02,-0.01 -0.04,-0.02 -0.07,-0.03c0.15,0.02 0.3,0.03 0.44,0.05c-0.18,0.06 -0.12,0.46 -0.04,0.57c-0.07,-0.05 -0.13,-0.1 -0.2,-0.15c-0.2,-0.01 -0.24,-0.08 -0.11,-0.22c0.02,-0.07 0.03,-0.15 0.04,-0.23c0,-0.06 0.02,-0.35 -0.03,-0.38c0.12,0.04 0.25,0.08 0.37,0.12c-0.1,-0.01 -0.17,0.3 -0.18,0.37c-0.02,0.18 0.03,0.38 0.15,0.5c-0.21,-0.05 -0.43,-0.09 -0.64,-0.13c0.1,-0.07 0.16,-0.15 0.18,-0.28c0.01,-0.07 0.01,-0.14 -0.01,-0.21c-0.08,-0.13 -0.05,-0.14 0.09,-0.01c0,-0.03 -0.23,0.28 -0.25,0.33c-0.02,0.13 0,0.4 0.11,0.48c0.23,0.17 0.58,-0.34 0.64,-0.59c0.08,-0.33 -0.05,-0.8 -0.4,-0.61c-0.26,0.13 -0.45,0.4 -0.53,0.7c-0.11,0.38 -0.04,0.84 0.38,0.79c0.29,-0.04 0.59,-0.23 0.7,-0.55c0.09,-0.24 0.09,-0.65 -0.13,-0.79c-0.1,-0.07 -0.21,-0.19 -0.07,-0.28c0.13,-0.09 0.4,0.03 0.52,0.1l0,0z" fill="#58A1B8" id="svg_136"/>
      <path d="m174.5,25.01c0.37,0.28 0.64,0.74 0.66,1.26c0.03,0.46 -0.13,1 -0.59,1.06c-0.86,0.11 -1.83,-1.29 -0.98,-2.03c0.72,-0.62 1.97,0.11 1.58,1.19c-0.43,1.17 -2.11,0.48 -1.73,-0.71c0.34,-1.08 1.8,-0.89 2.1,0.11c0.34,1.13 -0.96,1.59 -1.64,1.02c-0.84,-0.71 -0.31,-2.24 0.7,-2.19c0.44,0.02 0.91,0.29 1.07,0.78c0.16,0.48 -0.03,1.06 -0.42,1.32c-0.45,0.31 -1.11,0.11 -1.39,-0.38c-0.29,-0.51 0.01,-1.13 0.56,-1.03c0.44,0.08 1.01,0.86 0.43,1.22c-0.38,0.25 -1.2,-0.17 -0.85,-0.72c0.17,-0.28 0.88,0.03 0.68,0.36c-0.01,0 -0.03,-0.01 -0.04,-0.02c-0.09,-0.04 -0.18,-0.08 -0.28,-0.12c-0.07,-0.15 -0.03,-0.18 0.15,-0.1c-0.03,0.06 -0.03,0.11 -0.01,0.18c0.02,0.15 0.06,0.2 0.18,0.15c0.17,-0.07 0.27,-0.36 0.29,-0.55c0.08,-0.64 -0.46,-0.61 -0.66,-0.14c-0.12,0.29 -0.1,1.18 0.34,0.85c0.25,-0.19 0.27,-1.01 -0.13,-0.88c-0.18,0.05 -0.33,0.27 -0.37,0.47c-0.01,0.09 -0.03,0.37 0.07,0.4c0.09,0.03 0.2,-0.23 0.22,-0.3c0.05,-0.15 0.1,-0.5 -0.04,-0.58c0.04,0.02 -0.1,0.04 -0.15,0.07c-0.08,0.05 -0.15,0.13 -0.19,0.23c-0.08,0.19 -0.04,0.43 0.05,0.61c0.02,0.03 0.12,0.23 0.18,0.22c0.02,0 0.09,-0.23 0.1,-0.28c0.1,-0.43 -0.05,-0.9 -0.38,-1.14c-0.13,-0.1 -0.18,-0.29 -0.04,-0.4c0.15,-0.12 0.39,-0.03 0.53,0.07l0,0z" fill="#58A1B8" id="svg_137"/>
      <path d="m171.17,21.35c0.11,0.4 0.22,1.1 -0.17,1.36c-0.35,0.23 -0.88,-0.05 -1.1,-0.37c-0.21,-0.33 -0.36,-0.89 0.05,-1.11c0.38,-0.2 0.91,-0.01 1.22,0.26c0.31,0.27 0.41,0.78 0.11,1.13c-0.31,0.35 -0.85,0.22 -1.19,0.02c-0.33,-0.2 -0.53,-0.59 -0.33,-1c0.22,-0.43 0.67,-0.48 1.06,-0.38c0.4,0.1 0.83,0.37 0.91,0.87c0.07,0.42 -0.16,0.78 -0.5,0.93c-0.68,0.29 -1.7,-0.21 -1.62,-1.13c0.09,-1.05 1.3,-0.93 1.86,-0.48c0.32,0.26 0.5,0.72 0.35,1.17c-0.17,0.47 -0.62,0.62 -1.03,0.56c-0.47,-0.07 -0.94,-0.38 -1.07,-0.94c-0.11,-0.49 0.07,-1.03 0.51,-1.22c0.42,-0.19 1.03,-0.05 1.36,0.3c0.31,0.32 0.33,0.88 0,1.19c-0.15,0.16 -0.83,-0.17 -0.69,-0.3c0.12,-0.12 0.19,-0.28 0.19,-0.46c0,-0.1 -0.01,-0.21 -0.06,-0.31c-0.05,-0.13 -0.03,-0.13 -0.13,-0.1c-0.4,0.1 -0.53,0.71 -0.43,1.1c0.05,0.19 0.12,0.42 0.31,0.31c0.19,-0.1 0.31,-0.33 0.34,-0.55c0.03,-0.21 -0.01,-0.43 -0.12,-0.6c-0.1,-0.15 -0.19,-0.14 -0.36,-0.02c-0.26,0.18 -0.35,0.6 -0.26,0.93c0.03,0.07 0.12,0.17 0.13,0.24c-0.01,-0.04 -0.14,0.06 -0.05,0c0.02,-0.01 0.07,-0.01 0.1,-0.02c0.15,-0.06 0.3,-0.18 0.37,-0.34c0.09,-0.18 0.09,-0.41 0.02,-0.59c-0.1,-0.25 -0.23,-0.2 -0.38,-0.02c-0.12,0.14 -0.19,0.38 -0.13,0.57c0.02,0.05 0.06,0.09 0.07,0.13c0.05,0.13 -0.03,-0.1 -0.05,-0.06c0.04,-0.09 0.16,-0.15 0.21,-0.26c0.04,-0.11 0.07,-0.24 0.05,-0.36c-0.01,-0.04 -0.02,-0.08 -0.04,-0.12c-0.03,-0.08 -0.13,-0.14 -0.02,-0.14c-0.28,0.01 -0.24,0.47 -0.17,0.64c0.01,0.05 0.03,0.09 0.05,0.13c0.06,0.13 0.17,0.18 -0.05,0.1c-0.26,-0.09 -0.1,-0.01 -0.07,-0.14c0.02,-0.05 0.05,-0.1 0.07,-0.15c0.09,-0.3 0.03,-0.63 -0.06,-0.92c-0.05,-0.19 0.67,-0.08 0.74,0.15l0,0z" fill="#58A1B8" id="svg_138"/>
      <path d="m170.8,22.12c0.04,0.17 -0.04,0.32 -0.16,0.42c-0.15,0.13 -0.39,0.05 -0.53,-0.06c-0.24,-0.18 -0.26,-0.61 0.04,-0.74c0.29,-0.13 0.74,0.07 0.77,0.46c0.04,0.44 -0.71,0.32 -0.75,-0.08c0.35,0.26 0.52,0.29 0.51,0.08c-0.02,-0.04 -0.04,-0.08 -0.07,-0.11c-0.17,-0.02 -0.35,-0.04 -0.53,-0.06c-0.04,0.03 -0.02,0.09 -0.03,0.02c-0.05,-0.2 0.22,-0.3 0.35,-0.28c0.19,0.03 0.36,0.14 0.4,0.35l0,0z" fill="#58A1B8" id="svg_139"/>
      <path d="m166.56,22.58c0.44,0.51 0.83,1.46 0.14,1.96c-0.6,0.43 -1.42,-0.11 -1.62,-0.81c-0.48,-1.65 2.35,-1.57 2.02,0.14c-0.35,1.81 -3.21,0.51 -2.13,-1.04c0.42,-0.6 1.25,-1.01 1.82,-0.4c0.36,0.38 0.45,1.46 0.05,1.85c-0.61,0.58 -1.62,-0.31 -1.47,-1.12c0.08,-0.42 0.48,-0.45 0.78,-0.28c0.33,0.2 0.42,0.65 0.26,1.02c-0.12,0.26 -0.54,0.12 -0.68,-0.04c-0.14,-0.17 -0.23,-0.34 -0.24,-0.58c-0.01,-0.37 0.73,-0.2 0.75,0.11c0,0.13 0.01,0.22 0.1,0.32c-0.23,-0.02 -0.45,-0.03 -0.67,-0.05c0.04,-0.09 0.07,-0.17 0.07,-0.27c0.01,-0.05 0,-0.1 -0.02,-0.15c-0.05,-0.15 0.01,-0.13 0.2,0.05c0.09,-0.01 0.17,-0.02 0.25,-0.03c-0.11,0.07 -0.06,0.59 0.05,0.64c-0.02,-0.01 0.08,-0.24 0.09,-0.33c0.02,-0.14 0.07,-0.84 -0.08,-0.9c-0.09,-0.04 -0.41,0.31 -0.46,0.37c-0.13,0.15 -0.25,0.32 -0.28,0.53c-0.06,0.49 0.32,0.9 0.68,0.48c0.19,-0.21 0.28,-0.6 0.15,-0.88c-0.16,-0.34 -0.48,0.01 -0.53,0.26c-0.04,0.2 0.02,0.5 0.15,0.63c0.1,0.09 0.09,0.11 0.2,0.02c0.06,-0.05 0.11,-0.14 0.13,-0.2c0.18,-0.42 -0.06,-0.86 -0.31,-1.15c-0.31,-0.35 0.42,-0.36 0.6,-0.15l0,0z" fill="#58A1B8" id="svg_140"/>
     </g>
     <g id="svg_141">
      <path d="m164.93,40.41c0.17,-1.54 -0.03,-3.13 -0.98,-4.32c-0.23,-0.29 0.32,-0.33 0.46,-0.14c1.03,1.28 1.26,2.96 1.08,4.64c-0.03,0.26 -0.59,0.1 -0.56,-0.18l0,0z" fill="#58A1B8" id="svg_142"/>
      <path d="m163.98,35.99c0.43,-0.43 0.73,-0.97 0.9,-1.6c0.06,-0.22 0.62,-0.04 0.56,0.18c-0.17,0.66 -0.49,1.23 -0.94,1.68c-0.15,0.16 -0.67,-0.1 -0.52,-0.26l0,0z" fill="#58A1B8" id="svg_143"/>
      <path d="m163.87,36.02c-0.25,-0.53 -0.55,-1 -0.91,-1.43c-0.09,-0.1 -0.04,-0.24 0.07,-0.28c0.13,-0.05 0.31,0.02 0.4,0.13c0.38,0.45 0.71,0.97 0.97,1.53c0.14,0.3 -0.43,0.28 -0.53,0.05l0,0z" fill="#58A1B8" id="svg_144"/>
      <path d="m164.27,36.27c-0.57,0.53 -1.33,0.68 -2.03,0.45c-0.35,-0.11 -0.24,-0.56 0.11,-0.45c0.54,0.17 1.07,0.01 1.5,-0.38c0.2,-0.19 0.68,0.14 0.42,0.38l0,0z" fill="#58A1B8" id="svg_145"/>
      <path d="m164.39,36.49c-0.27,0.93 -0.82,1.7 -1.57,2.18c-0.22,0.15 -0.7,-0.21 -0.42,-0.39c0.68,-0.43 1.18,-1.12 1.43,-1.97c0.09,-0.3 0.65,-0.12 0.56,0.18l0,0z" fill="#58A1B8" id="svg_146"/>
      <path d="m163.19,37.89c0.38,0.45 0.27,1.18 -0.15,1.55c-0.43,0.39 -1.09,0.3 -1.38,-0.24c-0.25,-0.45 -0.25,-1.18 0.13,-1.54c0.45,-0.42 1.13,-0.11 1.46,0.33c0.34,0.46 0.31,1.15 -0.21,1.41c-0.46,0.23 -1.05,0 -1.21,-0.57c-0.14,-0.52 0.19,-1.15 0.71,-1.02c0.49,0.12 0.74,1.06 0.26,1.37c-0.47,0.3 -1.26,-0.31 -0.83,-0.89c0.44,-0.6 1.28,0.23 0.76,0.83c-0.13,0.15 -0.39,0.11 -0.49,-0.05c-0.14,-0.22 -0.18,-0.43 -0.16,-0.69c0.04,-0.29 0.6,-0.13 0.56,0.18c-0.01,0.12 0.01,0.23 0.07,0.33c-0.16,-0.02 -0.33,-0.04 -0.49,-0.06c0.08,-0.1 0.18,-0.25 0.07,-0.37c0.06,0.04 0.12,0.08 0.18,0.13c-0.05,-0.02 -0.05,0.39 0.01,0.03c0.01,-0.08 0,-0.15 -0.01,-0.23c-0.05,-0.13 -0.05,-0.15 -0.02,-0.05c-0.12,0.13 -0.14,0.53 0.02,0.64c0.17,0.13 0.4,-0.12 0.44,-0.3c0.06,-0.29 -0.13,-0.59 -0.36,-0.7c-0.51,-0.26 -0.68,0.97 -0.31,1.2c0.21,0.13 0.47,-0.18 0.55,-0.37c0.1,-0.25 0.09,-0.54 -0.08,-0.74c-0.09,-0.11 -0.03,-0.25 0.08,-0.31c0.14,-0.06 0.31,0.02 0.4,0.13l0,0z" fill="#58A1B8" id="svg_147"/>
      <path d="m162.04,35.73c0.29,0.15 0.5,0.48 0.44,0.85c-0.06,0.34 -0.38,0.51 -0.66,0.51c-0.33,0 -0.69,-0.21 -0.77,-0.6c-0.08,-0.34 0.09,-0.69 0.39,-0.79c0.34,-0.12 0.79,0.08 0.86,0.52c0.07,0.41 -0.24,0.72 -0.59,0.68c-0.3,-0.02 -0.7,-0.29 -0.57,-0.69c0.12,-0.4 0.6,-0.37 0.83,-0.13c0.12,0.12 0.19,0.3 0.14,0.47c-0.08,0.21 -0.32,0.25 -0.49,0.21s-0.42,-0.2 -0.36,-0.44c0.05,-0.24 0.31,-0.27 0.47,-0.21c0.1,0.04 0.27,0.14 0.24,0.28c-0.04,0.14 -0.24,0.13 -0.33,0.1c0.03,0 0.06,0.01 0.09,0.01c0.04,-0.01 0.08,-0.02 0.12,-0.03c-0.07,0.03 -0.02,0.02 -0.17,-0.05c-0.13,0.01 -0.17,-0.01 -0.13,-0.07c0.01,-0.01 0.01,-0.02 0.01,-0.03c0,0 -0.01,-0.06 -0.01,-0.05c-0.01,-0.02 -0.01,-0.02 0.01,0c0.06,0.02 0.12,0.03 0.18,0.05c0,0 -0.06,0.11 -0.06,0.14c0,0.04 0.02,0.05 0,0.06c0,-0.01 -0.06,-0.03 -0.06,-0.03c0,0.01 0.08,-0.09 0.09,-0.12c0.03,-0.07 0.04,-0.15 0.03,-0.22c0,-0.01 -0.03,-0.1 -0.03,-0.1c0.02,0.01 0.05,0.02 0.08,0.04c-0.01,0 -0.02,0 -0.02,0c0,0.01 -0.08,0.07 -0.08,0.07c-0.02,0.02 -0.04,0.05 -0.05,0.08c-0.05,0.12 -0.06,0.28 0,0.39c0.03,0.06 0.04,0.06 0.11,0.02c0.19,-0.08 0.26,-0.49 0.06,-0.6c-0.1,-0.04 -0.22,-0.17 -0.14,-0.29c0.08,-0.13 0.28,-0.07 0.37,-0.03l0,0z" fill="#58A1B8" id="svg_148"/>
      <path d="m163.35,33.69c0.13,0.46 0.15,1.04 -0.31,1.28c-0.38,0.19 -0.89,-0.03 -0.93,-0.54c-0.04,-0.44 0.21,-0.99 0.61,-1.09c0.46,-0.12 0.83,0.33 0.8,0.85c-0.03,0.51 -0.43,0.81 -0.86,0.71c-0.38,-0.09 -0.7,-0.48 -0.58,-0.94c0.28,-1.08 1.89,-0.17 1.22,0.68c-0.31,0.38 -1.07,0.28 -1.12,-0.31c-0.05,-0.57 0.73,-0.57 0.9,-0.14c0.13,0.34 -0.44,0.36 -0.54,0.08c0.07,0.19 0.15,0.08 0.21,0.09c-0.01,0 0.01,0.03 0.01,0.03c-0.09,0.04 0.02,-0.05 0.01,-0.04c0.02,-0.04 0.06,-0.06 0.08,-0.1c0.04,-0.09 0.05,-0.32 -0.08,-0.29c-0.27,0.05 -0.1,0.74 0.12,0.34c0.05,-0.08 0.07,-0.19 0.06,-0.29c0,-0.04 -0.01,-0.08 -0.02,-0.12c0,-0.03 -0.01,-0.05 -0.03,-0.08c-0.02,-0.03 -0.01,-0.03 0.04,0.01c0,0.02 -0.07,0.06 -0.08,0.07c-0.04,0.05 -0.07,0.11 -0.09,0.17c-0.04,0.08 -0.07,0.17 -0.08,0.27c-0.01,0.04 -0.02,0.1 -0.01,0.15c0,0.02 0.05,0.12 -0.01,0.08c-0.05,-0.05 -0.01,0 0.02,-0.03c0.02,-0.02 0.06,-0.03 0.08,-0.06c0.16,-0.17 0.1,-0.49 0.04,-0.71c-0.09,-0.36 0.47,-0.36 0.54,-0.07l0,0z" fill="#58A1B8" id="svg_149"/>
      <path d="m165.8,33.18c0.35,0.44 0.37,1.17 -0.08,1.55c-0.46,0.4 -1.11,0.12 -1.32,-0.46c-0.21,-0.57 -0.02,-1.26 0.53,-1.43c0.52,-0.15 1.02,0.25 1.1,0.84c0.09,0.61 -0.29,1.11 -0.85,0.98c-0.45,-0.11 -1.06,-0.97 -0.48,-1.36c0.21,-0.14 0.49,-0.08 0.67,0.07c0.17,0.14 0.34,0.49 0.24,0.73c-0.09,0.24 -0.4,0.22 -0.58,0.14c-0.22,-0.11 -0.34,-0.39 -0.35,-0.67c-0.01,-0.31 0.19,-0.47 0.46,-0.42c0.3,0.06 0.49,0.39 0.46,0.74c-0.07,0.77 -1.23,0.4 -0.91,-0.21c0.12,-0.22 0.66,0.01 0.51,0.28c-0.07,0.14 -0.2,-0.45 -0.22,-0.46c0.07,0.03 0.14,0.05 0.21,0.09c0.07,-0.06 0.1,-0.04 0.06,0.05c0,0.05 0.01,0.1 0.02,0.14c0,0.03 0.01,0.07 0.02,0.1c-0.16,0.05 -0.24,0.01 -0.24,-0.13c-0.05,-0.14 -0.05,-0.14 0.02,0c-0.01,0.04 -0.02,0.09 -0.02,0.14c0,0.14 0.09,0.39 0.25,0.33c0.29,-0.1 0.23,-1.1 -0.13,-0.93c-0.19,0.09 -0.27,0.34 -0.29,0.55c0,0.16 0.03,0.55 0.19,0.63c0.21,0.09 0.39,-0.33 0.41,-0.49c0.04,-0.24 -0.01,-0.47 -0.15,-0.65c-0.22,-0.3 0.32,-0.35 0.47,-0.15l0,0z" fill="#58A1B8" id="svg_150"/>
     </g>
     <g id="svg_151">
      <path d="m167.29,36.13c1.34,-1.24 2.93,-1.88 4.64,-1.42c0.38,0.1 0.27,0.51 -0.1,0.41c-1.46,-0.38 -2.85,0.27 -3.98,1.31c-0.19,0.18 -0.76,-0.11 -0.56,-0.3l0,0z" fill="#58A1B8" id="svg_152"/>
      <path d="m171.46,34.81c0.09,-0.76 0.35,-1.45 0.78,-2.04c0.14,-0.19 0.73,0.07 0.57,0.29c-0.42,0.56 -0.66,1.22 -0.74,1.94c-0.03,0.24 -0.64,0.08 -0.61,-0.19l0,0z" fill="#58A1B8" id="svg_153"/>
      <path d="m171.83,34.72c0.67,-0.02 1.32,0.07 1.96,0.26c0.38,0.11 0.27,0.56 -0.11,0.44c-0.53,-0.15 -1.08,-0.23 -1.64,-0.22c-0.13,0 -0.34,-0.05 -0.39,-0.22c-0.05,-0.15 0.04,-0.26 0.18,-0.26l0,0z" fill="#58A1B8" id="svg_154"/>
      <path d="m172.22,35.12c-0.05,0.78 0.18,1.55 0.68,2.09c0.3,0.33 -0.19,0.58 -0.42,0.33c-0.59,-0.65 -0.95,-1.53 -0.88,-2.48c0.03,-0.37 0.65,-0.26 0.62,0.06l0,0z" fill="#58A1B8" id="svg_155"/>
      <path d="m171.89,35.38c-0.56,0.81 -0.78,1.77 -0.71,2.79c0.02,0.37 -0.6,0.28 -0.62,-0.06c-0.08,-1.1 0.17,-2.17 0.78,-3.05c0.18,-0.26 0.76,0.03 0.55,0.32l0,0z" fill="#58A1B8" id="svg_156"/>
      <path d="m171,37.7c-0.57,-0.18 -0.86,1.2 -0.32,1.37c0.3,0.09 0.69,-0.28 0.76,-0.58c0.09,-0.39 -0.21,-0.74 -0.53,-0.8c-0.65,-0.14 -0.58,1.06 -0.15,0.98c0.11,-0.02 0.21,-0.12 0.27,-0.23c0.03,-0.08 0.04,-0.16 0.04,-0.25c0,-0.08 0.06,-0.04 -0.01,-0.03c-0.14,0.03 -0.31,0.14 -0.29,0.33c0.02,0.16 0.04,-0.02 0.07,-0.03c0.13,0 0.03,0.11 0.01,0.22c-0.11,-0.12 -0.22,-0.23 -0.33,-0.35c0.12,0.01 0.19,-0.03 0.28,-0.11c0.21,-0.2 0.74,0.15 0.46,0.4c-0.2,0.19 -0.44,0.25 -0.69,0.22c-0.15,-0.02 -0.37,-0.15 -0.33,-0.36c0.11,-0.69 1.09,-0.82 1.21,-0.07c0.14,0.82 -0.87,0.84 -1.19,0.33c-0.4,-0.66 0.33,-1.16 0.84,-1.08c0.63,0.08 0.78,0.91 0.29,1.33c-0.45,0.39 -1.13,0.2 -1.43,-0.33c-0.28,-0.52 -0.17,-1.22 0.37,-1.43c0.57,-0.22 1.31,0.14 1.62,0.7c0.38,0.71 -0.16,1.45 -0.78,1.61c-0.67,0.19 -1.36,-0.3 -1.39,-1.12c-0.02,-0.83 0.63,-1.41 1.34,-1.2c0.38,0.12 0.26,0.59 -0.12,0.48l0,0z" fill="#58A1B8" id="svg_157"/>
      <path d="m173.22,37.59c-0.05,-0.04 -0.01,-0.03 -0.05,-0.02c-0.05,0 -0.1,0.03 -0.13,0.06c-0.1,0.09 -0.12,0.24 -0.1,0.37c0.01,0.11 0.06,0.26 0.15,0.31c-0.04,-0.02 -0.04,0.02 -0.01,-0.01c0.03,-0.02 0.06,-0.02 0.09,-0.04c0.06,-0.05 0.11,-0.12 0.14,-0.2c0.02,-0.07 0.02,-0.16 0.01,-0.23c-0.01,-0.02 -0.04,-0.09 -0.04,-0.1c0.01,-0.03 0.05,-0.02 0.04,-0.01c-0.04,0.06 -0.1,0.07 -0.13,0.14c-0.04,0.07 -0.05,0.15 -0.03,0.23c0.01,0.02 0.05,0.09 0.05,0.1c-0.01,0.02 -0.1,-0.01 -0.1,-0.04c0,0.01 0.05,-0.18 0.04,-0.17c-0.01,-0.05 0,-0.04 0.06,0c0.02,0.03 0.05,0.04 0.08,0.03c0.03,-0.01 0.04,0 0.03,0.01c-0.01,0 -0.01,0.01 -0.01,0.02c0.09,0.17 -0.38,-0.05 -0.33,0.01c-0.1,-0.11 -0.04,-0.25 0.08,-0.3c0.14,-0.05 0.32,0.03 0.43,0.14c0.11,0.12 0.14,0.31 0.05,0.45c-0.13,0.18 -0.39,0.15 -0.55,0.07c-0.33,-0.18 -0.44,-0.72 -0.01,-0.83c0.33,-0.09 0.84,0.16 0.79,0.61c-0.05,0.51 -0.61,0.51 -0.91,0.3c-0.3,-0.22 -0.45,-0.69 -0.17,-1.02c0.3,-0.33 0.83,-0.25 1.09,0.08c0.25,0.32 0.21,0.81 -0.09,1.05c-0.34,0.27 -0.81,0.17 -1.1,-0.13c-0.26,-0.27 -0.4,-0.78 -0.13,-1.11c0.29,-0.37 0.83,-0.29 1.16,-0.03c0.09,0.08 0.16,0.23 0.04,0.32c-0.13,0.09 -0.34,0.03 -0.44,-0.06l0,0z" fill="#58A1B8" id="svg_158"/>
      <path d="m174.55,35.15c-0.17,0.05 -0.4,0.14 -0.47,0.35c-0.03,0.08 -0.03,0.19 -0.01,0.27c0.02,0.07 0.07,0.09 0.02,0.09c0.09,0 0.2,-0.19 0.23,-0.25c0.07,-0.12 0.14,-0.26 0.13,-0.4c0,-0.05 -0.02,-0.08 -0.03,-0.12c-0.01,-0.06 0.03,-0.02 -0.01,-0.02c-0.09,0.02 -0.17,0.08 -0.24,0.16c-0.05,0.09 -0.08,0.19 -0.07,0.29c0,0.08 0.07,0.28 0.16,0.29c0.18,0.02 0.21,-0.34 0.15,-0.46c-0.1,-0.18 -0.2,-0.1 -0.24,0.07c-0.01,0.05 -0.02,0.1 -0.01,0.15c0.01,0.03 0.05,0.11 0.05,0.13c0,0.02 -0.04,0.04 -0.09,0.04c0,-0.02 0,-0.03 0,-0.05c-0.02,-0.09 0.04,-0.07 0.2,0.06c-0.15,0.02 -0.34,-0.05 -0.4,-0.22c-0.05,-0.16 0.06,-0.3 0.2,-0.31c0.23,-0.03 0.46,0.08 0.57,0.32c0.08,0.2 0.08,0.44 -0.08,0.59c-0.37,0.34 -0.95,-0.06 -1.05,-0.52c-0.11,-0.49 0.22,-0.94 0.66,-0.92c0.46,0.02 0.93,0.5 0.83,1.05c-0.1,0.6 -0.72,0.74 -1.13,0.46c-0.41,-0.26 -0.6,-0.88 -0.28,-1.32c0.31,-0.42 0.98,-0.5 1.29,-0.03c0.31,0.45 0.05,1.11 -0.32,1.4c-0.45,0.36 -1.08,0.05 -1.17,-0.56c-0.09,-0.65 0.45,-0.95 0.92,-1.08c0.31,-0.09 0.6,0.43 0.19,0.54l0,0z" fill="#58A1B8" id="svg_159"/>
      <path d="m173.22,31.95c-0.23,-0.06 -0.46,0.12 -0.57,0.33c-0.12,0.22 -0.17,0.67 0.07,0.81c0.19,0.11 0.49,-0.09 0.61,-0.25c0.16,-0.21 0.21,-0.58 0.04,-0.82c-0.16,-0.23 -0.48,-0.02 -0.61,0.18c-0.16,0.24 -0.04,0.76 0.29,0.61c0.08,-0.04 0.08,-0.08 0.12,-0.17c0,-0.04 0.01,-0.07 0.04,-0.1c0.02,-0.03 0.02,-0.04 -0.02,-0.02c-0.03,0.02 -0.06,0.01 -0.09,-0.02c-0.06,-0.02 -0.06,-0.04 0,-0.05c0.04,-0.01 0.06,-0.03 0.06,-0.07c0.02,-0.03 0.01,-0.05 -0.02,-0.06c0.01,-0.03 -0.22,-0.09 0.02,-0.05c0.13,0.03 0.08,0 0.07,0.11c0,0.04 -0.01,0.09 -0.03,0.13c-0.01,0.02 -0.02,0.05 -0.03,0.07c-0.03,0.11 -0.13,0.14 -0.28,0.1c0.11,-0.3 0.71,-0.09 0.61,0.19c-0.1,0.29 -0.4,0.32 -0.63,0.21c-0.32,-0.14 -0.37,-0.43 -0.28,-0.77c0.07,-0.26 0.09,-0.49 0.38,-0.51c0.25,-0.02 0.56,0.17 0.73,0.39c0.2,0.25 0.1,0.52 -0.15,0.67c-0.29,0.16 -0.68,0.17 -0.92,-0.09c-0.19,-0.2 -0.2,-0.48 0.04,-0.63c0.26,-0.16 0.62,-0.14 0.87,0.04c0.22,0.16 0.34,0.48 0.21,0.76c-0.14,0.31 -0.49,0.4 -0.78,0.36c-0.58,-0.07 -1.23,-0.8 -0.75,-1.45c0.41,-0.53 1.22,-0.57 1.63,-0.04c0.44,0.55 0.23,1.35 -0.34,1.65c-0.6,0.31 -1.52,0.03 -1.57,-0.83c-0.05,-0.88 0.73,-1.28 1.39,-1.12c0.11,0.03 0.29,0.16 0.25,0.32c-0.05,0.17 -0.25,0.15 -0.36,0.12l0,0z" fill="#58A1B8" id="svg_160"/>
     </g>
    </g>
    <g id="svg_161">
     <path d="m138.06,93.93c-0.04,0 -0.07,-0.01 -0.1,-0.02c-0.2,-0.06 -5.12,-1.51 -10.74,-6.34c-5.16,-4.45 -11.88,-12.74 -14.51,-26.92c-0.03,-0.19 0.09,-0.37 0.28,-0.4c0.19,-0.04 0.36,0.09 0.4,0.27c2.59,13.99 9.2,22.15 14.28,26.53c5.5,4.73 10.43,6.18 10.48,6.2c0.19,0.05 0.29,0.24 0.24,0.43c-0.05,0.15 -0.18,0.25 -0.33,0.25z" fill="#2CBEC1" id="svg_162"/>
     <path d="m132.74,91.18c0,0 2.79,-2.75 0.79,-6.3c0,0 -2.92,2.86 -0.79,6.3z" fill="#2CBEC1" id="svg_163"/>
     <path d="m128.35,88.08c0,0 -4.92,1.72 -7.85,-1.03c0,0 4.12,-2.06 7.85,1.03z" fill="#2CBEC1" id="svg_164"/>
     <path d="m126.48,86.25c0,0 2.13,-0.92 0.67,-6.3c0,0 -2.66,4.01 -0.67,6.3z" fill="#2CBEC1" id="svg_165"/>
     <path d="m123.16,83.27c0,0 -2.93,0.69 -5.05,-0.57c-2.13,-1.26 -2.13,-1.26 -2.13,-1.26s4.65,-0.58 7.18,1.83z" fill="#2CBEC1" id="svg_166"/>
     <path d="m121.7,81.02c0,0 -1.26,-1.64 0.11,-4.19c1.37,-2.55 1.14,-2.04 1.14,-2.04s1.37,4.08 -1.25,6.23z" fill="#2CBEC1" id="svg_167"/>
     <path d="m118.64,76.93c0,0 -3.73,0.84 -7.1,-3.67c0,0 4.88,0 7.1,3.67z" fill="#2CBEC1" id="svg_168"/>
     <path d="m116.86,72.88c0,0 -2.03,-3.97 2.31,-7.25c0,0 1.15,4.66 -2.31,7.25z" fill="#2CBEC1" id="svg_169"/>
     <path d="m114.74,67.69c0,0 -1.6,-5.81 -8.07,-7.03c0,0 3.46,6.04 8.07,7.03z" fill="#2CBEC1" id="svg_170"/>
     <path d="m113.32,61.73c0,0 3.45,-3.67 -1.16,-9.55c0.01,0 -2.74,5.96 1.16,9.55z" fill="#2CBEC1" id="svg_171"/>
    </g>
    <g id="svg_172">
     <path d="m219.97,64.51c-0.11,-0.12 -0.29,-0.13 -0.41,-0.02c-5.61,5.14 -8.81,10.39 -10.63,14.97l-0.03,0.6c0.24,-0.29 0.49,-0.56 0.74,-0.84c1.82,-4.4 4.95,-9.41 10.31,-14.31c0.11,-0.1 0.12,-0.29 0.02,-0.4z" fill="#2CBEC1" id="svg_173"/>
     <path d="m210.69,75.83c0,0 -2.23,-2.25 -0.53,-6.61c0,0 2.14,3.44 0.53,6.61z" fill="#2CBEC1" id="svg_174"/>
     <path d="m212.77,72.8c0,0 1.9,-3.19 6.12,-1.57c0.01,0 -2.77,2.87 -6.12,1.57z" fill="#2CBEC1" id="svg_175"/>
     <path d="m215.49,69.02c0,0 3.39,-3.68 1.4,-8.78c0,0 -2.73,5.09 -1.4,8.78z" fill="#2CBEC1" id="svg_176"/>
     <path d="m219.06,65.39c0,0 4.11,0.83 6.22,-5.01c0,0 -5.4,0.68 -6.22,5.01z" fill="#2CBEC1" id="svg_177"/>
    </g>
    <g id="svg_178">
     <path d="m113.93,87.87c0.03,-0.15 0.17,-0.23 0.32,-0.2c6.87,1.49 11.84,4.17 15.38,6.97l0.3,0.46c-0.33,-0.11 -0.65,-0.22 -0.98,-0.32c-3.47,-2.66 -8.27,-5.18 -14.83,-6.6c-0.14,-0.03 -0.23,-0.17 -0.19,-0.31z" fill="#2CBEC1" id="svg_179"/>
     <path d="m126.56,92.57c0,0 0.8,-2.81 -2.54,-5.49c0.01,0 -0.19,3.72 2.54,5.49z" fill="#2CBEC1" id="svg_180"/>
     <path d="m123.52,91.13c0,0 -2.99,-1.66 -5.7,1.58c0,0 3.55,0.99 5.7,-1.58z" fill="#2CBEC1" id="svg_181"/>
     <path d="m119.59,89.38c0,0 -4.41,-1.36 -5.09,-6.32c0,0 4.52,2.78 5.09,6.32z" fill="#2CBEC1" id="svg_182"/>
     <path d="m115.06,88.15c0,0 -2.97,2.55 -7.32,-1.11c0,0 4.71,-1.95 7.32,1.11z" fill="#2CBEC1" id="svg_183"/>
    </g>
    <g id="svg_184">
     <path d="m190.27,93.13c0.04,-0.02 0.07,-0.03 0.1,-0.05c0.2,-0.15 4.95,-3.55 9.17,-10.87c3.9,-6.73 8.01,-18.17 5.51,-34.43c-0.04,-0.21 -0.24,-0.36 -0.45,-0.33c-0.22,0.04 -0.36,0.24 -0.33,0.45c2.47,16.03 -1.58,27.29 -5.4,33.92c-4.14,7.17 -8.9,10.58 -8.95,10.61c-0.18,0.13 -0.22,0.38 -0.09,0.55c0.1,0.15 0.28,0.2 0.44,0.15z" fill="#2CBEC1" id="svg_185"/>
     <path d="m194.97,88.17c0,0 -4.04,-1.91 -3.23,-6.48c0,0 4.23,1.98 3.23,6.48z" fill="#2CBEC1" id="svg_186"/>
     <path d="m198.53,83.19c0,0 5.94,0 8.06,-4.06c0,0 -5.21,-0.67 -8.06,4.06z" fill="#2CBEC1" id="svg_187"/>
     <path d="m199.84,80.52c0,0 -2.63,-0.19 -3.08,-6.54c0,0 4.37,3.32 3.08,6.54z" fill="#2CBEC1" id="svg_188"/>
     <path d="m202.3,76.06c0,0 3.41,-0.36 5.23,-2.52c1.81,-2.15 1.81,-2.15 1.81,-2.15s-5.22,1.13 -7.04,4.67z" fill="#2CBEC1" id="svg_189"/>
     <path d="m203.03,73.08c0,0 0.74,-2.23 -1.7,-4.46c-2.43,-2.23 -1.99,-1.77 -1.99,-1.77s0.06,4.91 3.69,6.23z" fill="#2CBEC1" id="svg_190"/>
     <path d="m204.79,67.53c0,0 4.32,-0.49 6.26,-6.61c0,0 -5.25,1.84 -6.26,6.61z" fill="#2CBEC1" id="svg_191"/>
     <path d="m205.18,62.51c0,0 0.7,-5.04 -5.21,-6.94c0,0 0.51,5.45 5.21,6.94z" fill="#2CBEC1" id="svg_192"/>
     <path d="m205.51,56.12c0,0 -0.46,-6.85 6.05,-10.6c0,0 -1.46,7.8 -6.05,10.6z" fill="#2CBEC1" id="svg_193"/>
     <path d="m204.8,49.17c0,0 -5.1,-2.64 -2.35,-10.71c0.01,0 5.2,5.38 2.35,10.71z" fill="#2CBEC1" id="svg_194"/>
    </g>
    <g id="svg_195">
     <g id="svg_196">
      <path d="m141.2,40.79c0,0 -3.14,-11.02 0.88,-11.02s-0.88,11.02 -0.88,11.02z" fill="#562C84" id="svg_197"/>
      <path d="m141.44,40.7c0,0 3.15,-5.94 5.77,-4.54c2.62,1.39 -5.77,4.54 -5.77,4.54z" fill="#562C84" id="svg_198"/>
      <path d="m140.74,40.62c0,0 -1.22,-7.87 -5.24,-7c-4.02,0.87 5.24,7 5.24,7z" fill="#562C84" id="svg_199"/>
      <path d="m140.7,40.79c0,0 -4.72,-1.92 -6.99,-0.7c-2.28,1.22 0.35,3.15 2.44,2.97c2.1,-0.17 4.55,-2.27 4.55,-2.27z" fill="#562C84" id="svg_200"/>
      <path d="m141.05,40.96c0,0 -5.95,5.25 -4.37,7.17c1.57,1.92 4.02,1.57 4.37,-7.17z" fill="#562C84" id="svg_201"/>
      <path d="m141.26,41.15c0,0 -0.49,5.74 1.95,5.95c2.44,0.21 3.25,-3.23 -1.95,-5.95z" fill="#562C84" id="svg_202"/>
      <path d="m141.25,40.9c0,0 5.59,3.32 6.64,1.57c1.05,-1.75 -0.79,-3.23 -6.64,-1.57z" fill="#562C84" id="svg_203"/>
      <path d="m139.91,39.52c-0.02,0 -0.04,0 -0.05,-0.02c-0.03,-0.01 -0.57,-0.42 -1.06,-0.97c-0.49,-0.55 -1.44,-1.88 -1.48,-1.93c-0.01,-0.02 -0.84,-1.22 -1.2,-1.54c-0.04,-0.03 -0.05,-0.09 -0.01,-0.13c0.03,-0.04 0.09,-0.04 0.13,-0.01c0.38,0.34 1.2,1.52 1.23,1.57c0.01,0.01 0.99,1.37 1.47,1.91c0.48,0.54 1.02,0.95 1.03,0.95c0.04,0.04 0.05,0.09 0.02,0.14c-0.02,0.02 -0.05,0.03 -0.08,0.03z" fill="#F175A7" id="svg_204"/>
      <path d="m136.61,41.43c-0.12,0 -0.3,-0.01 -0.51,-0.02c-0.43,-0.01 -0.96,-0.04 -1.18,0c-0.05,0.01 -0.1,-0.02 -0.11,-0.08c-0.01,-0.05 0.03,-0.1 0.08,-0.11c0.23,-0.04 0.76,-0.01 1.22,0.01c0.2,0.01 0.38,0.01 0.5,0.01c0.36,0 2.82,-0.25 2.84,-0.25c0.06,-0.01 0.1,0.03 0.1,0.08c0.01,0.05 -0.03,0.1 -0.08,0.11c-0.1,0.01 -2.48,0.25 -2.86,0.25z" fill="#F175A7" id="svg_205"/>
      <path d="m137.89,45.89c-0.01,0 -0.03,0 -0.04,-0.01c-0.05,-0.02 -0.07,-0.07 -0.05,-0.12c0.09,-0.21 0.51,-0.73 0.85,-1.15c0.13,-0.16 0.25,-0.31 0.32,-0.4c0.23,-0.31 1.65,-2.7 1.67,-2.73c0.02,-0.04 0.08,-0.05 0.12,-0.03c0.05,0.03 0.06,0.09 0.04,0.13c-0.06,0.1 -1.44,2.43 -1.68,2.74c-0.07,0.09 -0.19,0.24 -0.33,0.41c-0.31,0.39 -0.74,0.92 -0.82,1.1c-0.01,0.04 -0.04,0.06 -0.08,0.06z" fill="#F175A7" id="svg_206"/>
      <path d="m139.81,44.73c0.28,-0.6 0.43,-1.47 0.57,-1.94c0.14,-0.47 0.45,-1.12 0.45,-1.12" fill="#562C84" id="svg_207"/>
      <path d="m143.31,45.79c-0.03,0 -0.06,-0.01 -0.07,-0.03c-0.02,-0.01 -0.03,-0.02 -0.05,-0.02c-0.16,-0.08 -0.55,-0.25 -0.72,-0.82c-0.11,-0.39 -0.24,-0.65 -0.39,-0.92c-0.11,-0.21 -0.23,-0.43 -0.33,-0.7c-0.14,-0.36 -0.19,-0.65 -0.23,-0.88c-0.04,-0.18 -0.07,-0.34 -0.12,-0.48c-0.02,-0.05 0,-0.1 0.05,-0.12c0.04,-0.02 0.1,0 0.12,0.05c0.06,0.16 0.09,0.32 0.13,0.51c0.05,0.24 0.1,0.51 0.23,0.85c0.1,0.27 0.21,0.48 0.32,0.68c0.14,0.27 0.29,0.56 0.4,0.96c0.14,0.49 0.46,0.63 0.62,0.69c0.07,0.04 0.11,0.05 0.13,0.11c0.02,0.05 -0.01,0.1 -0.06,0.12c-0.01,0 -0.02,0 -0.03,0z" fill="#F175A7" id="svg_208"/>
      <path d="m146.04,41.33c-0.02,0 -0.03,0 -0.05,-0.01c-0.29,-0.18 -0.98,-0.14 -1.59,-0.1l-0.2,0.01c-0.41,0.03 -0.81,0.01 -1.19,-0.01c-0.24,-0.01 -0.47,-0.02 -0.7,-0.02c-0.05,0 -0.1,-0.05 -0.1,-0.1c0,-0.05 0.05,-0.09 0.1,-0.09c0.23,0 0.46,0.01 0.71,0.02c0.38,0.02 0.76,0.04 1.17,0.02l0.2,-0.02c0.67,-0.04 1.35,-0.08 1.7,0.13c0.04,0.02 0.06,0.08 0.03,0.13c-0.02,0.03 -0.05,0.04 -0.08,0.04z" fill="#F175A7" id="svg_209"/>
      <path d="m142.23,39.62c-0.02,0 -0.04,0 -0.06,-0.01c-0.04,-0.04 -0.05,-0.1 -0.02,-0.14c0.29,-0.36 1.21,-1.19 1.96,-1.82c0.72,-0.6 2.02,-0.82 2.07,-0.82c0.06,-0.01 0.1,0.02 0.11,0.07c0.01,0.05 -0.03,0.1 -0.08,0.11c-0.01,0 -1.3,0.22 -1.98,0.78c-0.75,0.63 -1.65,1.45 -1.93,1.8c-0.02,0.02 -0.04,0.03 -0.07,0.03z" fill="#F175A7" id="svg_210"/>
      <path d="m140.95,39.74c-0.04,0 -0.08,-0.03 -0.09,-0.08c-0.08,-0.46 -0.08,-1.43 -0.04,-2.16c0.02,-0.38 0.02,-0.71 0.02,-1.2c-0.01,-0.41 -0.01,-0.92 0,-1.68c0.01,-1.38 0.26,-1.64 0.37,-1.77c0.01,-0.01 0.02,-0.02 0.02,-0.02c0.01,-0.05 0.06,-0.09 0.11,-0.08c0.05,0.01 0.09,0.07 0.08,0.12c-0.01,0.05 -0.04,0.08 -0.07,0.11c-0.08,0.09 -0.31,0.33 -0.32,1.64c-0.01,0.76 -0.01,1.27 0,1.68c0,0.5 0,0.82 -0.02,1.21c-0.04,0.7 -0.04,1.68 0.04,2.12c0.01,0.05 -0.03,0.1 -0.08,0.11c-0.01,0 -0.01,0 -0.02,0z" fill="#F175A7" id="svg_211"/>
     </g>
     <g id="svg_212">
      <circle cx="140.97" cy="40.69" fill="#F05F7E" id="svg_213" r="0.59"/>
      <g id="svg_214">
       <circle cx="140.2" cy="41.4" fill="#FBB256" id="svg_215" r="0.49"/>
       <circle cx="139.99" cy="40.16" fill="#FBB256" id="svg_216" r="0.49"/>
       <circle cx="139.87" cy="40.8" fill="#F05F7E" id="svg_217" r="0.49"/>
       <circle cx="140.82" cy="41.78" fill="#F05F7E" id="svg_218" r="0.49"/>
       <circle cx="142.08" cy="40.99" fill="#F05F7E" id="svg_219" r="0.49"/>
       <circle cx="141.77" cy="39.87" fill="#F05F7E" id="svg_220" r="0.49"/>
       <path d="m141.02,39.66c0,0.27 -0.22,0.48 -0.49,0.48c-0.27,0 -0.48,-0.21 -0.48,-0.48c0,-0.27 0.21,-0.49 0.48,-0.49c0.27,0 0.49,0.22 0.49,0.49z" fill="#F05F7E" id="svg_221"/>
       <circle cx="141.58" cy="41.59" fill="#FBB256" id="svg_222" r="0.49"/>
       <circle cx="141.96" cy="40.3" fill="#FBB256" id="svg_223" r="0.49"/>
       <circle cx="141.15" cy="39.59" fill="#FBB256" id="svg_224" r="0.49"/>
      </g>
      <g id="svg_225">
       <path d="m140.86,41.01c0.13,0.08 0.18,0.24 0.11,0.37c-0.07,0.13 -0.24,0.18 -0.37,0.1c-0.13,-0.07 -0.18,-0.23 -0.1,-0.36c0.07,-0.13 0.23,-0.18 0.36,-0.11z" fill="#F05F7E" id="svg_226"/>
       <circle cx="141.46" cy="41.05" fill="#F05F7E" id="svg_227" r="0.27"/>
       <circle cx="141.42" cy="40.23" fill="#F05F7E" id="svg_228" r="0.27"/>
       <circle cx="140.8" cy="40.08" fill="#F05F7E" id="svg_229" r="0.27"/>
       <circle cx="140.36" cy="40.62" fill="#F05F7E" id="svg_230" r="0.27"/>
       <circle cx="141.11" cy="41.25" fill="#FEC056" id="svg_231" r="0.27"/>
       <circle cx="140.45" cy="41.02" fill="#FEC056" id="svg_232" r="0.27"/>
       <circle cx="141.57" cy="40.63" fill="#FEC056" id="svg_233" r="0.27"/>
       <circle cx="141.06" cy="40.1" fill="#FEC056" id="svg_234" r="0.27"/>
       <circle cx="140.49" cy="40.3" fill="#FEC056" id="svg_235" r="0.27"/>
      </g>
     </g>
    </g>
    <g id="svg_236">
     <g id="svg_237">
      <path d="m187.38,57.23c0,0 9.79,-2.33 9.68,1.18c-0.48,5.22 -9.68,-1.18 -9.68,-1.18z" fill="#F494B2" id="svg_238"/>
      <path d="m187.64,57.29c0,0 6.11,4.93 4.27,8.14c-1.84,3.2 -4.27,-8.14 -4.27,-8.14z" fill="#F494B2" id="svg_239"/>
      <path d="m187.63,56.66c0,0 8.72,-0.47 8.25,-5.82c-0.47,-5.34 -8.25,5.82 -8.25,5.82z" fill="#F494B2" id="svg_240"/>
      <path d="m187.44,56.58c0,0 2.66,-5.86 1.6,-8.98c-1.06,-3.13 -3.47,0.01 -3.53,2.76c-0.06,2.74 1.93,6.22 1.93,6.22z" fill="#F494B2" id="svg_241"/>
      <path d="m187.21,57.01c0,0 -5,-8.46 -7.29,-6.69c-2.28,1.77 -2.19,4.99 7.29,6.69z" fill="#F494B2" id="svg_242"/>
      <path d="m186.99,57.25c0,0 -6.21,-1.45 -6.72,1.69c-0.52,3.14 3.13,4.69 6.72,-1.69z" fill="#F494B2" id="svg_243"/>
      <path d="m187.26,57.27c0,0 -4.29,6.79 -2.51,8.4c1.78,1.61 3.62,-0.56 2.51,-8.4z" fill="#F494B2" id="svg_244"/>
      <path d="m189.02,55.82c-0.01,0 -0.03,-0.01 -0.04,-0.02c-0.03,-0.02 -0.04,-0.06 -0.01,-0.1c0,0 0.52,-0.66 1.18,-1.22c0.65,-0.55 2.26,-1.63 2.28,-1.64c0.01,-0.01 1.43,-0.93 1.82,-1.36c0.03,-0.02 0.07,-0.02 0.1,0s0.03,0.07 0,0.1c-0.41,0.44 -1.79,1.33 -1.85,1.37c-0.01,0.01 -1.61,1.08 -2.26,1.63c-0.65,0.55 -1.16,1.2 -1.17,1.21c-0.01,0.02 -0.03,0.03 -0.05,0.03z" fill="#F175A7" id="svg_245"/>
      <path d="m187.28,54.99l0,0c-0.04,0 -0.07,-0.03 -0.07,-0.06c0,-0.14 0.01,-3.26 0.06,-3.74c0.01,-0.16 0.04,-0.4 0.08,-0.67c0.07,-0.55 0.16,-1.24 0.14,-1.54c0,-0.03 0.03,-0.07 0.07,-0.07l0,0c0.04,0 0.07,0.03 0.07,0.07c0.01,0.3 -0.07,1 -0.15,1.56c-0.03,0.27 -0.06,0.51 -0.08,0.66c-0.04,0.48 -0.06,3.69 -0.06,3.73c0,0.04 -0.03,0.06 -0.06,0.06z" fill="#F175A7" id="svg_246"/>
      <path d="m186.63,56.56c-0.01,0 -0.03,0 -0.04,-0.01c-0.1,-0.09 -2.47,-2.21 -2.78,-2.56c-0.1,-0.11 -0.24,-0.28 -0.41,-0.49c-0.39,-0.46 -0.92,-1.1 -1.11,-1.22c-0.03,-0.03 -0.04,-0.07 -0.02,-0.1c0.02,-0.03 0.06,-0.04 0.09,-0.02c0.21,0.14 0.73,0.76 1.14,1.26c0.17,0.2 0.32,0.37 0.41,0.47c0.31,0.35 2.74,2.53 2.77,2.56c0.03,0.02 0.03,0.06 0,0.09c-0.01,0.02 -0.03,0.02 -0.05,0.02z" fill="#F175A7" id="svg_247"/>
      <path d="m183.25,54.87c0.63,0.44 1.56,0.77 2.05,1.01c0.5,0.25 1.17,0.75 1.17,0.75" fill="#F494B2" id="svg_248"/>
      <path d="m181.79,59.34c-0.04,0 -0.06,-0.02 -0.07,-0.05c-0.01,-0.03 0,-0.06 0.03,-0.08c0.01,-0.01 0.02,-0.04 0.03,-0.07c0.1,-0.2 0.33,-0.66 0.96,-0.79c0.43,-0.09 0.73,-0.23 1.05,-0.38c0.24,-0.12 0.49,-0.24 0.81,-0.33c0.4,-0.12 0.72,-0.15 0.97,-0.18c0.21,-0.02 0.38,-0.03 0.54,-0.09c0.04,-0.01 0.08,0.01 0.09,0.04c0.01,0.04 -0.01,0.08 -0.04,0.09c-0.18,0.06 -0.36,0.08 -0.57,0.1c-0.27,0.02 -0.56,0.05 -0.95,0.17c-0.31,0.09 -0.55,0.21 -0.79,0.32c-0.31,0.15 -0.64,0.3 -1.08,0.39c-0.57,0.12 -0.77,0.53 -0.86,0.72c-0.04,0.08 -0.06,0.12 -0.11,0.14c0,0 -0.01,0 -0.01,0z" fill="#F175A7" id="svg_249"/>
      <path d="m186.32,63.52c-0.01,0 -0.03,-0.01 -0.04,-0.02c-0.03,-0.02 -0.04,-0.06 -0.02,-0.09c0.24,-0.37 0.27,-1.28 0.31,-2.08l0.01,-0.27c0.02,-0.54 0.09,-1.04 0.15,-1.53c0.05,-0.32 0.09,-0.62 0.11,-0.91c0.01,-0.04 0.04,-0.07 0.08,-0.07c0.04,0.01 0.06,0.04 0.06,0.08c-0.03,0.3 -0.07,0.6 -0.11,0.91c-0.07,0.49 -0.13,1 -0.16,1.52l-0.01,0.27c-0.03,0.82 -0.07,1.75 -0.32,2.15c-0.02,0.02 -0.04,0.04 -0.06,0.04z" fill="#F175A7" id="svg_250"/>
      <path d="m191.01,64.33c-0.04,0 -0.07,-0.03 -0.07,-0.06c0,-0.02 -0.08,-1.74 -0.63,-2.71c-0.57,-1.03 -1.73,-2.94 -2.09,-3.37c-0.03,-0.03 -0.02,-0.07 0,-0.1c0.03,-0.02 0.08,-0.02 0.1,0.01c0.37,0.44 1.54,2.36 2.11,3.39c0.56,1.01 0.64,2.7 0.65,2.77c0,0.04 -0.03,0.07 -0.07,0.07c0,0 0,0 0,0z" fill="#F175A7" id="svg_251"/>
      <path d="m196.02,58.59c0,0 -0.01,-0.01 -0.02,-0.01c-0.04,-0.01 -0.07,-0.05 -0.1,-0.09c-0.1,-0.14 -0.33,-0.46 -1.77,-0.67c-0.82,-0.11 -1.38,-0.18 -1.83,-0.24c-0.54,-0.06 -0.89,-0.11 -1.32,-0.19c-0.75,-0.15 -1.83,-0.29 -2.31,-0.25c-0.05,0 -0.07,-0.03 -0.08,-0.07c0,-0.03 0.03,-0.07 0.07,-0.07c0.51,-0.04 1.57,0.1 2.35,0.26c0.42,0.08 0.77,0.12 1.31,0.19c0.45,0.05 1.01,0.12 1.83,0.24c1.49,0.22 1.75,0.57 1.86,0.72c0.01,0.02 0.03,0.04 0.04,0.04c0.03,0.02 0.05,0.06 0.04,0.09c-0.01,0.03 -0.04,0.05 -0.07,0.05z" fill="#F175A7" id="svg_252"/>
     </g>
     <g id="svg_253">
      <path d="m187.45,57.7c0.35,0.05 0.67,-0.26 0.71,-0.68c0.04,-0.42 -0.22,-0.8 -0.57,-0.85c-0.36,-0.04 -0.68,0.26 -0.71,0.68c-0.04,0.42 0.21,0.81 0.57,0.85z" fill="#F05F7E" id="svg_254"/>
      <g id="svg_255">
       <path d="m186.78,56.48c-0.29,-0.04 -0.5,-0.35 -0.47,-0.7c0.03,-0.35 0.3,-0.61 0.59,-0.57c0.29,0.04 0.51,0.36 0.47,0.71c-0.03,0.34 -0.29,0.6 -0.59,0.56z" fill="#FFFFFF" id="svg_256"/>
       <path d="m188.16,56.38c-0.29,-0.04 -0.51,-0.36 -0.47,-0.71c0.03,-0.34 0.29,-0.6 0.59,-0.56c0.29,0.04 0.5,0.35 0.47,0.7s-0.3,0.6 -0.59,0.57z" fill="#FFFFFF" id="svg_257"/>
       <path d="m187.47,56.13c-0.29,-0.04 -0.5,-0.35 -0.47,-0.7c0.03,-0.35 0.3,-0.61 0.59,-0.57c0.29,0.04 0.5,0.36 0.47,0.71c-0.03,0.35 -0.29,0.6 -0.59,0.56z" fill="#F05F7E" id="svg_258"/>
       <path d="m186.3,57.23c-0.3,-0.04 -0.51,-0.35 -0.48,-0.7c0.03,-0.35 0.3,-0.61 0.59,-0.57c0.3,0.04 0.51,0.36 0.48,0.7c-0.04,0.35 -0.3,0.61 -0.59,0.57z" fill="#F05F7E" id="svg_259"/>
       <path d="m187,58.98c-0.29,-0.04 -0.5,-0.35 -0.47,-0.7c0.03,-0.35 0.29,-0.61 0.59,-0.57c0.29,0.04 0.5,0.35 0.47,0.7c-0.03,0.35 -0.29,0.61 -0.59,0.57z" fill="#F05F7E" id="svg_260"/>
       <path d="m188.26,58.73c-0.3,-0.03 -0.51,-0.35 -0.48,-0.7c0.04,-0.35 0.3,-0.6 0.6,-0.56c0.29,0.03 0.5,0.35 0.47,0.7c-0.03,0.35 -0.3,0.6 -0.59,0.56z" fill="#F05F7E" id="svg_261"/>
       <path d="m188.64,57.16c-0.3,-0.04 -0.51,-0.36 -0.47,-0.71c0.03,-0.35 0.29,-0.6 0.59,-0.56c0.29,0.04 0.5,0.35 0.47,0.7c-0.03,0.35 -0.3,0.61 -0.59,0.57z" fill="#F05F7E" id="svg_262"/>
       <path d="m186.41,58.24c-0.29,-0.04 -0.5,-0.35 -0.47,-0.7c0.03,-0.35 0.29,-0.6 0.59,-0.56c0.29,0.04 0.5,0.35 0.47,0.7c-0.03,0.35 -0.29,0.6 -0.59,0.56z" fill="#FFFFFF" id="svg_263"/>
       <path d="m187.77,58.92c-0.3,-0.04 -0.51,-0.35 -0.47,-0.7c0.03,-0.35 0.29,-0.6 0.58,-0.56c0.3,0.03 0.51,0.35 0.48,0.7c-0.03,0.35 -0.3,0.6 -0.59,0.56z" fill="#FFFFFF" id="svg_264"/>
       <path d="m188.64,57.97c-0.29,-0.04 -0.5,-0.35 -0.47,-0.7c0.03,-0.35 0.3,-0.6 0.59,-0.56c0.29,0.03 0.51,0.35 0.47,0.7c-0.03,0.35 -0.29,0.6 -0.59,0.56z" fill="#FFFFFF" id="svg_265"/>
      </g>
      <g id="svg_266">
       <path d="m187.18,56.76c-0.09,0.16 -0.28,0.19 -0.41,0.08c-0.14,-0.11 -0.17,-0.33 -0.07,-0.49c0.09,-0.16 0.28,-0.19 0.41,-0.08c0.14,0.11 0.17,0.33 0.07,0.49z" fill="#F05F7E" id="svg_267"/>
       <path d="m187.31,57.73c-0.1,0.16 -0.28,0.2 -0.42,0.09c-0.13,-0.12 -0.16,-0.34 -0.06,-0.5c0.09,-0.15 0.28,-0.19 0.41,-0.08c0.13,0.11 0.16,0.34 0.07,0.49z" fill="#F05F7E" id="svg_268"/>
       <path d="m188.21,57.8c-0.1,0.16 -0.28,0.2 -0.42,0.09c-0.13,-0.12 -0.16,-0.34 -0.06,-0.5c0.09,-0.16 0.28,-0.19 0.41,-0.08c0.13,0.11 0.16,0.34 0.07,0.49z" fill="#F05F7E" id="svg_269"/>
       <path d="m188.45,57.02c-0.1,0.15 -0.28,0.19 -0.41,0.08c-0.14,-0.12 -0.17,-0.34 -0.07,-0.49c0.09,-0.16 0.28,-0.2 0.41,-0.09c0.13,0.12 0.16,0.34 0.07,0.5z" fill="#F05F7E" id="svg_270"/>
       <path d="m187.91,56.37c-0.09,0.16 -0.28,0.19 -0.41,0.08c-0.13,-0.11 -0.16,-0.33 -0.07,-0.49c0.1,-0.16 0.28,-0.2 0.42,-0.08c0.13,0.11 0.16,0.33 0.06,0.49z" fill="#F05F7E" id="svg_271"/>
       <path d="m187.14,57.25c-0.1,0.16 -0.28,0.2 -0.42,0.08c-0.13,-0.11 -0.16,-0.33 -0.07,-0.49c0.1,-0.16 0.28,-0.19 0.42,-0.08c0.13,0.11 0.16,0.33 0.07,0.49z" fill="#922687" id="svg_272"/>
       <path d="m187.47,56.43c-0.1,0.16 -0.28,0.2 -0.42,0.09c-0.13,-0.12 -0.16,-0.34 -0.06,-0.5c0.09,-0.16 0.27,-0.19 0.41,-0.08c0.13,0.11 0.16,0.33 0.07,0.49z" fill="#922687" id="svg_273"/>
       <path d="m187.75,57.94c-0.09,0.16 -0.28,0.2 -0.41,0.08c-0.14,-0.11 -0.17,-0.33 -0.07,-0.49c0.09,-0.15 0.28,-0.19 0.41,-0.08c0.13,0.11 0.16,0.33 0.07,0.49z" fill="#922687" id="svg_274"/>
       <path d="m188.39,57.35c-0.09,0.16 -0.28,0.19 -0.41,0.08c-0.13,-0.11 -0.16,-0.33 -0.07,-0.49c0.1,-0.16 0.28,-0.2 0.41,-0.08c0.14,0.11 0.17,0.33 0.07,0.49z" fill="#922687" id="svg_275"/>
       <path d="m188.25,56.59c-0.1,0.16 -0.28,0.19 -0.42,0.08c-0.13,-0.11 -0.16,-0.33 -0.07,-0.49c0.1,-0.16 0.28,-0.2 0.42,-0.08c0.13,0.11 0.16,0.33 0.07,0.49z" fill="#922687" id="svg_276"/>
      </g>
     </g>
    </g>
    <g id="svg_277">
     <path d="m139.27,62.94c0.04,1.13 0.24,28.02 0.71,30.28c0.48,2.27 1.44,3.23 8.11,3.23c6.68,0 16.46,0 20.16,0c3.69,0 9.77,-0.72 10.01,-3.34c0.24,-2.63 -0.36,-28.74 -0.71,-30.41c-0.36,-1.67 -1.2,-5.13 -11.57,-5.01c-7.87,0.09 -26.95,-1.31 -26.71,5.25z" fill="#FFFFFF" id="svg_278"/>
     <path d="m143.04,60.45c-2.83,0.85 -5.65,4.84 7.81,4.75c13.47,-0.09 24.61,-0.06 24.68,-3.68c0.06,-3.62 -22.68,-4.03 -32.49,-1.07z" fill="#5A190B" id="svg_279"/>
     <path d="m182.47,85.92c-2.36,0 -4.64,-0.65 -5.05,-0.77l0.61,-2.06c1.51,0.45 6.16,1.38 7.63,-0.23c0.95,-1.05 1.52,-4.78 1.3,-8.51c-0.18,-3.16 -0.85,-5.08 -1.43,-5.58c-1.4,-1.21 -5.55,-0.64 -7.84,0.01l-0.58,-2.06c0.72,-0.21 7.1,-1.93 9.83,0.43c1.6,1.39 2.04,5.02 2.16,7.07c0.23,3.76 -0.26,8.34 -1.86,10.09c-1.13,1.24 -2.98,1.61 -4.77,1.61z" fill="#FFFFFF" id="svg_280"/>
    </g>
    <path d="m149.67,69.73c-6.11,0 -10.13,-1.15 -10.17,-1.16c-0.17,-0.05 -0.27,-0.23 -0.22,-0.4c0.05,-0.16 0.23,-0.26 0.39,-0.21c0.04,0.01 3.98,1.14 10,1.14c6.12,0 17.56,-0.21 20.59,-0.31c3.37,-0.12 6.15,-0.59 7.07,-1.21c0.14,-0.09 0.34,-0.05 0.43,0.09c0.1,0.15 0.06,0.34 -0.08,0.44c-1.55,1.03 -6.05,1.26 -7.4,1.31c-3.03,0.1 -14.49,0.31 -20.61,0.31z" fill="#58A1B8" id="svg_281"/>
    <path d="m149.67,71.93c-6.11,0 -10.13,-1.15 -10.17,-1.16c-0.17,-0.05 -0.27,-0.23 -0.22,-0.39c0.05,-0.17 0.23,-0.27 0.39,-0.22c0.04,0.01 3.98,1.14 10,1.14c6.11,0 17.56,-0.21 20.59,-0.31c3.37,-0.11 6.15,-0.59 7.07,-1.2c0.14,-0.1 0.34,-0.06 0.43,0.08c0.1,0.15 0.06,0.34 -0.08,0.44c-1.55,1.03 -6.05,1.26 -7.4,1.31c-3.03,0.1 -14.49,0.31 -20.61,0.31z" fill="#58A1B8" id="svg_282"/>
    <g id="svg_283">
     <path d="m143.91,78.04c-0.04,0 -0.08,-0.01 -0.12,-0.02c-0.16,-0.07 -0.24,-0.25 -0.17,-0.41l0.96,-2.35c0.06,-0.16 0.24,-0.23 0.41,-0.17c0.16,0.06 0.23,0.25 0.17,0.41l-0.96,2.34c-0.05,0.13 -0.17,0.2 -0.29,0.2z" fill="#58A1B8" id="svg_284"/>
     <path d="m145.72,76.91c0,0 0,0 -0.01,0l-2.76,-0.09c-0.17,0 -0.31,-0.15 -0.3,-0.32c0,-0.17 0.16,-0.31 0.32,-0.31l2.76,0.09c0.18,0 0.31,0.15 0.31,0.32c-0.01,0.17 -0.15,0.31 -0.32,0.31z" fill="#58A1B8" id="svg_285"/>
     <path d="m145.07,78.03c-0.11,0 -0.21,-0.05 -0.27,-0.14l-1.48,-2.28c-0.1,-0.14 -0.05,-0.34 0.09,-0.43c0.15,-0.1 0.34,-0.06 0.44,0.09l1.48,2.27c0.1,0.15 0.05,0.35 -0.09,0.44c-0.05,0.04 -0.11,0.05 -0.17,0.05z" fill="#58A1B8" id="svg_286"/>
    </g>
    <g id="svg_287">
     <path d="m151.92,81.49c-0.04,0 -0.08,0 -0.12,-0.02c-0.16,-0.06 -0.24,-0.25 -0.17,-0.41l0.96,-2.34c0.06,-0.16 0.25,-0.24 0.41,-0.17c0.16,0.06 0.23,0.25 0.17,0.41l-0.96,2.34c-0.05,0.12 -0.17,0.19 -0.29,0.19z" fill="#58A1B8" id="svg_288"/>
     <path d="m153.74,80.36c0,0 -0.01,0 -0.01,0l-2.76,-0.08c-0.18,0 -0.31,-0.15 -0.31,-0.32c0.01,-0.17 0.16,-0.31 0.33,-0.31l2.76,0.09c0.17,0 0.31,0.14 0.3,0.32c0,0.17 -0.14,0.3 -0.31,0.3z" fill="#58A1B8" id="svg_289"/>
     <path d="m153.08,81.49c-0.1,0 -0.2,-0.05 -0.26,-0.14l-1.49,-2.28c-0.09,-0.14 -0.05,-0.34 0.09,-0.43c0.15,-0.1 0.34,-0.06 0.44,0.09l1.48,2.27c0.1,0.15 0.06,0.34 -0.09,0.44c-0.05,0.03 -0.11,0.05 -0.17,0.05z" fill="#58A1B8" id="svg_290"/>
    </g>
    <g id="svg_291">
     <path d="m159.63,76.87c-0.12,0 -0.24,-0.07 -0.29,-0.2l-0.98,-2.33c-0.06,-0.16 0.01,-0.34 0.17,-0.41c0.16,-0.07 0.34,0.01 0.41,0.17l0.98,2.33c0.07,0.16 -0.01,0.35 -0.17,0.41c-0.04,0.02 -0.08,0.03 -0.12,0.03z" fill="#58A1B8" id="svg_292"/>
     <path d="m158.17,76.61c-0.08,0 -0.17,-0.03 -0.23,-0.09c-0.12,-0.13 -0.11,-0.33 0.01,-0.45l2.01,-1.89c0.13,-0.12 0.33,-0.12 0.45,0.01c0.12,0.13 0.11,0.33 -0.02,0.44l-2.01,1.9c-0.06,0.06 -0.13,0.08 -0.21,0.08z" fill="#58A1B8" id="svg_293"/>
     <path d="m160.49,75.91c-0.02,0 -0.04,0 -0.06,0l-2.66,-0.56c-0.17,-0.04 -0.28,-0.21 -0.24,-0.38c0.04,-0.17 0.2,-0.27 0.37,-0.24l2.66,0.56c0.17,0.04 0.28,0.21 0.24,0.38c-0.03,0.14 -0.16,0.24 -0.31,0.24z" fill="#58A1B8" id="svg_294"/>
    </g>
    <g id="svg_295">
     <path d="m167.98,81.08c-0.07,0 -0.14,-0.02 -0.2,-0.07l-1.94,-1.63c-0.13,-0.12 -0.15,-0.31 -0.03,-0.45c0.11,-0.13 0.31,-0.14 0.44,-0.03l1.93,1.63c0.14,0.11 0.15,0.31 0.04,0.44c-0.06,0.08 -0.15,0.11 -0.24,0.11z" fill="#58A1B8" id="svg_296"/>
     <path d="m166.56,81.53c-0.03,0 -0.07,-0.01 -0.1,-0.02c-0.16,-0.06 -0.25,-0.24 -0.19,-0.4l0.93,-2.61c0.06,-0.16 0.24,-0.25 0.4,-0.19c0.16,0.06 0.25,0.24 0.19,0.4l-0.93,2.61c-0.05,0.12 -0.17,0.21 -0.3,0.21z" fill="#58A1B8" id="svg_297"/>
     <path d="m165.69,80.56c-0.13,0 -0.26,-0.1 -0.3,-0.24c-0.04,-0.16 0.06,-0.34 0.22,-0.38l2.63,-0.71c0.16,-0.05 0.34,0.05 0.38,0.22s-0.05,0.34 -0.22,0.38l-2.62,0.72c-0.03,0 -0.06,0.01 -0.09,0.01z" fill="#58A1B8" id="svg_298"/>
    </g>
    <g id="svg_299">
     <path d="m174.91,75.4l0,0l-2.53,-0.01c-0.17,0 -0.31,-0.14 -0.31,-0.31c0,-0.17 0.14,-0.31 0.31,-0.31l0,0l2.53,0c0.18,0 0.32,0.14 0.32,0.31c-0.01,0.18 -0.15,0.32 -0.32,0.32z" fill="#58A1B8" id="svg_300"/>
     <path d="m174.11,76.65c-0.13,0 -0.25,-0.08 -0.29,-0.21l-0.97,-2.58c-0.06,-0.17 0.02,-0.35 0.18,-0.41c0.17,-0.06 0.35,0.02 0.41,0.19l0.96,2.59c0.07,0.16 -0.02,0.34 -0.18,0.4c-0.03,0.01 -0.07,0.02 -0.11,0.02z" fill="#58A1B8" id="svg_301"/>
     <path d="m172.82,76.47c-0.06,0 -0.12,-0.02 -0.18,-0.06c-0.14,-0.1 -0.18,-0.3 -0.08,-0.44l1.55,-2.23c0.1,-0.15 0.29,-0.18 0.44,-0.08c0.14,0.1 0.18,0.29 0.08,0.44l-1.55,2.23c-0.06,0.09 -0.16,0.14 -0.26,0.14z" fill="#58A1B8" id="svg_302"/>
    </g>
    <path d="m157.75,64.36c-5.82,0 -11.51,-0.63 -12.95,-1.36c-0.48,-0.24 -0.68,-0.51 -0.6,-0.8c0.49,-1.77 13.49,-2.85 17.65,-2.56c2.95,0.19 3.32,0.64 3.34,0.96c0.04,0.71 -2.12,1.47 -6.42,2.27c-3.79,0.69 -4.18,0.2 -4.31,0.03c-0.1,-0.13 -0.11,-0.29 -0.04,-0.46c0.25,-0.55 1.47,-1.15 2.19,-1.2c0.09,0 0.16,0.07 0.17,0.15c0,0.09 -0.06,0.16 -0.15,0.17c-0.66,0.04 -1.73,0.61 -1.92,1.01c-0.04,0.09 -0.01,0.13 0,0.14c0.1,0.12 0.66,0.47 4,-0.15c6.14,-1.14 6.17,-1.9 6.16,-1.94c0,-0.05 -0.11,-0.47 -3.04,-0.67c-5.21,-0.35 -16.98,1.05 -17.33,2.34c-0.04,0.16 0.26,0.34 0.44,0.44c1.51,0.76 7.14,1.34 12.81,1.33c6.86,-0.02 11.74,-0.85 13.4,-2.28c0.57,-0.49 0.74,-1.02 0.54,-1.64c-0.03,-0.09 0.02,-0.18 0.1,-0.2c0.08,-0.03 0.17,0.02 0.2,0.1c0.24,0.74 0.03,1.41 -0.63,1.98c-2.01,1.72 -7.87,2.34 -13.61,2.34z" fill="#F8A37F" id="svg_303"/>
   </g>
  </g>
 </g>
</svg>