<?xml version="1.0"?>
<svg width="348" height="819" xmlns="http://www.w3.org/2000/svg" xmlns:svg="http://www.w3.org/2000/svg" xmlns:xlink="http://www.w3.org/1999/xlink" enable-background="new 0 0 348 819" version="1.1" xml:space="preserve">
 <g class="layer">
  <title>Layer 1</title>
  <g id="svg_132">
   <rect fill="#F6E6E6" height="819" id="svg_12" width="348" x="0.51" y="0.5"/>
   <g id="svg_14">
    <defs>
     <polygon id="SVGID_1_" points="1.104,280.595 1.104,0.498 349.104,0.498 349.104,312.094 1.104,312.094 		"/>
    </defs>
    <clipPath id="SVGID_2_">
     <use id="svg_19" overflow="visible" xlink:href="#SVGID_1_"/>
    </clipPath>
    <polygon clip-path="url(#SVGID_2_)" fill="#CCA387" id="svg_20" opacity="0.3" points="-14.602,235.902 -5.585,233.741 -14.602,232.476 	"/>
    <g clip-path="url(#SVGID_2_)" id="svg_21">
     <polygon fill="#CCA387" id="svg_22" opacity="0.3" points="373.604,69.461 373.604,59.994 268.658,164.237 		"/>
     <polygon fill="#CCA387" id="svg_23" opacity="0.3" points="373.604,196.161 373.604,186.793 260.956,205.713 		"/>
     <polygon fill="#CCA387" id="svg_24" opacity="0.3" points="373.604,145.8 373.604,132.449 274.616,187.104 		"/>
     <polygon fill="#CCA387" id="svg_25" opacity="0.3" points="373.604,98.422 373.604,85.282 290.764,159.828 		"/>
     <polygon fill="#CCA387" id="svg_26" opacity="0.3" points="350.272,292.354 350.272,283.3 279.095,254.624 		"/>
     <polygon fill="#CCA387" id="svg_27" opacity="0.3" points="297.869,106.791 373.604,25.666 373.604,8.355 		"/>
     <polygon fill="#CCA387" id="svg_28" opacity="0.3" points="373.604,237.484 373.604,221.757 276.164,223.53 		"/>
     <polygon fill="#CCA387" id="svg_29" opacity="0.3" points="355.272,317.591 355.272,307.596 259.858,258.918 		"/>
     <polygon fill="#CCA387" id="svg_30" opacity="0.3" points="373.604,177.379 373.604,171.168 335.245,182.842 		"/>
     <polygon fill="#CCA387" id="svg_31" opacity="0.3" points="373.604,126.402 373.604,120.015 317.954,155.507 		"/>
     <polygon fill="#CCA387" id="svg_32" opacity="0.3" points="350.272,257.508 373.604,255.396 292.745,243.554 		"/>
     <polygon fill="#CCA387" id="svg_33" opacity="0.3" points="-1.602,296.139 36.093,275.715 -1.602,293.527 		"/>
     <polygon fill="#CCA387" id="svg_34" opacity="0.3" points="-1.602,259.781 37.396,249.576 -1.602,255.041 		"/>
     <polygon fill="#CCA387" id="svg_35" opacity="0.3" points="0.511,200.631 0.511,202.631 55.253,211.496 		"/>
     <polygon fill="#CCA387" id="svg_36" opacity="0.3" points="-3.1,156.646 -3.1,160.873 71.782,197 		"/>
     <polygon fill="#CCA387" id="svg_37" opacity="0.3" points="-30.1,105.131 64.952,165.889 -30.1,97.68 		"/>
     <polygon fill="#CCA387" id="svg_38" opacity="0.3" points="-30.1,38.42 83.853,161.482 -30.1,20.688 		"/>
     <polygon fill="#CCA387" id="svg_39" opacity="0.3" points="0.511,187.243 19.955,191.797 0.511,183.596 		"/>
     <polygon fill="#CCA387" id="svg_40" opacity="0.3" points="-1.602,275.84 53.691,254.502 -1.602,270.381 		"/>
     <polygon fill="#CCA387" id="svg_41" opacity="0.3" points="-10.053,1.099 -27.842,1.099 72.141,132.783 		"/>
     <polygon fill="#CCA387" id="svg_42" opacity="0.3" points="1.759,1.099 96.04,141.265 13.466,1.099 		"/>
     <polygon fill="#CCA387" id="svg_43" opacity="0.3" points="40.146,1.099 105.999,123.207 54.476,1.099 		"/>
     <polygon fill="#CCA387" id="svg_44" opacity="0.3" points="68.118,1.099 111.311,100.225 75.522,1.099 		"/>
     <polygon fill="#CCA387" id="svg_45" opacity="0.3" points="100.047,1.099 122.597,71.463 107.939,1.099 		"/>
     <polygon fill="#CCA387" id="svg_46" opacity="0.3" points="112.323,1.099 129.235,71.463 120.216,1.099 		"/>
     <polygon fill="#CCA387" id="svg_47" opacity="0.3" points="132.819,1.099 142.515,77.242 137.952,1.099 		"/>
     <polygon fill="#CCA387" id="svg_48" opacity="0.3" points="161.103,105.149 163.474,1.099 158.14,1.099 		"/>
     <polygon fill="#CCA387" id="svg_49" opacity="0.3" points="169.069,139.414 176.376,1.099 170.896,1.099 		"/>
     <polygon fill="#CCA387" id="svg_50" opacity="0.3" points="179.691,73.12 188.177,1.099 183.087,1.099 		"/>
     <polygon fill="#CCA387" id="svg_51" opacity="0.3" points="199.409,1.099 188.987,86.379 204.62,1.099 		"/>
     <polygon fill="#CCA387" id="svg_52" opacity="0.3" points="218.493,1.099 195.46,96.322 225.536,1.099 		"/>
     <polygon fill="#CCA387" id="svg_53" opacity="0.3" points="263.835,1.099 217.534,121.183 271.05,1.099 		"/>
     <polygon fill="#CCA387" id="svg_54" opacity="0.3" points="278.541,1.099 226.829,121.183 291.77,1.099 		"/>
     <polygon fill="#CCA387" id="svg_55" opacity="0.3" points="331.093,1.099 317.919,1.099 258.032,116.211 		"/>
     <polygon fill="#CCA387" id="svg_56" opacity="0.3" points="359.954,1.099 347.126,1.099 290.563,91.352 		"/>
     <polygon fill="#CCA387" id="svg_57" opacity="0.3" points="234.258,1.099 208.239,102.951 244.901,1.099 		"/>
    </g>
   </g>
   <g id="svg_15">
    <g id="svg_58">
     <polygon clip-rule="evenodd" fill="#A2755A" fill-rule="evenodd" id="svg_59" points="174.167,598.524 173.154,599.859 172.745,600.969 
			172.925,602.379 173.599,603.149 174.167,603.149 173.759,601.383 174.346,598.524 		"/>
     <path clip-rule="evenodd" d="m97.86,623.64c0,0 -1.59,1.78 -3.23,3.06c-1.65,1.27 -4.3,3.62 -6.28,4.75c-1.98,1.12 -7.48,3.82 -9.07,4.9c-1.6,1.07 -5.7,2.96 -8.5,6.94c-2.8,3.99 -4.54,6.73 -4.54,10.06c0,3.32 0,7.56 0,7.56l0,9.16l103.66,-1.41c0,0 3.42,-13.98 -1.1,-23.67c0,0 -5.08,-10.19 -13.98,-13.58c0,0 -15.95,-7.46 -17.57,-8.06c-1.62,-0.6 -2.85,-1.35 -3.06,-1.58c-0.22,-0.23 -2.24,-0.09 -2.59,0c-0.35,0.1 -20.9,-0.92 -20.9,-0.92l-12.84,2.79z" fill="#F9BEBF" fill-rule="evenodd" id="svg_60"/>
     <path clip-rule="evenodd" d="m97.95,623.74l0,3.8c0,0 -0.79,1.13 -0.38,3.5c0.41,2.38 0.2,8.84 1.25,12.35s1.4,6.95 2.69,6.97c1.29,0.01 7.93,-3.92 11.29,-6.36c3.37,-2.44 10.96,-9.25 13.55,-11.84c2.6,-2.59 6.78,-8.07 6.87,-9.98c0,0 -4.88,-5.74 -5.43,-6.64c-0.55,-0.9 -24.7,8.44 -24.7,8.44l-5.14,-0.24z" fill="#FFFFFF" fill-rule="evenodd" id="svg_61"/>
     <path clip-rule="evenodd" d="m79.94,574.99l0,15.46l-0.24,7.21c0,0 -0.93,3.93 -0.47,6.06c0.47,2.13 2.25,7.58 5.63,10.41c3.37,2.83 4.91,5.6 6.29,6.93s2.94,2.53 6.8,1.49l0,1.19l1.99,3.07c0,0 1.23,2.63 2.81,3.97c1.58,1.33 3.12,1.09 3.12,1.09s8.57,-3.13 12.01,-5.75c3.44,-2.63 9.56,-5.75 10.26,-9.02c0,0 -1.84,-6.27 -0.54,-9.37c1.29,-3.1 6.95,-11.65 6.95,-11.65l0.95,-8.13l-3.12,-6.87c0,0 -18.33,-21.21 -18.66,-21.45c-0.33,-0.25 -15.42,-4.31 -15.77,-4.41s-16.19,8.57 -16.19,8.57s-3.18,8.42 -3.18,8.62c0,0.2 1.36,2.58 1.36,2.58z" fill="#FBCBC2" fill-rule="evenodd" id="svg_62"/>
     <path clip-rule="evenodd" d="m86.88,566.04c0,0 -3.21,11.94 3.46,13.84c0,0 -2.24,-3.53 -0.52,-7.78c0,0 -1.33,9.09 6.98,9.02c0,0 0.9,1.39 4.19,0.51c0,0 -4.89,-2.27 -2.12,-9.31c0,0 1.11,7.71 5.9,8.4c0,0 -5.04,-8.1 -1.55,-15.21c0,0 0.78,15.01 7.85,16.35c7.07,1.33 9.56,2.81 11.05,3.68c1.49,0.86 0.73,-14.77 0.73,-14.77l-7.51,-13.7l-15.01,-2.34l-9.53,4.16c0,0 -2.2,0.43 -3.92,7.15z" fill="#C7ADBF" fill-rule="evenodd" id="svg_63"/>
     <radialGradient cx="123.4" cy="594.4" gradientTransform="matrix(0.9455 0 0 1 -6.4907 0)" gradientUnits="userSpaceOnUse" id="SVGID_3_" r="7.36">
      <stop offset="0" stop-color="#F8ADA8"/>
      <stop offset="1" stop-color="#FBCBC2"/>
     </radialGradient>
     <ellipse clip-rule="evenodd" cx="110.18" cy="594.39" fill="url(#SVGID_3_)" fill-rule="evenodd" id="svg_64" rx="6.96" ry="7.37"/>
     <radialGradient cx="61.18" cy="596.31" gradientTransform="matrix(0.763 0 0 1 38.5825 0)" gradientUnits="userSpaceOnUse" id="SVGID_4_" r="7.03">
      <stop offset="0" stop-color="#F8ADA8"/>
      <stop offset="1" stop-color="#FBCBC2"/>
     </radialGradient>
     <path clip-rule="evenodd" d="m90.88,597c0,4.07 -2.7,5.98 -5.81,5.98c-3.1,0 -5.43,-1.91 -5.43,-5.98c0,-4.06 2.52,-7.36 5.62,-7.36s5.62,3.3 5.62,7.36z" fill="url(#SVGID_4_)" fill-rule="evenodd" id="svg_65"/>
     <path clip-rule="evenodd" d="m98.49,551.82c0.12,-0.04 0.03,-1.13 5.75,-1.11c0,0 3.52,-1.68 11.37,0.56c7.85,2.24 14.01,6.48 17.46,11.87l0.48,0.52c0,0 0.11,-2.2 2.44,-4.29c2.33,-2.08 9.46,-4.31 15.84,4.84c0.21,-0.09 6,8.06 7.13,17.31c1.14,9.26 0.26,17 4.5,22.77c0,0 5.74,7.82 11.03,6.4c0,0 7.64,-1.2 7.81,-8.39c0,0 -0.95,-3.5 -2.06,-4.27c0,0 3.7,1.34 4.07,7.02c0,0 -0.5,3.01 -1.2,4.42c0,0 0.21,4.52 -2.69,8.2c-2.91,3.69 -7.19,7 -11.99,6.65c0,0 -2.45,-0.44 -3.18,-0.41c-0.72,0.02 -4.16,0.85 -6.39,-0.17c-2.24,-1.02 -3.79,-1.76 -5.11,-3.03c0,0 -2.89,-0.4 -5.32,-3.01c-2.44,-2.62 -4.01,-5.17 -4.76,-8.69c-0.74,-3.53 -1.18,-7.33 -1.51,-11.78c-0.33,-4.45 -0.42,-10.52 -1.12,-12.88c-0.7,-2.37 -1.86,-5.29 -2.52,-6.36c0,0 -0.04,6.98 -1.29,11.59c-1.25,4.61 -6.86,16.18 -10.04,19.29l-2.56,-5.59c0,0 4.45,-1.32 6.38,-4.06c1.93,-2.73 3.85,-5.26 2.87,-9.38c-0.99,-4.13 -3.9,-3.06 -5.57,-2.61c-1.66,0.45 0.06,-0.2 0.06,-0.2l-20.31,-20.88c0,0 -3.76,-9.69 -3.89,-9.78c-0.14,-0.09 -5.68,-4.55 -5.68,-4.55z" fill="#634543" fill-rule="evenodd" id="svg_66"/>
     <path clip-rule="evenodd" d="m101.1,552.94l-4.41,-1.69l-3.52,0.18c0,0 -4.44,1.15 -4.54,1.18c-0.1,0.04 -6.23,3.41 -6.23,3.41l-7.15,6.23c0,0 -6.3,5.71 -7.76,12.11c0,0 -2.47,8.51 1.73,11.69c0,0 -2.86,-4.46 0.04,-12.69c0.2,-0.04 -2.76,10.04 4.77,11.12c0,0 1.39,2.22 2.61,3.3c0,0 -4.91,10.54 0.37,16.76l0.14,-0.69c0,0 -2.27,-7.28 0.74,-14.73l1.66,0.85l0.2,-4.78c0,0 -0.76,-5.02 0.8,-10c1.57,-4.98 6.56,-9.61 9.05,-11.47c0,0 -5.8,9.09 -1.71,15.42c0,0 -1.46,-3.17 1.41,-9.4c0,0 -2.47,10.43 6.91,10.41l0.34,-0.77l1.66,0.14l-1.59,-1.36l-0.61,-3.01c0,0 0.51,-2.71 1.69,-6.21c0,0 -0.94,6.1 1.97,9.22c0,0 2.37,1.95 3.05,0.98c0,0 -3.41,-3.85 -1.9,-11.23c0,0 0.75,-4.15 2.57,-6.48c0,0 -2.6,12.45 2.27,17.23c0,0 2.51,2.33 7.18,2.22c0,0 3.7,3.3 6.98,4.12c0,0 1.83,1.11 3.32,1.62c0,0 -1.23,7.87 2.03,11.04c0,0 -1.87,-6 -0.3,-10.44l3.11,0l2.42,-0.87c0,0 2.56,-1.02 3.44,-2.6c0,0 -3.59,0.93 -5.05,-0.25c0,0 5.81,-0.93 6.51,-3.35c0,0 -2.51,1.31 -6.29,-1.06c-3.77,-2.36 -6.15,-4.65 -9.26,-10.92s-7.58,-14.55 -13.78,-14.64l-2.91,0.52l-1.96,-1.11z" fill="#634543" fill-rule="evenodd" id="svg_67"/>
     <g id="svg_68">
      <path clip-rule="evenodd" d="m103.77,554c0.42,-0.65 1.16,-0.85 2.32,-0.77c1.75,0.11 3.34,0.85 4.61,1.73c2.62,1.81 4.25,4.16 5.95,6.92c0.8,1.31 1.67,2.71 2.41,4.06c3.06,5.52 5.29,12.11 12.15,13.53c0.27,0.06 1.18,-0.06 1.17,0.41c-0.03,0.53 -1.84,0.13 -2.25,0.05c-0.91,-0.18 -1.43,-0.43 -2.02,-0.73c-1.2,-0.59 -2.26,-1.3 -3.28,-2.28c-2.77,-2.68 -4.39,-6.75 -6.41,-10.52c-1.45,-2.69 -3.06,-5.45 -4.92,-7.8c-0.59,-0.75 -1.23,-1.72 -1.89,-2.32c-0.73,-0.67 -1.82,-1.22 -2.85,-1.69c-1.04,-0.47 -2.34,-0.82 -3.7,-0.73c-0.46,0.03 -0.97,0.28 -1.29,0.14z" fill="#231F20" fill-rule="evenodd" id="svg_69"/>
      <path clip-rule="evenodd" d="m101.1,553.86c-0.13,0.28 -0.48,0.1 -0.65,0.09c-5.81,-0.3 -10.61,1.68 -14.35,3.97c-1.03,0.63 -1.94,1.28 -2.8,2.09c-0.24,0.24 -0.5,0.63 -0.9,0.6c0.32,-0.56 0.8,-1.02 1.29,-1.46c1.4,-1.28 3.07,-2.35 4.91,-3.24c2.46,-1.19 5.51,-2.19 8.53,-2.37c0.35,-0.01 0.73,-0.01 1.08,0c0.98,0.06 2,0.13 2.89,0.32z" fill="#231F20" fill-rule="evenodd" id="svg_70"/>
      <path clip-rule="evenodd" d="m121.52,580.71c-0.28,0.08 -0.51,-0.21 -0.69,-0.37c-1.41,-1.22 -2.57,-2.62 -3.66,-4.24c-2.38,-3.53 -4.47,-7.66 -6.29,-11.85c-0.45,-1.02 -0.95,-2.1 -1.51,-3.05c-0.89,-1.49 -1.69,-2.9 -3.02,-3.87c0,-0.05 0,-0.09 0,-0.14c0.47,-0.2 1.15,0.56 1.51,1c1.05,1.28 2.08,2.94 2.8,4.42c1.08,2.22 2.12,4.46 3.19,6.52c1.68,3.24 3.34,6.37 5.52,9.02c0.53,0.65 1.11,1.26 1.72,1.87c0.16,0.16 0.56,0.33 0.43,0.69z" fill="#231F20" fill-rule="evenodd" id="svg_71"/>
      <path clip-rule="evenodd" d="m120.14,560.61c-0.01,-0.04 0.02,-0.05 0.04,-0.05c0.04,-0.01 0.04,0.02 0.05,0.05c2.05,1.72 4.21,3.4 7.54,3.87c0.4,0.06 0.92,0.01 1.24,0.37c-1.51,0.36 -3.02,-0.12 -4.26,-0.64c-1.92,-0.8 -3.48,-2.05 -4.61,-3.6z" fill="#231F20" fill-rule="evenodd" id="svg_72"/>
      <path clip-rule="evenodd" d="m105.75,561.79c0.04,1.85 0.05,3.74 0.26,5.52c0.2,1.75 0.53,3.41 1.03,4.74c0.11,0.28 0.39,0.55 0.26,0.86c-0.32,-0.16 -0.49,-0.6 -0.65,-0.96c-0.46,-1.05 -0.77,-2.47 -0.99,-3.87c-0.29,-1.92 -0.33,-4.12 -0.13,-6.15c0.02,-0.06 0.08,-0.07 0.09,-0.14c0.04,0 0.08,0 0.13,0z" fill="#231F20" fill-rule="evenodd" id="svg_73"/>
      <path clip-rule="evenodd" d="m167.66,609.78c-4.53,-1.61 -7.53,-5.19 -10.03,-9.16c-2.48,-3.93 -4.43,-8.51 -6.47,-12.99c-1.52,-3.33 -2.82,-6.9 -4.31,-10.34c-0.48,-1.13 -0.9,-2.32 -1.42,-3.42c-0.5,-1.05 -1.14,-2.08 -1.72,-3.15c-1.18,-2.12 -2.22,-4.05 -4.01,-5.69c-0.84,-0.77 -2.07,-1.55 -3.23,-1.51c-0.42,0.02 -0.83,0.36 -1.16,0.19c-0.04,-0.53 0.64,-0.74 1.12,-0.78c1.29,-0.09 2.59,0.67 3.44,1.37c1.83,1.51 2.97,3.48 4.18,5.6c0.61,1.06 1.2,2.13 1.73,3.15c0.57,1.1 0.95,2.32 1.46,3.46c3.53,7.89 6.52,16.43 10.86,23.43c0.66,1.06 1.21,2.06 1.94,2.96c1.4,1.73 2.99,3.52 4.86,4.83c0.7,0.49 1.36,1.05 2.11,1.5c0.22,0.13 0.63,0.18 0.65,0.55z" fill="#231F20" fill-rule="evenodd" id="svg_74"/>
      <path clip-rule="evenodd" d="m134.36,564.44c0.04,0 0.08,0 0.13,0c0.6,1.96 -0.2,3.84 -1.38,4.96c-1.03,0.98 -3.12,2.2 -4.74,0.92c0.2,-0.32 0.6,-0.08 0.9,-0.05c1.5,0.12 2.43,-0.43 3.23,-1.14c0.65,-0.57 1.31,-1.5 1.56,-2.51c0.15,-0.64 0.03,-1.35 0.25,-2.05c-0.01,-0.07 0.04,-0.08 0.05,-0.13z" fill="#231F20" fill-rule="evenodd" id="svg_75"/>
      <path clip-rule="evenodd" d="m122.17,568.67c0.43,0.03 0.53,0.55 0.81,0.87c1.25,1.4 2.89,2.71 5.26,2.92c1.35,0.11 2.77,-0.05 3.92,-0.55c1.06,-0.46 2.63,-1.35 3.02,-2.42c0.09,-0.25 0.12,-0.61 0.17,-0.95c0.04,-0.32 0.16,-0.66 0.17,-0.91c0.01,-0.19 -0.17,-0.46 0,-0.6c0.07,0.01 0.11,-0.07 0.13,0c0.03,0 0.06,0 0.09,0c0.5,1.08 0.21,2.75 -0.48,3.56c-1.67,1.96 -5.43,3.27 -8.61,2.23c-1.82,-0.59 -3.36,-1.9 -4.27,-3.46c-0.11,-0.19 -0.35,-0.45 -0.21,-0.69z" fill="#231F20" fill-rule="evenodd" id="svg_76"/>
      <path clip-rule="evenodd" d="m136.51,570.77c0.05,0 0.09,0 0.13,0c0.74,2.93 -0.62,5.59 -2.15,7.02c-0.42,0.39 -0.91,0.75 -1.42,0.86c0.05,-0.31 0.36,-0.45 0.56,-0.63c1.6,-1.53 3.06,-3.6 2.84,-7.11c-0.01,-0.08 0.04,-0.08 0.04,-0.14z" fill="#231F20" fill-rule="evenodd" id="svg_77"/>
      <path clip-rule="evenodd" d="m147.89,598.8c-0.83,-1.74 -1.23,-3.69 -1.86,-5.56c-0.61,-1.86 -1.26,-3.7 -1.89,-5.52c-1.28,-3.66 -2.47,-7.31 -4.61,-10.11c-0.19,-0.16 -0.41,0.14 -0.52,-0.05c-0.01,-0.3 0.17,-0.45 0.35,-0.46c0.74,-0.02 1.47,1.3 1.85,1.92c0.55,0.88 0.9,1.73 1.25,2.5c1.59,3.55 2.81,7.29 4.01,11.12c0.6,1.95 1.32,3.94 1.42,6.16z" fill="#231F20" fill-rule="evenodd" id="svg_78"/>
      <path clip-rule="evenodd" d="m125.57,596.75c-0.03,-1.28 1.99,-1.61 2.07,-2.92c0.03,-0.53 -0.43,-1.06 -0.57,-1.51c-0.62,-2.12 0.76,-3.95 2.12,-4.64c0.18,-0.1 0.9,-0.17 0.86,0.32c-0.02,0.27 -0.4,0.27 -0.65,0.41c-0.86,0.48 -1.89,1.9 -1.55,3.51c0.14,0.67 0.81,1.27 0.6,2.23c-0.14,0.65 -0.61,1.25 -1.12,1.73c-0.48,0.45 -1.14,1.1 -1.76,0.87z" fill="#231F20" fill-rule="evenodd" id="svg_79"/>
      <path clip-rule="evenodd" d="m130.74,588.13c0.05,-0.02 0.23,-0.05 0.39,0c0.71,0.27 1.53,1.84 1.63,2.87c0.07,0.59 0.03,2.29 -0.38,2.24c-0.26,-0.03 -0.21,-0.5 -0.22,-0.78c-0.08,-1.6 -0.36,-2.98 -1.25,-3.73c-0.17,-0.15 -0.72,-0.36 -0.17,-0.6z" fill="#231F20" fill-rule="evenodd" id="svg_80"/>
      <path clip-rule="evenodd" d="m130.4,601.58c0.02,0.03 -0.09,0.51 -0.18,0.77c-0.31,0.92 -1.07,1.9 -1.68,2.78c-0.3,0.43 -0.64,0.87 -0.95,1.28c-0.31,0.4 -0.54,1.06 -1.07,1.04c0.01,-0.54 0.39,-0.98 0.68,-1.41c0.29,-0.41 0.62,-0.85 0.91,-1.27c0.58,-0.87 1.08,-1.89 1.72,-2.6c0.19,-0.21 0.49,-0.26 0.57,-0.59z" fill="#231F20" fill-rule="evenodd" id="svg_81"/>
      <path clip-rule="evenodd" d="m149.26,602.99c0.42,-0.07 0.59,1.15 0.7,1.5c1.13,3.78 3.15,7.06 5.17,9.85c1.21,1.67 2.56,3.13 4,4.51c1.35,1.28 2.66,2.11 4.44,2.96c0.23,0.11 0.5,0.16 0.69,0.36c-2.57,0.11 -4.57,-1.89 -6.08,-3.32c-1.45,-1.38 -2.63,-2.88 -3.74,-4.47c-1.95,-2.78 -3.88,-5.71 -4.87,-9.61c-0.15,-0.57 -0.39,-1.24 -0.39,-1.64c0,-0.08 0.03,-0.12 0.08,-0.14z" fill="#231F20" fill-rule="evenodd" id="svg_82"/>
      <path clip-rule="evenodd" d="m133.28,562.89c0.65,-1.64 1.59,-3.05 3.02,-4.01c1.33,-0.91 2.97,-1.83 4.91,-1.96c1.44,-0.11 2.92,0.14 4.05,0.63c2.07,0.91 3.6,2.36 5.08,3.92c3.66,3.87 6.22,9.02 8.02,14.77c0.36,1.18 0.52,2.49 0.73,3.83c0.43,2.72 0.63,5.64 0.82,8.43c0.54,7.87 2.13,14.79 6.46,18.73c1.41,1.28 2.89,2.57 5.26,2.96c1.79,0.29 3.48,0.23 5.04,-0.45c0.62,-0.28 1.24,-0.69 1.85,-1.19c1.16,-0.95 2.06,-1.86 2.76,-3.33c0.41,-0.85 0.98,-2.12 0.73,-3.51c-0.14,-0.78 -1.05,-1.94 -1.55,-2.5c-0.68,-0.77 -1.49,-1.41 -2.28,-1.73c-1.26,-0.52 -2.71,-0.1 -3.23,0.86c-0.44,0.8 -0.87,2.38 -0.74,3.69c0.06,0.55 0.43,0.97 0.43,1.51c-0.31,0 -0.52,-0.02 -0.94,0.04c-0.36,-0.18 -0.62,-0.48 -0.82,-0.86c-0.17,-0.34 -0.4,-0.83 -0.43,-1.23c-0.05,-0.6 0.34,-1.4 0.6,-1.92c0.76,-1.51 2.2,-3.24 4.57,-2.96c0.72,0.08 1.24,0.57 1.85,0.82c0.79,0.32 1.44,0.44 2.03,0.91c1.44,1.17 2.84,3.43 3.01,5.88c0.12,1.73 -0.26,3.58 -1.08,4.97c0.19,2.85 -0.62,5.23 -1.63,7.15c-1.04,1.98 -2.48,3.49 -4.01,4.79c-1.59,1.34 -3.35,2.49 -5.56,3.14c-1.88,0.55 -4.33,0.91 -6.5,0.32c-0.25,-0.07 -0.53,-0.25 -0.78,-0.28c-0.51,-0.05 -1.11,0.17 -1.68,0.19c-1.92,0.06 -3.69,-0.07 -5.04,-0.55c-1.49,-0.52 -2.54,-1.12 -3.62,-2.05c-0.31,-0.26 -0.68,-0.69 -1.03,-0.86c-0.35,-0.18 -0.76,-0.18 -1.12,-0.32c-1.54,-0.6 -3.08,-1.5 -4.27,-2.51c-1.21,-1.02 -2.19,-2.45 -2.93,-3.92c-1.51,-3.01 -2.62,-6.7 -3.1,-10.71c-0.5,-4.11 -0.66,-8.63 -0.95,-12.99c-0.15,-2.23 -0.21,-4.35 -0.65,-6.33c-0.41,-1.89 -0.86,-3.62 -1.63,-5.24c-0.44,9.86 -2.89,17.06 -6.77,23.19c-0.95,1.5 -1.89,3.01 -2.97,4.43c-0.35,0.45 -0.77,0.88 -1.08,1.36c-0.21,0.33 -0.6,0.97 -0.65,1.32c-0.1,0.8 0.04,1.69 0.09,2.46c0.08,1.23 0.42,2.46 0.56,3.56c1.07,0.8 1.83,2.23 2.72,3.37c0.29,0.38 0.61,0.84 0.99,1.32c0.27,0.36 0.75,1.15 1.07,1.23c0.32,0.08 0.76,-0.12 1.12,0c0.26,0.08 0.45,0.41 0.74,0.64c0.73,0.59 1.84,0.82 2.75,1.23c6.17,2.75 12.39,5.41 18.49,8.25c1.14,0.53 2.23,1.3 3.32,2.05c1.08,0.75 2.18,1.52 3.05,2.32c0.87,0.79 1.74,1.82 2.59,2.83c0.82,0.97 1.71,1.97 2.41,3.01c1.51,2.22 2.68,4.78 3.32,7.61c0.67,2.98 0.9,6.27 0.9,10.16c0,0.94 0.01,1.81 -0.08,2.69c-0.17,1.57 -0.48,3.12 -0.73,4.79c-0.1,0.61 0,1.7 -0.87,1.82c-0.32,-0.69 0.02,-1.49 0.13,-2.19c0.34,-2.19 0.74,-4.76 0.78,-7.25c0.05,-3.56 -0.25,-6.88 -0.91,-9.8c-0.64,-2.83 -1.78,-5.21 -3.23,-7.33c-1.41,-2.09 -3.08,-4.03 -4.74,-5.74c-0.79,-0.82 -1.9,-1.59 -2.93,-2.28c-3.07,-2.07 -6.8,-3.59 -10.38,-5.15c-3.47,-1.52 -7.05,-3.29 -10.73,-4.79c-1.19,-0.48 -2.61,-0.92 -3.53,-1.64c-0.31,-0.23 -0.44,-0.69 -0.91,-0.59c-0.02,0.09 0.1,0.35 0.09,0.68c-0.01,0.26 -0.06,0.5 -0.09,0.73c0.45,0.16 0.72,0.45 1.17,0.73c0.29,0.19 1.16,0.47 0.86,0.96c-0.23,0.37 -0.89,-0.22 -1.12,-0.37c-0.43,-0.27 -0.7,-0.48 -1.08,-0.68c-0.64,1.45 -1.54,2.63 -2.41,3.83c0.29,0.36 0.7,0.73 1.08,1.09c0.33,0.32 0.95,0.66 0.73,1.28c-0.53,0.03 -0.79,-0.43 -1.17,-0.82c-0.14,-0.16 -0.29,-0.35 -0.51,-0.55c-0.07,-0.06 -0.49,-0.5 -0.52,-0.5c-0.09,0 -0.45,0.54 -0.6,0.73c-1.36,1.65 -3.06,3.41 -4.44,4.83c0.17,0.41 0.44,0.75 0.73,1.09c0.24,0.29 0.71,0.63 0.52,1.1c-0.47,0.26 -0.76,-0.32 -0.99,-0.6c-0.27,-0.31 -0.55,-0.69 -0.69,-1.04c-0.88,0.68 -1.73,1.54 -2.59,2.37c-0.86,0.83 -1.78,1.61 -2.67,2.36c0.24,0.42 0.6,0.9 0.91,1.37c0.26,0.42 0.77,0.99 0.43,1.51c-0.62,-0.05 -0.69,-0.65 -0.99,-1.14c-0.11,-0.18 -0.3,-0.44 -0.43,-0.64c-0.11,-0.17 -0.3,-0.62 -0.39,-0.64c-0.16,-0.03 -1.27,1.06 -1.43,1.18c-1.42,1.14 -3.05,2.4 -4.35,3.42c0.23,0.48 0.38,0.88 0.61,1.51c0.13,0.35 0.65,1.27 0.21,1.5c-0.44,0.24 -0.66,-0.82 -0.77,-1.14c-0.21,-0.6 -0.3,-1.01 -0.52,-1.46c-1.77,1.15 -3.75,2.48 -5.69,3.6c0.13,0.54 0.3,0.93 0.48,1.55c0.1,0.38 0.58,1.33 0.13,1.46c-0.49,0.14 -0.65,-0.86 -0.74,-1.18c-0.16,-0.64 -0.25,-0.98 -0.39,-1.51c-1.51,0.73 -2.91,1.57 -4.65,2.05c-0.08,0.41 -0.18,0.95 -0.26,1.46c-0.07,0.48 0.01,1.12 -0.47,1.23c-0.53,-0.55 0.1,-1.73 0.13,-2.55c-1.53,-0.37 -1.67,-2.22 -2.33,-3.51c-0.24,0.15 -0.5,0.39 -0.73,0.68c-0.2,0.25 -0.36,0.72 -0.77,0.69c-0.06,-1.09 0.87,-1.5 1.29,-2.24c-0.47,-1.52 -0.74,-3.25 -1.04,-4.96c-0.34,0.12 -0.64,0.47 -0.94,0.77c-0.29,0.28 -0.54,0.79 -0.95,0.73c0.05,-1.2 1.24,-1.57 1.77,-2.42c-0.27,-1.91 -0.5,-3.88 -0.61,-5.96c-0.35,0.12 -0.69,0.44 -0.99,0.77c-0.28,0.3 -0.51,0.84 -0.95,0.77c-0.1,-0.49 0.44,-1.1 0.78,-1.45c0.33,-0.35 0.8,-0.59 1.08,-0.92c-0.07,-1.31 -0.04,-2.72 -0.05,-4.1c-0.32,0.15 -0.71,0.41 -1.07,0.69c-0.34,0.25 -0.65,0.76 -1.08,0.59c-0.05,-0.63 0.56,-0.89 0.95,-1.19c0.41,-0.32 0.86,-0.67 1.29,-0.91c0.16,-1.12 0.33,-2.23 0.26,-3.6c-2.98,2.22 -5.81,4.68 -9.09,6.65c-1.68,1.01 -3.49,1.73 -5.18,2.69c-3.25,1.86 -6.73,3.88 -9.43,6.34c-1.38,1.25 -2.59,2.69 -3.75,4.19c-1.14,1.47 -2.11,3.13 -2.8,5.19c-0.34,1.04 -0.62,2.13 -0.65,3.42c-0.03,1.29 0.18,2.52 0.09,3.96c-0.02,0.3 -0.02,2.2 -0.33,2.23c-0.42,0.04 -0.22,-1.35 -0.23,-1.68c-0.02,-0.82 -0.2,-1.64 -0.26,-2.46c-0.25,-3.54 0.56,-6.37 1.81,-8.56c0.92,-1.63 2.04,-3.13 3.19,-4.47c3.63,-4.22 8.28,-6.82 13.35,-9.48c0.81,-0.42 1.72,-0.78 2.46,-1.32c0.74,-0.54 1.5,-1.06 2.29,-1.51c2.79,-1.58 5.11,-3.62 7.49,-5.83c0.32,-0.29 0.92,-0.83 0.91,-1c-0.04,-0.53 -1.53,-0.19 -2.42,-0.23c-0.95,-0.04 -1.71,-0.19 -2.32,-0.46c-0.39,-0.16 -1.23,-0.65 -1.6,-1c-0.31,-0.29 -0.56,-0.73 -0.86,-1.09c-2.04,-2.46 -4.21,-4.73 -6.46,-7.11c-1.16,-1.23 -2.32,-2.8 -3.15,-4.65c-0.83,-1.86 -1.7,-3.8 -1.89,-5.97c-0.14,-1.47 0.11,-2.94 0.25,-4.42c0.25,-2.59 0.56,-5.3 0.35,-8.34c-0.4,-0.3 -0.88,-0.49 -1.25,-0.82c-0.67,1.79 -1.31,4.49 -1.42,7.16c-0.12,2.84 0.01,5.66 1.08,7.52c0.19,0.34 0.46,0.58 0.68,0.86c0.22,0.27 0.57,0.49 0.61,0.91c-0.61,0.16 -0.86,-0.6 -1.42,-0.5c-4.58,-2.72 -3.53,-13.01 -1.21,-17.5c-0.9,-0.91 -1.77,-1.87 -2.37,-3.1c-0.46,0.01 -0.91,-0.11 -1.29,-0.27c-0.4,-0.17 -0.78,-0.25 -1.12,-0.41c-2.47,-1.18 -3.14,-4.7 -2.89,-8.43c-1.1,4.17 -0.34,9.41 2.2,11.25c0.37,0.28 0.81,0.47 1.12,0.87c-3.07,-0.6 -4.71,-2.3 -5.3,-5.47c-0.24,-1.28 -0.35,-2.66 -0.26,-4.05c0.18,-2.78 1.03,-4.94 1.81,-6.89c0.8,-2.01 1.94,-3.75 3.23,-5.37c2.6,-3.28 5.22,-6.03 8.53,-8.57c1.63,-1.25 3.28,-2.59 5.04,-3.46c1,-0.5 1.9,-0.99 2.85,-1.42c2.49,-1.13 6.06,-2.08 9.65,-1.5c0.28,0.04 0.59,0.24 0.82,0.23c0.31,-0.02 0.8,-0.38 1.2,-0.5c0.44,-0.14 0.9,-0.27 1.38,-0.32c0.99,-0.12 2.07,0.06 3.19,0.04c0.03,0 0.06,0.01 0.08,0c1.14,-0.2 2.28,-0.43 3.24,-0.5c3.04,-0.2 5.86,0.4 8.44,1.14c2.57,0.75 4.87,1.63 7.07,2.6c4.53,2.01 7.63,5.28 10.34,9.17zm-7.02,42.29c0.58,-0.98 1.24,-1.97 1.81,-2.87c-0.01,-0.05 0.06,-0.07 0,-0.1c-0.92,0.32 -1.36,0.82 -1.85,1.55c-0.25,0.37 -0.44,0.96 -0.95,0.92c-0.06,-0.69 0.55,-1.06 0.77,-1.6c-0.3,0.02 -1.76,0.96 -1.85,0.27c-0.04,-0.32 0.32,-0.36 0.6,-0.5c0.3,-0.14 0.5,-0.32 0.69,-0.41c0.53,-0.24 1.04,-0.36 1.55,-0.68c1.39,-0.86 2.64,-1.79 3.79,-3.01c1.48,-1.56 2.76,-3.84 2.89,-6.29c0.13,-2.49 -0.78,-4.59 -2.5,-5.24c-1.66,-0.62 -3.63,0.67 -4.43,1.51c-0.22,0.22 -0.39,0.68 -0.78,0.59c-0.19,-0.34 -0.01,-0.69 0.17,-0.96c0.18,-0.26 0.58,-0.46 0.48,-0.68c-0.66,0.03 -1.21,-0.06 -1.77,-0.14c-0.76,3.58 -0.35,8.04 1.08,10.48c0.19,0.34 0.56,0.71 0.47,1.14c-0.49,0.04 -0.7,-0.59 -1.03,-0.87c-1.78,-0.98 -2.33,-3.14 -2.76,-5.69c-0.31,-1.88 -0.26,-4.04 0.22,-5.7c-1.1,-0.34 -1.97,-1.06 -3.02,-1.5c-0.67,-0.28 -1.35,-0.46 -1.98,-0.73c-1.28,-0.55 -2.36,-1.31 -3.36,-2.14c-0.51,-0.42 -1.06,-1.02 -1.55,-1.23c-0.8,-0.34 -1.77,-0.21 -2.72,-0.28c-7.54,-0.53 -8.61,-9.64 -7.41,-18.09c-0.96,2.14 -1.9,5.04 -1.94,8.11c-0.04,3.57 0.89,6.63 2.76,8.48c0.21,0.2 0.5,0.32 0.6,0.59c-0.78,0.04 -1.24,-0.27 -1.68,-0.59c-0.03,0.57 -1.16,0.27 -1.46,0.14c-0.96,-0.43 -1.82,-1.32 -2.5,-2.37c-1.08,-1.69 -1.57,-3.7 -1.34,-6.47c-0.52,2.05 -1.5,5.28 -0.21,7.15c0.57,0.82 1.44,1.14 2.63,1.37c-0.04,0.29 -0.38,0.21 -0.61,0.32c-0.21,0.09 -0.36,0.26 -0.6,0.31c-0.6,0.14 -1.24,-0.03 -1.81,-0.18c-0.24,0.93 -1.9,0.65 -2.76,0.55c-1.42,-0.16 -2.74,-1.3 -3.57,-2.33c-1.09,-1.32 -1.8,-2.95 -1.9,-4.83c-0.27,1.59 -0.83,4.02 -0.13,5.56c0.28,0.62 0.79,0.86 0.82,1.46c-2.95,-0.39 -3.41,-4.06 -3.06,-7.65c0.27,-2.77 1.01,-5.2 1.94,-6.93c-1.29,0.92 -2.4,2.06 -3.41,3.28c-1.02,1.24 -1.87,2.57 -2.62,4.1c-1.52,3.08 -1.91,7.01 -1.9,11.76c0.28,0.27 0.66,0.4 1.04,0.59c0.34,0.18 0.78,0.31 0.99,0.64c-0.43,0.35 -1.55,0.27 -2.03,0.05c-0.03,3.03 0.31,5.85 0.17,8.79c-0.08,1.8 -0.36,3.63 -0.56,5.38c-0.06,0.59 -0.24,1.18 -0.26,1.73c-0.02,1.13 0.29,2.45 0.61,3.42c0.34,1.03 0.81,1.94 1.2,2.82c0.88,1.98 2.05,3.44 3.23,4.74c1.98,2.18 3.87,4.03 5.69,6.25c0.63,0.75 1.18,1.79 1.86,2.27c2.55,1.84 7.12,0.4 9.56,-0.45c3.04,-1.07 5.67,-2.25 8.1,-3.74c1.21,-0.74 2.36,-1.64 3.45,-2.5c1.71,-1.37 3.24,-2.73 4.65,-4.29c0.48,-0.52 1.02,-1.02 1.47,-1.55c0.69,-0.82 1.27,-1.78 1.93,-2.59c0.2,-0.24 0.36,-0.72 0.78,-0.64c0.23,0.33 -0.13,0.62 -0.26,0.86c-1.13,2.11 -2.35,3.74 -3.92,5.29c-1.77,1.74 -3.63,3.36 -5.65,4.78c-1.55,1.1 -3.15,2.04 -4.82,2.97c-0.55,0.3 -1.05,0.67 -1.6,1c-2.2,1.32 -4.59,2.39 -7.02,3.32c0.9,1.3 1.65,2.88 2.37,4.38c0.19,0.39 0.65,0.86 0.95,1.23c0.82,1 1.76,1.7 2.97,2.23c7.98,-2.71 14.93,-6.55 20.64,-11.71c0.51,-0.46 2.12,-1.73 2.2,-2.51c0.02,-0.25 -0.14,-0.63 -0.22,-1c-0.51,-2.52 -0.89,-4.92 -0.64,-7.75c1.74,-2.88 3.77,-5.53 5.51,-8.52c1.72,-2.97 3.1,-6.32 4.09,-10.07c0.96,-3.6 1.8,-8.11 1.6,-12.57c-0.16,-3.49 -0.62,-6.59 -1.64,-9.07c-0.33,-0.8 -0.99,-1.58 -0.9,-2.47c0.43,0.15 0.61,0.66 0.81,1.01c1.36,2.27 2.1,5.36 2.33,8.75c0.04,0.56 -0.05,1.26 0.09,1.78c0.04,0.17 0.23,0.31 0.34,0.5c0.11,0.2 0.18,0.45 0.26,0.63c1.35,2.84 2.13,5.93 2.41,9.94c0.31,4.32 0.55,8.95 0.95,13.31c0.39,4.2 1.35,8.1 2.84,11.25c1.56,3.27 3.88,5.49 7.03,6.88c0.03,-0.22 -0.19,-0.3 -0.3,-0.45c-1.01,-1.3 -1.84,-2.69 -2.55,-4.28c-0.77,-1.77 -1.56,-3.97 -1.38,-6.34c1.08,4.51 2.58,7.99 5.09,10.85c1.29,1.46 2.74,2.5 4.65,3.19c1.49,0.53 3.14,0.7 5.13,0.59c0.59,-0.03 1.2,-0.2 1.77,-0.18c0.56,0.01 1.15,0.26 1.72,0.36c4.94,0.89 8.76,-1.74 11.42,-4.24c1.19,-1.11 2.24,-2.36 3.06,-4.01c0.74,-1.5 1.65,-3.92 1.55,-6.01c0.55,-1.21 1.03,-3.17 1.03,-4.79c0,-2.23 -1.1,-4.19 -2.19,-5.33c-0.16,-0.16 -0.33,-0.5 -0.48,-0.41c0.45,0.44 0.6,0.96 0.86,1.5c0.27,0.55 0.59,1.05 0.65,1.78c0.1,1.18 -0.3,2.25 -0.69,3.15c-0.9,2.03 -2.31,3.37 -4.05,4.46c-0.97,0.61 -2.14,1.04 -3.45,1.19c-2.48,0.27 -4.95,-0.65 -6.37,-1.64c-0.25,-0.18 -0.36,-0.38 -0.61,-0.6c-0.55,-0.48 -1.19,-0.74 -1.68,-1.14c-1.51,-1.23 -2.76,-2.99 -3.66,-4.87c-1.21,-2.55 -2.08,-5.54 -2.59,-8.93c-0.51,-3.47 -0.63,-7.09 -0.98,-10.62c-0.18,-1.78 -0.44,-3.46 -0.69,-5.11c-0.25,-1.62 -0.76,-3.08 -1.3,-4.51c-1.04,-2.79 -2.35,-5.22 -3.83,-7.61c-1.45,-2.33 -3.24,-4.55 -5.26,-6.15c-1.04,-0.82 -2.25,-1.63 -3.66,-1.96c-1.57,-0.37 -3.27,-0.25 -4.74,0.27c-1.21,0.43 -2.47,1.08 -3.49,2.14c-0.69,0.72 -1.15,1.59 -1.68,2.6c-0.12,0.22 -0.45,0.82 -0.69,0.78c-0.24,-0.05 -0.1,-0.24 -0.21,-0.41c-0.08,-0.12 -0.29,-0.25 -0.35,-0.32c-0.65,-0.82 -1.19,-1.52 -1.77,-2.19c-0.84,-0.98 -1.72,-1.9 -2.58,-2.64c-3.86,-3.33 -8.49,-5.23 -14.09,-6.7c-1.93,-0.51 -4.33,-0.98 -6.81,-0.87c-0.8,0.04 -1.73,0.02 -2.41,0.19c-0.31,0.07 -0.56,0.31 -0.95,0.31c-0.27,0 -0.58,-0.11 -0.86,-0.13c-1.42,-0.1 -2.9,0.07 -4.18,0.41c0.36,0.29 0.92,0.43 1.38,0.68c0.42,0.23 1.01,0.5 0.99,1.05c-0.79,-0.15 -1.47,-0.58 -2.2,-0.87c-2.44,-0.95 -5.4,-0.75 -8.1,-0.04c-3.27,0.86 -6.18,2.42 -8.53,4.14c-3.62,2.66 -7.06,5.74 -9.91,9.25c-2.52,3.11 -4.68,6.15 -5.43,11.08c-0.45,3 -0.09,6.59 1.34,8.38c-1.37,-2.63 -1.25,-7.34 -0.3,-10.25c0.23,-0.71 0.56,-1.37 0.86,-2.1c0.29,-0.73 0.5,-1.5 0.82,-2.18c0.46,-1.04 1.07,-1.95 1.72,-2.74c0.2,-0.24 0.46,-0.68 0.82,-0.59c0.1,0.35 -0.23,0.61 -0.39,0.87c-1.28,1.99 -2.32,4.06 -2.71,6.97c-0.6,4.41 0.71,8.62 4.22,8.98c-0.92,-1.84 -1.65,-4.93 -1.12,-7.75c0.15,-0.81 0.37,-1.69 0.9,-2.14c-0.08,1.23 -0.39,2.47 -0.43,3.78c-0.04,1.37 0.23,2.64 0.56,3.78c0.66,2.24 1.67,4.22 3.1,5.47c0.37,-0.86 0.81,-1.63 1.34,-2.32c-1.77,-2.2 -3.19,-5.54 -2.97,-9.76c0.08,-1.54 0.49,-2.92 0.99,-4.01c0.15,-0.34 0.26,-0.95 0.73,-0.95c0.06,0.49 -0.23,0.95 -0.39,1.41c-0.17,0.5 -0.32,1.02 -0.43,1.59c-0.83,4.36 0.52,8.83 2.46,10.9c-1.31,-1.75 -2.05,-3.98 -1.86,-6.89c0.04,-0.53 0.04,-1.16 0.09,-1.77c0.17,-2.26 1.13,-4.42 2.02,-6.15c0.96,-1.87 2.02,-3.44 3.19,-4.97c1.16,-1.52 2.41,-3.01 3.84,-4.24c1.03,-0.89 2.32,-1.85 3.62,-2.41c0.43,-0.19 1.03,-0.6 1.38,-0.28c-0.2,0.56 -0.83,0.6 -1.25,0.82c-0.43,0.23 -0.86,0.55 -1.25,0.82c-0.82,0.56 -1.61,1.17 -2.33,1.83c-2.85,2.61 -5.2,5.98 -7.02,9.75c-0.92,1.88 -1.72,4.3 -1.77,6.74c-0.05,2.58 0.67,4.47 1.64,5.93c0.14,0.21 0.24,0.57 0.43,0.5c-0.07,-2.85 0.44,-5.22 0.82,-7.39c0.39,-2.25 1.37,-4.01 2.41,-5.74c1.5,-2.49 3.79,-4.37 5.77,-6.33c3.06,-3.03 5.65,-6.33 10.08,-7.89c0.29,-0.1 1.4,-0.58 1.43,-0.04c0.01,0.31 -0.44,0.33 -0.65,0.41c-1.61,0.58 -3.52,1.83 -4.65,2.73c-1.58,1.26 -3.12,2.7 -4.18,4.33c-1.11,1.7 -2.16,3.56 -2.72,5.88c-0.54,2.24 -0.96,5.14 -0.17,7.7c-0.18,-2.59 0.44,-4.72 1.21,-6.65c0.52,-1.3 1.05,-2.46 1.77,-3.46c0.21,-0.3 0.39,-0.91 0.86,-0.82c-0.02,0.67 -0.42,0.96 -0.65,1.41c-0.91,1.79 -1.58,4.5 -0.99,6.74c0.5,1.9 1.86,3.65 3.53,4.51c0.87,0.46 2.02,0.84 3.32,0.55c-1.96,-0.63 -2.86,-2.4 -3.4,-4.56c-0.25,-0.97 -0.51,-2.12 -0.05,-3.05c0.52,3.28 1.5,6.32 4.27,7.06c-2.97,-1.82 -1.08,-7.4 -0.22,-9.98c1.42,-4.23 3.43,-8.28 6.72,-10.39c-1.52,2.08 -3.43,4.42 -4.61,7.43c-0.58,1.5 -0.78,3.29 -0.9,5.2c-0.12,1.97 0.17,3.68 0.95,5.1c0.7,1.27 1.81,2.23 3.23,2.78c-2.2,-2.28 -2.75,-7.52 -1.9,-11.67c0.4,-1.9 1.05,-3.74 1.9,-5.33c0.4,-0.75 0.94,-1.49 1.38,-2.23c0.21,-0.36 0.36,-0.82 0.6,-1.19c0.19,-0.29 0.48,-0.84 0.91,-0.73c-0.07,0.49 -0.4,0.87 -0.61,1.33c-0.64,1.4 -1.07,3.1 -1.29,4.83c-0.67,5.23 0,10.95 2.33,13.67c1.39,1.63 3.66,2.55 6.5,2.64c-0.31,-0.5 -0.79,-0.88 -1.2,-1.37c-0.82,-0.93 -1.61,-2.01 -2.2,-3.14c-0.3,-0.56 -0.68,-1.2 -0.61,-1.91c0.52,0.37 0.62,1.03 0.91,1.54c0.28,0.51 0.67,0.95 1.03,1.42c2.17,2.79 4.69,5.16 7.84,6.88c0.12,-0.16 -0.14,-0.2 -0.21,-0.27c-0.59,-0.58 -1.19,-1.14 -1.68,-1.78c-0.17,-0.22 -0.57,-0.51 -0.35,-0.87c0.52,0.16 0.86,0.65 1.25,1.01c1.23,1.1 2.4,2.13 3.88,2.96c1.88,1.06 4.11,2.14 6.98,1.73c-2.1,-0.16 -3.85,-0.96 -5.21,-1.82c-0.2,-0.13 -0.56,-0.19 -0.56,-0.5c0.29,-0.15 0.64,0.13 0.9,0.27c0.89,0.46 1.83,0.95 2.93,1.14c2.45,0.42 5.27,-0.17 6.72,-1.14c0.23,-0.15 0.55,-0.33 0.52,-0.5c-3.73,0.51 -7.69,-0.59 -9.82,-2.28c-0.26,-0.21 -0.72,-0.52 -0.65,-0.91c0.46,-0.01 0.83,0.37 1.21,0.59c0.4,0.24 0.79,0.48 1.25,0.68c2.7,1.23 7.17,0.57 9.09,-1.09c0.21,-0.18 0.41,-0.43 0.6,-0.64c0.19,-0.2 0.31,-0.59 0.69,-0.59c0.09,0.64 -0.35,1.17 -0.69,1.55c-1.16,1.28 -3.16,1.67 -5.08,2.05c1.44,0.13 2.97,0.11 4.13,-0.23c0.36,-0.1 0.77,-0.46 1.08,-0.18c-0.12,0.44 -0.52,0.58 -0.86,0.77c-0.63,1.12 -1.67,1.79 -2.93,2.24c1.3,0.37 2.17,1.14 2.76,2.18c1.32,2.35 0.83,5.62 -0.13,7.84c-0.97,2.23 -2.77,3.96 -4.48,5.2c-0.69,1.31 -1.51,2.54 -2.29,3.73c-0.24,0.38 -0.41,0.97 -0.9,1.1c-0.27,-0.36 0.04,-0.8 0.22,-1.09zm-50.97,-11.44c-0.46,3.5 -0.31,7.69 1.33,9.75c-0.33,-0.95 -0.65,-2.02 -0.73,-3.15c-0.3,-4.43 0.41,-9.37 2.03,-12.12c0.22,-0.38 0.54,-0.91 0.99,-0.95c0.06,0.6 -0.52,0.91 -0.61,1.5c0.23,0.28 0.55,0.46 0.91,0.59c-0.11,-1.13 -0.09,-2.39 -0.09,-3.64c-0.24,-0.21 -0.45,-0.44 -0.78,-0.55c-1.22,2.42 -2.61,5.18 -3.05,8.57zm48.08,-6.66c-0.64,3.47 -0.02,7.62 1.34,9.85c-0.87,-2.49 -1.28,-6.91 -0.22,-9.53c-0.4,-0.08 -0.77,-0.18 -1.12,-0.32zm49.63,14.09c-0.01,0.4 0.19,0.86 0.35,1.18c0.12,0.23 0.29,0.55 0.47,0.5c-0.5,-1.07 -0.02,-2.8 0.18,-3.69c-0.24,0.53 -0.96,1.21 -1,2.01zm-44.5,16.4c-0.11,0.87 -1.33,2.12 -2.02,2.78c-2.5,2.4 -5.35,4.45 -8.28,6.15c-3.05,1.77 -6.07,3.5 -9.56,4.79c-1.12,0.41 -2.67,1.03 -3.75,1c-0.26,-0.01 -0.35,-0.07 -0.56,-0.18c-0.16,0.14 0.09,0.21 0.13,0.27c1.22,1.87 1.94,4.08 2.84,6.24c0.95,2.29 2.01,4.57 2.8,6.88c6.21,-4.04 11.87,-9.13 16.93,-14.49c2.29,-2.41 4.65,-4.96 5.95,-8.34c-1.62,-2 -3.23,-4.02 -4.65,-6.24c0.05,0.37 0.21,0.76 0.17,1.14zm-30.38,10.07c-0.03,0.18 -0.14,0.33 -0.17,0.5c-0.15,0.9 -0.12,1.97 -0.09,2.92c0.11,3 0.34,5.8 0.65,8.48c0.76,-1.2 1.57,-2.4 2.41,-3.6c0.82,-1.18 1.59,-2.51 2.59,-3.46c0.18,-0.18 0.38,-0.34 0.64,-0.42c-1.23,-0.45 -2.08,-1.29 -2.84,-2.27c-0.35,-0.46 -0.81,-0.92 -1.03,-1.28c-0.37,-0.62 -0.6,-1.36 -0.95,-2.01s-0.77,-1.34 -1.17,-1.86c-0.09,0.98 0.15,2.06 -0.04,3zm5.82,5.2c-1.56,1.98 -3.16,4.49 -4.65,6.74c-0.21,0.31 -0.58,0.8 -0.61,1.01c-0.05,0.36 0.16,1.17 0.26,1.73c0.21,1.22 0.43,2.26 0.69,3.32c0.14,0.57 0.19,1.15 0.34,1.69c0.15,0.51 1.02,2.44 1.47,2.55c0.73,0.18 1.73,-0.47 2.28,-0.73c2.19,-1.02 4.02,-2.12 5.91,-3.28c-2.12,-4.11 -3.49,-9.01 -5.69,-13.03z" fill="#231F20" fill-rule="evenodd" id="svg_83"/>
      <path d="m155.63,639.19c-5.25,5.85 -8.4,13.48 -10.98,20.96c-0.14,0.4 0.58,0.37 0.68,0.07c2.57,-7.43 5.68,-15.02 10.9,-20.82c0.31,-0.35 -0.39,-0.44 -0.6,-0.21l0,0z" fill="#231F20" id="svg_84"/>
     </g>
     <g id="svg_85">
      <path clip-rule="evenodd" d="m103.83,601.18l-4.58,1.2c0,0 -4.38,1.52 -4.4,1.58c-0.02,0.05 -2.78,2.12 -2.78,2.12l-0.43,1.14l1.61,3.8l2.18,2.26l1.09,0.32l2.39,-1.08l2.96,-4.42l2.39,-6.12l-0.43,-0.8z" fill="#E47D7A" fill-rule="evenodd" id="svg_86"/>
      <path clip-rule="evenodd" d="m89.11,597.27c-0.04,0.04 0.37,1.98 0.37,1.98s2.46,0.44 2.54,0.44c0.07,0 5.74,-0.14 5.74,-0.14s4.38,-1 4.45,-1.07s2.19,-0.69 2.26,-0.75c0.08,-0.06 0.76,-0.46 0.76,-0.46l0.63,-0.68l-0.42,-0.7l-9.62,-0.25c0,0 -5.53,0.57 -6.71,1.63z" fill="#FFFFFF" fill-rule="evenodd" id="svg_87"/>
      <polygon clip-rule="evenodd" fill="#FFFFFF" fill-rule="evenodd" id="svg_88" points="102.68,585.189 101.871,585.613 102.571,585.883 
				102.948,586.487 104.26,586.373 105.087,587.031 106.988,586.354 106.608,584.93 105.864,584.483 			"/>
      <polygon clip-rule="evenodd" fill="#FFFFFF" fill-rule="evenodd" id="svg_89" points="84.637,588.379 85.354,589.297 86.594,589.639 
				88.119,589.009 87.888,587.854 86.878,587.436 84.924,587.986 			"/>
      <path clip-rule="evenodd" d="m97.1,574.37c0.04,-0.01 0.04,0.01 0.04,0.04c0.5,0.31 0.87,0.76 1.43,1.05c1.06,0.55 2.53,0.85 4.05,1.05c2.26,0.3 4.34,0.39 6.67,0.5c0.48,0.02 1.07,-0.13 1.38,0.27c-0.24,0.61 -1.4,0.21 -2.06,0.23c-0.25,0.01 -0.48,0.11 -0.74,0.14c-1.71,0.16 -3.87,-0.16 -5.77,-0.46c-1.88,-0.29 -3.58,-0.74 -4.61,-1.64c-0.29,-0.25 -0.69,-0.63 -0.56,-1.09c0.06,-0.03 0.1,-0.07 0.17,-0.09z" fill="#231F20" fill-rule="evenodd" id="svg_90"/>
      <path clip-rule="evenodd" d="m80.55,581.66c0.18,-0.35 0.6,-0.37 0.91,-0.5c1.51,-0.67 3.2,-1.31 4.7,-2.1c0.59,-0.31 1.25,-0.68 1.68,-1.05c0.55,-0.48 0.78,-1.12 1.33,-1.5c0.56,-0.39 0.47,0.5 0.26,0.86c-0.34,0.6 -1.21,1.2 -1.81,1.6c-1.68,1.12 -3.75,1.92 -5.82,2.64c-0.38,0.14 -0.88,0.46 -1.25,0.05z" fill="#231F20" fill-rule="evenodd" id="svg_91"/>
      <path clip-rule="evenodd" d="m92.53,584.48c-0.37,-0.25 -0.4,-0.74 -0.56,-1.14c-0.33,-0.82 -0.68,-1.41 -1.2,-2.19c-0.05,-0.05 -0.92,-1.22 -0.44,-1.27c0.28,-0.03 0.67,0.65 0.86,0.91c0.5,0.66 0.98,1.41 1.25,2.28c0.14,0.42 0.34,1.01 0.09,1.41z" fill="#231F20" fill-rule="evenodd" id="svg_92"/>
      <path clip-rule="evenodd" d="m102.14,585.67c-0.51,0.43 -1.8,0.12 -2.28,-0.18c-0.06,-0.23 0.12,-0.25 0.26,-0.28c0.55,-0.1 1.78,0.14 2.02,0.46z" fill="#231F20" fill-rule="evenodd" id="svg_93"/>
      <path clip-rule="evenodd" d="m89.86,587.08c0.18,0.6 -0.62,0.52 -1.12,0.55c-0.01,0.13 0.16,0.15 0.04,0.27c0.49,-0.03 1.12,-0.56 1.51,-0.14c-0.08,0.51 -0.55,0.61 -0.95,0.78c-0.02,0.14 0.14,0.1 0.09,0.27c-0.24,0.48 -0.9,0.61 -1.46,0.82c-0.89,0.32 -1.64,0.59 -2.68,0.78c-0.27,0.04 -0.68,0.14 -0.86,-0.14c0,-0.21 0.14,-0.28 0.3,-0.32c-0.27,-0.12 -0.55,-0.24 -0.77,-0.41c0.01,-0.43 0.5,-0.35 0.77,-0.5c-0.18,-0.27 -0.48,0.05 -0.86,-0.05c-0.07,-0.07 -0.1,-0.19 -0.08,-0.36c-0.44,0.02 -0.71,0.6 -1.12,0.36c-0.06,-0.29 0.14,-0.31 0.21,-0.45c-0.24,-0.15 -0.77,-0.01 -0.9,-0.28c0.4,-0.54 1.1,-0.07 1.68,-0.13c0.25,-0.03 0.54,-0.23 0.86,-0.32c1.53,-0.45 3.43,-0.93 5.34,-0.73zm-4.78,1.46c0.07,0.46 1.03,0.49 1.38,0.23c0.12,-0.18 0.18,-0.42 0.17,-0.73c-0.48,-0.29 -1.64,-0.06 -1.55,0.5zm1.64,0.41c0.2,0.38 1.2,0.2 0.86,-0.41c-0.32,-0.2 -0.87,-0.02 -0.86,0.41z" fill="#231F20" fill-rule="evenodd" id="svg_94"/>
      <path clip-rule="evenodd" d="m110.97,588.26c0.25,0.39 -0.04,0.9 -0.17,1.33c-0.26,0.86 -0.56,1.67 -0.86,2.55c-0.13,0.4 -0.22,0.94 -0.65,1.05c-0.02,-0.84 0.37,-1.68 0.65,-2.46c0.31,-0.86 0.57,-1.75 0.95,-2.47c0.03,0 0.05,0 0.08,0z" fill="#231F20" fill-rule="evenodd" id="svg_95"/>
      <path clip-rule="evenodd" d="m108.91,588.54c0.36,0.24 0.06,0.78 -0.05,1.09c-0.25,0.75 -0.49,1.42 -0.77,2.19c-0.13,0.35 -0.15,0.86 -0.56,0.91c-0.15,-0.71 0.25,-1.39 0.47,-2.05c0.23,-0.69 0.5,-1.4 0.73,-2c0.02,-0.06 0.08,-0.07 0.09,-0.14c0.03,0 0.06,0 0.09,0z" fill="#231F20" fill-rule="evenodd" id="svg_96"/>
      <path clip-rule="evenodd" d="m107.35,588.63c0.02,0.75 -0.34,1.53 -0.56,2.28c-0.1,0.35 -0.22,0.78 -0.34,1.14c-0.11,0.31 -0.19,0.81 -0.56,0.86c-0.14,-0.76 0.3,-1.57 0.56,-2.41c0.21,-0.68 0.4,-1.39 0.69,-1.82c0.01,-0.05 0.08,-0.03 0.08,-0.1c0.07,-0.01 0.08,0.05 0.13,0.05z" fill="#231F20" fill-rule="evenodd" id="svg_97"/>
      <path clip-rule="evenodd" d="m112.4,588.58c0.27,0.26 0.05,0.75 -0.05,1.05c-0.21,0.66 -0.43,1.29 -0.69,1.96c-0.11,0.3 -0.24,0.71 -0.56,0.73c-0.08,-0.64 0.26,-1.24 0.48,-1.82c0.24,-0.65 0.44,-1.35 0.73,-1.92c0.03,0 0.06,0 0.09,0z" fill="#231F20" fill-rule="evenodd" id="svg_98"/>
      <path clip-rule="evenodd" d="m113.69,588.95c0.12,0.53 -0.2,1.19 -0.39,1.73c-0.19,0.52 -0.35,1.23 -0.86,1.37c0.12,-1.1 0.7,-2.11 1.08,-3.1c0.05,0 0.11,0 0.17,0z" fill="#231F20" fill-rule="evenodd" id="svg_99"/>
      <path clip-rule="evenodd" d="m85.03,591.73c0.08,0.6 -0.21,1.34 -0.43,2c-0.1,0.32 -0.24,0.64 -0.34,0.96c-0.1,0.29 -0.13,0.74 -0.43,0.77c-0.33,-0.18 -0.08,-0.64 0,-0.91c0.26,-0.88 0.68,-1.97 0.99,-2.78c0.01,-0.05 0.09,-0.03 0.09,-0.09c0.07,-0.01 0.07,0.05 0.12,0.05z" fill="#231F20" fill-rule="evenodd" id="svg_100"/>
      <path clip-rule="evenodd" d="m86.37,591.91c0.15,0.58 -0.17,1.29 -0.34,1.91c-0.16,0.58 -0.16,1.51 -0.69,1.74c-0.22,-0.51 0.09,-1.19 0.26,-1.78c0.17,-0.61 0.35,-1.29 0.56,-1.73c0.01,-0.06 0.07,-0.07 0.08,-0.14c0.05,0 0.09,0 0.13,0z" fill="#231F20" fill-rule="evenodd" id="svg_101"/>
      <path clip-rule="evenodd" d="m87.84,591.96c0.16,0.51 -0.12,1.18 -0.26,1.73c-0.15,0.54 -0.22,1.28 -0.69,1.46c-0.09,-1.1 0.44,-2.29 0.82,-3.19c0.04,0 0.08,0 0.13,0z" fill="#231F20" fill-rule="evenodd" id="svg_102"/>
      <path clip-rule="evenodd" d="m83.53,592.09c0.1,0.95 -0.41,2.11 -0.69,3.1c-0.09,0.3 -0.13,0.93 -0.43,0.87c-0.4,-0.07 0.17,-1.62 0.26,-1.91c0.25,-0.9 0.4,-1.51 0.69,-2.06c0.05,0 0.11,0 0.17,0z" fill="#231F20" fill-rule="evenodd" id="svg_103"/>
      <path clip-rule="evenodd" d="m91.54,592.55c0.06,0.27 -0.47,0.28 -0.73,0.36c0.12,0.11 0.5,-0.12 0.6,0.09c0.04,0.16 -0.05,0.2 -0.08,0.28c0.37,-0.02 0.79,-0.22 1.16,-0.09c-0.33,0.51 -1.54,0.69 -2.2,0.41c-0.01,-0.11 0.01,-0.18 0.05,-0.23c-0.1,-0.04 -0.23,-0.04 -0.31,-0.09c-0.01,-0.23 -0.07,-0.26 -0.21,-0.41c0.31,-0.35 1.23,-0.46 1.72,-0.32z" fill="#231F20" fill-rule="evenodd" id="svg_104"/>
      <path clip-rule="evenodd" d="m87.53,597.52c0.27,-0.31 0.68,-0.34 1.04,-0.46c1.01,-0.32 2.07,-0.79 3.23,-1.09c2.73,-0.71 5.67,-0.64 9.22,-0.64c1.46,0 2.77,-0.1 3.84,0.13c0.93,0.21 1.29,0.44 1.2,1.69c-0.1,1.49 -0.71,2.95 -1.16,4.33c-1.08,3.27 -2.49,6.71 -4.31,9.25c-0.84,1.18 -1.77,2.47 -3.27,2.92c-1.01,0.3 -1.91,0.01 -2.55,-0.5c-0.95,-0.76 -1.69,-2.01 -2.28,-3.19c-1.66,-3.33 -2.43,-7.49 -3.92,-11.17c-0.12,-0.3 -0.3,-0.77 -0.43,-0.91c-0.17,-0.18 -0.39,-0.08 -0.61,-0.36zm14.22,-1.6c-1.47,0 -3.25,-0.01 -4.48,0.05c-2.23,0.11 -4.25,0.33 -6.03,0.77c-0.61,0.15 -1.22,0.28 -1.68,0.64c-0.04,0.6 0.19,1.33 0.65,1.46c0.51,0.15 1.49,-0.03 2.02,-0.05c4.48,-0.1 8.31,-0.69 11.9,-1.64c0.51,-0.13 1.52,-0.09 1.5,-0.82c-1.01,-0.43 -2.44,-0.41 -3.88,-0.41zm-1.85,7.57c-1.01,0.27 -2,0.57 -2.93,0.95c-1.87,0.77 -3.65,1.52 -5.04,2.83c0.58,1.33 1.03,2.82 1.81,4.06c0.47,0.75 1.5,1.86 2.45,2c1.3,0.19 2.68,-1.07 3.24,-1.78c1.81,-2.29 3.23,-5.8 4.35,-8.66c-1.44,0.07 -2.65,0.27 -3.88,0.6z" fill="#231F20" fill-rule="evenodd" id="svg_105"/>
      <path clip-rule="evenodd" d="m92.83,585.53c0.26,0.64 -0.12,1.3 -0.34,1.82c-0.67,1.61 -1.84,3.08 -3.32,3.83c-0.03,-0.01 -0.04,0.02 -0.04,0.05c0.94,-1.23 2.15,-2.53 2.89,-4.15c0.12,-0.27 0.22,-0.58 0.34,-0.86c0.1,-0.24 0.23,-0.57 0.47,-0.69z" fill="#231F20" fill-rule="evenodd" id="svg_106"/>
      <path clip-rule="evenodd" d="m109.51,584.66c0.06,0.31 -0.31,0.17 -0.39,0.33c0.21,0.26 0.97,-0.06 1.08,0.31c-0.27,0.43 -1.11,0.26 -1.55,0.5c0.23,0.1 0.63,0 0.73,0.23c0.03,0.23 -0.26,0.17 -0.04,0.46c-0.18,0.18 -0.44,0.26 -0.74,0.32c-0.09,0.04 -0.07,0.2 -0.13,0.27c-1.35,0.36 -3.03,0.56 -4.61,0.64c-0.31,0.01 -0.83,0.18 -1.07,-0.09c-0.08,-0.48 0.55,-0.21 0.73,-0.41c-0.24,-0.1 -0.59,0.04 -0.95,0.04c-0.39,0 -1.02,0.08 -1.07,-0.32c0.05,-0.15 0.35,-0.05 0.47,-0.13c-0.06,-0.08 -0.15,-0.12 -0.13,-0.27c0.19,-0.12 0.24,-0.4 0.6,-0.32c0.11,-0.04 -0.08,-0.24 0.05,-0.32c0.08,-0.07 0.24,-0.05 0.3,-0.14c0.16,0.88 1.61,0.33 0.99,-0.5c-0.61,-0.08 -1.01,0.3 -1.55,0.14c0.1,-0.5 0.83,-0.57 1.42,-0.69c1.72,-0.33 4.2,-0.67 5.86,-0.05zm-5.43,1.01c0.06,0.51 1.21,0.45 0.9,-0.32c-0.31,-0.3 -0.95,-0.09 -0.9,0.32zm1.72,1.05c0.12,-0.09 0.09,-0.34 0.09,-0.55c-0.61,-0.7 -0.91,0.82 -0.09,0.55z" fill="#231F20" fill-rule="evenodd" id="svg_107"/>
     </g>
     <path clip-rule="evenodd" d="m121.95,605.68c0.36,-0.82 -4.67,37.91 -22.3,42.51c-17.63,4.59 -28.64,-5.19 -28.64,-5.19s1.38,-2.74 12.1,-8.9c10.73,-6.16 12.51,-8.54 16.08,-11.92c0,0 8.58,-2.28 12.76,-6.15c4.17,-3.88 8.69,-7.39 10,-10.35z" fill="#C7ADBF" fill-rule="evenodd" id="svg_108"/>
    </g>
    <g id="svg_109">
     <path clip-rule="evenodd" d="m80.99,657.25l-10.72,-0.99c0,0 -2.6,-0.08 -2.92,1.09c-0.32,1.17 -1.04,2.57 -2.07,3.29c-1.03,0.71 -7.09,9.6 -6.98,9.6c0.11,0 19.57,-0.44 19.57,-0.44s2.39,-3.2 2.78,-5.09s0.11,-2.42 0.82,-3.06c0.72,-0.64 2.24,-2.51 -0.48,-4.4z" fill="#F9BEBF" fill-rule="evenodd" id="svg_110"/>
     <path clip-rule="evenodd" d="m69.42,657.65l2.8,-5.7l-2.24,-13.59l-0.84,-6.76c0,0 0.11,-1.3 1.12,-4.09c1.01,-2.79 3.09,-7.3 3.09,-7.3s1.79,-3.27 3.02,-3.27s4.44,0.54 5.33,1.84c0.9,1.31 2.02,3.07 2.02,3.07l-3.64,1.42l-2.29,-0.55l-1.13,1.66l2.68,-0.53c0,0 4.54,-1.77 4.99,-1.77c0.46,0 1.19,0.35 1.29,1.77c0.09,1.42 0.38,1.82 0.38,1.82s0.98,-0.61 1.38,-0.26c0.39,0.34 1.19,1.26 1.1,2.56c-0.1,1.3 -0.5,5.9 -0.5,5.9s-0.09,1.53 -0.71,1.56c0,0 0.89,1.13 0.64,1.86c-0.25,0.74 -0.91,2.36 -1.61,3.02c0,0 0.34,2.48 -0.04,4.22c-0.37,1.74 -1.6,4.76 -3.17,5.8c0,0 0.24,1.66 -0.23,3.46c-0.48,1.8 -2.72,5.72 -2.72,5.72s-2.17,2.56 -7.29,1.26c-0.47,-0.12 -3.73,-1.37 -3.43,-3.12z" fill="#FBCBC2" fill-rule="evenodd" id="svg_111"/>
     <path clip-rule="evenodd" d="m83.93,621.55c1.8,-0.37 2.19,2.02 2.33,3.69c1.58,-1.02 2.43,1.08 2.54,2.74c0.12,1.68 -0.23,3.78 -0.34,5.51c-0.06,1.02 -0.03,1.92 -0.73,2.05c0.06,0.43 0.48,0.57 0.56,0.96c0.08,0.44 -0.18,1.17 -0.39,1.73c-0.32,0.83 -0.64,1.52 -1.16,1.96c0.44,4.28 -0.47,7.88 -2.72,9.62c-0.02,0.67 -0.55,1.29 -0.65,1.91c-0.06,0.41 0,0.82 -0.04,1.19c-0.19,1.68 -0.89,3.03 -1.46,4.32c0.48,0.69 1.1,1.57 1.03,2.69c-0.03,0.5 -0.35,0.98 -0.6,1.37c-0.24,0.36 -0.74,0.79 -0.82,1.14c-0.06,0.25 0.02,0.63 0,0.86c-0.07,0.78 -0.42,1.73 -0.73,2.46c-0.58,1.37 -1.31,2.62 -2.16,3.74c-0.24,0.32 -0.53,1.01 -1.03,0.64c-0.07,-0.65 0.49,-1.1 0.82,-1.6c0.65,-0.98 1.24,-1.99 1.72,-3.28c0.22,-0.59 0.53,-1.29 0.6,-1.91c0.04,-0.35 -0.07,-0.74 0,-1.1c0.15,-0.71 1.31,-1.47 1.43,-2.32c0.11,-0.85 -0.41,-1.4 -0.56,-2c-0.38,0.54 -0.71,1.13 -0.99,1.77c-1.15,1.05 -3.02,1.89 -5.35,1.74c-1.18,-0.08 -2.45,-0.29 -3.49,-0.73c-0.94,-0.41 -2.09,-1.04 -2.41,-1.82c-0.1,-0.25 -0.36,-1.26 -0.22,-1.69c0.11,-0.31 0.44,-0.2 0.56,-0.55c-0.53,0.08 -1.61,0.09 -1.98,0.55c-0.35,0.43 -0.16,1.35 -0.38,1.96c-0.17,0.45 -0.75,0.8 -1.21,1.18c-0.97,0.82 -1.6,1.46 -2.37,2.42c-0.27,0.34 -4.9,8.01 -5.5,7.49c0.04,-0.6 4.71,-7.84 5.03,-8.22c0.97,-1.18 2.27,-2.09 3.36,-3.19c0.14,-0.84 0.06,-1.59 0.43,-2.1c0.47,-0.65 1.93,-0.76 2.97,-0.86c0.74,-1.15 1.29,-2.5 1.85,-3.83c-1.31,-5.47 -2.07,-11.99 -2.8,-18.27c-0.1,-0.92 -0.28,-1.88 -0.26,-2.74c0.04,-1.12 0.64,-2.52 1.04,-3.64c1.19,-3.41 2.59,-7.01 4.57,-9.39c0.43,-0.53 1.23,-1.41 1.98,-1.55c0.29,-0.06 0.74,-0.03 0.99,-0.05c1.88,-0.11 3.65,1.09 4.78,2.42c0.73,0.86 1.44,1.8 1.76,2.73zm-2.84,-2.6c-0.82,-0.83 -1.89,-1.58 -3.23,-1.68c-1.72,-0.13 -2.28,0.6 -3.02,1.55c-0.41,0.53 -0.74,1.04 -1.07,1.55c-1.38,2.06 -2.28,4.78 -3.23,7.24c-0.48,1.23 -1.1,2.8 -1.08,4.19c0.01,0.91 0.29,1.96 0.43,2.97c0.83,6.09 1.5,12.09 2.85,17.59c0.22,0.93 0.35,2.1 0.68,2.73c0.38,0.72 1.3,0.97 1.64,1.64c-0.48,0.33 -1.06,-0.12 -1.38,-0.41c-0.85,-0.76 -1.2,-1.92 -1.55,-3.14c-0.59,1.74 -1.46,3.19 -2.28,4.69c0.18,1.28 1.24,1.72 2.41,2.19c2.35,0.94 6.13,0.8 7.58,-0.78c0.68,-1.02 1.31,-2.31 1.86,-3.5c0.19,-0.42 0.48,-0.84 0.6,-1.24c0.26,-0.87 0.3,-2 0.3,-3.05c0,-2.31 -0.21,-4.27 -0.56,-6.15c-0.18,-0.98 -0.31,-1.96 -0.6,-2.78c0.04,-0.24 0.01,-0.37 -0.05,-0.59c-0.21,-0.05 -0.3,0.44 -0.68,0.36c-0.29,-0.63 0.42,-1.06 0.34,-1.32c-0.33,0.06 -1.33,0.25 -1.33,-0.27c-0.01,-0.49 0.71,-0.31 1.03,-0.37c1.56,-0.27 3.04,-1.5 4.44,-1.77c0.58,0.75 -0.68,0.92 -1.08,1.23c0.38,0.16 1.03,0.03 1.04,0.5c0,0.76 -1.62,0.17 -1.94,-0.09c-0.45,0.25 -1.05,0.35 -1.25,0.86c0.17,0.37 0.18,0.9 0.3,1.32c0.97,0.22 1.34,-0.29 1.85,-0.73c0.84,-0.72 1.65,-1.51 2.41,-2.14c0.3,-0.93 0.77,-1.68 1.04,-2.64c-0.61,-0.92 -1.08,-1.99 -2.03,-2.55c-0.04,0.16 -0.24,0.22 -0.38,0.27c-0.78,0.26 -1.56,0.39 -2.33,0.64c-1.85,0.6 -3.79,1.24 -5.6,1.87c-0.11,0.03 -0.98,0.45 -1.04,-0.05c-0.03,-0.38 0.62,-0.51 0.91,-0.64c2.55,-1.16 5.33,-1.95 8.19,-2.64c0.18,-0.36 0.25,-0.86 0.77,-0.87c0.36,0.24 -0.22,0.71 0,0.91c0.35,0.23 0.51,-0.55 0.52,-0.82c0,-0.12 -0.08,-0.32 -0.09,-0.45c-0.12,-1.34 -0.09,-3.13 -0.69,-3.92c-3.8,1.31 -7.89,2.46 -11.46,4.06c-0.14,0.06 -1.39,0.85 -1.51,0.27c-0.06,-0.34 0.87,-0.78 1.12,-0.91c3.25,-1.66 7.03,-2.59 10.52,-3.83c0.25,-0.64 0.37,-1.42 0.77,-1.92c0.15,-0.21 0.34,0.23 0.35,0c-0.1,-0.77 -0.12,-1.46 -0.26,-2.32c-0.09,-0.54 -0.36,-1.61 -0.86,-1.68c-0.19,-0.03 -0.65,0.17 -0.95,0.27c-2.23,0.73 -4.44,1.54 -6.38,2.41c-1.82,0.82 -3.52,1.52 -4.99,2.56c-0.46,0.31 -1,0.99 -1.6,0.68c0.09,-0.62 0.68,-0.87 1.08,-1.19c1.3,-1.02 2.85,-1.77 4.44,-2.41c0.34,-0.72 0.85,-1.26 1.42,-1.73c-0.15,-0.23 -0.25,-0.55 0,-0.73c0.97,0.22 1.84,0.74 2.97,0.59c0.43,-0.05 0.93,-0.35 1.38,-0.5c0.5,-0.17 0.97,-0.33 1.38,-0.5c-0.59,-1.07 -1.29,-1.98 -2.12,-2.83zm-3.01,4.29c-0.17,0.33 -0.68,0.53 -0.74,0.82c0.4,-0.28 1.02,-0.33 1.38,-0.64c-0.23,-0.04 -0.38,-0.18 -0.64,-0.18zm9.9,5.92c0.02,-0.39 0.03,-0.81 0,-1.18c-0.07,-1.05 -0.58,-2.94 -1.59,-1.92c0.18,0.73 -0.04,1.51 0.08,2.19c0.06,0.31 0.29,0.64 0.39,1c0.41,1.37 0.74,3.98 0,5.15c0.15,0.19 0.34,0.69 0.56,0.5c0.27,-1.42 0.48,-3.73 0.56,-5.74zm-2.75,-1.18c0.18,-0.02 0.33,-0.07 0.47,-0.14c-0.01,-0.43 -0.05,-0.83 -0.13,-1.18c-0.1,0.45 -0.21,0.89 -0.34,1.32zm0.86,15.49c0.05,-0.74 -0.07,-1.49 -0.04,-2.32c-0.01,-0.03 -0.01,-0.05 -0.05,-0.05c-1.1,0.78 -1.67,2.12 -3.57,2.05c0.37,2.16 0.84,4.21 0.94,6.66c1.37,-1.61 2.52,-3.51 2.72,-6.34z" fill="#231F20" fill-rule="evenodd" id="svg_112"/>
    </g>
    <g id="svg_113">
     <path clip-rule="evenodd" d="m119.44,657.25l10.72,-0.99c0,0 2.6,-0.08 2.92,1.09c0.32,1.17 1.03,2.57 2.07,3.29c1.03,0.71 6.38,7.77 6.28,7.77c-0.11,0 -18.87,1.39 -18.87,1.39s-2.39,-3.2 -2.78,-5.09c-0.4,-1.89 -0.11,-2.42 -0.82,-3.06c-0.72,-0.64 -2.24,-2.51 0.48,-4.4z" fill="#F9BEBF" fill-rule="evenodd" id="svg_114"/>
     <path clip-rule="evenodd" d="m131.01,657.65l-2.8,-5.7l2.24,-13.59l0.84,-6.76c0,0 -0.11,-1.3 -1.12,-4.09c-1.01,-2.79 -3.08,-7.3 -3.08,-7.3s-1.8,-3.27 -3.03,-3.27s-4.43,0.54 -5.33,1.84c-0.9,1.31 -2.02,3.07 -2.02,3.07l3.64,1.42l2.29,-0.55l1.14,1.66l-2.69,-0.53c0,0 -4.54,-1.77 -4.99,-1.77c-0.46,0 -1.19,0.35 -1.29,1.77s-0.38,1.82 -0.38,1.82s-0.98,-0.61 -1.38,-0.26c-0.39,0.34 -1.19,1.26 -1.09,2.56c0.09,1.3 0.49,5.9 0.49,5.9s0.09,1.53 0.72,1.56c0,0 -0.89,1.13 -0.65,1.86c0.25,0.74 0.91,2.36 1.61,3.02c0,0 -0.34,2.48 0.04,4.22c0.38,1.74 1.6,4.76 3.18,5.8c0,0 -0.25,1.66 0.22,3.46c0.48,1.8 2.73,5.72 2.73,5.72s2.16,2.56 7.28,1.26c0.47,-0.12 3.73,-1.37 3.43,-3.12z" fill="#FBCBC2" fill-rule="evenodd" id="svg_115"/>
     <path clip-rule="evenodd" d="m118.26,618.82c1.13,-1.33 2.91,-2.53 4.79,-2.42c0.24,0.02 0.7,-0.01 0.99,0.05c0.74,0.14 1.54,1.02 1.98,1.55c1.97,2.38 3.37,5.98 4.56,9.39c0.4,1.12 1,2.52 1.04,3.64c0.02,0.86 -0.15,1.83 -0.26,2.74c-0.73,6.28 -1.49,12.81 -2.8,18.27c0.56,1.34 1.11,2.68 1.85,3.83c1.04,0.1 2.5,0.21 2.98,0.86c0.36,0.51 0.28,1.26 0.42,2.1c1.1,1.1 2.39,2.01 3.37,3.19c0.31,0.38 6.15,6.41 6.19,7c-0.59,0.52 -6.4,-5.93 -6.67,-6.27c-0.77,-0.96 -1.4,-1.6 -2.37,-2.42c-0.46,-0.38 -1.04,-0.73 -1.2,-1.18c-0.23,-0.61 -0.04,-1.53 -0.39,-1.96c-0.37,-0.46 -1.45,-0.47 -1.98,-0.55c0.12,0.35 0.45,0.24 0.56,0.55c0.14,0.43 -0.12,1.44 -0.22,1.69c-0.32,0.78 -1.47,1.41 -2.41,1.82c-1.04,0.44 -2.31,0.65 -3.49,0.73c-2.32,0.15 -4.2,-0.69 -5.34,-1.73c-0.29,-0.65 -0.62,-1.24 -0.99,-1.78c-0.15,0.6 -0.68,1.15 -0.57,2c0.12,0.85 1.28,1.61 1.43,2.33c0.07,0.35 -0.04,0.74 0,1.09c0.07,0.62 0.38,1.32 0.6,1.91c0.48,1.29 1.07,2.3 1.72,3.28c0.33,0.5 0.89,0.95 0.82,1.6c-0.49,0.37 -0.79,-0.31 -1.03,-0.64c-0.85,-1.12 -1.57,-2.37 -2.16,-3.73c-0.31,-0.73 -0.65,-1.69 -0.73,-2.47c-0.02,-0.23 0.06,-0.61 0,-0.86c-0.08,-0.35 -0.58,-0.78 -0.82,-1.14c-0.25,-0.38 -0.57,-0.87 -0.6,-1.37c-0.07,-1.12 0.55,-2 1.03,-2.68c-0.56,-1.3 -1.27,-2.65 -1.46,-4.33c-0.04,-0.37 0.02,-0.78 -0.04,-1.19c-0.1,-0.62 -0.63,-1.24 -0.65,-1.91c-2.25,-1.73 -3.16,-5.34 -2.71,-9.62c-0.53,-0.44 -0.85,-1.13 -1.17,-1.96c-0.21,-0.56 -0.47,-1.29 -0.39,-1.73c0.07,-0.39 0.5,-0.53 0.56,-0.96c-0.7,-0.13 -0.67,-1.02 -0.73,-2.05c-0.1,-1.73 -0.46,-3.83 -0.34,-5.51c0.11,-1.66 0.96,-3.76 2.54,-2.74c0.14,-1.67 0.53,-4.06 2.33,-3.69c0.33,-0.93 1.03,-1.87 1.76,-2.73zm-1.03,2.96c0.4,0.17 0.88,0.33 1.38,0.5c0.44,0.15 0.95,0.45 1.38,0.5c1.13,0.15 2,-0.37 2.97,-0.59c0.25,0.18 0.14,0.5 0,0.73c0.57,0.47 1.08,1.01 1.42,1.73c1.59,0.64 3.13,1.39 4.44,2.41c0.4,0.32 0.99,0.57 1.08,1.19c-0.6,0.31 -1.15,-0.37 -1.6,-0.68c-1.47,-1.04 -3.18,-1.74 -5,-2.56c-1.94,-0.87 -4.14,-1.68 -6.37,-2.41c-0.31,-0.1 -0.77,-0.3 -0.95,-0.27c-0.5,0.07 -0.78,1.14 -0.86,1.68c-0.14,0.86 -0.16,1.55 -0.26,2.32c0.01,0.23 0.2,-0.21 0.34,0c0.4,0.5 0.53,1.28 0.78,1.92c3.49,1.24 7.26,2.17 10.51,3.83c0.26,0.13 1.19,0.57 1.12,0.91c-0.11,0.58 -1.36,-0.21 -1.5,-0.27c-3.57,-1.6 -7.66,-2.75 -11.47,-4.06c-0.6,0.79 -0.56,2.58 -0.68,3.92c-0.02,0.13 -0.09,0.33 -0.09,0.45c0.01,0.27 0.16,1.05 0.52,0.82c0.22,-0.2 -0.36,-0.67 0,-0.91c0.52,0.01 0.58,0.51 0.77,0.87c2.85,0.69 5.63,1.48 8.19,2.64c0.29,0.13 0.94,0.26 0.9,0.64c-0.05,0.5 -0.93,0.08 -1.03,0.05c-1.81,-0.63 -3.75,-1.27 -5.6,-1.87c-0.78,-0.25 -1.55,-0.38 -2.33,-0.64c-0.15,-0.05 -0.34,-0.11 -0.39,-0.27c-0.94,0.56 -1.41,1.63 -2.02,2.55c0.27,0.96 0.73,1.71 1.03,2.64c0.76,0.63 1.58,1.42 2.41,2.14c0.51,0.44 0.89,0.95 1.86,0.73c0.11,-0.42 0.13,-0.95 0.3,-1.32c-0.2,-0.51 -0.8,-0.61 -1.25,-0.86c-0.32,0.26 -1.95,0.85 -1.94,0.09c0.01,-0.47 0.66,-0.33 1.04,-0.5c-0.4,-0.31 -1.66,-0.48 -1.08,-1.23c1.39,0.27 2.88,1.51 4.44,1.77c0.32,0.06 1.03,-0.12 1.03,0.37c0,0.52 -1.01,0.34 -1.34,0.27c-0.08,0.26 0.64,0.69 0.35,1.32c-0.39,0.08 -0.47,-0.41 -0.69,-0.36c-0.06,0.22 -0.09,0.35 -0.04,0.59c-0.29,0.82 -0.43,1.8 -0.61,2.78c-0.34,1.88 -0.55,3.84 -0.55,6.15c0,1.05 0.03,2.18 0.3,3.05c0.12,0.4 0.41,0.82 0.6,1.24c0.55,1.19 1.18,2.48 1.85,3.5c1.46,1.58 5.23,1.72 7.59,0.78c1.17,-0.47 2.23,-0.91 2.41,-2.19c-0.82,-1.5 -1.69,-2.95 -2.28,-4.69c-0.36,1.22 -0.7,2.38 -1.56,3.14c-0.31,0.29 -0.89,0.74 -1.38,0.41c0.35,-0.67 1.27,-0.92 1.64,-1.64c0.33,-0.63 0.46,-1.8 0.69,-2.73c1.35,-5.49 2.02,-11.5 2.85,-17.59c0.13,-1.01 0.41,-2.06 0.43,-2.97c0.01,-1.39 -0.61,-2.96 -1.08,-4.19c-0.95,-2.46 -1.86,-5.18 -3.23,-7.24c-0.34,-0.51 -0.67,-1.02 -1.08,-1.55c-0.73,-0.95 -1.3,-1.68 -3.02,-1.55c-1.33,0.1 -2.4,0.85 -3.23,1.68c-0.83,0.85 -1.53,1.76 -2.11,2.83zm4.48,1.64c0.36,0.31 0.98,0.36 1.38,0.64c-0.06,-0.29 -0.57,-0.49 -0.73,-0.82c-0.28,0 -0.42,0.14 -0.65,0.18zm-8.7,11.48c0.22,0.19 0.41,-0.31 0.56,-0.5c-0.74,-1.17 -0.41,-3.78 0,-5.15c0.1,-0.35 0.33,-0.69 0.39,-1c0.12,-0.68 -0.1,-1.46 0.08,-2.19c-1.01,-1.02 -1.52,0.87 -1.59,1.92c-0.03,0.37 -0.02,0.79 0,1.18c0.08,2.01 0.29,4.32 0.56,5.74zm1.85,-8.24c-0.08,0.35 -0.12,0.75 -0.13,1.18c0.14,0.07 0.29,0.12 0.47,0.14c-0.13,-0.43 -0.24,-0.87 -0.34,-1.32zm2.2,23.15c0.1,-2.45 0.57,-4.5 0.94,-6.66c-1.9,0.07 -2.46,-1.27 -3.57,-2.05c-0.04,0 -0.04,0.02 -0.05,0.05c0.04,0.83 -0.09,1.58 -0.04,2.32c0.2,2.83 1.35,4.73 2.72,6.34z" fill="#231F20" fill-rule="evenodd" id="svg_116"/>
    </g>
    <g id="svg_117">
     <path clip-rule="evenodd" d="m56.64,589.97c0,0.04 -0.37,1.12 -0.37,1.12l-0.34,0.69c0,0 -0.43,0.43 -0.38,0.43c0.06,0 1.21,0.83 1.21,0.83s0.13,0.49 0.2,0.53c0.07,0.04 0.38,-1.12 0.38,-1.12l0.78,-0.92l-0.83,-0.73l-0.65,-0.83z" fill="#FFEA8E" fill-rule="evenodd" id="svg_118"/>
     <path clip-rule="evenodd" d="m56.51,587.33c0.59,0.54 0.26,1.57 0.43,2.42c0.18,0.92 1.07,1.18 1.76,1.59c-0.18,0.66 -0.76,0.64 -1.07,1.19c-0.49,0.87 -0.23,1.97 -0.13,3.1c0.04,0.44 0.13,1.13 -0.22,1.14c-0.32,0 -0.26,-0.68 -0.3,-1.1c-0.09,-1.1 -0.25,-2.7 -1.03,-3.05c-0.25,-0.11 -0.47,0.05 -0.74,-0.27c0.03,-0.51 0.39,-0.57 0.61,-0.91c0.54,-0.84 0.68,-1.78 0.6,-2.97c-0.02,-0.29 -0.13,-0.63 -0.08,-1c0.03,-0.07 0.06,-0.15 0.17,-0.14zm-0.52,4.79c0.52,0.07 0.69,0.51 0.99,0.82c0.09,-0.72 0.54,-1.05 0.91,-1.46c-0.54,-0.15 -0.79,-0.6 -1.13,-0.96c-0.18,0.62 -0.5,1.08 -0.77,1.6z" fill="#231F20" fill-rule="evenodd" id="svg_119"/>
    </g>
    <g id="svg_120">
     <path clip-rule="evenodd" d="m130.18,544.61c0,0.04 -0.37,1.12 -0.37,1.12l-0.34,0.69c0,0 -0.42,0.44 -0.37,0.44c0.05,0 1.2,0.82 1.2,0.82s0.13,0.49 0.2,0.53s0.38,-1.12 0.38,-1.12l0.78,-0.92l-0.83,-0.73l-0.65,-0.83z" fill="#FFEA8E" fill-rule="evenodd" id="svg_121"/>
     <path clip-rule="evenodd" d="m130.05,541.97c0.6,0.54 0.26,1.57 0.43,2.42c0.19,0.92 1.08,1.19 1.77,1.59c-0.19,0.66 -0.77,0.64 -1.08,1.19c-0.49,0.87 -0.23,1.97 -0.13,3.1c0.04,0.45 0.13,1.13 -0.21,1.14c-0.33,0.01 -0.27,-0.67 -0.31,-1.1c-0.09,-1.1 -0.24,-2.7 -1.03,-3.05c-0.24,-0.11 -0.46,0.06 -0.73,-0.27c0.03,-0.51 0.38,-0.57 0.6,-0.91c0.54,-0.84 0.69,-1.78 0.61,-2.97c-0.02,-0.29 -0.13,-0.63 -0.09,-1c0.03,-0.07 0.06,-0.15 0.17,-0.14zm-0.52,4.79c0.52,0.08 0.7,0.51 0.99,0.82c0.09,-0.72 0.54,-1.05 0.91,-1.46c-0.54,-0.15 -0.79,-0.6 -1.12,-0.96c-0.18,0.62 -0.5,1.08 -0.78,1.6z" fill="#231F20" fill-rule="evenodd" id="svg_122"/>
    </g>
    <g id="svg_123">
     <path clip-rule="evenodd" d="m64.38,601.56c-0.03,0.08 -0.21,1.89 -0.21,1.89l-0.68,1.53l-0.88,0.96l-0.76,0.69l1.77,1.04l0.76,2.49l0.33,1.92l1.01,-2.96l1.01,-1.9l1.34,-0.85l-1.95,-0.7l-0.88,-1.93l-0.86,-2.18z" fill="#FFEA8E" fill-rule="evenodd" id="svg_124"/>
     <path clip-rule="evenodd" d="m64.75,614.43c-0.55,-0.21 -0.33,-0.86 -0.35,-1.32c-0.09,-1.77 -0.45,-3.99 -1.12,-5.15c-0.19,-0.33 -0.56,-0.79 -0.9,-0.86c-0.48,-0.11 -1.12,0.32 -1.3,-0.05c-0.21,-0.42 0.94,-1 1.21,-1.23c0.31,-0.27 0.67,-0.6 0.86,-0.86c1.16,-1.6 0.91,-4.97 0.56,-7.25c0.67,-0.37 0.65,1.54 0.73,2.05c0.26,1.6 0.85,4.16 1.6,5.2c0.38,0.54 1.04,0.96 1.81,1.04c0.39,0.05 1.04,-0.14 1.12,0.23c0.08,0.42 -0.54,0.43 -0.82,0.55c-1.62,0.66 -2.04,1.83 -2.54,3.78c-0.15,0.58 -0.44,1.19 -0.56,1.83c-0.14,0.7 -0.05,1.39 -0.3,2.04zm-2.24,-7.93c1.6,0.61 1.83,2.68 2.28,4.52c0.51,-1.84 1.01,-3.71 2.5,-4.52c-1.72,-0.41 -2.24,-2.09 -2.76,-3.78c-0.2,1.77 -1.01,2.89 -2.02,3.78z" fill="#231F20" fill-rule="evenodd" id="svg_125"/>
    </g>
    <g id="svg_126">
     <path clip-rule="evenodd" d="m163.62,566.28c-0.02,0.08 -0.2,1.89 -0.2,1.89l-0.68,1.53l-0.89,0.96l-0.75,0.69l1.76,1.04l0.76,2.49l0.33,1.92l1.01,-2.96l1.01,-1.9l1.34,-0.85l-1.94,-0.7l-0.89,-1.93l-0.86,-2.18z" fill="#FFEA8E" fill-rule="evenodd" id="svg_127"/>
     <path clip-rule="evenodd" d="m163.99,579.15c-0.54,-0.21 -0.33,-0.86 -0.35,-1.32c-0.08,-1.77 -0.44,-3.99 -1.12,-5.14c-0.19,-0.33 -0.56,-0.79 -0.9,-0.87c-0.47,-0.1 -1.11,0.32 -1.29,-0.05c-0.22,-0.42 0.94,-1 1.2,-1.23c0.32,-0.27 0.68,-0.6 0.86,-0.86c1.17,-1.6 0.91,-4.97 0.56,-7.25c0.67,-0.37 0.66,1.55 0.74,2.05c0.25,1.6 0.85,4.16 1.59,5.2c0.39,0.54 1.05,0.96 1.81,1.05c0.4,0.04 1.05,-0.15 1.12,0.22c0.08,0.42 -0.53,0.44 -0.82,0.55c-1.62,0.66 -2.03,1.83 -2.54,3.78c-0.15,0.58 -0.44,1.19 -0.56,1.83c-0.14,0.7 -0.05,1.39 -0.3,2.04zm-2.24,-7.92c1.61,0.6 1.84,2.67 2.28,4.51c0.51,-1.84 1.01,-3.71 2.5,-4.51c-1.72,-0.42 -2.24,-2.1 -2.76,-3.79c-0.2,1.77 -1,2.89 -2.02,3.79z" fill="#231F20" fill-rule="evenodd" id="svg_128"/>
    </g>
    <g id="svg_129">
     <polygon clip-rule="evenodd" fill="#FFEA8E" fill-rule="evenodd" id="svg_130" points="68.907,616.056 68.049,614.72 67.544,616.19 
			66.836,617.045 66.406,617.419 67.493,618.238 68.049,619.53 68.907,618.008 70.195,616.939 		"/>
     <path clip-rule="evenodd" d="m68.01,612.54c0.53,0.46 0.26,1.16 0.35,1.87c0.11,0.97 0.75,1.56 1.55,1.91c0.42,0.19 0.81,0.14 0.86,0.41c0.09,0.46 -1.1,0.91 -1.29,1.1c-0.66,0.62 -1.09,1.66 -0.99,2.91c0.03,0.52 0.2,1.12 0.25,1.69c0.05,0.46 0.25,1.21 -0.3,1.51c-0.29,-0.25 -0.19,-0.69 -0.21,-1.05c-0.05,-0.7 -0.21,-1.62 -0.35,-2.46c-0.23,-1.45 -0.45,-2.44 -1.64,-2.74c-0.07,0.05 -0.55,0.28 -0.64,-0.05c-0.12,-0.42 0.64,-0.49 0.86,-0.63c0.59,-0.39 1.27,-1.57 1.38,-2.6c0.06,-0.55 -0.05,-1.16 0,-1.73c0.04,-0.07 0.06,-0.15 0.17,-0.14zm-1.08,4.88c0.68,0.21 0.99,0.81 1.17,1.55c0.42,-0.86 0.92,-1.64 1.72,-2.1c-0.73,-0.31 -1.32,-0.75 -1.68,-1.46c-0.26,0.82 -0.8,1.35 -1.21,2.01z" fill="#231F20" fill-rule="evenodd" id="svg_131"/>
    </g>
   </g>
   <g id="svg_13">
    <g id="svg_17" opacity="0.4">
     <image height="366.24" id="svg_1" overflow="visible" preserveAspectRatio="none" transform="matrix(1,0,0,1,0,0)" width="160.08" x="206.77" xlink:href="E1ADB4F6.png" y="298.25"/>
    </g>
    <path d="m258.3,337.07c0,0 0,222.36 -25.11,263.86l-17.81,0l38.87,37.49l49.39,-36.82l-13.76,-0.67c0,0 26.72,-148.06 20.24,-267.88l-51.82,4.02z" fill="#F17F68" id="svg_18"/>
   </g>
  </g>
  <path d="m312.47,689.53c0,10.71 -8.68,19.4 -19.39,19.4l-243.92,0c-10.71,0 -19.39,-8.69 -19.39,-19.4l0,0c0,-10.7 8.68,-19.39 19.39,-19.39l243.92,0c10.71,0 19.39,8.69 19.39,19.39l0,0z" fill="#B47252" id="svg_16" transform="matrix(1 0 0 1 0 0)"/>
  <text fill="#472B28" font-family="&#x27;RixComingsoonB&#x27;" font-size="56" id="svg_3" x="130.21" y="83.97"></text>
  <text fill="#64C192" font-family="&#x27;RixComingsoonB&#x27;" font-size="56" id="svg_8" transform="matrix(1,0,0,1,0,0)" x="277.93" y="84.5"></text>
  <text fill="#472B28" font-family="&#x27;RixComingsoonB&#x27;" font-size="57" id="svg_4" transform="matrix(1,0,0,1,0,0)" x="25.83" y="150.44"> </text>
  <text fill="#F279A9" font-family="&#x27;RixComingsoonB&#x27;" font-size="57" id="svg_9" transform="matrix(1,0,0,1,0,0)" x="280.9" y="142.44"></text>
  <text fill="#472B28" font-family="&#x27;RixComingsoonB&#x27;" font-size="57" id="svg_5" transform="matrix(1,0,0,1,0,0)" x="135.67" y="218.73"></text>
  <text fill="#F26852" font-family="&#x27;RixComingsoonB&#x27;" font-size="57" id="svg_10" transform="matrix(1,0,0,1,0,0)" x="282.58" y="219.05"></text>
  <text fill="#472B28" font-family="&#x27;RixComingsoonB&#x27;" font-size="57" id="svg_6" transform="matrix(1,0,0,1,0,0)" x="96.69" y="282.79"></text>
  <text fill="#B477B3" font-family="&#x27;RixComingsoonB&#x27;" font-size="57" id="svg_11" x="287.76" y="278.79">!!</text>
  <text fill="#F4DAC6" font-family="&#x27;GmarketSansTTFBold&#x27;" font-size="30" id="svg_7" transform="matrix(1,0,0,1,0,0)" x="75.13" y="699.62">,  </text>
  <text fill="#472B28" font-family="&#x27;RixYeoljeongdoR&#x27;" font-size="60" id="svg_2" x="31.44" y="769.8"></text>
 </g>
</svg>