<?xml version="1.0"?>
<svg width="356" height="837" xmlns="http://www.w3.org/2000/svg" xmlns:svg="http://www.w3.org/2000/svg" xmlns:xlink="http://www.w3.org/1999/xlink" enable-background="new 0 0 356 837" version="1.0" xml:space="preserve">
 <g class="layer">
  <title>Layer 1</title>
  <image height="837" id="svg_1" overflow="visible" preserveAspectRatio="none" transform="matrix(1,0,0,1,0,0)" width="356" x="0" xlink:href="701525C6.jpg" y="0"/>
  <image height="513" id="svg_2" overflow="visible" preserveAspectRatio="none" transform="matrix(1,0,0,1,0,0)" width="326" x="15" xlink:href="701525CA.png" y="178.95"/>
  <g id="svg_19">
   <g id="svg_22">
    <path d="m93.36,765.05c1.42,3.7 5.01,5.4 8.46,4.03c7.24,-2.87 1.95,-14.37 -5.36,-11.65c-3.48,1.29 -4.54,3.9 -3.1,7.62zm9.65,-4.62c3.91,3.63 -0.15,9.79 -5.39,8.15c-2.29,-0.71 -4.06,-4.24 -3.3,-6.57c1.28,-4.03 5.26,-4.76 8.69,-1.58z" fill="#FFFAF6" id="svg_23"/>
   </g>
   <g id="svg_24">
    <path d="m45.61,778.13c0.06,0.04 0.58,0.42 1.15,0.86c1.22,0.92 2.74,1.78 4.33,2.43c1.02,0.41 6.97,2.07 6.77,1.87c-0.04,-0.04 -1.28,-0.57 -2.73,-1.16c-3.63,-1.47 -6.33,-3.01 -9.01,-5.11c-1.14,-0.91 -1.14,-0.91 -0.84,-0.17c0.17,0.41 0.29,0.84 0.26,0.98c-0.03,0.13 0.01,0.26 0.07,0.3z" fill="#22417F" id="svg_25"/>
   </g>
   <g id="svg_26">
    <path d="m32.58,806.85c-0.86,1.39 -2.94,3.63 -3.4,3.64c-1.21,0.05 -0.99,-0.73 0.75,-2.58c0.79,-0.85 1.42,-1.58 1.38,-1.62c-0.35,-0.33 -2.91,-0.31 -3.07,0.03c-1.18,2.36 -5.36,7.55 -7.14,8.86c-1.22,0.89 -1.15,0.9 0.67,0.14c1.36,-0.58 1.71,-0.8 2.59,-1.71c2.33,-2.44 4,-2.63 2.4,-0.28c-0.48,0.71 -0.42,0.71 1.78,0.02c1.49,-0.46 5.38,-4.45 6.32,-6.49c0.25,-0.53 -1.95,-0.55 -2.28,-0.01z" fill="#22417F" id="svg_27"/>
   </g>
   <g id="svg_28">
    <path d="m36.17,807.37c-0.13,0.33 -0.62,1.16 -1.09,1.83c-0.48,0.67 -1.2,1.61 -1.61,2.06c-0.73,0.84 -0.73,0.84 -0.09,0.63c0.82,-0.27 2.22,-1.54 3.73,-3.41l1.19,-1.49l-0.95,-0.12c-0.93,-0.11 -0.94,-0.09 -1.18,0.5z" fill="#677DA7" id="svg_29"/>
   </g>
   <g id="svg_30">
    <path d="m42,807.03c-2.09,0.08 -2.09,0.08 -2.59,0.89c-0.27,0.44 -0.65,1.04 -0.84,1.35c-0.38,0.6 1.84,-0.19 4.1,-1.5c0.51,-0.28 1.04,-0.59 1.18,-0.67c0.14,-0.06 -0.69,-0.11 -1.85,-0.07z" fill="#22417F" id="svg_31"/>
   </g>
   <g id="svg_32">
    <path d="m53.22,792.47c-0.97,-3.77 -1.68,-6.99 -1.78,-7.99c-0.1,-1.11 -0.1,-1.11 -0.93,-1.4c-2.77,-0.96 -5.49,-2.85 -6.29,-4.31c-1.13,-2.06 -1.29,-2.43 -1.59,-3.72c-1.34,-5.81 0.1,-15.25 2.76,-18.09c1.63,-1.73 1.99,-1.66 3.47,0.67c1.28,2.04 1.23,2.08 0.98,-0.59c-0.29,-3.37 -0.37,-9.53 -0.17,-14.2c0.54,-12.53 -1.79,-20.51 -7.74,-26.56l-1.01,-1.05l-3.13,0.27c-13.62,1.18 -24.05,4.28 -37.79,11.63l0,71.86c1.6,0.22 3.34,0.43 5.32,0.66c10.81,1.24 11.4,1.32 16.46,2.24c15.65,2.86 24.6,3.08 30.96,0.78l1.12,-0.41l0.14,-1.36c0.26,-2.65 0.02,-5.33 -0.78,-8.43zm-42.62,-66.75c-0.63,0.28 -1.41,0.65 -1.72,0.81c-0.41,0.22 -0.64,0.23 -0.87,0.02c-0.67,-0.63 0.21,-1.72 1.92,-2.4c2.76,-1.09 3.37,0.36 0.67,1.57zm27.91,-7.37c-0.24,0.34 -0.14,0.32 -6.48,1.34c-4.74,0.77 -6.71,1.23 -12.25,2.92c-1.92,0.59 -3.85,1.12 -4.3,1.19c-1.38,0.19 -1.68,-0.41 -0.69,-1.46c2.57,-2.73 25.54,-6.6 23.72,-3.99z" fill="#22417F" id="svg_33"/>
   </g>
   <g id="svg_34">
    <path d="m56.49,776c0.48,-0.23 8.2,4.21 11.49,6.6c1.09,0.8 1.08,0.77 -0.43,-0.54c-0.87,-0.75 -2.53,-2.02 -3.69,-2.85c-8.31,-5.84 -10.71,-7.71 -12.79,-9.95c-2.04,-2.18 -4.66,-5.88 -5.68,-8.01c-0.21,-0.45 -0.33,-0.25 -0.63,1.02c-0.32,1.31 -0.55,0.89 2.41,4.34c3.21,3.75 3.68,4.42 3.37,4.65c-0.74,0.53 -3.56,-2.05 -5.87,-5.37c-0.37,-0.54 -0.37,-0.54 -0.47,1.33c-0.1,1.84 -0.1,1.84 0.87,2.72c6.24,5.59 11.2,8.88 19.83,13.19c0.8,0.41 1.63,0.9 1.84,1.1c0.27,0.25 0.45,0.3 0.59,0.15c0.27,-0.29 -0.18,-0.59 -4.95,-3.42c-4.98,-2.96 -6.83,-4.51 -5.89,-4.96zm-2.61,-1.28c-1.24,-0.49 -3.09,-2.84 -2.21,-2.81c0.39,0 1.74,0.84 2.46,1.51c0.96,0.9 0.81,1.7 -0.25,1.3z" fill="#22417F" id="svg_35"/>
   </g>
   <g id="svg_36">
    <path d="m10.3,803.08c-3.11,-0.53 -3.17,-0.53 -3.42,-0.09c-1.15,1.96 -3.74,4.62 -6.88,7.28l0,2.22c5.81,-4.24 11.55,-9.21 10.3,-9.41z" fill="#22417F" id="svg_37"/>
   </g>
   <g id="svg_38">
    <path d="m26.81,805.72c-0.01,-0.25 -2.22,-0.27 -2.34,-0.01c-0.87,2.14 -7.35,9.22 -9.86,10.74c-0.42,0.26 -0.16,0.4 0.7,0.37c0.59,-0.04 0.94,-0.22 1.73,-0.86c0.54,-0.45 1.63,-1.3 2.41,-1.92c1.76,-1.36 7.35,-7.68 7.36,-8.32z" fill="#677DA7" id="svg_39"/>
   </g>
   <g id="svg_40">
    <path d="m1.75,802.24c-0.23,0.56 -0.88,1.38 -1.74,2.29l0,3.13c2.42,-2.17 5.4,-5.01 5.4,-5.2c-0.02,-0.3 -3.55,-0.52 -3.66,-0.22z" fill="#677DA7" id="svg_41"/>
   </g>
   <g id="svg_42">
    <path d="m12.35,803.77c-0.33,0.65 -4.17,4.61 -6.31,6.54c-1.85,1.65 -3.8,3.15 -6.04,4.64l0,1.78c2.93,-1.86 6.58,-4.6 9.71,-7.38c1.73,-1.54 5.47,-5.45 5.33,-5.59c-0.43,-0.4 -2.48,-0.4 -2.69,0.01z" fill="#677DA7" id="svg_43"/>
   </g>
   <g id="svg_44">
    <path d="m22.56,806.08l0.68,-0.94l-1.11,-0.25c-1,-0.22 -1.16,-0.19 -1.36,0.17c-0.94,1.74 -7.15,8.01 -8.46,8.54c-2.04,0.84 -0.92,-0.84 3.62,-5.49c2.09,-2.14 3.43,-3.59 3.36,-3.66c-0.54,-0.51 -2.43,-0.47 -2.7,0.05c-1.68,3.27 -10.85,11.6 -14.91,13.56c-0.49,0.24 -0.18,0.34 1.27,0.48c1.1,0.09 1.43,0.04 1.87,-0.32c0.31,-0.24 1.34,-1.08 2.3,-1.86c2.04,-1.65 2.48,-1.9 2.84,-1.55c0.38,0.36 0.26,0.68 -0.71,1.86l-0.88,1.07l1.18,-0.28c1.28,-0.3 1.73,-0.6 5.07,-3.38c2.11,-1.77 6.97,-6.67 7.94,-8z" fill="#22417F" id="svg_45"/>
   </g>
   <g id="svg_46">
    <path d="m12.77,710c0.34,-0.01 4.77,3.28 6.11,4.53l1.53,1.43l1.61,-0.37c0.89,-0.21 1.65,-0.41 1.69,-0.45c0.46,-0.49 -9.63,-5.53 -10.85,-5.43c-0.4,0.04 -0.49,0.3 -0.09,0.29z" fill="#677DA7" id="svg_47"/>
   </g>
   <g id="svg_48">
    <path d="m24.62,708.72c2.22,0.98 4.17,2.32 5.45,3.73c1.07,1.17 1.07,1.17 2.42,1.03c1.6,-0.17 1.67,-0.04 -1.13,-2.1c-4.43,-3.22 -5.42,-3.66 -7.85,-3.46c-0.29,0.03 -0.5,0.06 -0.46,0.08c0.03,0.03 0.74,0.35 1.57,0.72z" fill="#677DA7" id="svg_49"/>
   </g>
   <g id="svg_50">
    <path d="m8.02,718.53c-2.63,-1.68 -5.47,-3.23 -8.02,-4.42l0,1.7c1.87,0.83 4.09,2.15 5.73,3.56l1.76,1.53l1.26,-0.47c1.58,-0.57 1.64,-0.39 -0.73,-1.9z" fill="#22417F" id="svg_51"/>
    <path d="m0.66,718.64c-0.24,-0.11 -0.44,-0.21 -0.66,-0.32l0,1.78c0.51,0.38 1,0.76 1.45,1.14l1.64,1.4l1.33,-0.5c1.82,-0.71 1.46,-1.03 -3.76,-3.5z" fill="#22417F" id="svg_52"/>
   </g>
   <g id="svg_53">
    <path d="m6.38,711.34c2.68,1.25 4.29,2.34 6.57,4.45l2.14,1.98l1.61,-0.61c1.98,-0.74 1.91,-0.62 0.88,-1.4c-6.47,-4.87 -11.21,-6.85 -12.68,-5.29c-0.1,0.12 -0.02,0.18 1.48,0.87z" fill="#22417F" id="svg_54"/>
   </g>
   <g id="svg_55">
    <path d="m13.31,718.27c-1.58,-1.44 -6.24,-4.22 -10.61,-6.31c-1.53,-0.74 -2.2,-1.05 -2.69,-1.13l0,0.96c2.68,1.12 7.97,4.26 10.07,6.05c1.56,1.34 1.56,1.34 2.47,0.95c0.6,-0.24 0.86,-0.43 0.76,-0.52z" fill="#677DA7" id="svg_56"/>
   </g>
   <g id="svg_57">
    <path d="m18.88,709.57c2.39,1.12 4.84,2.67 6.28,3.94c1.11,0.98 3.38,1.31 3.35,0.49c-0.01,-0.27 -3.36,-2.48 -5.77,-3.83c-1.33,-0.74 -2.66,-1.49 -2.97,-1.68c-0.41,-0.26 -0.82,-0.3 -1.62,-0.14c-1.36,0.28 -1.38,0.24 0.73,1.22z" fill="#22417F" id="svg_58"/>
   </g>
   <g id="svg_59">
    <path d="m53.31,712.2c0.5,0.45 5.8,1.65 5.33,1.21c-0.44,-0.42 -5.65,-2.02 -5.86,-1.79c-0.03,0.03 0.21,0.3 0.53,0.58z" fill="#677DA7" id="svg_60"/>
   </g>
   <g id="svg_61">
    <path d="m95.82,764.39l0.28,0.77l0.27,-1.09c0.49,-2 1.54,-3.08 3.28,-3.36c1.13,-0.18 1.16,-0.24 0.32,-0.47c-1.85,-0.53 -4.22,0.98 -4.38,2.78c-0.02,0.31 0.08,0.94 0.23,1.37z" fill="#FFFAF6" id="svg_62"/>
   </g>
   <g id="svg_63">
    <path d="m38.92,709.93c0.36,0.22 1.21,0.91 1.89,1.55c1.24,1.14 1.24,1.14 2.22,1.09c1.33,-0.05 1.34,-0.06 -0.25,-1.56c-1.3,-1.22 -4.31,-2.36 -4.82,-1.82c-0.06,0.07 0.17,0.24 0.96,0.74z" fill="#677DA7" id="svg_64"/>
   </g>
   <g id="svg_65">
    <path d="m31.08,708.51c0.62,0.36 1.84,1.34 3.2,2.57l2.19,1.99l1.62,-0.11c1.89,-0.14 1.89,-0.12 -0.33,-1.84c-2.48,-1.9 -6.18,-3.58 -7.53,-3.4c-0.47,0.05 -0.48,0.04 0.85,0.79z" fill="#22417F" id="svg_66"/>
   </g>
   <g id="svg_67">
    <path d="m100.99,763.06c0.23,0.54 1.57,0.92 1.9,0.56c0.13,-0.14 -0.27,-1.03 -0.61,-1.35c-0.44,-0.42 -1.85,-0.33 -1.63,0.1c0.1,0.18 0.25,0.48 0.34,0.69z" fill="#FFFAF6" id="svg_68"/>
   </g>
   <g id="svg_69">
    <path d="m115.92,776.48c-2.77,1.26 -4.16,1.26 -4.79,-0.01c-0.51,-1.03 -0.18,-1.64 2.29,-4.26c2.8,-2.98 2.87,-2.38 -0.66,-6.35c-2.15,-2.43 -4.78,-6.67 -9.44,-15.25c-2.32,-4.28 -4.39,-7.69 -4.65,-7.69c-0.14,0.01 -0.29,2.74 -0.23,4.39c0.09,3.14 0.91,4.71 4.26,8.22c5.91,6.18 6.03,12.76 0.29,15.03c-5.74,2.26 -10.44,-0.76 -12.16,-7.82c-1.08,-4.46 -3.92,-10.86 -6.18,-13.94l-0.53,-0.7l-1.4,1.14c-6.61,5.46 -10.67,14.76 -9.97,22.85c0.52,6.2 6.65,13.47 12.98,15.41c2.55,0.78 2.89,2.33 0.43,1.95c-6.43,-0.98 -13.47,-7.99 -15.42,-15.36c-2.18,-8.21 4.16,-23.1 11.46,-26.87c0.99,-0.52 1.32,0.05 -2.52,-4.38c-7.14,-8.27 -7.77,-17.31 -1.36,-19.41c0.22,-0.06 -1.12,-0.87 -1.48,-0.88c-1.02,-0.06 -2.61,0.89 -3.67,2.21c-1.06,1.33 -1.32,1.47 -1.64,0.88c-0.51,-0.93 1.19,-3.41 2.7,-3.97c0.94,-0.32 0.92,-0.34 -1.35,-1.43c-6.79,-3.28 -15.83,-5.03 -26.11,-5.08c-4.06,-0.02 -4.06,-0.02 -3.48,0.58c6.73,7.02 9.01,15.06 8.18,28.77c-0.13,1.98 -0.15,6.7 -0.05,10.44l0.17,6.83l1.17,1.51c2.36,3.05 4.5,5.27 7.76,8c8.61,7.23 9.51,8.01 10.47,9.22c1.47,1.85 1.83,3.22 0.86,3.34c-3.47,0.39 -4.72,2.36 -2.67,4.17c1.19,1.04 1.22,1.07 0.97,1.42c-0.5,0.71 -1.81,0.06 -3.01,-1.53c-0.65,-0.83 -0.71,-0.87 -2.1,-1.24c-3.19,-0.84 -6.87,-1.72 -7.48,-1.8c-0.36,-0.05 -1.57,-0.31 -2.7,-0.58l-2.06,-0.48l0.21,0.93c0.11,0.51 0.61,2.45 1.1,4.32c1.77,6.76 2.31,10.55 1.71,12.13c-0.26,0.69 -0.22,0.8 0.37,0.78c0.8,-0.03 1.2,-4.42 0.76,-8.39c-0.2,-1.8 0.7,-1.31 1.28,0.7c0.67,2.3 0.65,6.95 -0.03,7.68c-0.22,0.24 0.02,0.35 2.71,1.24c1.41,0.47 3.52,1.25 4.69,1.71c10.33,4.17 18.89,1.52 32.03,-9.91c1.54,-1.35 3.47,-2.98 4.28,-3.63c8.31,-6.55 17.71,-16.57 14.01,-14.89zm-34.3,7.68c-7.51,-5.23 -10.05,-16 -5.65,-24.05c1.72,-3.18 3.21,-3.16 1.65,0.02c-4.51,9.19 -2.69,15.79 6.6,23.88c2.14,1.86 0.02,1.97 -2.6,0.15zm-6.85,2.95c-0.02,-0.65 0.47,-0.58 1.81,0.25c0.55,0.35 1.74,1.02 2.64,1.52c3.01,1.64 1.89,2.59 -1.35,1.16c-1.49,-0.66 -3.07,-2.17 -3.1,-2.93zm15.33,10.9c-0.06,0.31 -3.2,2.83 -4.69,3.74c-2.14,1.34 -5.18,2.26 -7.03,2.15c-0.92,-0.07 -0.9,-0.05 -1.06,-0.57c-0.21,-0.58 0.18,-0.85 1.98,-1.28c2.42,-0.58 3.22,-0.91 6.2,-2.56c3.64,-2.03 4.78,-2.39 4.6,-1.48zm2.56,-26.3c-1.36,-0.4 -2.81,-2.74 -2.55,-4.09c0.11,-0.59 0.27,-0.48 2.04,1.48c2.05,2.29 2.21,3.1 0.51,2.61z" fill="#22417F" id="svg_70"/>
   </g>
   <g id="svg_71">
    <path d="m53.84,804.24c-0.04,0.09 -0.09,0.61 -0.09,1.18c-0.01,0.97 0.04,1.26 0.19,1.1c0.03,-0.03 0.76,-0.51 1.63,-1.06c0.86,-0.56 1.57,-1.06 1.56,-1.1c0,-0.41 -3.13,-0.51 -3.29,-0.12z" fill="#22417F" id="svg_72"/>
   </g>
   <g id="svg_73">
    <path d="m70.66,782.48c-0.02,-0.55 -3.83,-3.92 -7.02,-6.25c-6.08,-4.41 -13.49,-12.27 -16.38,-17.4c-0.65,-1.14 -0.67,-1.14 -1.21,-0.1c-0.37,0.67 0.42,2.09 3.61,6.45c0.73,0.99 1.94,2.35 3.17,3.55c2.18,2.15 2.16,2.13 5.52,4.57c5.54,4 7.65,5.65 9.72,7.59c2.12,2 2.61,2.3 2.59,1.59z" fill="#677DA7" id="svg_74"/>
   </g>
   <g id="svg_75">
    <path d="m72.39,809.68c-2.16,4.26 -11.32,12.44 -13.01,11.65c-0.91,-0.44 -0.22,-1.43 2.09,-3.01c2.27,-1.54 9.98,-9 9.65,-9.32c-0.04,-0.04 -0.51,-0.11 -1.04,-0.18l-0.96,-0.13l-3.08,3.26c-4.74,5.01 -10.55,9.19 -15.08,10.85l-1.35,0.51l0.04,1.28l0.05,1.29l2.25,-1.15c3.22,-1.63 4.37,-2.09 4.64,-1.84c0.56,0.53 -3.93,3.88 -6.24,4.65c-0.92,0.3 -0.95,0.33 -1.27,1.09c-0.19,0.44 -0.46,0.97 -0.62,1.18c-0.26,0.39 -0.26,0.39 0.2,0.18c9.5,-4.23 20.78,-13.05 25.72,-20.07l0.62,-0.9l-1.16,0.04c-1.09,0.02 -1.16,0.05 -1.45,0.62z" fill="#677DA7" id="svg_76"/>
   </g>
   <g id="svg_77">
    <path d="m52.19,811.91c0.42,-0.44 2.17,-1.25 2.46,-1.12c0.99,0.4 0.01,1.68 -1.68,2.22l-1.06,0.33l0.21,0.99c0.1,0.54 0.22,1 0.24,1.02c0.35,0.33 7.74,-4.66 10.1,-6.83c1.72,-1.57 1.66,-1.4 0.59,-1.87l-0.87,-0.37l-1.56,1.64c-1.98,2.06 -3.42,2.89 -3.96,2.26c-0.45,-0.52 0.18,-1.38 2.23,-3.03c1.8,-1.43 1.81,-1.5 0.87,-1.88c-0.69,-0.28 -0.69,-0.28 -1.66,0.58c-1.23,1.09 -2.12,1.65 -3.67,2.28l-1.24,0.51l-0.69,1.58c-0.67,1.59 -0.79,2.2 -0.31,1.69z" fill="#677DA7" id="svg_78"/>
   </g>
   <g id="svg_79">
    <path d="m51.26,820.5c3.54,-1.8 8.46,-5.3 13.46,-9.6c1.14,-0.97 2.27,-1.92 2.55,-2.13c0.47,-0.37 0.47,-0.37 -0.65,-0.74l-1.14,-0.37l-1.53,1.74c-1.72,1.94 -3.44,3.4 -5.61,4.81c-2.6,1.66 -5.39,3.16 -6.25,3.35c-0.92,0.2 -1.89,1.39 -2.38,2.88c-0.3,0.93 -0.17,0.93 1.55,0.06z" fill="#22417F" id="svg_80"/>
   </g>
   <g id="svg_81">
    <path d="m62.97,784.41c1,0.65 3.37,1.56 3.57,1.35c0.18,-0.2 -0.47,-0.61 -2.99,-1.87c-10.71,-5.36 -10.83,-5.43 -13.4,-7.21c-1.8,-1.24 -4.17,-3.4 -5.18,-4.72c-0.86,-1.11 -0.86,-1.11 -0.84,0.19c0.01,1.07 0.01,1.07 1.02,1.98c5.32,4.79 8.41,6.67 14.32,8.75c1.36,0.46 2.93,1.16 3.5,1.53z" fill="#677DA7" id="svg_82"/>
   </g>
   <g id="svg_83">
    <path d="m83.34,743.84c4.3,5.37 6.5,9.33 7.63,13.77c0.53,2 0.57,2.11 0.8,1.54c0.89,-2.16 3.8,-3.83 6.83,-3.93l1.25,-0.05l-0.57,-0.68c-2.52,-3.06 -3.39,-6.77 -2.64,-11.13c0.19,-1.09 0.41,-2.04 0.49,-2.13c0.63,-0.67 -6.36,-8.48 -10.63,-11.9c-5.48,-4.39 -5.92,-4.6 -7.8,-3.9c-4.67,1.73 -2.82,9.1 4.64,18.41z" fill="#22417F" id="svg_84"/>
   </g>
   <path d="m0,728.12l0,8.82c0.19,-0.11 0.38,-0.24 0.58,-0.35c3.7,-2.18 2.32,-6.98 -0.58,-8.47z" fill="#677DA7" id="svg_85"/>
   <path d="m24.97,718.37c-3.38,-0.56 -6.8,0.62 -10,1.71c-2.85,0.98 -6.48,1.99 -7.92,4.91c-0.81,1.64 -0.06,3.13 1.54,3.8c2.71,1.12 5.86,-0.17 8.56,-0.77c2.86,-0.63 6.22,-0.79 8.77,-2.28c2.78,-1.62 2.6,-6.78 -0.95,-7.37z" fill="#677DA7" id="svg_86"/>
   <path d="m73.14,719.23c-3.84,-1.81 -7.85,-3.25 -12,-4.2c-4.13,-0.94 -8.41,-1.51 -12.65,-1.42c-3.76,0.08 -9.81,-0.17 -12.08,3.38c-0.61,0.95 -0.51,2.73 0.45,3.48c2.97,2.29 7.29,1.1 10.82,1.19c3.79,0.09 7.56,0.5 11.26,1.35c3.56,0.82 7.07,1.98 10.36,3.58c1.69,0.82 3.33,1.72 4.92,2.71c1.92,1.2 3.62,2.75 6.04,1.78c1.52,-0.61 2.47,-1.69 2.56,-3.37c0.25,-4.36 -6.36,-6.92 -9.68,-8.48z" fill="#677DA7" id="svg_87"/>
   <path d="m90.45,783.42c-1.45,-1.89 -3.26,-2.62 -5.13,-3.99c-1.47,-1.09 -2.71,-2.48 -3.63,-4.07c-2.19,-3.78 -2.32,-8.4 -1.94,-12.65c0.23,-2.57 -3.17,-2.87 -4.39,-1.19c-3.76,5.15 -3.47,11.97 -0.71,17.54c2.38,4.8 7.86,10.61 13.66,9.66c2.12,-0.35 3.48,-3.55 2.14,-5.3z" fill="#445F93" id="svg_88"/>
   <path d="m106.85,769.89c-0.78,-0.97 -2.14,-1.55 -3.39,-1.16c-1.14,0.37 -2.2,1.31 -3.14,1.59c-1.31,0.4 -2.53,0.49 -3.6,1.55c-0.79,0.78 -0.89,1.99 -0.38,2.94c1.97,3.68 9.2,2.03 10.76,-1.34c0.55,-1.2 0.62,-2.49 -0.25,-3.58z" fill="#445F93" id="svg_89"/>
   <path d="m6.94,789.12c-2.3,-0.38 -4.62,-0.48 -6.94,-0.64l0,7.86c2,0.26 4.01,0.41 5.91,0.35c4.14,-0.13 5.5,-6.84 1.03,-7.57z" fill="#677DA7" id="svg_90"/>
   <path d="m20.45,791.85c-1.2,-0.28 -2.42,-0.03 -3.64,-0.12c-1.48,-0.11 -2.75,1.22 -2.93,2.59c-0.2,1.52 0.72,2.78 2.14,3.27c1.38,0.48 3.01,0.9 4.43,0.48c1.31,-0.39 2.43,-1.68 2.36,-3.11c-0.05,-1.38 -0.94,-2.78 -2.36,-3.11z" fill="#677DA7" id="svg_91"/>
   <path d="m42.45,795.14c-2.78,-0.19 -5.47,0.55 -8.24,0.39c-2.47,-0.14 -3.04,3.84 -0.59,4.35c2.95,0.62 5.76,1.74 8.83,1.45c3.95,-0.36 4.02,-5.91 0,-6.19z" fill="#677DA7" id="svg_92"/>
   <g id="svg_93">
    <path d="m46.78,712.04c0.21,0.34 0.56,0.4 2.16,0.42l1.89,0l-0.81,-0.76c-0.89,-0.83 -2.06,-1.32 -3.91,-1.59l-1.07,-0.17l0.73,0.85c0.41,0.47 0.85,1.02 1.01,1.25z" fill="#143577" id="svg_94"/>
   </g>
   <g id="svg_95">
    <path d="m117.34,774.9c-0.59,-0.55 -0.89,-0.53 -2.91,0.25l-1.89,0.71l1.57,-1.46c4.41,-4.14 4.45,-4.78 0.64,-9.72c-2.47,-3.17 -4.53,-6.52 -7.6,-12.24c-9.95,-18.58 -21.96,-30.27 -36.86,-35.83c-2.14,-0.81 -4.37,-1.69 -4.95,-1.96c-0.58,-0.28 -1.94,-0.91 -3.04,-1.39c-1.08,-0.48 -2.76,-1.25 -3.74,-1.71c-1.89,-0.9 -4.25,-1.67 -6.58,-2.16c-0.79,-0.15 -2.09,-0.49 -2.88,-0.73c-1.95,-0.57 -3.12,-0.74 -5.17,-0.75c-0.95,0.01 -2.14,-0.07 -2.64,-0.17c-0.51,-0.09 -1.84,-0.22 -2.94,-0.28c-2.58,-0.14 -3.62,-0.32 -4.82,-0.82c-2.11,-0.88 -2.84,-0.95 -8.38,-0.81c-5.6,0.14 -7.7,0.42 -10.2,1.33c-1.07,0.38 -2,0.5 -4.17,0.55c-1.91,0.04 -3.48,0.23 -5.01,0.6c-1.64,0.4 -2.64,0.5 -3.71,0.41c-0.63,-0.05 -1.36,-0.02 -2.05,0.07l0,2.01c0.49,0.08 1.16,0.39 2.69,1.13c4.38,2.09 9.03,4.87 10.61,6.31c0.1,0.09 -0.16,0.28 -0.76,0.53c-0.91,0.39 -0.91,0.39 -2.47,-0.95c-2.1,-1.8 -7.39,-4.93 -10.07,-6.05l0,2.32c2.55,1.19 5.39,2.73 8.02,4.42c2.36,1.5 2.3,1.33 0.73,1.91l-1.26,0.47l-1.76,-1.53c-1.64,-1.41 -3.86,-2.74 -5.73,-3.56l0,2.5c0.22,0.11 0.42,0.21 0.66,0.32c5.21,2.47 5.58,2.79 3.76,3.49l-1.33,0.5l-1.64,-1.4c-0.44,-0.38 -0.93,-0.76 -1.45,-1.14l0,2.17c0.33,0.2 0.67,0.41 0.98,0.61c0.69,0.45 0.7,0.42 -0.98,1.23l0,3.02c13.74,-7.34 24.17,-10.45 37.79,-11.63l3.13,-0.27l1.01,1.05c5.95,6.05 8.28,14.04 7.74,26.56c-0.2,4.67 -0.11,10.83 0.17,14.2c0.25,2.66 0.3,2.63 -0.98,0.59c-1.48,-2.33 -1.84,-2.4 -3.47,-0.67c-2.67,2.84 -4.1,12.28 -2.76,18.09c0.3,1.28 0.46,1.66 1.59,3.72c0.8,1.47 3.52,3.35 6.29,4.31c0.83,0.29 0.83,0.29 0.93,1.4c0.1,1.01 0.81,4.22 1.78,7.99c0.8,3.1 1.04,5.77 0.78,8.42l-0.13,1.35l-1.12,0.41c-6.37,2.31 -15.31,2.08 -30.96,-0.78c-5.06,-0.91 -5.65,-1 -16.46,-2.24c-1.98,-0.23 -3.72,-0.44 -5.32,-0.66l0,2.76c0.08,0.02 0.14,0.03 0.15,0.04c0.03,0.02 -0.03,0.11 -0.15,0.25l0,2.49c0.86,-0.91 1.51,-1.73 1.74,-2.29c0.12,-0.3 3.65,-0.08 3.66,0.21c0,0.19 -2.98,3.03 -5.4,5.2l0,2.6c3.14,-2.66 5.73,-5.31 6.88,-7.28c0.25,-0.44 0.31,-0.44 3.42,0.09c1.25,0.2 -4.49,5.17 -10.3,9.4l0,2.47c2.24,-1.49 4.19,-2.99 6.04,-4.64c2.14,-1.93 5.98,-5.89 6.31,-6.54c0.22,-0.41 2.26,-0.41 2.69,0c0.14,0.13 -3.6,4.05 -5.33,5.59c-3.13,2.78 -6.78,5.52 -9.71,7.38l0,4.03c0.59,-0.03 1.22,-0.01 2.12,0.06c2.65,0.2 3.51,0.09 7.11,-0.83c1.63,-0.43 3.36,-0.68 5.17,-0.79c3.98,-0.22 4.95,-0.41 7.95,-1.56c1.48,-0.57 3.42,-1.21 4.32,-1.43c0.88,-0.22 2.42,-0.67 3.42,-0.99c1,-0.33 2.42,-0.77 3.16,-0.97c0.74,-0.2 2.06,-0.72 2.93,-1.14c0.87,-0.43 2.93,-1.37 4.58,-2.08c2.99,-1.32 6.94,-3.64 7.32,-4.32c0.09,-0.18 0.86,-0.5 1.87,-0.8c0.94,-0.26 1.74,-0.53 1.8,-0.59c0.68,-0.73 0.28,1.85 -0.62,3.96c-0.95,2.21 -1.08,3 -0.76,4.74c0.25,1.42 0.15,1.75 -1.05,3.44c-1.4,1.93 -1.54,2.55 -1.41,6.1c0.13,3.77 0,4.45 -1.13,6.07c-4.99,7.14 14.28,-1.81 23.36,-10.85c3.25,-3.25 6.86,-8.06 7.11,-9.52c0.09,-0.49 0.16,-0.54 1.31,-0.83c7.63,-1.93 20.57,-10.18 27.56,-17.58c0.66,-0.7 2.22,-2.16 3.44,-3.25c7.09,-6.23 9.83,-10.72 7.76,-12.64zm-107.8,42.55l-1.18,0.28l0.88,-1.07c0.97,-1.19 1.09,-1.51 0.71,-1.86c-0.37,-0.35 -0.8,-0.1 -2.84,1.55c-0.95,0.78 -1.99,1.62 -2.3,1.86c-0.44,0.36 -0.78,0.41 -1.87,0.32c-1.45,-0.13 -1.75,-0.24 -1.27,-0.48c4.06,-1.96 13.23,-10.29 14.91,-13.56c0.27,-0.52 2.16,-0.56 2.7,-0.05c0.08,0.07 -1.27,1.52 -3.36,3.66c-4.55,4.65 -5.66,6.33 -3.62,5.49c1.31,-0.53 7.52,-6.79 8.46,-8.54c0.2,-0.36 0.37,-0.39 1.36,-0.17l1.11,0.25l-0.67,0.94c-0.97,1.34 -5.83,6.23 -7.95,7.99c-3.35,2.79 -3.79,3.09 -5.07,3.39zm7.5,-1.5c-0.79,0.65 -1.14,0.82 -1.73,0.86c-0.85,0.04 -1.12,-0.11 -0.7,-0.37c2.51,-1.52 8.99,-8.6 9.86,-10.74c0.12,-0.26 2.33,-0.24 2.34,0.01c-0.01,0.64 -5.6,6.96 -7.35,8.31c-0.79,0.63 -1.87,1.48 -2.42,1.93zm11.49,-2.59c-2.2,0.69 -2.26,0.69 -1.78,-0.02c1.6,-2.35 -0.07,-2.17 -2.4,0.28c-0.88,0.91 -1.23,1.13 -2.59,1.71c-1.82,0.76 -1.89,0.75 -0.67,-0.14c1.78,-1.31 5.96,-6.5 7.14,-8.86c0.16,-0.34 2.72,-0.36 3.07,-0.03c0.04,0.04 -0.59,0.78 -1.38,1.62c-1.74,1.85 -1.96,2.63 -0.75,2.58c0.46,-0.01 2.54,-2.25 3.4,-3.64c0.33,-0.55 2.53,-0.52 2.27,0.01c-0.92,2.04 -4.82,6.03 -6.31,6.49zm8.59,-4.87c-1.51,1.87 -2.91,3.14 -3.73,3.41c-0.65,0.21 -0.65,0.21 0.09,-0.63c0.41,-0.46 1.12,-1.39 1.61,-2.06c0.47,-0.68 0.96,-1.5 1.09,-1.83c0.23,-0.6 0.24,-0.61 1.19,-0.49l0.95,0.12l-1.2,1.48zm6.72,-1.38c-0.13,0.08 -0.67,0.39 -1.18,0.67c-2.26,1.3 -4.48,2.1 -4.1,1.5c0.19,-0.31 0.57,-0.91 0.84,-1.35c0.5,-0.82 0.5,-0.82 2.59,-0.89c1.17,-0.05 2,0 1.85,0.07zm42.65,-77.78c4.27,3.42 11.26,11.23 10.63,11.9c-0.08,0.09 -0.3,1.04 -0.49,2.13c-0.75,4.36 0.13,8.08 2.64,11.13l0.57,0.68l-1.25,0.05c-3.03,0.1 -5.94,1.77 -6.83,3.93c-0.22,0.56 -0.27,0.46 -0.8,-1.54c-1.13,-4.45 -3.33,-8.41 -7.63,-13.77c-7.46,-9.31 -9.31,-16.68 -4.65,-18.4c1.89,-0.71 2.33,-0.5 7.81,3.89zm15.33,39.75c-3.45,1.37 -7.04,-0.33 -8.46,-4.03c-1.44,-3.72 -0.38,-6.33 3.09,-7.62c7.31,-2.72 12.61,8.78 5.37,11.65zm-43.18,-55.67c0.47,0.44 -4.83,-0.76 -5.33,-1.21c-0.32,-0.28 -0.57,-0.55 -0.53,-0.58c0.21,-0.23 5.42,1.37 5.86,1.79zm-12.54,-3.31c1.85,0.27 3.02,0.76 3.91,1.59l0.81,0.76l-1.89,0c-1.6,-0.01 -1.95,-0.08 -2.16,-0.42c-0.15,-0.23 -0.59,-0.78 -1.01,-1.25l-0.73,-0.85l1.07,0.17zm-29.41,7.07l-1.61,0.61l-2.14,-1.98c-2.28,-2.12 -3.89,-3.2 -6.57,-4.45c-1.49,-0.69 -1.58,-0.75 -1.48,-0.86c1.47,-1.56 6.21,0.42 12.68,5.29c1.03,0.77 1.1,0.65 -0.88,1.39zm5.33,-1.57l-1.61,0.37l-1.53,-1.43c-1.33,-1.25 -5.77,-4.54 -6.11,-4.53c-0.4,0.01 -0.31,-0.25 0.09,-0.29c1.22,-0.1 11.31,4.95 10.85,5.43c-0.04,0.04 -0.8,0.24 -1.69,0.45zm3.14,-2.09c-1.44,-1.27 -3.89,-2.81 -6.28,-3.94c-2.11,-0.99 -2.09,-0.94 -0.73,-1.22c0.8,-0.16 1.22,-0.12 1.62,0.14c0.31,0.19 1.64,0.95 2.97,1.68c2.41,1.34 5.76,3.55 5.77,3.83c0.03,0.82 -2.23,0.5 -3.35,-0.49zm7.33,-0.03c-1.35,0.14 -1.35,0.14 -2.42,-1.03c-1.29,-1.41 -3.23,-2.75 -5.45,-3.73c-0.83,-0.37 -1.54,-0.69 -1.57,-0.72c-0.04,-0.02 0.17,-0.05 0.46,-0.08c2.43,-0.2 3.43,0.24 7.85,3.46c2.8,2.06 2.74,1.93 1.13,2.1zm5.59,-0.52l-1.62,0.11l-2.19,-1.99c-1.35,-1.23 -2.57,-2.21 -3.2,-2.57c-1.34,-0.75 -1.33,-0.74 -0.87,-0.79c1.35,-0.18 5.05,1.5 7.53,3.4c2.24,1.71 2.24,1.69 0.35,1.84zm2.73,-1.48c-0.68,-0.64 -1.53,-1.33 -1.89,-1.55c-0.79,-0.5 -1.02,-0.67 -0.96,-0.74c0.51,-0.54 3.52,0.59 4.82,1.81c1.59,1.5 1.58,1.51 0.25,1.56c-0.98,0.06 -0.98,0.06 -2.22,-1.08zm5.23,47.25c0.55,-1.04 0.57,-1.04 1.21,0.1c2.9,5.13 10.3,12.99 16.38,17.4c3.2,2.33 7.01,5.7 7.02,6.25c0.02,0.71 -0.47,0.41 -2.6,-1.58c-2.07,-1.94 -4.17,-3.59 -9.72,-7.59c-3.36,-2.44 -3.34,-2.42 -5.52,-4.57c-1.24,-1.2 -2.45,-2.56 -3.17,-3.55c-3.18,-4.37 -3.97,-5.78 -3.6,-6.46zm-1.86,8.5c0.1,-1.87 0.1,-1.87 0.47,-1.33c2.31,3.31 5.13,5.9 5.87,5.37c0.32,-0.23 -0.15,-0.9 -3.37,-4.65c-2.96,-3.45 -2.73,-3.03 -2.41,-4.34c0.3,-1.27 0.42,-1.47 0.63,-1.02c1.02,2.12 3.65,5.83 5.68,8.01c2.08,2.24 4.49,4.11 12.79,9.95c1.16,0.83 2.82,2.1 3.69,2.85c1.5,1.31 1.52,1.34 0.43,0.54c-3.28,-2.39 -11.01,-6.83 -11.49,-6.6c-0.93,0.45 0.92,2 5.89,4.96c4.77,2.83 5.22,3.13 4.95,3.42c-0.14,0.15 -0.32,0.11 -0.59,-0.15c-0.22,-0.2 -1.04,-0.69 -1.84,-1.1c-8.63,-4.3 -13.59,-7.6 -19.83,-13.19c-0.97,-0.88 -0.97,-0.88 -0.87,-2.72zm-0.05,4.92c-0.02,-1.3 -0.02,-1.3 0.84,-0.19c1.01,1.31 3.38,3.48 5.18,4.72c2.57,1.78 2.69,1.85 13.4,7.21c2.52,1.27 3.18,1.68 2.99,1.87c-0.19,0.21 -2.57,-0.7 -3.57,-1.35c-0.57,-0.37 -2.14,-1.07 -3.5,-1.53c-5.92,-2.09 -9,-3.97 -14.32,-8.75c-1.01,-0.91 -1.01,-0.91 -1.02,-1.98zm6.96,9.27c-1.59,-0.65 -3.11,-1.51 -4.33,-2.43c-0.57,-0.43 -1.09,-0.82 -1.15,-0.86c-0.06,-0.04 -0.1,-0.18 -0.06,-0.3c0.03,-0.14 -0.09,-0.58 -0.26,-0.98c-0.31,-0.74 -0.31,-0.74 0.84,0.17c2.68,2.1 5.38,3.64 9.01,5.11c1.45,0.59 2.69,1.11 2.73,1.16c0.19,0.2 -5.76,-1.46 -6.78,-1.87zm2.75,22.82c0.16,-0.38 3.28,-0.28 3.3,0.12c0,0.04 -0.71,0.54 -1.56,1.1c-0.87,0.55 -1.6,1.03 -1.63,1.06c-0.15,0.16 -0.2,-0.13 -0.19,-1.1c0,-0.57 0.04,-1.1 0.08,-1.18zm-1.33,5.98l0.69,-1.58l1.24,-0.51c1.56,-0.64 2.44,-1.19 3.67,-2.28c0.97,-0.86 0.97,-0.86 1.66,-0.58c0.95,0.38 0.93,0.44 -0.87,1.88c-2.05,1.64 -2.68,2.5 -2.23,3.03c0.54,0.62 1.98,-0.2 3.96,-2.26l1.56,-1.64l0.87,0.37c1.07,0.47 1.12,0.3 -0.59,1.87c-2.36,2.17 -9.76,7.16 -10.1,6.83c-0.02,-0.02 -0.14,-0.48 -0.24,-1.02l-0.21,-0.99l1.06,-0.33c1.69,-0.54 2.67,-1.82 1.68,-2.22c-0.29,-0.13 -2.04,0.67 -2.46,1.12c-0.49,0.51 -0.37,-0.1 0.31,-1.69zm-2.81,10.22c0.49,-1.5 1.46,-2.69 2.38,-2.88c0.86,-0.19 3.65,-1.69 6.25,-3.35c2.18,-1.4 3.9,-2.87 5.61,-4.81l1.53,-1.74l1.14,0.37c1.13,0.36 1.13,0.36 0.65,0.74c-0.28,0.21 -1.41,1.16 -2.55,2.13c-5,4.3 -9.92,7.8 -13.46,9.6c-1.71,0.87 -1.84,0.87 -1.55,-0.06zm24.68,-10.53c-4.94,7.03 -16.22,15.84 -25.72,20.07c-0.46,0.2 -0.46,0.2 -0.2,-0.18c0.15,-0.2 0.43,-0.74 0.61,-1.18c0.32,-0.76 0.35,-0.79 1.27,-1.09c2.31,-0.77 6.8,-4.12 6.24,-4.65c-0.27,-0.25 -1.42,0.21 -4.64,1.84l-2.25,1.15l-0.05,-1.29l-0.04,-1.28l1.35,-0.51c4.53,-1.66 10.34,-5.84 15.08,-10.85l3.08,-3.26l0.96,0.13c0.53,0.07 0.99,0.14 1.04,0.18c0.34,0.32 -7.38,7.78 -9.65,9.32c-2.32,1.58 -3,2.57 -2.09,3.01c1.7,0.8 10.85,-7.39 13.01,-11.65c0.29,-0.57 0.36,-0.6 1.45,-0.64l1.16,-0.04l-0.61,0.92zm27.54,-18.52c-0.81,0.65 -2.75,2.27 -4.28,3.63c-13.14,11.43 -21.7,14.08 -32.03,9.91c-1.17,-0.47 -3.28,-1.24 -4.69,-1.71c-2.69,-0.89 -2.94,-1 -2.71,-1.24c0.68,-0.73 0.7,-5.38 0.03,-7.68c-0.59,-2 -1.49,-2.5 -1.28,-0.7c0.44,3.96 0.04,8.36 -0.76,8.39c-0.59,0.02 -0.63,-0.09 -0.37,-0.78c0.6,-1.58 0.06,-5.37 -1.71,-12.13c-0.49,-1.87 -0.99,-3.81 -1.1,-4.32l-0.21,-0.93l2.06,0.48c1.13,0.27 2.34,0.53 2.7,0.58c0.61,0.09 4.29,0.97 7.48,1.81c1.39,0.37 1.45,0.41 2.1,1.24c1.21,1.58 2.51,2.24 3.02,1.53c0.25,-0.36 0.22,-0.39 -0.97,-1.42c-2.06,-1.81 -0.8,-3.77 2.67,-4.17c0.96,-0.11 0.61,-1.49 -0.86,-3.34c-0.96,-1.21 -1.86,-1.99 -10.47,-9.22c-3.26,-2.74 -5.41,-4.95 -7.76,-8l-1.17,-1.51l-0.17,-6.83c-0.1,-3.74 -0.08,-8.46 0.05,-10.44c0.83,-13.7 -1.44,-21.75 -8.18,-28.77c-0.58,-0.6 -0.58,-0.6 3.48,-0.58c10.28,0.04 19.32,1.8 26.11,5.08c2.27,1.09 2.29,1.11 1.35,1.43c-1.52,0.55 -3.22,3.04 -2.7,3.97c0.32,0.59 0.58,0.44 1.64,-0.88c1.05,-1.32 2.64,-2.27 3.67,-2.21c0.36,0.01 1.7,0.82 1.48,0.88c-6.41,2.1 -5.78,11.13 1.36,19.41c3.83,4.43 3.51,3.87 2.52,4.38c-7.3,3.78 -13.65,18.66 -11.46,26.87c1.96,7.37 9,14.38 15.42,15.36c2.46,0.37 2.12,-1.17 -0.43,-1.95c-6.33,-1.95 -12.46,-9.21 -12.98,-15.41c-0.71,-8.09 3.35,-17.39 9.97,-22.85l1.4,-1.14l0.53,0.7c2.26,3.08 5.11,9.49 6.18,13.94c1.72,7.06 6.42,10.09 12.16,7.82c5.75,-2.27 5.62,-8.86 -0.29,-15.03c-3.35,-3.51 -4.17,-5.08 -4.26,-8.22c-0.06,-1.65 0.09,-4.38 0.23,-4.39c0.26,0 2.33,3.41 4.65,7.69c4.67,8.59 7.3,12.83 9.44,15.25c3.53,3.97 3.46,3.37 0.66,6.35c-2.46,2.62 -2.79,3.23 -2.29,4.26c0.63,1.26 2.02,1.26 4.79,0.01c3.68,-1.71 -5.72,8.31 -14.02,14.88z" fill="#0E2B59" id="svg_96"/>
   </g>
   <g id="svg_97">
    <path d="m51.66,771.9c-0.87,-0.02 0.98,2.33 2.21,2.81c1.06,0.41 1.21,-0.4 0.24,-1.3c-0.7,-0.67 -2.06,-1.51 -2.45,-1.51z" fill="#0E2B59" id="svg_98"/>
   </g>
   <g id="svg_99">
    <path d="m94.32,762.01c-0.76,2.33 1.01,5.86 3.3,6.57c5.24,1.63 9.3,-4.52 5.39,-8.15c-3.43,-3.18 -7.41,-2.45 -8.69,1.58zm7.96,0.26c0.34,0.32 0.74,1.21 0.61,1.35c-0.34,0.36 -1.67,-0.02 -1.9,-0.56c-0.09,-0.21 -0.24,-0.51 -0.34,-0.68c-0.22,-0.44 1.18,-0.53 1.63,-0.11zm-2.31,-2.04c0.84,0.24 0.81,0.29 -0.32,0.47c-1.74,0.29 -2.79,1.36 -3.28,3.36l-0.27,1.09l-0.28,-0.77c-0.15,-0.43 -0.25,-1.05 -0.23,-1.38c0.16,-1.8 2.53,-3.3 4.38,-2.77z" fill="#0E2B59" id="svg_100"/>
   </g>
   <g id="svg_101">
    <path d="m85.49,799.48c-2.98,1.65 -3.78,1.98 -6.2,2.56c-1.8,0.44 -2.19,0.7 -1.98,1.28c0.16,0.52 0.14,0.5 1.06,0.57c1.86,0.11 4.9,-0.81 7.03,-2.15c1.49,-0.91 4.63,-3.43 4.69,-3.74c0.19,-0.9 -0.95,-0.54 -4.6,1.48z" fill="#0E2B59" id="svg_102"/>
   </g>
   <g id="svg_103">
    <path d="m84.23,784.02c-9.29,-8.09 -11.11,-14.69 -6.6,-23.88c1.56,-3.18 0.07,-3.2 -1.65,-0.02c-4.4,8.05 -1.86,18.82 5.65,24.05c2.61,1.81 4.73,1.7 2.6,-0.15z" fill="#0E2B59" id="svg_104"/>
   </g>
   <g id="svg_105">
    <path d="m90.11,767.63c-0.26,1.34 1.19,3.69 2.55,4.09c1.71,0.48 1.55,-0.32 -0.51,-2.6c-1.77,-1.97 -1.94,-2.08 -2.04,-1.49z" fill="#0E2B59" id="svg_106"/>
   </g>
   <g id="svg_107">
    <path d="m79.22,788.88c-0.9,-0.5 -2.09,-1.17 -2.64,-1.52c-1.34,-0.83 -1.83,-0.9 -1.81,-0.25c0.02,0.76 1.61,2.26 3.09,2.92c3.25,1.44 4.36,0.49 1.36,-1.15z" fill="#0E2B59" id="svg_108"/>
   </g>
   <g id="svg_109">
    <path d="m9.93,724.15c-1.71,0.67 -2.6,1.77 -1.92,2.4c0.23,0.21 0.46,0.21 0.87,-0.02c0.31,-0.16 1.09,-0.53 1.72,-0.81c2.7,-1.21 2.09,-2.66 -0.67,-1.57z" fill="#0E2B59" id="svg_110"/>
   </g>
   <g id="svg_111">
    <path d="m14.79,722.34c-0.99,1.05 -0.69,1.65 0.69,1.46c0.45,-0.07 2.38,-0.6 4.3,-1.19c5.54,-1.69 7.51,-2.15 12.25,-2.92c6.34,-1.02 6.24,-1 6.48,-1.34c1.82,-2.61 -21.15,1.26 -23.72,3.99z" fill="#0E2B59" id="svg_112"/>
   </g>
  </g>
  <g id="svg_20">
   <g id="svg_113">
    <path d="m356,741.16c-2.31,-0.71 -4.26,-1.48 -5.22,-2.17c-0.25,-0.2 -0.69,-0.04 -1.91,0.67c-0.98,0.56 -1.46,0.96 -1.25,1.04c2,0.74 5.04,1.59 8.39,2.41l0,-1.95l-0.01,0z" fill="#22417F" id="svg_114"/>
   </g>
   <g id="svg_115">
    <path d="m356,758.13c-7.62,-2.51 -16.38,-6.97 -20.41,-10.59c-0.84,-0.75 -0.84,-0.75 -2.18,-0.24l-1.33,0.49l2.91,2.04c6.89,4.77 14.02,8.24 21.01,10.25l0,-1.95z" fill="#22417F" id="svg_116"/>
   </g>
   <g id="svg_117">
    <path d="m353.31,750.71c1.01,0.28 1.9,0.56 2.69,0.84l0,-2.19c-5.61,-1.82 -11.14,-4.15 -12.64,-5.52c-0.71,-0.66 -0.71,-0.66 -2.38,0.2l-1.67,0.86l3.38,1.62c4.01,1.93 7.71,3.39 10.62,4.19z" fill="#546C9C" id="svg_118"/>
    <path d="m356,753.51c-3.83,-0.81 -15.16,-5.73 -17.5,-7.65c-0.49,-0.4 -0.58,-0.4 -1.4,-0.05c-1.13,0.47 -1.22,0.36 1.47,2.09c5.05,3.28 11.47,6.28 17.43,8.24l0,-2.63z" fill="#546C9C" id="svg_119"/>
   </g>
   <g id="svg_120">
    <path d="m356,762.25l-1.48,-0.5c-4.07,-1.36 -7.48,-2.91 -10.77,-4.89c-1.69,-1.02 -3.8,-2.26 -4.69,-2.73c-2.46,-1.36 -5.29,-3.24 -6.98,-4.58l-1.55,-1.24l-1.75,0.53l-1.75,0.53l3.06,2.02c1.69,1.11 3.93,2.58 5,3.29c1.87,1.24 2.55,2.07 1.66,2.07c-1.46,0 -7.51,-3.47 -9.91,-5.67c-1.18,-1.09 -4.48,-1.27 -4.48,-0.24c0,1.73 16.97,11.19 22.85,12.73c2.89,0.76 4.31,0.95 5.11,0.69c0.64,-0.2 0.78,-0.11 -1.47,-0.98c-1.93,-0.73 -3.27,-1.98 -2.13,-1.98c0.58,0 4.33,0.98 6.24,1.64c1.35,0.45 1.42,0.45 2.73,0.07l0.31,-0.09l0,-0.67zm-14.43,-2.08c-1.87,-0.84 -2.64,-2.53 -0.96,-2.16c1.24,0.27 3.98,2 4.24,2.67c0.12,0.34 -2.19,-0.02 -3.28,-0.51z" fill="#22417F" id="svg_121"/>
   </g>
   <g id="svg_122">
    <path d="m255.73,725.04c-1.8,-0.76 -4.89,-2.49 -5.11,-2.84c-0.07,-0.13 0.56,-0.02 1.42,0.2c0.84,0.24 2.33,0.6 3.31,0.8c2,0.42 2.77,0.98 2.97,2.13c0.16,0.88 0.14,0.88 -2.59,-0.29z" fill="#22417F" id="svg_123"/>
   </g>
   <g id="svg_124">
    <path d="m240.81,725.44c-0.33,0.31 5.31,7.77 7.68,10.15c4.26,4.33 8.04,6.6 15.88,9.59c2.31,0.87 2.36,0.82 0.78,-0.73c-1.64,-1.58 -3.04,-3.57 -4.07,-5.71c-0.78,-1.67 -1.11,-2.09 -2.06,-2.75c-1.6,-1.11 -1.76,-2.35 -0.24,-1.76c0.33,0.13 0.58,0.2 0.58,0.16c0,-1.58 -1.11,-3.98 -1.87,-4.02c-0.58,-0.02 -0.07,-0.69 0.55,-0.69c0.55,0 0.67,-0.07 0.56,-0.35c-0.07,-0.2 -0.15,-0.76 -0.15,-1.24c0,-0.76 -0.07,-0.87 -0.64,-0.98c-1.95,-0.38 -6.86,-2.89 -8.31,-4.22c-1.93,-1.76 0.18,0.65 2.8,3.22c3.57,3.49 3.77,3.97 1.24,2.86c-1.29,-0.56 -4.44,-3.53 -5.69,-5.35c-0.91,-1.31 -1.02,-1.38 -1.44,-0.87c-0.6,0.71 3.66,5.86 7.04,8.51c2.27,1.8 2.67,2.31 2.15,2.76c-1.4,1.16 -9.15,-6.35 -10.39,-10.08c-0.05,-0.18 -0.36,-0.13 -1.02,0.18l-0.95,0.44l1.87,2.42c1.02,1.35 2.31,3.06 2.87,3.84c0.55,0.76 1.76,2.04 2.71,2.8c3.67,3.04 4.49,4 3.6,4.31c-2.29,0.78 -10.19,-7.62 -11.84,-12.62c-0.09,-0.34 -1.25,-0.25 -1.64,0.13zm15.92,13.15c0.64,-0.64 3.33,0.84 3.33,1.82c0,0.64 -1.33,0.53 -2.46,-0.2c-1.11,-0.71 -1.34,-1.14 -0.87,-1.62z" fill="#22417F" id="svg_125"/>
   </g>
   <g id="svg_126">
    <path d="m356,685.19c-0.68,-0.36 -1.44,-0.77 -2.29,-1.23c-12.08,-6.44 -25.61,-12.44 -33.84,-14.97c-10.9,-3.35 -28.54,-5.04 -39.93,-3.82c-2,0.22 -4.6,0.51 -5.78,0.64c-7.33,0.8 -15.84,3.16 -24.03,6.69c-7.59,3.27 -13.7,9.04 -19.21,18.19c-11.02,18.26 -17.75,24.54 -27.3,25.45c-3.44,0.35 -3.58,0.62 -1,2.02c1.47,0.78 1.6,0.95 1.95,2.35c0.29,1.11 1.44,1.73 4.31,2.27c0.95,0.18 2.6,0.53 3.66,0.76c1.07,0.24 3.82,0.75 6.15,1.13c9.11,1.51 11.13,2.53 18.61,9.42c15.74,14.48 26.2,19.9 41.08,21.28c5.53,0.51 10.75,0.2 20.68,-1.24c7.2,-1.04 7.97,-1.22 17.17,-4.22c4.18,-1.36 9.46,-3.06 11.68,-3.76c6.97,-2.18 10.79,-4.02 22.05,-10.6c2.49,-1.46 4.41,-2.6 6.06,-3.61l0,-46.75l-0.02,0zm-148.15,34.36c-0.2,0.47 -1.96,0.51 -2.36,0.02c-0.44,-0.53 0.11,-1.02 1.13,-1.02c0.94,0 1.45,0.42 1.23,1zm92.3,-52.3c10.31,1.46 12.48,2 22.78,5.75c6.48,2.36 8.53,3.37 8.53,4.2c0,0.47 -1.69,0.07 -6.51,-1.53c-11.48,-3.82 -16.37,-5 -24.76,-6c-8.44,-1.02 -8.99,-1.13 -8.99,-1.93c0,-1.15 3.02,-1.31 8.95,-0.49zm0.09,78.47c-3.8,0.69 -7.53,0.35 -7.15,-0.66c0.22,-0.56 0.73,-0.71 6.09,-1.71c6.37,-1.18 7.11,-1.27 7.57,-0.82c0.97,0.97 -1.83,2.34 -6.51,3.19zm-14.26,-78.56c1.98,0 2.96,0.71 1.87,1.35c-0.44,0.26 -3.27,0.29 -4.13,0.04c-1.56,-0.45 -0.01,-1.39 2.26,-1.39zm32.4,74.8c5.13,-1.96 7.13,-0.67 2.53,1.64c-6.82,3.44 -17.24,5.78 -28.34,6.4c-7.48,0.42 -15.83,-0.64 -15.64,-1.98c0.07,-0.45 0.16,-0.47 2,-0.36c15.26,0.88 26.53,-0.74 39.45,-5.7zm-42.79,-74.28c4.37,-0.27 4.75,1.07 0.49,1.73c-12.17,1.84 -20.3,4.22 -28.16,8.31c-3,1.55 -3.46,1.66 -3.87,0.95c-1.65,-2.75 19.88,-10.26 31.54,-10.99zm-28.1,49.1c-2.02,2.35 -2.67,1.51 -1,-1.27c1.36,-2.26 1.96,-3.46 2.51,-5.04c0.6,-1.69 1.38,-2.04 1.62,-0.71c0.33,1.67 -0.93,4.46 -3.13,7.02zm-6.91,-22.04c6.38,2.93 5.77,12.21 -0.93,13.79c-1.84,0.44 -4.48,0.09 -6.24,-0.8c-8.33,-4.23 -1.35,-16.89 7.17,-12.99zm3.91,25.06c-0.86,0.87 -2.16,0.71 -1.8,-0.22c0.15,-0.4 1.22,-1.04 1.75,-1.04c0.59,0.01 0.63,0.7 0.05,1.26zm-7.68,-8.98c-1.15,0.47 -4.04,-0.58 -4.04,-1.49c0,-0.47 0.78,-0.4 3.69,0.36c0.97,0.25 1.13,0.8 0.35,1.13zm-16.17,-1.02c-0.93,0.8 -1.33,1.02 -1.86,0.96c-1.16,-0.11 -1.02,-0.86 0.38,-2c0.67,-0.53 1.75,-1.53 2.38,-2.22c0.66,-0.67 1.29,-1.16 1.42,-1.07c0.79,0.47 -0.37,2.62 -2.32,4.33zm9.2,-3.31c0.56,0 1.33,0.62 1.33,1.07c0,0.47 -0.84,0.34 -1.35,-0.2c-0.59,-0.64 -0.59,-0.87 0.02,-0.87zm3.37,19.01c-0.55,0.66 -3.27,-0.02 -3.13,-0.78c0.11,-0.58 3.22,-0.55 3.33,0.04c0.04,0.21 -0.05,0.55 -0.2,0.74zm6.75,1.92c-0.78,-1.64 -0.78,-1.64 -2.22,-1.71c-3.15,-0.16 -3.95,-1.09 -1.15,-1.33c9.77,-0.82 17.37,-11.55 15.14,-21.37c-0.26,-1.15 0.82,-0.73 1.46,0.55c1.96,3.97 0.69,10.53 -3.04,15.61c-0.51,0.69 -0.45,0.71 6.49,2.35c3,0.71 3.55,1.47 3.98,5.46c0.84,7.49 2.35,11.57 5.8,15.68c2.2,2.62 2.44,3.29 1.56,4.4c-1.86,2.36 -14.32,-3.07 -20.17,-8.8c-2.89,-2.83 -6.21,-7.42 -7.85,-10.84zm50.79,26.74c-5.26,1.29 -24.32,-1.2 -25.47,-3.33c-0.47,-0.89 0.33,-0.91 5.8,-0.05c5.13,0.78 5.38,0.8 13.75,0.89c8.64,0.11 9.33,0.18 9.33,1c0.01,0.55 -0.54,0.79 -3.41,1.49zm9.84,-1.49c-2.55,0.51 -4.37,-0.67 -2.44,-1.6c1,-0.49 5.4,-0.49 5.51,0c0.08,0.4 -1.67,1.31 -3.07,1.6zm8,-1.36c-2.66,0.64 -4.26,-0.66 -2.02,-1.64c1.27,-0.56 4.98,-1.09 5.33,-0.75c0.59,0.59 -1.22,1.88 -3.31,2.39zm11.72,-3.99c-2.47,0.67 -4.4,0.65 -4.49,-0.04c-0.09,-0.56 -0.04,-0.6 6.66,-3.06c2.75,-1.02 5.97,-2.22 7.17,-2.66c1.18,-0.44 3.24,-1.35 4.57,-2.02c3.8,-1.91 6.68,-2.64 6.97,-1.76c0.44,1.4 -12.55,7.34 -20.88,9.54zm24.96,-11.15c-1.44,0.46 -1.98,0.35 -1.98,-0.36c0,-1.11 5.46,-3.55 5.82,-2.58c0.25,0.65 -1.95,2.36 -3.84,2.94zm4.63,-49.22c-1.91,-1.75 -1.07,-2.47 1.4,-1.24c2.33,1.18 3.26,2.22 2.66,2.95c-0.58,0.69 -2.15,0.04 -4.06,-1.71z" fill="#22417F" id="svg_127"/>
   </g>
   <g id="svg_128">
    <path d="m242.65,700.96c-1.04,-6.35 -10.24,-6.6 -11.24,-0.31c-0.36,2.38 1.22,4.88 3.58,5.57c4.15,1.25 8.26,-1.59 7.66,-5.26zm-3.58,3.8c-0.98,0.49 -3,0.45 -4.15,-0.05c-4.8,-2.18 -2.4,-8.7 2.91,-7.9c4.18,0.63 5.04,6.07 1.24,7.95z" fill="#F7EFE7" id="svg_129"/>
   </g>
   <g id="svg_130">
    <path d="m234.54,700.48c-0.4,-0.07 -0.76,-0.18 -0.82,-0.24c-0.38,-0.38 1.98,-1.89 2.47,-1.6c0.8,0.52 -0.6,2.06 -1.65,1.84z" fill="#FFFFFF" id="svg_131"/>
   </g>
   <g id="svg_132">
    <path d="m314.1,753.27c1.6,-0.87 2.26,-0.71 4.24,1.04c5.15,4.58 13.28,9.86 17.66,11.46l1.47,0.53l-2.24,-0.11c-2.24,-0.11 -2.24,-0.11 -5.8,-1.95c-5.45,-2.82 -16.18,-10.49 -15.33,-10.97z" fill="#22417F" id="svg_133"/>
   </g>
   <g id="svg_134">
    <path d="m319.29,751.65c1.47,-0.42 1.47,-0.42 2.78,0.84c4.49,4.35 15.35,10.68 21.37,12.46c2.38,0.69 0.18,0.87 -2.53,0.2c-5.64,-1.42 -10.53,-4.02 -19.68,-10.46c-3.98,-2.78 -3.8,-2.51 -1.94,-3.04z" fill="#546C9C" id="svg_135"/>
   </g>
   <g id="svg_136">
    <path d="m305.83,755.47c2.24,-0.42 2.24,-0.42 2.82,0.38c0.33,0.42 1.35,1.51 2.29,2.42c0.93,0.91 1.62,1.66 1.53,1.66c-0.07,0 -2,-0.76 -4.29,-1.69c-2.27,-0.93 -4.44,-1.76 -4.8,-1.86c-0.86,-0.21 -0.52,-0.34 2.45,-0.91z" fill="#546C9C" id="svg_137"/>
   </g>
   <g id="svg_138">
    <path d="m309.63,754.69c0,-0.87 2.77,-0.76 3.67,0.16c1.27,1.31 7.44,6.55 9.06,7.68c0.67,0.49 1.35,0.96 1.46,1.07c0.89,0.78 -4.82,-1.6 -6.46,-2.69c-3.11,-2.05 -7.73,-5.78 -7.73,-6.22z" fill="#22417F" id="svg_139"/>
   </g>
   <g id="svg_140">
    <path d="m309.63,651.13c-2.55,1 -7.93,3.66 -11.57,5.71c-7.13,4.06 -8.17,4.44 -12.32,4.58c-0.8,0.02 -0.8,0.02 0.35,-0.56c0.62,-0.31 2.6,-1.45 4.38,-2.51c6.6,-3.95 15.04,-7.29 20.52,-8.15c1.39,-0.22 1.17,-0.05 -1.36,0.93z" fill="#546C9C" id="svg_141"/>
   </g>
   <g id="svg_142">
    <path d="m303.03,658.26c-3.82,1.89 -7.08,3.38 -7.24,3.31c-0.16,-0.05 -0.95,-0.11 -1.76,-0.11c-0.82,0 -1.46,-0.09 -1.46,-0.22c0,-0.13 0.13,-0.24 0.27,-0.24c0.15,0 3.38,-1.56 7.22,-3.49c10.02,-5.04 15.54,-7.04 20.25,-7.31l1.93,-0.11l-3.64,1.22c-4.17,1.4 -5.99,2.22 -15.57,6.95z" fill="#22417F" id="svg_143"/>
   </g>
   <g id="svg_144">
    <path d="m320.42,663.92c-2.58,1.33 -2.51,1.31 -4.73,0.84c-2.36,-0.53 -2.36,-0.51 -1.76,-0.95c0.29,-0.2 1.87,-0.95 3.51,-1.66c5.37,-2.33 6.44,-3 5.6,-3.53c-0.82,-0.51 -6.2,1.58 -10.55,4.07c-1.66,0.96 -4.88,1.09 -5.77,0.25c-0.04,-0.04 0.71,-0.4 1.66,-0.78c0.95,-0.4 3.89,-1.75 6.53,-3c7.19,-3.4 12.52,-5.09 17.86,-5.66c3.97,-0.42 4.48,-0.09 1.16,0.78c-2.02,0.51 -5,1.55 -6.4,2.18c-0.36,0.16 -0.62,0.47 -0.62,0.73c0,0.53 0.49,0.47 4.77,-0.53c7.44,-1.75 8.09,-1.82 10.11,-1.06l1.82,0.71l-2.95,0.51c-6.09,1.08 -13.51,3.68 -20.24,7.1z" fill="#22417F" id="svg_145"/>
   </g>
   <g id="svg_146">
    <path d="m327.35,652.26c-4.82,1.27 -7.75,2.49 -18.14,7.57l-5.53,2.69l-2.2,-0.29c-1.22,-0.18 -2.29,-0.33 -2.38,-0.36c-0.11,-0.04 0.91,-0.51 2.27,-1.06c1.35,-0.55 4.35,-1.89 6.68,-3c9.15,-4.33 17.79,-7 20.81,-6.44c1.03,0.2 1,0.22 -1.51,0.89z" fill="#546C9C" id="svg_147"/>
   </g>
   <g id="svg_148">
    <path d="m348.81,659.54c-6.97,0.98 -19.74,4.47 -24.72,6.73c-1.2,0.55 -1.4,0.55 -3.13,-0.11l-1.46,-0.55l1.36,-0.6c11.04,-4.91 24.47,-7.99 28.71,-6.57c2.04,0.69 2.04,0.69 -0.76,1.1z" fill="#546C9C" id="svg_149"/>
   </g>
   <g id="svg_150">
    <path d="m356,671.42c-6.72,1.53 -14.3,3.61 -13.59,3.89c0.33,0.13 1.29,0.58 2.15,1c1.56,0.76 1.56,0.76 3.38,0.26c2.96,-0.83 5.63,-1.56 8.06,-2.2l0,-2.95z" fill="#22417F" id="svg_151"/>
   </g>
   <g id="svg_152">
    <path d="m356,663.26c-1.12,0.04 -2.03,-0.02 -2.15,-0.21c-0.31,-0.47 0.42,-0.87 2.09,-1.16c0.02,0 0.04,-0.01 0.06,-0.01l0,-0.93c-0.29,-0.06 -0.57,-0.08 -0.78,-0.04c-0.38,0.05 -1.86,0.22 -3.29,0.34c-5.48,0.53 -11.82,1.76 -18.46,3.62c-2.16,0.6 -5.04,1.38 -6.38,1.73c-1.35,0.35 -2.44,0.69 -2.44,0.76c0,0.46 4.73,2.22 5.26,1.95c5.66,-2.87 24.85,-7.68 21.08,-5.26c-0.87,0.56 -10.59,3.44 -18.21,5.42c-2.44,0.62 -2.44,0.6 -0.13,1.65c2.44,1.11 2.2,1.07 3.24,0.46c4.05,-2.41 12.7,-5.05 20.12,-6.36l0,-1.96l-0.01,0z" fill="#22417F" id="svg_153"/>
   </g>
   <g id="svg_154">
    <path d="m356,667.17c-7.41,1.29 -15.74,3.45 -19.19,5.38c-0.31,0.18 0.02,0.38 1.51,1l1.89,0.78l2.2,-0.85c1.22,-0.47 3.47,-1.22 5,-1.67c1.55,-0.44 3.98,-1.15 5.44,-1.56c0.95,-0.28 2.02,-0.56 3.15,-0.82l0,-2.26z" fill="#546C9C" id="svg_155"/>
   </g>
   <g id="svg_156">
    <path d="m356,675.98c-0.08,0.02 -0.14,0.03 -0.22,0.05c-3.18,0.73 -6.24,1.4 -6.77,1.49c-1.46,0.22 -1.36,0.38 1.06,1.66c2.6,1.35 2.35,1.33 4.64,0.47c0.43,-0.16 0.86,-0.3 1.29,-0.46l0,-3.21z" fill="#22417F" id="svg_157"/>
   </g>
   <g id="svg_158">
    <path d="m356,744.8c-3.84,-0.98 -7.17,-2.07 -9.24,-3.15c-0.66,-0.33 -0.75,-0.33 -1.86,0.27c-1.47,0.76 -1.51,0.67 0.82,1.71c3.98,1.77 7.21,3.07 10.28,4.07l0,-2.9z" fill="#22417F" id="svg_159"/>
   </g>
   <path d="m356,685.98c-3.15,0.45 -4.62,4.54 -1.48,6.62c0.47,0.31 0.98,0.58 1.48,0.85l0,-7.47z" fill="#677DA7" id="svg_160"/>
   <path d="m330.83,676.72c0.07,-0.31 0.21,-0.62 0.34,-0.91c0.59,-1.35 2.5,-2.36 3.79,-1.75c5.08,2.4 11.1,4.94 13.96,10.63c0.44,0.87 -0.11,2.05 -1.02,2.02c-5.12,-0.13 -9.96,-3.38 -14.72,-5.29c-1.72,-0.69 -2.85,-2.59 -2.35,-4.7z" fill="#677DA7" id="svg_161"/>
   <path d="m239.06,678.44c5,-4.86 10.08,-8.5 16.78,-10.61c7.07,-2.22 14.37,-3.97 21.79,-4.25c7.51,-0.28 15.2,0.76 22.66,1.52c3.79,0.38 7.58,0.79 11.32,1.52c3.56,0.69 8.15,1.09 11.09,3.34c1.75,1.34 1.94,4.55 -0.67,5.14c-3.18,0.72 -6.56,-0.2 -9.77,-0.53c-3.61,-0.36 -7.21,-0.73 -10.82,-1.05c-6.97,-0.62 -14.05,-1.32 -21.05,-1.25c-6.51,0.06 -12.91,1.48 -19.14,3.27c-3.02,0.86 -6.09,1.7 -8.81,3.32c-2.66,1.58 -4.89,3.73 -7.1,5.87c-4.11,3.98 -10.4,-2.29 -6.28,-6.29z" fill="#677DA7" id="svg_162"/>
   <path d="m232.27,705.68c0.41,0.37 1.53,0.97 1.89,1.1c0.44,0.15 0.81,0.19 0.95,0.19c0.6,0.01 0.86,-0.17 1.62,-0.08c1.19,0.14 2.22,0.62 2.7,1.81c0.42,1.04 0.28,2.44 -0.61,3.22c-3.41,3 -9.21,1.04 -11.25,-2.62c-1.68,-3.03 2.18,-5.87 4.7,-3.62z" fill="#677DA7" id="svg_163"/>
   <path d="m236.46,719.34c2.74,-0.59 5.28,-1.64 7.47,-3.3c1.9,-1.44 3.31,-4.18 5.68,-4.82c0.99,-0.27 2.18,0.32 2.42,1.28c0.71,2.88 -2.61,5.88 -4.81,7.6c-2.7,2.11 -5.81,3.6 -9.22,4.46c-3.62,0.9 -5.17,-4.43 -1.54,-5.22z" fill="#445F93" id="svg_164"/>
   <path d="m281.56,742.33c2.12,-1.59 4.57,-0.22 6.9,0.11c2.51,0.35 5.11,0.19 7.62,-0.09c5.26,-0.6 10.58,-3.26 15.88,-2.85c1.4,0.11 2.25,1.76 1.18,2.85c-4.14,4.2 -11.42,6.08 -17.11,6.85c-3.98,0.53 -14.52,1.16 -15.56,-4.19c-0.22,-1.16 0.19,-2.01 1.09,-2.68z" fill="#677DA7" id="svg_165"/>
   <path d="m285.19,705.83c1.96,-0.12 3.99,0.09 5.95,0.21c2.18,0.13 4.15,0.23 6.01,1.5c1.8,1.23 2.75,4.24 0.76,5.87c-3.25,2.67 -8.62,2.93 -12.71,2.5c-6.38,-0.68 -6.6,-9.69 -0.01,-10.08z" fill="#677DA7" id="svg_166"/>
   <path d="m266.51,707.44c0.83,-1.17 1.85,-2.11 3.26,-2.5c1.09,-0.3 2.31,-0.23 3.39,0.07c2.05,0.57 3.28,2.04 3.93,3.94c0.11,0.26 0.22,0.53 0.32,0.8c0.85,2.26 -1.21,4.88 -3.5,5.03c-0.84,0.31 -1.63,0.39 -2.51,0.32c0.13,0.02 0.26,0.03 0.38,0.05c-0.17,-0.02 -0.35,-0.04 -0.52,-0.07c-0.27,-0.03 -0.56,-0.07 -0.86,-0.12c0.12,0.02 0.24,0.03 0.36,0.05c-0.55,-0.08 -1.08,-0.19 -1.62,-0.42c-1.15,-0.48 -1.91,-1.25 -2.65,-2.26c-0.92,-1.27 -0.89,-3.62 0.02,-4.89z" fill="#677DA7" id="svg_167"/>
   <path d="m327.88,705.5c6.9,-0.48 14.45,0.42 21.02,2.47c3.07,0.96 2.82,6.58 -0.18,7.62c-6.48,2.24 -14.46,2.76 -21.06,1.07c-5.21,-1.34 -6.08,-10.73 0.22,-11.16z" fill="#677DA7" id="svg_168"/>
   <g id="svg_169">
    <path d="m271.08,750.78c5.13,0.78 5.38,0.8 13.75,0.89c8.64,0.11 9.33,0.18 9.33,1c0,0.55 -0.55,0.78 -3.42,1.49c-5.26,1.29 -24.32,-1.2 -25.47,-3.33c-0.46,-0.89 0.34,-0.9 5.81,-0.05z" fill="#0E2B59" id="svg_170"/>
   </g>
   <g id="svg_171">
    <path d="m219.17,708.76c0.67,-0.53 1.75,-1.53 2.38,-2.22c0.65,-0.67 1.29,-1.16 1.42,-1.07c0.78,0.47 -0.38,2.62 -2.33,4.33c-0.93,0.8 -1.33,1.02 -1.86,0.96c-1.16,-0.11 -1.01,-0.85 0.39,-2z" fill="#0E2B59" id="svg_172"/>
   </g>
   <g id="svg_173">
    <path d="m244.43,718.55c0.6,0 0.64,0.69 0.05,1.26c-0.85,0.87 -2.16,0.71 -1.8,-0.22c0.15,-0.41 1.23,-1.04 1.75,-1.04z" fill="#0E2B59" id="svg_174"/>
   </g>
   <g id="svg_175">
    <path d="m237.83,696.81c-5.31,-0.8 -7.71,5.71 -2.91,7.9c1.15,0.51 3.17,0.55 4.15,0.05c3.8,-1.88 2.94,-7.32 -1.24,-7.95zm-3.29,3.67c-0.4,-0.07 -0.76,-0.18 -0.82,-0.24c-0.38,-0.38 1.98,-1.89 2.47,-1.6c0.8,0.52 -0.6,2.06 -1.65,1.84z" fill="#0E2B59" id="svg_176"/>
   </g>
   <g id="svg_177">
    <path d="m237.74,725.71c1.44,0.07 1.44,0.07 2.22,1.71c1.64,3.42 4.97,8 7.86,10.82c5.86,5.73 18.32,11.17 20.17,8.8c0.87,-1.11 0.64,-1.78 -1.56,-4.4c-3.46,-4.11 -4.97,-8.19 -5.8,-15.68c-0.44,-3.98 -0.98,-4.75 -3.98,-5.46c-6.95,-1.64 -7,-1.66 -6.49,-2.35c3.73,-5.08 5,-11.64 3.04,-15.61c-0.64,-1.27 -1.71,-1.69 -1.46,-0.55c2.24,9.82 -5.37,20.56 -15.13,21.37c-2.82,0.26 -2.02,1.19 1.13,1.35zm17.99,-0.67c-1.8,-0.76 -4.89,-2.49 -5.11,-2.84c-0.07,-0.13 0.56,-0.02 1.42,0.2c0.84,0.24 2.33,0.6 3.31,0.8c2,0.42 2.77,0.98 2.97,2.13c0.16,0.88 0.14,0.88 -2.59,-0.29zm-14.92,0.4c0.38,-0.38 1.55,-0.47 1.66,-0.13c1.66,5 9.55,13.41 11.84,12.62c0.89,-0.31 0.07,-1.27 -3.6,-4.31c-0.95,-0.76 -2.16,-2.04 -2.71,-2.8c-0.56,-0.78 -1.86,-2.49 -2.87,-3.84l-1.87,-2.42l0.95,-0.44c0.65,-0.31 0.96,-0.36 1.02,-0.18c1.24,3.73 8.99,11.24 10.39,10.08c0.53,-0.45 0.13,-0.96 -2.15,-2.76c-3.38,-2.66 -7.64,-7.8 -7.04,-8.51c0.42,-0.51 0.53,-0.44 1.44,0.87c1.26,1.82 4.4,4.78 5.69,5.35c2.53,1.11 2.33,0.64 -1.24,-2.86c-2.62,-2.57 -4.73,-4.98 -2.8,-3.22c1.46,1.33 6.37,3.84 8.31,4.22c0.56,0.11 0.64,0.22 0.64,0.98c0,0.47 0.07,1.04 0.15,1.24c0.11,0.27 -0.02,0.35 -0.56,0.35c-0.62,0 -1.13,0.67 -0.55,0.69c0.76,0.04 1.87,2.44 1.87,4.02c0,0.04 -0.25,-0.04 -0.58,-0.16c-1.53,-0.58 -1.36,0.65 0.24,1.76c0.95,0.65 1.27,1.07 2.06,2.75c1.04,2.15 2.44,4.13 4.07,5.71c1.58,1.55 1.53,1.6 -0.78,0.73c-7.84,-2.98 -11.62,-5.26 -15.88,-9.59c-2.38,-2.38 -8.02,-9.84 -7.7,-10.15z" fill="#0E2B59" id="svg_178"/>
   </g>
   <g id="svg_179">
    <path d="m236.47,709.69c0.96,0.25 1.13,0.8 0.35,1.13c-1.15,0.47 -4.04,-0.58 -4.04,-1.49c-0.01,-0.48 0.78,-0.41 3.69,0.36z" fill="#0E2B59" id="svg_180"/>
   </g>
   <g id="svg_181">
    <path d="m233.41,724.75c0.04,0.22 -0.05,0.56 -0.2,0.75c-0.55,0.65 -3.27,-0.02 -3.13,-0.78c0.11,-0.59 3.22,-0.55 3.33,0.03z" fill="#0E2B59" id="svg_182"/>
   </g>
   <g id="svg_183">
    <path d="m229.84,706.49c0.56,0 1.33,0.62 1.33,1.07c0,0.47 -0.84,0.35 -1.35,-0.2c-0.59,-0.64 -0.59,-0.87 0.02,-0.87z" fill="#0E2B59" id="svg_184"/>
   </g>
   <g id="svg_185">
    <path d="m260.06,740.41c0,0.64 -1.33,0.53 -2.46,-0.2c-1.11,-0.71 -1.35,-1.15 -0.87,-1.62c0.64,-0.63 3.33,0.84 3.33,1.82z" fill="#0E2B59" id="svg_186"/>
   </g>
   <g id="svg_187">
    <path d="m250.62,709.76c0.33,1.67 -0.93,4.46 -3.13,7.02c-2.02,2.35 -2.67,1.51 -1,-1.27c1.36,-2.26 1.96,-3.46 2.51,-5.04c0.6,-1.69 1.38,-2.04 1.62,-0.71z" fill="#0E2B59" id="svg_188"/>
   </g>
   <g id="svg_189">
    <path d="m340.61,758c1.24,0.27 3.98,2 4.24,2.67c0.13,0.35 -2.18,-0.02 -3.27,-0.51c-1.88,-0.83 -2.64,-2.52 -0.97,-2.16z" fill="#143577" id="svg_190"/>
   </g>
   <g id="svg_191">
    <path d="m206.61,718.55c0.95,0 1.46,0.42 1.24,1c-0.2,0.47 -1.96,0.51 -2.36,0.02c-0.44,-0.53 0.11,-1.02 1.12,-1.02z" fill="#0E2B59" id="svg_192"/>
   </g>
   <g id="svg_193">
    <path d="m306.57,749.67c1.27,-0.56 4.98,-1.09 5.33,-0.75c0.58,0.58 -1.22,1.87 -3.31,2.38c-2.65,0.65 -4.25,-0.65 -2.02,-1.63z" fill="#0E2B59" id="svg_194"/>
   </g>
   <g id="svg_195">
    <path d="m298.15,751.07c1,-0.49 5.4,-0.49 5.51,0c0.07,0.4 -1.67,1.31 -3.07,1.6c-2.55,0.51 -4.37,-0.67 -2.44,-1.6z" fill="#0E2B59" id="svg_196"/>
   </g>
   <g id="svg_197">
    <path d="m240.58,694.73c-8.51,-3.89 -15.5,8.77 -7.17,12.99c1.76,0.89 4.4,1.24 6.24,0.8c6.69,-1.58 7.31,-10.86 0.93,-13.79zm-5.59,11.48c-2.36,-0.69 -3.95,-3.18 -3.58,-5.57c1,-6.29 10.21,-6.04 11.24,0.31c0.6,3.68 -3.51,6.52 -7.66,5.26z" fill="#0E2B59" id="svg_198"/>
   </g>
   <g id="svg_199">
    <path d="m287.86,668.5c-0.44,0.25 -3.27,0.29 -4.13,0.04c-1.56,-0.44 -0.02,-1.38 2.26,-1.38c1.97,0 2.96,0.71 1.87,1.34z" fill="#0E2B59" id="svg_200"/>
   </g>
   <g id="svg_201">
    <path d="m322.47,744.23c2.75,-1.02 5.97,-2.22 7.17,-2.66c1.18,-0.44 3.24,-1.35 4.57,-2.02c3.8,-1.91 6.68,-2.64 6.97,-1.76c0.45,1.38 -12.53,7.33 -20.87,9.53c-2.47,0.67 -4.4,0.65 -4.49,-0.04c-0.1,-0.56 -0.04,-0.59 6.65,-3.05z" fill="#0E2B59" id="svg_202"/>
   </g>
   <g id="svg_203">
    <path d="m293.09,745.07c0.22,-0.56 0.73,-0.71 6.09,-1.71c6.37,-1.18 7.11,-1.27 7.57,-0.82c0.96,0.96 -1.84,2.33 -6.51,3.18c-3.8,0.7 -7.53,0.35 -7.15,-0.65z" fill="#0E2B59" id="svg_204"/>
   </g>
   <g id="svg_205">
    <path d="m324.95,675.67c-11.48,-3.82 -16.37,-5 -24.76,-6c-8.44,-1.02 -8.99,-1.13 -8.99,-1.93c0,-1.15 3.02,-1.31 8.95,-0.49c10.31,1.46 12.48,2 22.78,5.75c6.48,2.36 8.53,3.37 8.53,4.2c0,0.47 -1.69,0.07 -6.51,-1.53z" fill="#0E2B59" id="svg_206"/>
   </g>
   <g id="svg_207">
    <path d="m318.38,741.96c5.13,-1.96 7.13,-0.67 2.53,1.64c-6.82,3.44 -17.24,5.78 -28.34,6.4c-7.48,0.42 -15.83,-0.64 -15.64,-1.98c0.07,-0.45 0.16,-0.47 2,-0.36c15.26,0.88 26.53,-0.74 39.45,-5.7z" fill="#0E2B59" id="svg_208"/>
   </g>
   <g id="svg_209">
    <path d="m276.09,669.41c-12.17,1.84 -20.3,4.22 -28.16,8.31c-3,1.55 -3.46,1.66 -3.87,0.95c-1.66,-2.75 19.88,-10.26 31.54,-10.99c4.36,-0.27 4.74,1.08 0.49,1.73z" fill="#0E2B59" id="svg_210"/>
   </g>
   <g id="svg_211">
    <path d="m356,762.91l-0.31,0.09c-1.31,0.38 -1.38,0.38 -2.73,-0.07c-1.91,-0.66 -5.66,-1.64 -6.24,-1.64c-1.15,0 0.2,1.26 2.13,1.98c2.26,0.87 2.11,0.78 1.47,0.98c-0.8,0.25 -2.22,0.07 -5.11,-0.69c-5.88,-1.55 -22.85,-11 -22.85,-12.73c0,-1.04 3.29,-0.85 4.48,0.24c2.4,2.2 8.46,5.67 9.91,5.67c0.89,0 0.22,-0.84 -1.66,-2.07c-1.07,-0.71 -3.31,-2.18 -5,-3.29l-3.06,-2.02l1.75,-0.53l1.75,-0.53l1.55,1.24c1.69,1.35 4.53,3.22 6.98,4.58c0.89,0.47 3,1.71 4.69,2.73c3.29,1.98 6.69,3.53 10.77,4.89l1.48,0.5l0,-2.16c-6.99,-2.01 -14.12,-5.48 -21.01,-10.25l-2.91,-2.04l1.33,-0.49c1.35,-0.51 1.35,-0.51 2.18,0.24c4.03,3.62 12.79,8.08 20.41,10.59l0,-1.99c-5.95,-1.96 -12.37,-4.95 -17.43,-8.24c-2.69,-1.73 -2.6,-1.62 -1.47,-2.09c0.82,-0.35 0.91,-0.35 1.4,0.05c2.34,1.91 13.67,6.83 17.5,7.65l0,-1.97c-0.79,-0.28 -1.68,-0.56 -2.69,-0.84c-2.91,-0.8 -6.6,-2.26 -10.62,-4.2l-3.38,-1.62l1.67,-0.86c1.67,-0.86 1.67,-0.86 2.38,-0.2c1.5,1.37 7.04,3.7 12.64,5.52l0,-1.65c-3.07,-1 -6.29,-2.3 -10.28,-4.07c-2.33,-1.04 -2.29,-0.95 -0.82,-1.71c1.11,-0.6 1.2,-0.6 1.86,-0.27c2.07,1.08 5.41,2.17 9.24,3.15l0,-1.69c-3.35,-0.81 -6.39,-1.67 -8.39,-2.41c-0.2,-0.07 0.27,-0.47 1.25,-1.04c1.22,-0.71 1.66,-0.87 1.91,-0.67c0.97,0.69 2.91,1.46 5.22,2.17l0,-1.68c-2.39,-0.66 -4.31,-1.27 -4.31,-1.4c0,-0.33 2.38,-1.55 2.62,-1.35c0.2,0.17 0.82,0.39 1.69,0.64l0,-1.19c-0.55,-0.09 -0.91,-0.14 -0.97,-0.14c-0.14,0 0.3,-0.34 0.97,-0.75l0,-3.35c-1.65,1.02 -3.57,2.16 -6.06,3.61c-11.26,6.58 -15.08,8.42 -22.05,10.6c-2.22,0.71 -7.5,2.4 -11.68,3.76c-9.2,3 -9.97,3.18 -17.17,4.22c-9.93,1.44 -15.15,1.75 -20.68,1.24c-14.88,-1.38 -25.34,-6.8 -41.08,-21.28c-7.48,-6.89 -9.5,-7.91 -18.61,-9.42c-2.33,-0.38 -5.08,-0.89 -6.15,-1.13c-1.06,-0.24 -2.71,-0.58 -3.66,-0.76c-2.87,-0.54 -4.02,-1.16 -4.31,-2.27c-0.35,-1.4 -0.47,-1.56 -1.95,-2.35c-2.58,-1.4 -2.44,-1.67 1,-2.02c9.55,-0.91 16.28,-7.19 27.3,-25.45c5.51,-9.15 11.62,-14.92 19.21,-18.19c8.19,-3.53 16.7,-5.89 24.03,-6.69c1.18,-0.13 3.78,-0.42 5.78,-0.64c11.39,-1.22 29.03,0.47 39.93,3.82c8.22,2.53 21.76,8.53 33.84,14.97c0.86,0.46 1.61,0.86 2.29,1.23l0,-2.74c-0.61,-0.28 -1.28,-0.67 -1.77,-1.05c-0.16,-0.11 0.34,-0.33 1.77,-0.72l0,-1.48c-0.43,0.15 -0.87,0.3 -1.29,0.46c-2.29,0.86 -2.04,0.87 -4.64,-0.47c-2.42,-1.27 -2.51,-1.44 -1.06,-1.66c0.53,-0.09 3.58,-0.76 6.77,-1.49c0.08,-0.02 0.14,-0.03 0.22,-0.05l0,-1.62c-2.43,0.64 -5.1,1.37 -8.06,2.2c-1.82,0.51 -1.82,0.51 -3.38,-0.26c-0.86,-0.42 -1.82,-0.87 -2.15,-1c-0.71,-0.28 6.87,-2.35 13.59,-3.89l0,-2.01c-1.13,0.27 -2.2,0.54 -3.15,0.82c-1.46,0.42 -3.89,1.13 -5.44,1.56c-1.53,0.45 -3.78,1.2 -5,1.67l-2.2,0.85l-1.89,-0.78c-1.49,-0.62 -1.82,-0.82 -1.51,-1c3.45,-1.93 11.79,-4.09 19.19,-5.38l0,-1.95c-7.42,1.3 -16.07,3.95 -20.12,6.36c-1.04,0.62 -0.8,0.65 -3.24,-0.46c-2.31,-1.05 -2.31,-1.04 0.13,-1.65c7.62,-1.98 17.34,-4.86 18.21,-5.42c3.77,-2.42 -15.43,2.38 -21.08,5.26c-0.53,0.27 -5.26,-1.49 -5.26,-1.95c0,-0.07 1.09,-0.42 2.44,-0.76c1.35,-0.35 4.22,-1.13 6.38,-1.73c6.64,-1.86 12.99,-3.09 18.46,-3.62c1.44,-0.13 2.91,-0.29 3.29,-0.34c0.21,-0.04 0.49,-0.02 0.78,0.04l0,-3.2c-2.3,-0.92 -4.42,-1.73 -6.24,-2.37c-2.51,-0.87 -6.75,-2.36 -9.44,-3.33c-21.81,-7.69 -33.31,-6.69 -50.5,4.44c-4.73,3.06 -11.86,5.69 -18.14,6.71c-21.67,3.51 -33.98,10.93 -42.73,25.8c-6.64,11.26 -8.22,13.68 -11.24,17.06c-5.06,5.66 -9.19,8.04 -14.64,8.4c-3.35,0.22 -3.95,0.55 -3.95,2.09c0,1.07 0.98,2.26 2.53,3.04c0.98,0.49 1.11,0.64 1.11,1.31c0,2.07 4.38,3.93 12.28,5.17c1.56,0.24 3.86,0.6 5.11,0.8c6.46,1.04 9.33,2.71 16.54,9.6c19.57,18.77 35.25,24.14 60.12,20.54c1.95,-0.29 2.89,-0.33 3.29,-0.16c0.29,0.13 2,0.87 3.78,1.66c8.6,3.8 21.14,8.37 26.21,9.53c2.73,0.62 6.79,0.86 9.71,0.55c5.53,-0.58 11.02,-1.67 16.19,-3.14l0,-2.51l0.05,0zm-6.42,-104.47c2.04,0.69 2.04,0.69 -0.76,1.09c-6.97,0.98 -19.74,4.48 -24.72,6.73c-1.2,0.55 -1.4,0.55 -3.13,-0.11l-1.46,-0.55l1.36,-0.6c11.04,-4.9 24.47,-7.98 28.71,-6.56zm-15.65,-4.14c-2.02,0.51 -5,1.55 -6.4,2.18c-0.36,0.16 -0.62,0.47 -0.62,0.73c0,0.53 0.49,0.47 4.77,-0.53c7.44,-1.75 8.1,-1.82 10.11,-1.06l1.82,0.71l-2.95,0.51c-6.09,1.06 -13.52,3.66 -20.25,7.08c-2.58,1.33 -2.51,1.31 -4.73,0.84c-2.36,-0.53 -2.36,-0.51 -1.76,-0.95c0.29,-0.2 1.87,-0.95 3.51,-1.66c5.37,-2.33 6.44,-3 5.6,-3.53c-0.82,-0.51 -6.2,1.58 -10.55,4.07c-1.66,0.96 -4.88,1.09 -5.77,0.26c-0.04,-0.04 0.71,-0.4 1.66,-0.78c0.95,-0.4 3.89,-1.75 6.53,-3c7.19,-3.4 12.52,-5.09 17.86,-5.66c3.97,-0.41 4.48,-0.09 1.17,0.79zm-5.07,-2.93c1.04,0.2 1,0.22 -1.51,0.89c-4.82,1.27 -7.75,2.49 -18.14,7.57l-5.53,2.69l-2.2,-0.29c-1.22,-0.18 -2.29,-0.33 -2.38,-0.36c-0.11,-0.04 0.91,-0.51 2.27,-1.06c1.35,-0.55 4.35,-1.89 6.68,-3c9.15,-4.33 17.79,-7.01 20.81,-6.44zm-8.55,-1.17l1.93,-0.11l-3.64,1.22c-4.17,1.4 -5.98,2.22 -15.57,6.95c-3.82,1.89 -7.08,3.38 -7.24,3.31c-0.16,-0.05 -0.95,-0.11 -1.76,-0.11c-0.82,0 -1.46,-0.09 -1.46,-0.22s0.13,-0.24 0.27,-0.24c0.15,0 3.38,-1.56 7.22,-3.49c10.02,-5.03 15.54,-7.03 20.25,-7.31zm-34.22,10.66c0.62,-0.31 2.6,-1.46 4.38,-2.51c6.6,-3.95 15.04,-7.29 20.52,-8.15c1.38,-0.22 1.16,-0.05 -1.36,0.93c-2.55,1 -7.93,3.66 -11.57,5.71c-7.13,4.06 -8.17,4.44 -12.32,4.58c-0.8,0.02 -0.8,0.02 0.35,-0.56zm22.08,97.38c-2.27,-0.93 -4.44,-1.76 -4.8,-1.86c-0.86,-0.22 -0.51,-0.35 2.46,-0.91c2.24,-0.42 2.24,-0.42 2.82,0.38c0.33,0.42 1.35,1.51 2.29,2.42c0.93,0.91 1.62,1.66 1.53,1.66c-0.08,0 -2,-0.76 -4.3,-1.69zm9.19,2.67c-3.11,-2.06 -7.73,-5.78 -7.73,-6.22c0,-0.87 2.76,-0.76 3.67,0.16c1.27,1.31 7.44,6.55 9.06,7.68c0.67,0.49 1.35,0.96 1.46,1.07c0.89,0.79 -4.82,-1.59 -6.46,-2.69zm17.88,5.28c-2.24,-0.11 -2.24,-0.11 -5.8,-1.95c-5.46,-2.82 -16.19,-10.5 -15.33,-10.97c1.6,-0.87 2.26,-0.71 4.24,1.04c5.15,4.58 13.28,9.86 17.66,11.46l1.47,0.53l-2.24,-0.11zm5.68,-1.04c-5.64,-1.42 -10.53,-4.02 -19.68,-10.46c-3.98,-2.78 -3.8,-2.51 -1.95,-3.04c1.47,-0.42 1.47,-0.42 2.78,0.84c4.49,4.35 15.35,10.68 21.37,12.46c2.39,0.69 0.19,0.88 -2.52,0.2z" fill="#0E2B59" id="svg_212"/>
   </g>
   <g id="svg_213">
    <path d="m349.1,733.23c0.25,0.65 -1.95,2.37 -3.84,2.95c-1.44,0.45 -1.98,0.35 -1.98,-0.36c0,-1.12 5.46,-3.56 5.82,-2.59z" fill="#0E2B59" id="svg_214"/>
   </g>
   <g id="svg_215">
    <path d="m351.31,685.71c2.33,1.18 3.26,2.22 2.66,2.95c-0.58,0.69 -2.15,0.04 -4.06,-1.71c-1.92,-1.75 -1.08,-2.48 1.4,-1.24z" fill="#143577" id="svg_216"/>
   </g>
  </g>
  <image height="83" id="svg_3" overflow="visible" preserveAspectRatio="none" transform="matrix(1 0 0 1 0 0)" width="300" x="28" xlink:href="701525CD.png" y="55.15"/>
  <text fill="#D40000" font-family="&#x27;KimjungchulMyungjo-Bold&#x27;" font-size="23" id="svg_18" x="240.13" y="607.23">25,000</text>
  <text fill="#D40000" font-family="&#x27;KimjungchulMyungjo-Bold&#x27;" font-size="23" id="svg_17" transform="matrix(1,0,0,1,0,0)" x="240.02" y="553.01">25,000</text>
  <text fill="#D40000" font-family="&#x27;KimjungchulMyungjo-Bold&#x27;" font-size="23" id="svg_16" transform="matrix(1,0,0,1,0,0)" x="240.02" y="498.78">25,000</text>
  <text fill="#D40000" font-family="&#x27;KimjungchulMyungjo-Bold&#x27;" font-size="23" id="svg_15" transform="matrix(1,0,0,1,0,0)" x="240.02" y="444.46">25,000</text>
  <text fill="#D40000" font-family="&#x27;KimjungchulMyungjo-Bold&#x27;" font-size="23" id="svg_14" transform="matrix(1,0,0,1,0,0)" x="240.02" y="390.14">25,000</text>
  <text fill="#D40000" font-family="&#x27;KimjungchulMyungjo-Bold&#x27;" font-size="23" id="svg_13" transform="matrix(1,0,0,1,0,0)" x="240.02" y="335.81">25,000</text>
  <text fill="#D40000" font-family="&#x27;KimjungchulMyungjo-Bold&#x27;" font-size="23" id="svg_12" transform="matrix(1,0,0,1,0,0)" x="240.02" y="281.49">25,000</text>
  <text fill="#2A3680" font-family="&#x27;KimjungchulMyungjo-Bold&#x27;" font-size="27" id="svg_11" transform="matrix(1,0,0,1,0,0)" x="40.76" y="607.23"></text>
  <text fill="#2A3680" font-family="&#x27;KimjungchulMyungjo-Bold&#x27;" font-size="27" id="svg_10" transform="matrix(1,0,0,1,0,0)" x="40.65" y="553.01"></text>
  <text fill="#2A3680" font-family="&#x27;KimjungchulMyungjo-Bold&#x27;" font-size="27" id="svg_9" transform="matrix(1,0,0,1,0,0)" x="40.65" y="498.78"></text>
  <text fill="#2A3680" font-family="&#x27;KimjungchulMyungjo-Bold&#x27;" font-size="27" id="svg_8" transform="matrix(1,0,0,1,0,0)" x="40.65" y="444.46"></text>
  <text fill="#2A3680" font-family="&#x27;KimjungchulMyungjo-Bold&#x27;" font-size="27" id="svg_7" transform="matrix(1,0,0,1,0,0)" x="40.65" y="390.14"></text>
  <text fill="#2A3680" font-family="&#x27;KimjungchulMyungjo-Bold&#x27;" font-size="27" id="svg_6" transform="matrix(1,0,0,1,0,0)" x="40.65" y="335.81"></text>
  <text fill="#2A3680" font-family="&#x27;KimjungchulMyungjo-Bold&#x27;" font-size="27" id="svg_5" transform="matrix(1,0,0,1,0,0)" x="40.65" y="281.49"></text>
  <text fill="#2A3680" font-family="&#x27;Shilla_CultureB-Bold&#x27;" font-size="39" id="svg_4" transform="matrix(1 0 0 1 0 0) matrix(1 0 0 1 0 0)" x="113.34" y="107.46"></text>
 </g>
</svg>