<?xml version="1.0"?>
<svg width="1820" height="118" xmlns="http://www.w3.org/2000/svg" xmlns:svg="http://www.w3.org/2000/svg" enable-background="new 0 0 1820 118" version="1.1" xml:space="preserve">
 <g class="layer">
  <title>Layer 1</title>
  <rect fill="#77BC53" height="118" id="배경1" transform="matrix(1 0 0 1 0 0) matrix(1 0 0 1 0 0)" width="1820"/>
  <g id="배경3" transform="matrix(1 0 0 1 0 0)">
   <polygon fill="#CB5728" id="svg_1" points="118,0 0,0 0,118 	"/>
   <polygon fill="#CB5728" id="svg_2" points="1702,118 1820,118 1820,0 	"/>
  </g>
  <g id="배경2" transform="matrix(1 0 0 1 0 0)">
   <polygon fill="#565C57" id="svg_3" points="0,117.999 0,0 148.654,117.999 	"/>
   <g id="svg_4">
    <polygon fill="#565C57" id="svg_5" points="1820,0.001 1820,118 1671.346,0.001 		"/>
   </g>
  </g>
  <text fill="#FFFFFF" font-family="&#x27;ELANDNiceM&#x27;" font-size="72" id="_x32_0자" transform="matrix(1 0 0 1 0 0)" x="662.92" y="82.99">소문난 식당</text>
  <text fill="#D8EAC8" font-family="&#x27;BMJUA&#x27;" font-size="52" id="_x31_0자" transform="matrix(1 0 0 1 0 0)" x="1032.92" y="82.99">서울본점</text>
  <g id="아이콘">
   <path d="m606.06,69.35c0.08,-2.21 -1.37,-4.92 -2.92,-6.71c0.47,-1.29 0.84,-2.35 1.24,-3.57c-0.56,-0.35 -0.58,0.26 -0.79,0.19c-0.86,-0.29 -0.78,-1.63 -1,-1.94c-0.44,-0.62 -1.73,-1.22 -1.73,-1.22c-0.7,-0.01 -1.43,-0.08 -2.15,-0.16l-0.46,-6.32c-2.15,-9.83 -11.29,-15.15 -20.86,-18.7c0.25,0.04 0.52,0.07 0.78,0.1c0.37,0.06 1.22,-0.4 1.56,-0.34c0.61,0.09 0.73,0.65 1.28,0.77c0.83,0.17 2.45,1.3 3.34,1.53c5.39,1.38 7.3,6.08 12.54,7.76c2.99,0.96 -0.12,-0.85 2.83,-0.36c0.21,0.04 -3.41,-2.15 -3.9,-2.58c-3.98,-3.49 4.57,0 0.51,-2.06c-2.78,-1.41 0.48,-1.32 -1.92,-2.56c-0.63,-0.32 -1.74,0.24 -2.38,0.01c-0.22,-0.07 -1.15,-2.81 -2,-3.24l-0.34,0.6c-0.7,-0.21 0.41,-0.36 -0.27,-0.73c-0.06,-0.05 -0.46,0.43 -0.56,0.39c-0.68,-0.25 -1.47,-1.12 -1.93,-1.42l-0.34,0.61c-0.91,-0.41 -1.33,-1.36 -2.14,-1.63c-0.3,-0.1 -0.72,0.48 -0.95,0.47c-0.52,-0.03 -0.7,-0.66 -1.27,-0.77l-0.35,0.61c-0.62,-0.24 -0.17,-0.54 -0.48,-0.95l-0.14,0.03c-0.11,0.04 -0.21,0.07 -0.25,0.06l0.25,-0.06c0.42,-0.15 1.04,-0.56 0.26,-0.84c-0.42,-0.17 -1.2,0.46 -1.57,0.34c-0.3,-0.1 -0.32,-0.63 -0.65,-0.64c-0.14,0 -0.55,0.73 -0.74,0.69c-0.81,-0.15 -1.41,-1.09 -1.71,-1.2c-0.19,-0.09 -1.05,0.31 -1.17,0.26c-0.29,-0.12 -0.56,-0.8 -0.88,-0.85c0,-0.01 -0.04,1.04 -0.52,0.9c-0.38,-0.12 0.06,-0.59 -0.48,-0.95l-2.05,-0.6c-0.51,-0.08 -1.46,0.48 -1.97,0.44c-0.32,-0.04 -0.33,-0.53 -0.65,-0.65c-0.45,-0.15 -1.7,0.28 -2.19,0.23c-1.4,-0.18 -2.5,-0.63 -3.9,-0.99l-0.35,0.61c-0.99,-0.11 -1.82,-0.86 -2.9,-0.94l-0.35,0.6c-0.58,-0.15 -1.1,-0.71 -1.67,-0.68c-0.18,0 -0.6,0.68 -0.75,0.68c-0.98,0 -1.69,-0.83 -2.68,-0.72c-0.32,0.04 -0.79,0.81 -1.15,0.78c-0.37,-0.03 -0.69,-0.59 -1.05,-0.57c-0.68,0.05 -1.73,1.11 -2.36,1.05c-0.37,-0.03 -0.74,-0.25 -1.06,-0.57c-0.68,-0.72 1.9,-0.83 0.5,-1.42c-0.7,-0.31 -2.01,0.52 -2.79,0.62c0,0 0.61,0.33 0.04,0.51c-1.14,0.37 -2.03,-0.15 -3.42,0.49c-0.2,0.1 -0.8,-0.05 -1.02,-0.05c-0.03,0.23 -0.59,1.4 -0.09,1.35l-0.37,0.61c-0.43,0.02 -1.25,0.42 -1.6,0.36c-0.47,-0.1 -0.35,-0.7 -0.49,-0.97c-0.43,0.09 -1.61,0.25 -2.01,0.45c-0.52,0.28 -1.15,1.32 -1.13,1.31c-0.06,0.1 -0.12,0.21 -0.18,0.31c-0.02,0.01 -0.77,-0.36 -0.85,-0.35c-0.37,0.07 -0.72,1.03 -1.13,1.31c-0.75,0.53 -2.19,0.77 -2.98,1.46c-1.57,1.39 -2.4,2.54 -3.85,4.06c-0.28,-0.85 -0.28,0.63 -0.37,0.61c-0.05,0 -0.64,-0.12 -0.64,-0.12c-0.59,0.75 -1.48,2.15 -1.86,3.11c-0.02,0.07 0.57,0.11 0.62,0.13c-0.31,0.52 -0.54,1.1 -0.93,1.55c-0.06,0.08 -0.96,-0.1 -1.04,-0.04c-1.58,1.4 -2.32,4.63 -2.95,6.09c-1.65,3.84 -3.02,7.26 -3.32,10.88c-0.05,0.56 0.38,1.27 0.32,1.85c-0.19,1.9 -0.85,3.62 -0.74,5.43c0.1,1.55 0.71,2.96 0.9,4.51c0.26,2 0.09,4.34 0.58,6.3c0.44,1.69 1.36,2.64 1.75,4.36c0.01,0.02 -0.16,0.88 -0.16,0.88c0.93,2.9 2,4.53 3.22,7.44c0.09,0.21 0.06,1.55 0.1,1.68c0.34,0.81 0.97,1.88 1.2,2.28c4.38,7.42 10.59,10.78 16.27,13.76c1.7,0.88 2.74,1.87 4.43,2.35c0.86,0.24 2.15,-0.27 2.96,-0.17c0.37,0.03 0.36,0.57 0.7,0.69c0.1,0.03 1.07,-0.34 1.25,-0.32c1.13,0.16 1.93,0.84 3.04,0.96c1.88,0.2 4.08,-0.43 5.9,-0.34c1.86,0.08 3.31,0.57 5.11,0.42c1.95,-0.15 4.06,-1.1 6,-1.23c0.77,-0.06 2.85,0.58 3.38,0.28c0.34,-0.2 -0.17,-0.67 0.31,-1.24c0,0 0.89,-0.48 1,-0.54c1.14,-0.64 2.74,-0.27 3.91,-0.71c1.48,-0.56 2.53,-1.35 3.98,-2.16c0.07,-0.04 0.56,0.19 0.63,0.12c0.73,-0.67 1.18,-2 2,-3.09c1.64,-2.18 4.45,-4.78 6.21,-6.41c0.58,0.43 1.67,0.56 2.23,1.7c0.07,0.15 -0.1,0.79 0.1,1.11c-0.05,-0.49 0.33,-1.21 0.25,-1.76c-0.06,-0.41 -0.6,-1.14 -0.57,-1.56c0.1,-0.95 0.62,-1.26 0.82,-2.19c-0.55,0.24 -0.06,-0.55 -0.06,-0.55c0.74,-0.29 1.69,-0.21 2.4,-0.6c3.66,-2 9.61,-15.09 9.78,-19.7l0,0l0,0z" fill="#EF472F" id="svg_6"/>
   <g id="svg_7">
    <path d="m532.49,69.59c0.3,-0.02 0.5,-0.34 0.65,-0.51c0.4,-0.44 0.93,-0.78 1.35,-1.19c0.04,-0.01 0.08,-0.02 0.13,-0.02c0.1,-0.06 0.18,-0.2 0.27,-0.28c0.18,-0.14 0.36,-0.25 0.55,-0.38c0.17,-0.12 0.3,-0.35 0.46,-0.48c0.07,-0.02 0.13,-0.04 0.19,-0.06c0.23,-0.18 0.49,-0.37 0.71,-0.57c0.04,-0.04 0.04,-0.12 0.09,-0.17c0.08,-0.03 0.16,-0.06 0.24,-0.09c0,-0.04 0,-0.08 0,-0.12c0.09,-0.03 0.17,-0.05 0.25,-0.08c0.15,-0.12 0.33,-0.24 0.49,-0.37c0.1,-0.08 0.15,-0.22 0.25,-0.31c0.09,-0.03 0.18,-0.07 0.27,-0.1c0.04,-0.07 0.08,-0.15 0.13,-0.22c0.05,0 0.1,-0.01 0.15,-0.01c0.28,-0.17 0.5,-0.43 0.74,-0.65c0.06,-0.01 0.12,-0.02 0.18,-0.03c0.35,-0.28 0.69,-0.61 1.11,-0.83c-0.01,-0.04 -0.02,-0.07 -0.03,-0.11c0.25,0.03 0.7,-0.38 0.89,-0.52c0.51,-0.39 1.08,-0.78 1.63,-1.09c0.15,-0.09 0.27,-0.31 0.36,-0.37c0.07,-0.06 0.19,-0.03 0.28,-0.09c0.06,-0.04 0.05,-0.1 0.09,-0.17c0.04,0.01 0.08,0.01 0.13,0.02c0.03,-0.04 0.06,-0.08 0.09,-0.13c0.17,-0.1 0.35,-0.14 0.49,-0.27c0.07,-0.06 0.17,-0.22 0.25,-0.26c0.04,0 0.08,0.01 0.12,0.01c0.02,-0.05 0.04,-0.1 0.06,-0.15c0.2,-0.03 1.02,-0.5 1.04,-0.63c0.29,-0.02 0.73,-0.47 0.93,-0.63c0.11,-0.1 0.27,-0.1 0.39,-0.18c0.09,-0.06 0.14,-0.21 0.22,-0.27c0.09,-0.06 0.19,-0.04 0.24,-0.12c0.08,-0.11 0.02,-0.25 0.07,-0.4c0.07,-0.21 0.09,-0.5 0.12,-0.75c0.02,-0.16 -0.05,-0.56 0.03,-0.77c0.25,-0.7 0.24,-1.98 0.65,-2.76c0.01,-0.03 -0.04,-0.17 0,-0.27c0.02,-0.07 0.09,-0.2 0.12,-0.27c-0.01,-0.05 -0.02,-0.1 -0.03,-0.15c0.22,-0.57 0.66,-1.45 0.64,-2.11c0.3,-0.1 0.37,-0.8 0.52,-1.07c0.52,-0.92 0.96,-1.87 1.45,-2.82c0.18,-0.35 0.56,-0.62 0.58,-1.07c0.26,-0.08 0.46,-0.63 0.59,-0.88c0.12,-0.25 0.43,-0.58 0.61,-0.81c0.02,-0.08 0.04,-0.16 0.06,-0.25c0.06,-0.02 0.12,-0.05 0.19,-0.07c0,-0.05 0,-0.09 0,-0.14c0.06,-0.03 0.12,-0.07 0.18,-0.11c0.13,-0.17 0.16,-0.32 0.25,-0.55c0.08,0 0.09,0.01 0.12,-0.05c0.15,-0.13 0.14,-0.27 0.25,-0.46c0.06,-0.04 0.12,-0.09 0.18,-0.14c0.08,-0.08 0.01,-0.12 0.06,-0.19c0.11,-0.09 0.23,-0.17 0.34,-0.25c0.06,-0.07 0.01,-0.18 0.06,-0.26c0.06,-0.04 0.12,-0.08 0.19,-0.12c0,-0.05 0,-0.09 0,-0.13c0,-0.01 0.31,-0.36 0.33,-0.38c0.04,-0.01 0.09,-0.01 0.13,-0.02c0,0 0.01,-0.11 0.03,-0.14c0.06,-0.04 0.12,-0.08 0.18,-0.12c0.12,-0.16 0.27,-0.36 0.34,-0.55c0.32,-0.02 0.68,-0.69 0.86,-0.91c0.08,-0.1 0.25,-0.17 0.34,-0.27c0.07,-0.09 0.07,-0.17 0.18,-0.22c-0.03,-0.05 -0.05,-0.05 -0.03,-0.08c0.02,-0.04 0.65,-0.63 0.71,-0.66c0,-0.04 0,-0.09 0,-0.13c0.05,0 0.1,0 0.15,0c0,-0.03 0,-0.06 0,-0.08c0.24,-0.14 0.4,-0.36 0.62,-0.49c0.31,-0.2 0.56,-0.27 0.79,-0.54c0.28,0 0.35,0.02 0.53,-0.02c0.05,0.1 0.34,0.48 0.43,0.54c0.09,0.07 0.18,0.04 0.24,0.14c0.09,0.14 0.11,0.3 0.23,0.4c0.05,0.01 0.1,0.01 0.14,0.01c0.06,0.14 0.21,0.34 0.12,0.45c-0.03,0.07 -0.06,0.09 -0.06,0.21c0.1,0.08 0.01,0.1 0.03,0.19c0.01,0.05 0.11,0.32 0.16,0.35c-0.01,0.02 -0.03,0.04 -0.03,0.06c0.02,0.13 0.04,0.25 0.06,0.37c-0.02,0.04 -0.09,0.16 -0.12,0.19c0,0 0.04,0.19 0.02,0.23c-0.08,0.25 -0.09,0.42 -0.21,0.64c-0.01,0.03 0.03,0.15 -0.03,0.2c-0.13,0.17 -0.31,0.24 -0.28,0.51c-0.28,0.16 -0.46,0.85 -0.64,1.15c-0.06,0.05 -0.13,0.09 -0.19,0.14c-0.13,0.2 -0.02,0.39 -0.27,0.48c0,0.15 0.06,0.27 -0.03,0.35c-0.07,0.02 -0.1,0.01 -0.16,0.05c-0.13,0.12 -0.1,0.23 -0.18,0.41c-0.12,0.15 -0.25,0.3 -0.37,0.45c-0.04,0.11 -0.08,0.23 -0.12,0.35c-0.04,0.02 -0.08,0.03 -0.13,0.05c-0.01,0.05 -0.02,0.1 -0.03,0.15c-0.08,0.1 -0.16,0.19 -0.24,0.29c-0.07,0.14 -0.05,0.26 -0.12,0.38c-0.11,0.18 -0.33,0.37 -0.47,0.53c-0.03,0.08 -0.06,0.17 -0.09,0.26c-0.08,0.11 -0.24,0.2 -0.31,0.34c0,0.07 -0.02,0.14 -0.02,0.21c-0.04,0.01 -0.07,0.01 -0.1,0.02c-0.14,0.16 -0.21,0.37 -0.34,0.55c-0.06,0.04 -0.12,0.08 -0.18,0.12c-0.03,0.05 0,0.17 0,0.17c-0.05,0.09 -0.68,0.85 -0.74,0.88c0.02,0.04 0.03,0.09 0.05,0.14c0.07,-0.02 0.45,-0.12 0.47,-0.11c0.04,0.01 0.05,0.08 0.13,0.06c0.04,-0.03 0.08,-0.07 0.12,-0.11c0.06,0.01 0.12,0.03 0.19,0.03c0.15,0.03 0.22,-0.05 0.3,-0.07c0.15,0 0.29,0.01 0.43,0.01c0.04,-0.03 0.09,-0.06 0.13,-0.09c0.15,-0.05 0.13,0.1 0.27,0.08c0.37,-0.07 0.88,-0.06 1.29,-0.16c0.13,-0.03 0.24,0.13 0.4,0.1c0.07,-0.02 0.26,-0.1 0.34,-0.11c0.11,0.03 0.23,0.06 0.34,0.09c0.08,-0.02 0.16,-0.05 0.24,-0.07c0.15,-0.02 0.44,0.13 0.62,0.04c0.05,-0.02 0.04,-0.08 0.12,-0.1c0.04,0.09 0.07,0.13 0.2,0.13c0.13,-0.08 0.22,-0.05 0.38,0c0.15,0.05 0.18,-0.07 0.3,-0.06c0.28,0.04 0.62,0.06 0.9,0c0.11,0.01 0.23,0.02 0.34,0.03c0.14,-0.03 0.32,0 0.43,0c0.11,0 0.3,-0.09 0.46,-0.04c0.04,0.03 0.08,0.06 0.13,0.09c0.14,0.03 0.24,-0.1 0.33,-0.09c0.1,0.01 0.34,0.09 0.43,0.12c0.15,0.04 0.46,-0.07 0.59,-0.02c0.08,0.03 0.55,0.13 0.61,0.13c0.09,-0.03 0.18,-0.04 0.28,-0.07c0.09,0.04 0.18,0.09 0.27,0.13c0.26,0.04 0.52,0.08 0.77,0.12c0.05,0.21 0.28,0.26 0.4,0.4c0.08,0.09 0.06,0.19 0.12,0.31c0.06,0.07 0.13,0.15 0.19,0.23c-0.05,0.06 -0.01,0.16 0,0.21c0.04,0.31 -0.27,0.42 -0.49,0.51c-0.13,0.05 -0.08,0.21 -0.23,0.23c-0.05,-0.03 -0.05,-0.03 -0.11,-0.05c-0.05,0.05 -0.38,0.29 -0.4,0.32c-0.04,0.08 0.01,0.11 -0.05,0.16c-0.3,-0.13 -0.31,0.2 -0.59,0.2c-0.56,0 -0.91,0.12 -1.39,0.2c-0.2,0.03 -0.6,-0.07 -0.83,0.03c-0.34,0.14 -0.66,0.18 -0.98,0.18c-0.1,0 -0.16,0.17 -0.25,0.14c-0.02,-0.01 -0.12,-0.11 -0.16,-0.14c-0.09,0.04 -0.18,0.07 -0.27,0.11c-0.11,0.01 -0.21,-0.03 -0.3,0.01c-0.11,0.05 -0.57,-0.06 -0.71,-0.03c-0.39,0.09 -0.71,0.12 -1.04,0.19c-0.12,-0.01 -0.23,-0.02 -0.34,-0.03c-0.13,0.03 -0.22,0.09 -0.43,0.09c0,0.03 0,0.05 0,0.08c-0.01,0 -0.02,0.01 -0.03,0.01c-0.15,0.02 -0.19,-0.13 -0.37,-0.09c-0.39,0.09 -0.96,0.19 -1.35,0.28c-0.09,-0.02 -0.17,-0.03 -0.25,-0.05c-0.1,-0.01 -0.13,0.07 -0.18,0.09c-0.13,0 -0.25,-0.01 -0.37,-0.01c-0.08,0.03 -0.17,0.07 -0.25,0.1c-0.09,0.02 -0.34,-0.11 -0.46,-0.07c-0.12,0.04 -0.52,0.24 -0.67,0.18c-0.14,-0.05 -0.35,-0.11 -0.56,-0.08c-0.25,0.04 -0.55,0.11 -0.77,0.17c-0.08,-0.02 -0.16,-0.05 -0.24,-0.07c-0.22,0.03 -0.43,0.07 -0.65,0.1c-0.12,0 -0.24,0 -0.37,-0.01c-0.32,0.05 -0.52,0.01 -0.89,0.03c-0.02,-0.07 -0.05,-0.09 -0.11,-0.12c-0.01,0 -0.03,0 -0.04,0c-0.02,0.03 0,0.01 -0.03,0.03c0.01,0.04 0.02,0.08 0.03,0.12c-0.21,0.06 -0.24,0.37 -0.28,0.4c-0.03,0.03 -0.07,0.03 -0.12,0.05c0,0.29 -0.38,0.79 -0.49,1.01c-0.12,0.23 -0.15,0.48 -0.28,0.71c-0.09,0.15 -0.28,0.26 -0.37,0.41c-0.22,0.38 -0.41,0.97 -0.39,1.41c0,0 0.01,0 0.01,0c0.22,-0.06 0.21,-0.15 0.35,-0.26c0.07,-0.01 0.13,-0.02 0.19,-0.03c0.44,-0.3 0.95,-0.55 1.44,-0.81c-0.01,-0.02 -0.02,-0.03 -0.03,-0.05c0.19,-0.04 0.24,-0.2 0.39,-0.27c0.05,0.02 0.1,0.06 0.17,0.03c0.08,-0.08 0.16,-0.16 0.24,-0.23c0.11,-0.04 0.23,-0.07 0.34,-0.1c0.23,-0.16 0.49,-0.33 0.71,-0.5c0.08,-0.07 0.35,-0.07 0.46,-0.14c0.16,-0.11 0.26,-0.33 0.43,-0.43c0.07,-0.02 0.14,-0.03 0.21,-0.05c0.26,-0.16 0.58,-0.37 0.89,-0.48c0.14,-0.02 0.27,-0.04 0.4,-0.06c0.22,-0.12 0.42,-0.27 0.66,-0.38c0.19,0.11 0.24,0.2 0.57,0.2c0.01,-0.07 0.02,-0.09 0.06,-0.12c0.02,-0.01 0.04,-0.02 0.06,-0.02c0.71,0.6 2.44,1.63 1.39,2.83c-0.23,0.25 -0.77,0.19 -1.02,0.43c-0.06,0.05 -0.06,0.17 -0.12,0.22c-0.2,0.13 -0.52,0 -0.74,0.1c-0.27,0.12 -0.58,0.38 -0.83,0.55c-0.14,0.11 -0.3,0.11 -0.46,0.2c-0.22,0.13 -0.54,0.36 -0.7,0.55c-0.14,0.07 -0.27,0.13 -0.4,0.19c-0.09,0.06 -0.11,0.16 -0.19,0.23c-0.08,0.08 -0.34,0.1 -0.43,0.21c0,0.04 0,0.07 0,0.1c-0.03,0.03 -0.55,0.28 -0.64,0.35c-0.04,0.06 -0.08,0.12 -0.13,0.19c-0.13,0.13 -0.38,0.14 -0.52,0.27c-0.07,0.07 -0.16,0.2 -0.24,0.25c-0.07,0 -0.15,0.01 -0.22,0.01c-0.32,0.27 -0.66,0.56 -1.01,0.79c-0.16,0.1 -0.35,0.13 -0.46,0.27c0,0.11 0,0.23 0,0.34c0.24,0.21 0.38,0.96 0.55,1.34c0.09,0.19 0.06,0.52 0.15,0.72c0.31,0.69 0.29,1.52 0.65,2.2c-0.01,0.03 -0.02,0.07 -0.03,0.1c0.08,0.29 0.14,0.58 0.24,0.77c0,0.08 0,0.16 0,0.23c0.13,0.38 0.06,1.02 0.13,1.17c-0.02,0.3 -0.05,0.6 -0.07,0.9c-0.19,0.56 -0.91,0.7 -1.13,1.23c-0.16,-0.04 -0.78,-0.14 -0.89,0.11c-0.09,0.1 -0.14,0.34 -0.19,0.46c0,0 -0.01,0 -0.02,0c-0.05,-0.02 -0.11,-0.05 -0.16,-0.08c-0.05,0.08 -0.14,0.08 -0.19,0.16c-0.36,-0.06 -0.56,-0.27 -0.83,-0.37c-0.2,-0.08 -0.36,0.11 -0.58,0.02c-0.39,-0.17 -1.12,-1.48 -1.23,-1.9c-0.03,-0.1 -0.45,-0.6 -0.34,-0.73c-0.06,-0.1 -0.39,-1.32 -0.33,-1.46c0.16,-0.44 0.12,-1.09 0.33,-1.6c0.05,-0.12 0.15,-0.4 0.03,-0.47c0.12,-0.12 0.23,-0.48 0.25,-0.66c-0.01,0 -0.01,0 -0.02,0c-0.42,0.19 -0.77,0.5 -1.12,0.78c-0.17,0.13 -0.41,0.19 -0.58,0.34c-0.18,0.15 -0.34,0.34 -0.52,0.47c-0.08,0.04 -0.17,0.07 -0.25,0.11c-0.35,0.3 -0.77,0.71 -1.13,0.97c-0.73,0.5 -1.44,0.98 -2.16,1.5c-0.05,0.04 -0.02,0.11 -0.06,0.16l-0.27,0.21c-0.69,0.49 -1.44,0.86 -2,1.46c-0.33,0.35 -1,0.6 -1.38,0.94c-0.09,0.03 -0.19,0.07 -0.28,0.11c-0.13,0.1 -0.23,0.29 -0.37,0.38c-0.17,0.12 -0.6,0.29 -0.67,0.48c-0.03,0.03 -0.01,0 0,0.07c-0.27,-0.01 -0.31,0.16 -0.46,0.3c-0.07,0 -0.13,0.01 -0.19,0.01c-0.1,0.04 -0.15,0.19 -0.21,0.28c-0.02,0.01 -0.33,0.26 -0.37,0.3c-0.07,0.02 -0.15,0.05 -0.22,0.07c-0.08,0.08 -0.12,0.21 -0.21,0.29c-0.06,0.02 -0.13,0.04 -0.19,0.06c-0.09,0.09 -0.12,0.23 -0.21,0.31c-0.15,0.08 -0.29,0.16 -0.43,0.24c-0.07,0.07 -0.06,0.14 -0.1,0.17c-0.07,0.02 -0.14,0.04 -0.21,0.07c-0.12,0.11 -0.21,0.22 -0.37,0.3c0.01,0.04 0.02,0.08 0.03,0.12c-0.19,0.03 -1.3,0.91 -1.44,1.09c-0.01,0.05 -0.02,0.09 -0.03,0.13c-0.06,0.02 -0.13,0.04 -0.19,0.06c-0.1,0.11 -0.2,0.22 -0.31,0.32c-0.06,0.03 -0.12,0.05 -0.18,0.08c-0.01,0.05 -0.02,0.09 -0.03,0.14c-0.11,0.14 -0.52,0.33 -0.68,0.46c-0.06,0.08 -0.12,0.16 -0.18,0.24c-0.06,0.03 -0.12,0.05 -0.19,0.08c-0.01,0.05 -0.02,0.09 -0.03,0.14c-0.13,0.13 -0.33,0.2 -0.46,0.34c-0.07,0.07 -0.05,0.17 -0.12,0.26c-0.06,0.02 -0.12,0.05 -0.19,0.07c-0.07,0.07 -0.08,0.18 -0.15,0.25c-0.43,0.25 -0.62,0.56 -0.95,0.89c-0.08,0.04 -0.16,0.08 -0.24,0.13c-0.41,0.31 -0.76,0.74 -1.08,1.15c-0.17,0.21 -0.62,0.39 -0.8,0.61c-1.09,1.32 -2.48,2.34 -3.56,3.67c-0.08,0.09 -0.2,0.15 -0.28,0.23c-0.14,0.16 -0.23,0.36 -0.37,0.51c-0.06,0.06 -0.2,0.06 -0.24,0.14c0,0.04 0,0.09 0,0.14c-0.09,0.15 -0.35,0.27 -0.47,0.41c-0.13,0.17 -0.22,0.33 -0.33,0.51c-0.08,0.04 -0.17,0.09 -0.25,0.13c-0.1,0.11 -0.15,0.26 -0.24,0.37c-0.09,0.07 -0.17,0.14 -0.25,0.2c-0.02,0.06 -0.04,0.12 -0.06,0.17c-0.06,0.07 -0.19,0.11 -0.25,0.19c-0.35,0.49 -1.05,1.42 -1.56,1.72c0,0.05 0.05,0.05 0,0.07c-0.05,0.11 -0.19,0.21 -0.28,0.28c0.03,0.03 0.02,0.01 0.03,0.06c-0.28,0.17 -0.58,0.78 -0.83,1.03c-0.04,0.01 -0.08,0.02 -0.12,0.03c0.05,0.1 -0.04,0.21 -0.03,0.34c-0.36,0.12 -0.43,0.66 -0.58,0.98c-0.07,0.05 -0.13,0.1 -0.19,0.14c-0.08,0.11 -0.12,0.22 -0.19,0.32c0.02,0.03 0.03,0.07 0.04,0.1c-0.06,0.03 -0.11,0.07 -0.16,0.1c-0.04,0.05 -0.07,0.15 -0.03,0.19c-0.18,0.22 -0.31,0.37 -0.31,0.69c-0.23,0.11 -0.25,0.37 -0.58,0.41c-0.19,-0.18 -0.42,-0.32 -0.58,-0.53c-0.02,-0.14 -0.04,-0.27 -0.06,-0.4c-0.06,-0.09 -0.2,-0.16 -0.25,-0.25c0,-0.03 0,-0.07 0,-0.11c0,-0.01 -0.03,-0.72 -0.03,-0.72c0.04,-0.08 0.17,-0.18 0.21,-0.28c-0.02,-0.27 -0.04,-0.54 -0.06,-0.81c0.08,-0.2 0.08,-0.51 0.19,-0.69c0.07,-0.12 0.14,-0.19 0.21,-0.32c0.01,-0.08 0.02,-0.16 0.03,-0.23c0.04,-0.07 0.14,-0.14 0.19,-0.2c0.13,-0.19 0.11,-0.57 0.29,-0.72c0.05,0.01 0.04,0.02 0.08,-0.02c0.09,-0.07 0.06,-0.22 0.12,-0.32c0.05,-0.09 0.2,-0.15 0.24,-0.25c0.02,-0.04 0.1,-0.34 0.16,-0.41c0.23,-0.28 0.51,-0.57 0.73,-0.86c0.15,-0.19 0.19,-0.44 0.34,-0.63c0.09,-0.11 0.27,-0.23 0.34,-0.35c0,-0.06 0,-0.11 0,-0.16c0.07,-0.04 0.14,-0.09 0.22,-0.14c0.02,-0.06 0.04,-0.12 0.06,-0.18c0.18,-0.2 0.4,-0.42 0.55,-0.63c0.07,-0.1 0.09,-0.36 0.15,-0.43c0.05,-0.05 0.17,-0.04 0.22,-0.09c0.12,-0.12 0.16,-0.3 0.31,-0.39c-0.02,-0.07 -0.05,-0.1 0,-0.15c0.43,-0.47 0.85,-0.99 1.2,-1.54c0.07,-0.11 0.27,-0.22 0.36,-0.32c0.28,-0.28 0.5,-0.59 0.74,-0.91c0.09,-0.07 0.18,-0.14 0.28,-0.21c0.2,-0.25 0.38,-0.46 0.55,-0.74c0.04,-0.06 0.13,-0.03 0.18,-0.07c0.13,-0.1 0.18,-0.26 0.28,-0.39c0.06,-0.03 0.12,-0.06 0.19,-0.09c0.57,-0.59 1.13,-1.23 1.68,-1.84c0.05,-0.02 0.09,-0.03 0.13,-0.05c0.16,-0.13 0.29,-0.33 0.43,-0.49c0.09,-0.11 0.25,-0.17 0.34,-0.28c0.24,-0.3 0.53,-0.52 0.79,-0.8c0.04,-0.06 0.07,-0.12 0.1,-0.18c0.32,-0.3 0.82,-0.58 0.95,-0.97c0.33,-0.02 0.86,-0.76 1.11,-0.97c0.75,-0.65 1.55,-1.29 2.21,-2.04c0.11,-0.12 0.39,-0.23 0.52,-0.35c0.12,-0.12 0.19,-0.26 0.31,-0.39c0.04,0 0.08,-0.01 0.12,-0.01c0.11,-0.07 0.72,-0.65 0.73,-0.76l0,0z" fill="#FFFFFF" id="svg_8"/>
    <path d="m560.02,65.54c0,-0.03 0,-0.06 0,-0.09c-0.11,-0.03 -0.27,-0.13 -0.43,-0.09c-0.27,0.05 -0.75,0.61 -1.02,0.46c-0.17,-0.12 -0.36,-0.32 -0.61,-0.37c-0.38,-0.07 -0.56,0.26 -0.83,-0.2c-0.2,-0.34 -0.14,-1.21 0.13,-1.51c0.04,-0.04 0.08,-0.43 0.12,-0.53c0.07,-0.17 0.22,-0.36 0.31,-0.51c0,-0.05 0,-0.09 0,-0.14c0.03,-0.02 0.08,-0.05 0.12,-0.07c0.12,-0.14 0.16,-0.32 0.27,-0.46c0.24,-0.32 0.62,-0.53 0.86,-0.82c0.14,-0.16 0.28,-0.39 0.46,-0.49c-0.01,-0.04 -0.02,-0.08 -0.03,-0.12c0.01,0 0.01,0 0.02,0c0.05,0.02 0.08,0.04 0.14,0.01c0.13,-0.08 0.2,-0.23 0.3,-0.34c0.41,-0.39 0.87,-0.72 1.27,-1.12c0.18,-0.19 0.61,-0.33 0.67,-0.63c0.16,-0.01 0.61,-0.31 0.68,-0.41c0.01,-0.05 0.02,-0.09 0.03,-0.14c0.06,-0.06 0.4,-0.23 0.49,-0.29c0,-0.06 -0.04,-0.02 0,-0.06c0.15,-0.19 0.4,-0.3 0.61,-0.43c0.18,-0.11 0.29,-0.29 0.43,-0.43c0.11,-0.05 0.21,-0.1 0.31,-0.14c1.06,-1.01 2.32,-1.83 3.5,-2.71c0.03,-0.06 0.06,-0.12 0.09,-0.18c0.1,-0.03 0.19,-0.06 0.28,-0.09c0.18,-0.12 0.34,-0.29 0.49,-0.43c0.14,-0.14 0.34,-0.18 0.49,-0.3c0.9,-0.68 1.81,-1.4 2.71,-2.1c0.05,-0.01 0.1,-0.02 0.15,-0.03c0.52,-0.52 1.24,-0.84 1.75,-1.37c0.15,-0.14 0.56,-0.3 0.74,-0.44c0.28,-0.23 0.57,-0.49 0.83,-0.74c0.16,-0.16 0.54,-0.32 0.74,-0.49c0.06,-0.06 0.06,-0.15 0.12,-0.22c0.12,-0.06 0.24,-0.12 0.37,-0.18c0.32,-0.25 0.68,-0.52 0.95,-0.83c0.05,-0.02 0.1,-0.03 0.15,-0.05c0.2,-0.14 0.54,-0.37 0.71,-0.53c0.02,-0.06 0.04,-0.12 0.06,-0.17c0.14,-0.13 0.41,-0.2 0.55,-0.34c0.24,-0.23 0.54,-0.55 0.83,-0.71c0,-0.04 0,-0.08 0,-0.12c0.05,-0.01 0.11,-0.02 0.16,-0.03c0.12,-0.11 0.18,-0.23 0.36,-0.29c0,-0.07 0,-0.11 0.04,-0.14c0.04,-0.05 0.1,-0.02 0.15,-0.06c0.27,-0.22 0.63,-0.62 0.67,-1.05c-0.01,0 -0.02,-0.01 -0.03,-0.01c-0.25,-0.07 -1.09,-0.15 -1.35,0.01c-0.06,0.04 -0.14,0.15 -0.21,0.17c-0.43,-0.02 -0.86,-0.05 -1.29,-0.07c-0.21,-0.03 -0.55,0.07 -0.68,0.1c-0.14,0.04 -0.15,-0.12 -0.28,-0.09c-0.08,0.02 -0.1,0.09 -0.23,0.11c-0.09,-0.06 -0.59,-0.13 -0.81,-0.08c-0.06,0.02 -0.12,0.04 -0.18,0.06c-0.3,-0.06 -0.33,-0.02 -0.62,0.05c-0.21,0.05 -0.44,-0.07 -0.67,0.01c-0.05,0.04 -0.09,0.07 -0.13,0.11c-0.09,0.02 -0.13,-0.08 -0.27,-0.05c-0.41,0.09 -0.75,0.14 -1.17,0.18c-0.24,0.02 -0.62,-0.05 -0.86,0c-0.21,0.03 -0.69,0.34 -0.86,0.27c-0.31,-0.12 -0.75,-0.26 -0.98,-0.48c-0.07,-0.06 -0.11,-0.19 -0.19,-0.24c-0.09,-0.07 -0.2,-0.09 -0.27,-0.17c-0.05,-0.11 -0.11,-0.23 -0.16,-0.34c-0.15,-0.17 -0.47,-0.2 -0.64,-0.35c-0.14,-0.12 -0.43,-0.67 -0.58,-0.69c0.01,-0.05 0.02,-0.11 0.02,-0.16c-0.17,-0.31 -0.51,-0.56 -0.33,-1.04c0.05,-0.13 0,-0.21 0.12,-0.26c0.05,-0.02 0.03,-0.02 0.08,0.03c0.16,-0.11 0.14,-0.25 0.1,-0.42c0.33,-0.15 0.25,-1.07 0.43,-1.42c0.25,-0.47 0.53,-0.28 1.05,-0.45c0.24,-0.08 0.37,-0.28 0.71,-0.32c0.12,-0.02 0.13,0.08 0.27,0.09c0.04,-0.07 0.13,-0.16 0.2,-0.2c0.17,0.11 0.34,0.22 0.51,0.32c0,0.35 0.16,0.96 0.4,1.2c0.17,-0.01 0.24,0.06 0.4,0.09c0.22,0.05 0.39,0 0.58,0.05c0.12,0.06 0.24,0.11 0.37,0.17c0.13,0.04 0.34,-0.02 0.43,0c0.05,0.01 0.19,0.08 0.27,0.09c0.46,0.08 0.83,0.01 1.2,-0.01c0.09,-0.01 0.04,0.05 0.1,0.07c0.07,0.03 0.22,0.01 0.27,0.02c0.19,0.03 0.48,0 0.65,-0.03c0.08,-0.02 0.16,0.05 0.21,0.06c0.15,0.02 0.32,-0.04 0.46,-0.05c0.08,0 0.31,0.07 0.4,0.09c0.16,0.04 0.31,-0.02 0.43,-0.01c0.37,0.05 0.74,0.1 1.11,0.15c0.37,0.07 0.96,-0.01 1.23,0.14c0.12,0 0.24,0 0.36,0c0.41,0.21 1.08,0.43 1.54,0.54c0.33,0.07 0.72,0.4 1.04,0.43c0,0.02 0,0.05 0,0.08c0.68,0.19 1.33,1.23 1.57,1.9c0.12,0.33 -0.02,0.92 0.16,1.1c-0.17,0.1 -0.03,0.29 -0.1,0.48c-0.12,0.32 -0.24,0.63 -0.37,0.94c-0.05,0.08 -0.2,0.1 -0.24,0.18c-0.09,0.09 -0.05,0.26 -0.06,0.28c-0.03,0.01 -0.07,0.01 -0.1,0.02c0,0.03 0,0.07 0,0.1c-0.16,0.07 -0.15,0.16 -0.24,0.31c-0.04,0.06 -0.13,0.03 -0.19,0.08c-0.03,0.07 -0.06,0.14 -0.09,0.21c-0.07,0.11 -0.23,0.15 -0.31,0.25c-0.01,0.05 -0.02,0.1 -0.03,0.15c0,0 -0.01,0 -0.01,0c-0.06,0.07 -0.19,0.24 -0.26,0.29c-0.39,0.15 -0.48,0.33 -0.74,0.59c-0.09,0.09 -0.25,0.12 -0.34,0.21c-0.28,0.3 -0.65,0.68 -0.98,0.93c-0.06,0.01 -0.12,0.03 -0.19,0.04c-0.07,0.08 -0.13,0.18 -0.24,0.22c-0.05,0 -0.1,0 -0.15,0c-0.18,0.1 -0.29,0.33 -0.44,0.47c-0.09,0.06 -0.18,0.11 -0.27,0.17c-0.01,0.04 -0.02,0.07 -0.03,0.11c-0.03,0 -0.06,0 -0.09,0c-0.11,0.06 -0.23,0.19 -0.34,0.26c-0.09,0.03 -0.17,0.05 -0.25,0.08c-0.37,0.29 -0.7,0.65 -1.07,0.95c-0.07,0.05 -0.18,0.04 -0.25,0.09c-0.46,0.34 -0.85,0.89 -1.38,1.14c0.05,0.27 0.33,0.42 0.46,0.61c0.02,0.07 0.04,0.14 0.06,0.22c0.19,0.29 0.56,0.69 0.55,1.06c0.17,0.05 0.1,0.22 0.19,0.35c0.1,0.15 0.17,0.43 0.31,0.54c-0.1,0.08 0.3,0.75 0.36,0.81c0.2,0.25 0.58,-0.1 0.77,-0.09c0.59,0.03 1.07,-1.03 1.66,-0.91c0.09,0.14 0.11,0.28 0.16,0.48c0,0 0.01,0 0.01,0c0.19,-0.1 0.53,-0.38 0.69,-0.52c0.05,-0.07 0.1,-0.15 0.16,-0.22c0.07,-0.02 0.14,-0.05 0.21,-0.07c0.21,-0.17 0.46,-0.36 0.68,-0.53c0.06,-0.01 0.12,-0.03 0.18,-0.04c0,-0.03 0,-0.06 0,-0.09c0.07,-0.01 0.15,-0.02 0.22,-0.03c0.17,-0.12 0.41,-0.37 0.58,-0.47c0.15,-0.08 0.31,-0.05 0.43,-0.09c0.08,-0.02 0.12,-0.15 0.34,-0.18c0.03,0.04 0.04,0.04 0.09,0.06c0.01,0.07 0.01,0.13 0.02,0.2c0.22,-0.12 0.24,-0.25 0.6,-0.23c-0.01,0.7 -0.39,0.94 -0.68,1.35c-0.08,0.11 -0.06,0.25 -0.12,0.39c-0.07,0.14 -0.23,0.28 -0.31,0.41c-0.09,0.15 -0.1,0.28 -0.18,0.43c-0.06,0.09 -0.2,0.2 -0.25,0.31c0,0.06 0,0.13 0,0.2c-0.03,0.07 -0.14,0.32 -0.18,0.38c-0.06,0.03 -0.11,0.06 -0.16,0.1c-0.04,0.12 -0.08,0.25 -0.12,0.38c-0.21,0.34 -0.45,0.74 -0.68,1.07c-0.01,0.07 -0.02,0.13 -0.03,0.19c-0.09,0.15 -0.28,0.3 -0.37,0.46c-0.07,0.14 -0.03,0.27 -0.12,0.38c-0.04,0.02 -0.08,0.04 -0.12,0.07c-0.01,0.07 -0.02,0.14 -0.03,0.21c-0.05,0.09 -0.17,0.19 -0.22,0.28c-0.15,0.25 -0.19,0.61 -0.37,0.83c-0.34,0.42 -0.55,0.95 -0.83,1.44c-0.04,0.09 -0.34,0.39 -0.3,0.45c-0.06,0.09 -0.3,0.39 -0.25,0.47c0.01,0.04 0.02,0.08 0.03,0.12c-0.03,-0.01 -0.07,-0.02 -0.11,-0.03c-0.05,0.05 -0.56,0.72 -0.6,0.79c-0.05,0.1 0,0.18 -0.06,0.27c-0.14,0.23 -0.36,0.48 -0.49,0.73c-0.09,0.16 -0.09,0.45 -0.21,0.59c-0.11,0.13 -0.3,0.29 -0.37,0.45c-0.23,0.47 -0.42,1.07 -0.89,1.29c0.02,0.35 -0.61,1.21 -0.8,1.44c-0.12,0.14 -0.11,0.4 -0.25,0.45c0.01,0.24 -0.15,0.16 -0.31,0.3c-0.06,0.07 -0.01,0.15 -0.06,0.24c-0.09,0.14 -0.57,0.31 -0.73,0.39c-0.01,0.12 -0.03,0.14 0,0.22c-0.02,0 -0.03,0.01 -0.05,0.02c-0.22,-0.11 -0.36,-0.27 -0.51,-0.45c-0.23,0.03 -0.38,0.42 -0.58,0.55c0.04,0.11 0.06,0.2 0.12,0.28c-0.02,0 -0.04,0 -0.06,0c-0.05,-0.11 -0.58,-0.62 -0.71,-0.66c-0.21,-0.06 -0.54,0.01 -0.7,-0.15c-0.23,-0.23 -0.37,-0.66 -0.5,-0.97c-0.02,-0.06 0.07,-0.29 0.04,-0.4c-0.1,-0.29 -0.2,-1.11 0.03,-1.34c-0.14,-0.14 0.24,-0.72 0.27,-0.8c0.06,-0.11 0.01,-0.2 0.06,-0.33c0.4,-1.04 0.99,-1.93 1.51,-2.85c0.15,-0.27 0.85,-1.1 0.83,-1.33c0.11,-0.04 0.23,-0.14 0.28,-0.23c0,-0.06 0,-0.12 0,-0.17c0.08,-0.05 0.16,-0.1 0.24,-0.16c0.16,-0.19 0.24,-0.4 0.4,-0.6c0.04,-0.04 0.16,-0.1 0.19,-0.15c0.03,-0.05 -0.01,-0.1 0.03,-0.14c0.33,-0.16 0.37,-0.42 0.58,-0.7c0.06,-0.03 0.12,-0.07 0.18,-0.1c0.2,-0.21 0.32,-0.44 0.49,-0.69c0.11,-0.14 0.28,-0.12 0.31,-0.36c-0.01,0 -0.03,0 -0.04,0c-0.16,0.07 -0.32,0.14 -0.48,0.21c0.01,0.09 0.05,0.13 0.03,0.15c-0.16,0.04 -1.24,-0.49 -1.38,-0.61c-0.29,-0.25 -0.62,-0.44 -0.86,-0.74c-0.06,-0.07 -0.06,-0.18 -0.13,-0.26c-0.17,-0.23 -0.49,-0.37 -0.67,-0.6c-0.34,-0.41 -0.69,-0.86 -0.95,-1.33c-0.02,0 -0.04,0 -0.07,0c-0.23,0.24 -0.53,0.42 -0.8,0.64c-0.54,0.47 -1.11,0.94 -1.65,1.41c-0.04,0.07 -0.09,0.14 -0.12,0.2c-0.08,0.04 -0.15,0.09 -0.22,0.13c-0.03,0.06 -0.06,0.12 -0.09,0.18c-1.22,0.9 -2.34,1.89 -3.51,2.84c-0.16,0.14 -0.28,0.35 -0.43,0.51c-0.13,0.16 -0.34,0.24 -0.52,0.37c-0.21,0.16 -0.36,0.41 -0.55,0.58c-0.15,0.13 -0.29,0.2 -0.46,0.31c-0.16,0.1 -0.29,0.29 -0.43,0.41c-0.08,0.07 -0.2,0.06 -0.28,0.13c-0.08,0.06 -0.11,0.19 -0.18,0.27c-0.14,0.16 -0.34,0.31 -0.49,0.46c-0.11,0.05 -0.21,0.1 -0.31,0.14c-0.24,0.21 -0.45,0.45 -0.71,0.63c-0.11,0.08 -0.48,0.16 -0.55,0.23c-0.1,0.1 -0.2,0.27 -0.34,0.31c-0.08,-0.01 -0.16,-0.01 -0.25,-0.02c-0.09,0.04 -0.15,0.2 -0.21,0.28c-0.12,0.14 -0.45,0.2 -0.67,0.21l0,0z" fill="#FFFFFF" id="svg_9"/>
    <path d="m528.81,48.23c0,-0.03 0,-0.05 0,-0.08c0.07,-0.01 0.14,-0.02 0.21,-0.03c0.01,-0.09 0.01,-0.1 0.07,-0.13c-0.05,-0.06 -0.07,-0.09 -0.07,-0.21c0.09,-0.03 0.33,-0.2 0.37,-0.29c0.04,-0.04 0.01,-0.03 0,-0.11c0.09,0 0.1,0.01 0.13,-0.06c-0.03,-0.02 -0.02,0 -0.03,-0.06c0.2,-0.03 0.35,-0.19 0.36,-0.41c0.25,-0.02 0.43,-0.15 0.62,-0.25c0.01,-0.08 0.02,-0.17 0.03,-0.26c0.04,-0.01 0.08,-0.03 0.12,-0.04c0,-0.11 0,-0.15 0.06,-0.21c0.1,-0.04 0.28,-0.05 0.34,-0.1c0.13,-0.09 0.16,-0.26 0.25,-0.39c0.01,0 0.02,0 0.03,0c0.05,-0.05 0.31,-0.28 0.37,-0.32c-0.03,-0.05 -0.06,-0.1 0,-0.15c0.05,-0.07 0.12,-0.02 0.18,-0.08c0.03,-0.06 0.06,-0.13 0.09,-0.2c0.11,-0.1 0.29,-0.12 0.39,-0.23c0,0 0.01,0 0.01,0c0,-0.04 0,-0.09 0,-0.14c0.05,-0.1 0.18,-0.09 0.25,-0.17c0.02,-0.05 0.04,-0.1 0.06,-0.15c0.08,-0.07 0.19,-0.03 0.25,-0.12c0.07,-0.06 0.03,-0.1 0.07,-0.14c0.08,0.03 0.23,-0.05 0.36,-0.08c0.04,-0.16 0.15,-0.21 0.09,-0.44c0.01,-0.01 0.02,-0.01 0.03,-0.02c0.1,-0.02 0.12,-0.02 0.2,0.02c0.09,-0.07 0.12,-0.19 0.2,-0.26c0.17,-0.07 0.35,-0.13 0.52,-0.19c0,-0.07 0.02,-0.2 0.06,-0.24c0.16,-0.06 0.31,-0.12 0.46,-0.17c0.18,-0.22 0.15,-0.38 0.43,-0.49c-0.01,-0.06 -0.02,-0.12 -0.03,-0.17c0.01,0 0.02,0 0.03,0c0.03,-0.01 0.07,-0.01 0.1,-0.02c0,-0.03 0,-0.06 0,-0.09c0,-0.01 0.02,-0.01 0.03,-0.02c0.13,-0.01 0.36,0.02 0.49,-0.06c0.08,-0.07 0.05,-0.12 0.12,-0.21c0.1,-0.04 0.21,-0.07 0.31,-0.11c0.07,-0.06 0.11,-0.18 0.15,-0.23c0.07,-0.02 0.14,-0.03 0.22,-0.05c0.02,-0.04 0.04,-0.08 0.06,-0.12c0.1,-0.04 0.2,-0.07 0.31,-0.11c0.06,-0.06 0.08,-0.21 0.15,-0.26c0.04,0 0.08,0 0.12,0c0.11,-0.04 0.13,-0.18 0.19,-0.28c0.1,-0.02 0.18,-0.05 0.3,-0.03c0,-0.11 -0.01,-0.2 0.03,-0.24c0.05,-0.06 0.17,-0.12 0.22,-0.17c0.1,-0.04 0.2,0 0.26,0.05c0.14,-0.09 0.3,-0.22 0.43,-0.28c0.09,-0.02 0.12,0.04 0.2,0.03c0.05,-0.01 0.14,-0.06 0.22,-0.08c0,-0.03 0,-0.06 0,-0.09c0.25,0.03 0.49,-0.24 0.8,-0.17c0.13,0.03 0.3,0.04 0.46,0.1c0.14,0.05 0.06,0.19 0.27,0.18c0,0.09 0.01,0.13 0.03,0.18c0.1,0 0.15,0.01 0.19,0.08c0.1,0.1 -0.02,0.19 0.03,0.29c0.04,0.03 0.08,0.07 0.12,0.1c0.06,0.12 -0.05,0.32 0.03,0.41c0.04,0.05 0.15,0.1 0.22,0.12c0,0.03 0,0.06 0,0.1c-0.2,0.14 -0.3,0.58 -0.25,0.76c-0.07,0.03 -0.07,0.06 -0.12,0.1c0.02,0.03 0.04,0.07 0.06,0.1c-0.12,0.05 -0.22,0.13 -0.22,0.31c-0.04,0.04 -0.25,0.46 -0.27,0.52c-0.2,0.01 -0.29,0.18 -0.43,0.26c0,0.07 0,0.14 0,0.2c-0.58,0.16 -0.97,0.82 -1.08,1.45c0.29,0.02 0.9,-0.07 1.14,-0.16c0.14,0.01 0.28,0.02 0.41,0.03c0.11,-0.02 0.22,-0.04 0.33,-0.06c0.05,0.02 0.08,0.1 0.18,0.08c0.1,-0.02 0.21,-0.08 0.31,-0.08c0.2,0 0.4,0.07 0.61,0.05c0.62,-0.05 1.17,-0.06 1.84,0.04c0.14,-0.01 0.27,-0.03 0.41,-0.04c0.03,0.01 0.05,0.09 0.15,0.06c0.01,0 0.01,-0.05 0.06,-0.05c0.08,0.06 0.16,0.11 0.25,0.16c0.07,-0.01 0.14,-0.01 0.21,-0.02c0.2,0.05 0.47,0.11 0.71,0.19l0.64,0.26c0.15,0.11 0.28,0.29 0.43,0.4c0.14,0.09 0.31,0.09 0.44,0.19c0.18,0.16 0.38,0.27 0.58,0.42c0.11,0.08 0.53,0.84 0.58,0.95c0.22,0.51 -0.02,1.76 -0.31,2.09c-0.16,0.18 -0.36,0.35 -0.52,0.54c-0.08,0.1 -0.12,0.29 -0.21,0.37c-0.08,0.06 -0.21,0.03 -0.28,0.09c-0.11,0.1 -0.19,0.26 -0.31,0.35c-0.05,0.01 -0.1,0.02 -0.15,0.03c-0.15,0.12 -0.26,0.36 -0.4,0.5c-0.06,0.03 -0.12,0.06 -0.18,0.09c-0.06,0.07 -0.01,0.09 -0.1,0.14c0.01,0.03 0.02,0.07 0.03,0.1c-0.17,0.05 -0.59,0.25 -0.61,0.45c-0.04,0 -0.08,0.01 -0.12,0.01c-0.11,0.07 -0.12,0.22 -0.22,0.28c-0.22,0.15 -0.48,0.23 -0.58,0.49c-0.34,0 -0.4,0.21 -0.57,0.37c-0.2,-0.04 -0.38,0.26 -0.54,0.34c-0.64,0.3 -1.18,0.8 -1.75,1.18c0,0.03 0,0.05 0,0.08c0.24,-0.01 0.4,-0.07 0.58,-0.12c0.08,0.01 0.15,0.02 0.22,0.03c0.26,-0.03 0.5,-0.07 0.68,-0.19c0,0 0.01,0 0.01,0c0.1,-0.03 0.25,0.06 0.39,0c0.13,-0.06 0.46,-0.13 0.61,-0.18c0.11,0 0.23,0.01 0.34,0.01c0.8,-0.22 1.5,-0.22 2.36,-0.26c0.01,-0.08 0.04,-0.13 0.1,-0.17c0.02,0 0.04,-0.01 0.06,-0.01c0.09,0.19 0.3,-0.03 0.46,0c0.3,0.05 0.6,0.1 0.89,0.15c0.04,0.15 0.14,0.14 0.15,0.34c-0.06,0.04 -0.03,0.07 -0.06,0.09c-0.16,0.18 -0.41,0.3 -0.55,0.49c-0.03,0.1 -0.06,0.2 -0.09,0.29c-0.05,0.04 -0.12,0.02 -0.16,0.06c-0.04,0.08 -0.08,0.15 -0.12,0.22c-0.2,0.14 -0.44,0.28 -0.65,0.4c-0.05,0 -0.1,0 -0.15,0c-0.01,0.03 -0.02,0.07 -0.03,0.11c0,0 -0.01,0 -0.02,0c-0.06,0.01 -0.13,0.02 -0.19,0.03c-0.04,0.04 -0.07,0.09 -0.1,0.13c-0.08,0.05 -0.25,0 -0.34,0.07c-0.06,0.04 -0.08,0.13 -0.16,0.18c-0.04,-0.02 -0.05,-0.04 -0.1,-0.06c-0.37,0.13 -0.71,0.39 -0.99,0.55c-0.15,0.09 -0.32,0.08 -0.44,0.14c-0.02,0.03 -0.04,0.06 -0.06,0.1c-0.11,0.04 -0.34,-0.02 -0.46,0.07c-0.01,0.04 -0.02,0.07 -0.03,0.11c-0.07,0 -0.14,0.01 -0.21,0.01c-0.35,0.19 -0.72,0.22 -1.08,0.42c-0.09,0.05 -0.23,0.19 -0.34,0.23c-0.09,0.03 -0.2,-0.02 -0.3,0.01c-0.14,0.05 -0.28,0.19 -0.4,0.23c-0.11,0 -0.21,0 -0.31,0c-0.07,0.03 -0.18,0.14 -0.25,0.17c-0.27,0.12 -0.55,0.12 -0.83,0.19c-0.06,0.04 -0.12,0.09 -0.18,0.14c-0.13,0.06 -0.29,0.03 -0.43,0.06c-0.37,0.07 -0.69,0.14 -1.08,0.24c-0.15,0.04 -0.28,0.15 -0.39,0.19c-0.13,0.04 -0.21,-0.04 -0.31,-0.02c-0.06,0.02 -0.18,0.1 -0.25,0.11c-0.03,0.01 -0.16,-0.05 -0.24,-0.03c-0.2,0.05 -0.4,0.09 -0.56,0.15c-0.16,0.01 -0.32,0.01 -0.49,0.02c-0.06,0.02 -0.1,0.13 -0.15,0.15c-0.08,0 -0.16,-0.01 -0.25,-0.02c-0.41,0.09 -0.79,0.11 -1.1,0.25c-0.04,-0.01 -0.07,-0.02 -0.11,-0.03c-0.23,-0.01 -0.42,-0.03 -0.66,0.02c-0.01,0.07 -0.02,0.08 -0.08,0.12c-0.09,-0.02 -0.13,-0.05 -0.2,-0.08c-0.16,-0.06 -0.42,0.14 -0.61,0.02c-0.26,-0.16 -0.44,-0.41 -0.62,-0.66c0,-0.09 0,-0.19 0,-0.28c-0.07,-0.18 -0.21,-0.42 -0.21,-0.67c0.06,-0.02 0.06,-0.01 0.09,-0.07c-0.03,-0.03 -0.01,0 -0.03,-0.06c0.26,-0.13 0.4,-0.73 0.59,-0.94c0.08,-0.09 0.27,-0.05 0.33,-0.18c0.1,-0.11 0.06,-0.26 0.19,-0.34c-0.04,-0.09 -0.06,-0.15 -0.06,-0.29c0.05,-0.03 0.08,-0.09 0.12,-0.14c0.06,-0.01 0.12,-0.02 0.19,-0.03c0,-0.03 0,-0.07 0,-0.11c0.5,-0.15 0.83,-0.46 1.19,-0.79c0.06,-0.06 0.4,-0.17 0.46,-0.24c0.08,-0.08 0.14,-0.17 0.22,-0.26c0.05,-0.06 0.3,-0.11 0.37,-0.16c0.26,-0.23 0.54,-0.52 0.83,-0.71c0.4,-0.28 0.78,-0.53 1.13,-0.85c0.08,-0.02 0.17,-0.05 0.25,-0.07c0.02,-0.05 0.04,-0.1 0.06,-0.14c0.07,-0.03 0.14,-0.05 0.22,-0.08c0.24,-0.19 0.5,-0.38 0.7,-0.61c0.06,-0.02 0.13,-0.03 0.19,-0.05c0.14,-0.07 0.33,-0.2 0.46,-0.31c0.56,-0.43 1.19,-0.81 1.7,-1.29c0.21,0.05 0.46,-0.25 0.57,-0.36c0.65,-0.36 1.17,-0.82 1.72,-1.26c0.11,-0.09 0.59,-0.42 0.49,-0.56c-0.01,0 -0.73,-0.03 -0.73,-0.03c-0.02,0.03 -0.05,0.05 -0.07,0.08c-0.07,0.03 -0.35,-0.06 -0.43,-0.06c-0.04,0.02 -0.08,0.05 -0.12,0.07c-0.21,0.07 -0.55,-0.01 -0.71,0c0,0.03 0,0.05 0,0.08c-0.2,-0.01 -0.51,-0.07 -0.7,-0.05c-0.07,0.01 -0.08,0.11 -0.19,0.1c-0.05,-0.03 -0.1,-0.07 -0.15,-0.1c-0.04,-0.01 -0.69,0.04 -0.71,0.05c0,0.06 -0.01,0.06 -0.03,0.09c-0.47,0.05 -1.06,0.05 -1.47,-0.04c-0.14,-0.03 -0.5,0.08 -0.62,0.09c-0.18,0.01 -0.45,-0.04 -0.61,-0.06c-0.09,0.01 -0.19,0.03 -0.28,0.04c-0.05,-0.02 -0.08,-0.09 -0.17,-0.09c0,0 -0.01,0 -0.01,0c-0.07,0.02 -0.14,0.04 -0.22,0.06c-0.06,-0.01 -0.14,-0.11 -0.21,-0.14c-0.14,-0.05 -0.33,-0.05 -0.45,-0.09c-0.21,0.15 -0.33,0.49 -0.63,0.62c0.01,0.04 0.02,0.08 0.04,0.12c-0.09,0.06 -0.1,0.11 -0.22,0.15c0.06,0.28 -0.02,0.43 -0.28,0.49c0,0.12 -0.06,0.21 -0.12,0.26c-0.07,0.02 -0.07,-0.02 -0.15,-0.04c-0.21,0.21 -0.11,0.31 -0.25,0.52c-0.05,0.03 -0.1,0.06 -0.15,0.09c-0.06,0.08 -0.06,0.17 -0.13,0.23c-0.07,0.04 -0.14,0.07 -0.21,0.11c-0.01,0.07 -0.02,0.14 -0.03,0.21c-0.04,0.02 -0.08,0.03 -0.12,0.05c-0.01,0.06 -0.02,0.12 -0.03,0.19c-0.04,0 -0.09,0.01 -0.13,0.01c-0.07,0.05 -0.09,0.19 -0.18,0.25c0.02,0.06 0.05,0.08 0.03,0.1c-0.05,0.14 -0.22,0.21 -0.28,0.33c0,0.04 0,0.08 0,0.12c-0.07,0.05 -0.14,0.1 -0.21,0.15c-0.07,0.12 -0.01,0.28 -0.09,0.37c-0.11,0.15 -0.34,0.27 -0.43,0.43c0,0.08 0,0.16 0,0.25c-0.03,0.06 -0.1,0.09 -0.13,0.14c-0.05,0.09 -0.01,0.19 -0.03,0.27c-0.09,-0.01 -0.11,0 -0.18,0.02c0.01,0.12 0.02,0.35 -0.1,0.44c-0.05,0.02 -0.1,0.03 -0.15,0.05c-0.01,0.23 -0.28,0.51 -0.37,0.66c-0.08,0.15 0.11,0.27 -0.03,0.38c-0.11,0.13 -0.3,0.23 -0.4,0.37c-0.14,0.21 -0.04,0.46 -0.33,0.52c0,0.06 0,0.11 0,0.16c-0.03,0 -0.07,0 -0.1,0c0.01,0.4 -0.23,0.5 -0.4,0.73c-0.01,0.03 0.06,0.07 0,0.12c-0.04,0.07 -0.15,0.12 -0.18,0.19c-0.07,0.13 -0.03,0.33 -0.12,0.43c-0.04,0.01 -0.08,0.02 -0.13,0.03c-0.01,0.17 -0.1,0.13 -0.15,0.23c-0.07,0.15 -0.02,0.29 -0.09,0.45c-0.06,0.05 -0.12,0.1 -0.19,0.15c-0.04,0.09 0.04,0.09 0,0.14c-0.15,0.23 -0.44,0.37 -0.49,0.72c0.03,0.03 0.02,0.01 0.03,0.06c-0.22,0.12 -0.24,0.36 -0.24,0.58c-0.04,0.02 -0.08,0.05 -0.13,0.07c0.01,0.05 0.01,0.06 0,0.17c-0.09,0.03 -0.12,0.05 -0.24,0.04c-0.12,0.56 -0.55,0.75 -0.62,1.32c0.06,0.03 0.05,0.02 0.07,0.09c-0.08,0.06 -0.15,0.11 -0.22,0.16c0.01,0.09 0.05,0.14 0,0.2c-0.05,0.06 -0.21,0.15 -0.27,0.18c-0.01,0.16 -0.03,0.32 -0.04,0.48c-0.25,0.09 -0.38,0.55 -0.49,0.78c-0.01,0.11 -0.02,0.23 -0.03,0.34c-0.04,0.03 -0.08,0.05 -0.12,0.08c-0.08,0.14 -0.03,0.35 -0.12,0.49c-0.03,0.01 -0.07,0.02 -0.09,0.03c-0.09,0.13 0.05,0.21 -0.04,0.32c-0.1,0.14 -0.31,0.3 -0.39,0.46c-0.06,0.11 -0.07,0.34 -0.13,0.43c-0.07,0.06 -0.14,0.12 -0.21,0.19c0,0.03 0,0.06 0,0.09c-0.01,0 -0.02,0.01 -0.03,0.01c-0.17,0.14 -0.66,0.22 -0.9,0.31c-0.05,0.05 -0.11,0.1 -0.16,0.16c-0.01,0 -0.01,0 -0.02,0.01c-0.24,0.06 -0.59,-0.03 -0.78,0.14c-0.42,-0.22 -0.99,-0.08 -1.28,-0.49c-0.34,-0.49 -0.59,-0.99 -0.92,-1.51c-0.03,-0.05 -0.15,-0.07 -0.18,-0.12c-0.05,-0.06 -0.01,-0.15 -0.07,-0.2c-0.08,-0.04 -0.16,-0.08 -0.24,-0.12c-0.19,-0.27 -0.2,-0.41 -0.52,-0.56c0.03,-0.2 -0.14,-0.51 -0.25,-0.73c-0.05,-0.11 -0.03,-0.34 0,-0.42c0.02,-0.04 -0.06,-0.33 -0.06,-0.33c0.12,-0.15 0.11,-0.33 0.22,-0.54c0.08,-0.17 -0.16,-0.26 -0.07,-0.42c0.16,-0.26 0.19,-0.68 0.37,-0.84c0.03,-0.02 -0.06,-0.21 -0.03,-0.28c0.14,-0.3 0.36,-0.61 0.52,-0.89c0.06,-0.09 0.12,-0.39 0.19,-0.54c-0.01,-0.04 -0.02,-0.08 -0.03,-0.12c0.03,-0.08 0.14,-0.13 0.18,-0.2c0.06,-0.09 0.04,-0.47 0.03,-0.54c0.18,-0.06 0.29,-0.2 0.46,-0.26c0,-0.36 0.26,-0.38 0.28,-0.64c-0.03,-0.04 -0.02,-0.02 -0.03,-0.08c0.1,-0.04 0.14,-0.08 0.24,-0.09c0.01,-0.14 0.11,-0.29 0.19,-0.36c0.04,0 0.08,-0.01 0.12,-0.01c0.04,-0.15 0.08,-0.23 0.03,-0.42c0.52,-0.24 0.3,-0.5 0.52,-0.86c0.04,-0.05 0.31,-0.33 0.34,-0.35c0.07,-0.04 0.14,0.02 0.19,-0.05c0.18,-0.27 0.33,-0.75 0.64,-0.89c0.01,-0.24 0.02,-0.31 0.03,-0.49c0.1,-0.03 0.11,-0.08 0.17,-0.14c0.07,0.02 0.13,0.03 0.2,0.02c0.01,-0.09 0.31,-0.48 0.4,-0.52c-0.03,-0.29 0.14,-0.43 0.34,-0.57c0.05,-0.01 0.1,-0.02 0.15,-0.03c0.06,-0.06 0.09,-0.15 0.16,-0.2c-0.03,-0.07 -0.05,-0.14 -0.07,-0.2c0.06,-0.04 0.37,-0.17 0.4,-0.2c0.07,-0.07 0.1,-0.27 0.16,-0.35c0.03,-0.06 0.27,-0.17 0.3,-0.2c0.07,-0.1 0,-0.15 0.09,-0.22c0.06,-0.01 0.11,-0.02 0.16,-0.03c-0.03,-0.1 0.1,-0.31 0.18,-0.42c0.06,0 0.13,-0.02 0.19,-0.03c-0.05,-0.03 -0.06,-0.06 -0.06,-0.13c0.14,-0.08 0.24,-0.27 0.24,-0.53c0.18,-0.04 0.3,-0.17 0.46,-0.24c-0.01,-0.1 -0.01,-0.24 0.03,-0.29c0.06,-0.1 0.18,-0.11 0.25,-0.19c0.01,-0.05 0.02,-0.11 0.03,-0.17c0.03,-0.04 0.12,-0.05 0.15,-0.1c0.01,-0.02 -0.06,-0.07 -0.03,-0.12c0.01,0 0.01,0 0.02,0c0,0 0.01,0 0.01,0c0.02,-0.03 0.04,-0.06 0.06,-0.08c0.04,0 0.08,0 0.12,0l0,0z" fill="#FFFFFF" id="svg_10"/>
    <path d="m587.17,63.63c-0.05,0.03 -0.1,0.05 -0.15,0.08c-0.09,0.13 -0.01,0.23 -0.12,0.37c-0.09,0.1 -0.26,0.19 -0.31,0.33l-0.09,0c-0.05,-0.09 -0.1,-0.16 -0.12,-0.29c-0.08,-0.03 -0.14,-0.03 -0.22,-0.06l-0.09,-0.46c0.07,-0.28 1.29,-0.88 1.61,-1.02l0.05,0c-0.04,0.23 -0.42,0.87 -0.56,1.05l0,0zm13.31,-12.32c-0.1,-0.19 -0.29,-0.36 -0.4,-0.54c-0.1,-0.16 -0.18,-0.34 -0.33,-0.46c-0.08,0.17 -0.1,0.27 -0.23,0.39c-0.08,-0.02 -0.1,-0.04 -0.12,-0.11c-0.13,0.02 -0.19,0.11 -0.29,0.17c-0.37,-0.02 -0.79,-0.6 -1.07,-0.75c-0.32,0.03 -0.97,0.71 -1.25,0.9c-0.25,0.18 -0.55,0.24 -0.8,0.43c-0.31,0.24 -0.54,0.57 -0.83,0.83c-0.7,0.65 -1.36,1.32 -2.02,2c-0.08,0.06 -0.28,0.42 -0.4,0.57c-0.42,0.5 -0.92,0.99 -1.29,1.53c-0.12,0.18 -0.43,0.76 -0.65,0.79c0.01,0.04 0.02,0.09 0.03,0.13c-0.13,0.09 -0.5,0.66 -0.55,0.82c-0.55,0.1 -1.6,-0.09 -2.03,0.07l-0.31,-0.01c-0.39,0.16 -0.82,0.19 -1.16,0.38c-0.14,0.08 -0.29,0.01 -0.43,0.07c-1.43,0.59 -2.98,1.1 -3.97,2.14c-0.42,0.46 -0.48,0.98 -0.73,1.6c-0.09,0.21 0.02,0.89 0.03,0.89c0.05,0.32 0,0.92 0.21,0.97c-0.11,0.5 0.59,1.24 0.86,1.61c0.08,0.1 0.23,0.12 0.25,0.28l0.09,0.02c0.2,0.17 0.56,0.64 0.55,0.98c0.23,0.12 0.51,0.21 0.74,0.35c0.27,0.18 0.52,0.44 0.86,0.56c0.38,0.12 0.96,0.02 1.1,0.35c0.05,0.06 -0.04,0.19 -0.12,0.23l0,0.06c0.53,0 0.67,-0.55 1.02,-0.74c0.24,-0.13 1.06,0.16 1.32,-0.01c0.25,-0.18 0.56,-0.32 0.8,-0.49c0.07,-0.03 0.14,-0.05 0.21,-0.08c0.64,-0.53 1.15,-1.09 1.66,-1.75c0.17,-0.22 0.62,-0.56 0.65,-0.89c0.34,-0.05 0.59,-0.52 0.79,-0.77c0.08,-0.04 0.15,-0.07 0.22,-0.11c0.05,-0.06 0.02,-0.14 0.06,-0.2c0.1,-0.05 0.21,-0.11 0.31,-0.17c0.17,-0.14 0.32,-0.33 0.49,-0.47c0.06,-0.02 0.12,-0.04 0.19,-0.07c0.17,-0.15 0.34,-0.31 0.52,-0.47c0.32,-0.43 0.92,-1.38 1.38,-1.61c0.03,-0.04 0.03,-0.08 0.03,-0.15c0.27,-0.09 0.37,-0.35 0.46,-0.62l0,-0.17c0.04,-0.02 0.08,-0.04 0.12,-0.06c0.01,-0.06 0.02,-0.12 0.03,-0.19c0.06,-0.11 0.22,-0.17 0.28,-0.27c0.01,-0.1 0.02,-0.2 0.03,-0.29c0.03,-0.08 0.16,-0.25 0.22,-0.31c0.69,-0.73 1.09,-1.75 1.68,-2.58c0.17,-0.23 0.17,-0.5 0.31,-0.75c0.04,-0.03 0.09,-0.07 0.13,-0.1c0.03,-0.1 0.06,-0.2 0.09,-0.3c0.14,-0.28 0.3,-0.57 0.46,-0.86c0.13,-0.24 0.38,-0.42 0.52,-0.63c0.12,-0.19 0.19,-0.48 0.28,-0.68c0.13,-0.33 0.16,-1.15 0,-1.46l0,0z" fill="#FFFFFF" id="svg_11"/>
    <path d="m593.75,41.94c0.04,0 0.08,-0.01 0.12,-0.02c0.06,-0.21 0.17,-0.4 0.31,-0.59c0.05,-0.08 0.2,-0.12 0.25,-0.2c0.02,-0.11 0.04,-0.21 0.06,-0.31c0.04,-0.01 0.08,-0.01 0.12,-0.02c0.11,-0.09 0.24,-0.42 0.34,-0.55c0.03,-0.01 0.06,-0.03 0.09,-0.05c0.01,-0.06 0.02,-0.13 0.03,-0.19c0.06,-0.05 0.12,-0.08 0.19,-0.13c0.05,-0.1 0.1,-0.21 0.15,-0.32c0.13,-0.14 0.44,-0.43 0.52,-0.58c0.04,-0.08 0.01,-0.15 0.06,-0.22c0.06,-0.08 0.21,-0.13 0.28,-0.21c0.24,-0.3 0.39,-0.62 0.61,-0.94c0.06,-0.04 0.12,-0.08 0.19,-0.12c0.13,-0.16 0.19,-0.37 0.33,-0.53c0.05,-0.01 0.09,-0.03 0.13,-0.04c0.17,-0.2 0.26,-0.45 0.43,-0.65c0.3,-0.36 0.93,-0.76 1.17,-1.18c0.02,0 0.03,0 0.06,0c0.03,0.05 0.06,0.1 0.09,0.15c0.12,0 0.17,0.01 0.23,-0.07c0.08,0.06 0.08,0.11 0.2,0.14c0.1,-0.11 0.25,-0.24 0.31,-0.37c-0.08,-0.06 -0.04,-0.06 -0.03,-0.16c0.02,0 0.04,0 0.06,0c0.03,0.13 0.74,0.61 0.87,0.66c0.09,-0.06 0.15,-0.19 0.27,-0.23c0.05,0.08 0.14,0.15 0.26,0.16c0.01,-0.01 0.03,-0.02 0.04,-0.03c0.18,-0.12 0.03,-0.38 0.03,-0.48c0.03,0 0.04,0 0.07,0c0,0.02 0,0.03 0,0.05c0.1,0.06 0.08,0.17 0.15,0.27c0.14,0.17 0.28,0.34 0.43,0.51c0.03,0.09 0.06,0.18 0.09,0.27c0.12,0.23 0.32,0.5 0.43,0.74c0.11,0.24 0.09,1.44 -0.06,1.58l0,0.06c-0.02,0.07 0.01,0.15 0.03,0.17c-0.21,0.26 -0.13,0.57 -0.28,0.9c-0.27,0.6 -0.54,1.28 -0.92,1.79c-0.16,0.22 -0.21,0.73 -0.37,0.97c-0.29,0.46 -0.52,0.92 -0.79,1.41c-0.05,0.09 -0.16,0.15 -0.22,0.23c-0.15,0.23 -0.25,0.48 -0.43,0.68c-0.04,0.02 -0.08,0.04 -0.12,0.06c-0.06,0.09 -0.04,0.19 -0.1,0.28c-0.14,0.22 -0.38,0.43 -0.55,0.64c-0.18,0.23 -0.26,0.52 -0.43,0.75c-0.08,0.12 -0.25,0.19 -0.34,0.3c-0.08,0.11 -0.13,0.24 -0.24,0.32c-0.07,0.01 -0.15,0.03 -0.22,0.04c-0.08,0.07 -0.12,0.21 -0.18,0.3c-0.07,0.04 -0.15,0.08 -0.22,0.12c-0.26,0.35 -0.53,0.65 -0.77,1.03c-0.1,0.06 -0.2,0.12 -0.3,0.18c-0.14,0.11 -0.22,0.28 -0.34,0.4c-0.19,0.19 -0.43,0.29 -0.65,0.45c-0.1,0.07 -0.18,0.24 -0.27,0.34c-0.4,0.39 -0.8,0.75 -1.17,1.16c-0.12,0.1 -0.25,0.2 -0.37,0.29c-0.14,0.15 -0.25,0.34 -0.4,0.48c-0.12,0.08 -0.24,0.16 -0.37,0.25c-0.52,0.56 -1.04,1.16 -1.5,1.79c-0.22,0.31 -0.64,0.46 -0.92,0.71c-0.36,0.31 -0.64,0.71 -0.99,1.03c-0.11,0.1 -0.23,0.17 -0.33,0.29c-0.07,0.02 -0.13,0.04 -0.19,0.06c-0.12,0.12 -0.22,0.35 -0.37,0.43c-0.06,0.01 -0.12,0.02 -0.18,0.03c-0.09,0.09 -0.14,0.23 -0.22,0.32c-0.07,0 -0.07,0 -0.1,-0.03c-0.05,0.04 -0.04,0.09 -0.08,0.13c-0.05,0 -0.1,0.01 -0.15,0.01c-0.26,0.18 -0.6,0.22 -0.9,0.37c-0.12,0.07 -0.16,0.25 -0.27,0.34c-0.03,0.01 -0.05,0.02 -0.08,0.03c-0.3,-0.16 -0.5,-0.38 -0.54,-0.8c0.19,-0.13 0.02,-0.4 0.13,-0.58c0.19,-0.33 0.58,-0.91 0.58,-1.29c0.14,-0.06 0.18,-0.17 0.31,-0.23c-0.14,-0.25 0.36,-0.58 0.46,-0.76c0.04,-0.07 0.11,-0.26 0.06,-0.3c0.49,-0.54 0.72,-1.29 1.14,-1.97c0.3,-0.49 0.49,-1.06 0.8,-1.54c0.05,-0.08 0.18,-0.43 0.15,-0.46c0.17,-0.2 0.33,-0.5 0.46,-0.73c0.06,-0.11 0.03,-0.22 0.06,-0.28c0.04,-0.02 0.08,-0.05 0.12,-0.08c0.2,-0.32 0.31,-0.66 0.53,-0.95c0.11,-0.15 0.1,-0.35 0.21,-0.5c0.18,-0.25 0.36,-0.54 0.52,-0.79c0.06,-0.07 -0.01,-0.16 0.07,-0.26c0.03,-0.04 0.09,-0.05 0.12,-0.11c-0.01,-0.04 -0.02,-0.09 -0.03,-0.14c0.09,-0.08 0.18,-0.17 0.28,-0.26c0.09,-0.15 0.11,-0.22 0.18,-0.37c0,-0.04 0,-0.09 0,-0.13c0.08,-0.13 0.25,-0.29 0.34,-0.42c0.05,-0.07 0.01,-0.14 0.06,-0.23c0.07,-0.13 0.24,-0.32 0.34,-0.44c0.07,-0.1 0.05,-0.23 0.12,-0.33c0.05,-0.06 0.17,-0.12 0.22,-0.19c0.07,-0.12 0.05,-0.24 0.12,-0.34c0.05,-0.07 0.17,-0.11 0.21,-0.19c0.03,-0.04 -0.02,-0.06 -0.03,-0.07c0.13,-0.18 0.43,-0.42 0.43,-0.71l0,0z" fill="#FFFFFF" id="svg_12"/>
   </g>
  </g>
 </g>
</svg>