<?xml version="1.0"?>
<svg width="1820" height="118" xmlns="http://www.w3.org/2000/svg" xmlns:svg="http://www.w3.org/2000/svg" xmlns:xlink="http://www.w3.org/1999/xlink" enable-background="new 0 0 1820 118" version="1.1" xml:space="preserve">
 <g class="layer">
  <title>Layer 1</title>
  <g id="svg_30">
   <g id="svg_29">
    <rect fill="#273C8B" height="118" id="배경" width="1820"/>
    <g id="svg_1">
     <defs>
      <rect height="105.4" id="SVGID_1_" width="1811.48" x="5.05" y="8.91"/>
     </defs>
     <clipPath id="SVGID_2_">
      <use id="svg_3" overflow="visible" xlink:href="#SVGID_1_"/>
     </clipPath>
     <g clip-path="url(#SVGID_2_)" id="svg_4" opacity="0.2">
      <g id="svg_5">
       <g id="svg_6">
        <g id="svg_7">
         <path d="m588.7,-11.4l-27.96,0l-19.78,19.56l0,27.65l19.78,19.56l27.96,0l19.77,-19.56l0,-27.65l-19.77,-19.56zm16.85,28.65l-4.6,0l0,-6.01l-6.55,-6.48l3.25,-3.22l7.9,7.81l0,7.9zm0,7l-4.6,0l-2.92,0l-6.87,0l-2.92,0l-3.73,0l0,-4.12l3.73,0l2.92,0l6.87,0l2.92,0l4.6,0l0,4.12zm-25.84,13.99l9.59,0l0.98,0.97l-5.91,5.84l-4.66,0l0,-6.81zm-9.99,6.81l-4.66,0l-5.7,-5.64l1.18,-1.17l9.18,0l0,6.81zm-25.84,-24.92l4.61,0l2.91,0l6.88,0l2.91,0l3.75,0l0,4.12l-3.75,0l-2.91,0l-6.88,0l-2.91,0l-4.61,0l0,-4.12zm25.84,-14.4l-9.18,0l-1.18,-1.17l5.7,-5.63l4.66,0l0,6.8zm0,11.52l-8.53,0l0,-2.45l6.35,0l0,-6.19l2.18,0l0,8.64zm-8.53,-5.33l0,-3.31l3.43,0l0,3.31l-3.43,0zm-2.91,-4.36l0,9.69l-6.88,0l0,-4.82l5.9,-5.83l0.98,0.96zm6.34,27.8l-3.43,0l0,-3.1l3.43,0l0,3.1zm-13.22,-8.23l6.88,0l0,9.28l-0.98,0.97l-5.9,-5.84l0,-4.41zm16.14,8.23l0,-5.98l-6.35,0l0,-2.25l8.53,0l0,8.23l-2.18,0zm5.1,-8.23l0,-2.88l-2.92,0l-1.86,0l0,-4.12l1.86,0l2.92,0l0,-2.88l0,-2.06l4.15,0l0,2.06l0,2.88l2.92,0l1.88,0l0,4.12l-1.88,0l-2.92,0l0,2.88l0,1.65l-4.15,0l0,-1.65zm7.07,-28.2l4.66,0l5.91,5.83l-0.76,0.75l0.22,0.22l-10.03,0l0,-6.8zm18.32,18.32l-6.87,0l0,-9.3l1.18,-1.15l5.69,5.63l0,4.82zm-12.49,-8.64l2.7,0l0,3.31l-2.7,0l0,-3.31zm-2.91,0l0,6.19l5.61,0l0,2.45l-8.53,0l0,-8.64l2.92,0zm-2.92,18.52l8.53,0l0,2.25l-5.61,0l0,5.98l-2.92,0l0,-8.23zm8.53,5.13l0,3.1l-2.69,0l0,-3.1l2.69,0zm2.93,3.75l-0.01,0.01l0,-8.89l6.87,0l0,4.41l-5.69,5.63l-1.17,-1.16zm4.43,-36.51l-3.26,3.23l-6.76,-6.69l-5.87,0l0,-4.55l7.78,0l8.11,8.01zm-18.81,-3.46l0,2.89l0,6.8l0,2.88l0,3.7l-4.15,0l0,-3.7l0,-2.88l0,-6.8l0,-2.89l0,-4.55l4.15,0l0,4.55zm-14.85,-4.55l7.78,0l0,4.55l-5.87,0l-6.54,6.48l-3.27,-3.22l7.9,-7.81zm-18.06,17.86l8.1,-8.02l3.26,3.23l-6.76,6.68l0,6.01l-4.6,0l0,-7.9zm0,17.78l4.61,0l0,5.6l6.75,6.69l-3.26,3.22l-8.1,-8.02l0,-7.49zm10.16,17.54l3.26,-3.22l6.55,6.48l5.87,0l0,4.55l-7.78,0l-7.9,-7.81zm18.6,3.26l0,-2.88l0,-6.81l0,-2.88l0,-3.7l4.15,0l0,3.7l0,2.88l0,6.81l0,2.88l0,4.55l-4.15,0l0,-4.55zm14.85,4.55l-7.78,0l0,-4.55l5.87,0l6.76,-6.69l3.26,3.23l-8.11,8.01zm18.06,-17.86l-7.9,7.81l-3.25,-3.22l6.55,-6.48l0,-5.6l4.6,0l0,7.49z" fill="#FFFFFF" id="svg_8"/>
        </g>
       </g>
      </g>
      <g id="svg_9">
       <g id="svg_10">
        <g id="svg_11">
         <path d="m335.85,73.04l-27.96,0l-19.77,19.55l0,27.66l19.77,19.55l27.96,0l19.77,-19.55l0,-27.66l-19.77,-19.55zm16.86,28.65l-4.61,0l0,-6.02l-6.55,-6.47l3.26,-3.22l7.9,7.81l0,7.9zm0,7l-4.61,0l-2.91,0l-6.88,0l-2.92,0l-3.73,0l0,-4.12l3.73,0l2.92,0l6.88,0l2.91,0l4.61,0l0,4.12zm-25.84,13.99l9.59,0l0.97,0.96l-5.9,5.84l-4.66,0l0,-6.8zm-9.99,6.8l-4.67,0l-5.69,-5.63l1.18,-1.17l9.18,0l0,6.8zm-25.85,-24.91l4.61,0l2.91,0l6.88,0l2.91,0l3.76,0l0,4.11l-3.76,0l-2.91,0l-6.88,0l-2.91,0l-4.61,0l0,-4.11zm25.85,-14.41l-9.18,0l-1.19,-1.17l5.7,-5.63l4.66,0l0,6.8l0.01,0zm0,11.53l-8.53,0l0,-2.45l6.34,0l0,-6.2l2.19,0l0,8.65zm-8.53,-5.33l0,-3.32l3.43,0l0,3.32l-3.43,0zm-2.92,-4.37l0,9.7l-6.88,0l0,-4.82l5.91,-5.84l0.97,0.96zm6.35,27.81l-3.44,0l0,-3.11l3.44,0l0,3.11zm-13.23,-8.23l6.88,0l0,9.28l-0.97,0.96l-5.91,-5.84l0,-4.4zm16.14,8.23l0,-5.99l-6.35,0l0,-2.24l8.53,0l0,8.23l-2.18,0zm5.1,-8.23l0,-2.89l-2.91,0l-1.87,0l0,-4.11l1.87,0l2.91,0l0,-2.88l0,-2.06l4.16,0l0,2.06l0,2.88l2.92,0l1.88,0l0,4.11l-1.88,0l-2.92,0l0,2.89l0,1.64l-4.16,0l0,-1.64zm7.08,-28.21l4.66,0l5.9,5.84l-0.75,0.74l0.21,0.22l-10.02,0l0,-6.8zm18.32,18.33l-6.88,0l0,-9.3l1.18,-1.15l5.7,5.63l0,4.82zm-12.49,-8.65l2.69,0l0,3.32l-2.69,0l0,-3.32zm-2.91,0l0,6.2l5.6,0l0,2.45l-8.52,0l0,-8.65l2.92,0zm-2.92,18.53l8.52,0l0,2.24l-5.6,0l0,5.99l-2.93,0l0,-8.23l0.01,0zm8.52,5.12l0,3.11l-2.69,0l0,-3.11l2.69,0zm2.93,3.76l-0.01,0.01l0,-8.89l6.88,0l0,4.4l-5.7,5.63l-1.17,-1.15zm4.43,-36.51l-3.26,3.22l-6.75,-6.68l-5.87,0l0,-4.56l7.77,0l8.11,8.02zm-18.8,-3.46l0,2.88l0,6.8l0,2.88l0,3.71l-4.16,0l0,-3.71l0,-2.88l0,-6.8l0,-2.88l0,-4.56l4.16,0l0,4.56zm-14.86,-4.56l7.79,0l0,4.56l-5.88,0l-6.54,6.48l-3.26,-3.23l7.89,-7.81zm-18.06,17.87l8.11,-8.02l3.25,3.22l-6.75,6.68l0,6.02l-4.61,0l0,-7.9zm0,17.78l4.61,0l0,5.6l6.75,6.68l-3.25,3.22l-8.11,-8.02l0,-7.48zm10.17,17.54l3.26,-3.22l6.54,6.47l5.88,0l0,4.56l-7.79,0l-7.89,-7.81zm18.59,3.25l0,-2.88l0,-6.8l0,-2.88l0,-3.71l4.16,0l0,3.71l0,2.88l0,6.8l0,2.88l0,4.56l-4.16,0l0,-4.56zm14.85,4.56l-7.77,0l0,-4.56l5.87,0l6.75,-6.68l3.26,3.22l-8.11,8.02zm18.07,-17.86l-7.9,7.81l-3.26,-3.23l6.55,-6.47l0,-5.6l4.61,0l0,7.49z" fill="#FFFFFF" id="svg_12"/>
        </g>
       </g>
      </g>
      <g id="svg_13">
       <g id="svg_14">
        <g id="svg_15">
         <path d="m30.55,39.05l-27.97,0l-19.77,19.56l0,27.65l19.77,19.56l27.97,0l19.77,-19.56l0,-27.65l-19.77,-19.56zm16.85,28.65l-4.6,0l0,-6.01l-6.55,-6.48l3.25,-3.22l7.9,7.81l0,7.9zm0,7l-4.6,0l-2.92,0l-6.87,0l-2.92,0l-3.73,0l0,-4.12l3.73,0l2.92,0l6.87,0l2.92,0l4.6,0l0,4.12zm-25.84,13.99l9.6,0l0.97,0.97l-5.91,5.83l-4.66,0l0,-6.8zm-9.99,6.81l-4.66,0l-5.7,-5.63l1.18,-1.17l9.18,0l0,6.8zm-25.84,-24.92l4.6,0l2.92,0l6.88,0l2.91,0l3.75,0l0,4.12l-3.75,0l-2.91,0l-6.88,0l-2.92,0l-4.6,0l0,-4.12zm25.84,-14.4l-9.18,0l-1.18,-1.17l5.7,-5.63l4.66,0l0,6.8zm0,11.52l-8.53,0l0,-2.45l6.35,0l0,-6.19l2.18,0l0,8.64zm-8.53,-5.33l0,-3.31l3.43,0l0,3.31l-3.43,0zm-2.91,-4.36l0,9.69l-6.88,0l0,-4.82l5.9,-5.83l0.98,0.96zm6.34,27.8l-3.43,0l0,-3.1l3.43,0l0,3.1zm-13.22,-8.23l6.88,0l0,9.28l-0.98,0.96l-5.9,-5.83l0,-4.41zm16.14,8.23l0,-5.99l-6.35,0l0,-2.24l8.53,0l0,8.23l-2.18,0zm5.09,-8.23l0,-2.88l-2.91,0l-1.86,0l0,-4.12l1.86,0l2.91,0l0,-2.88l0,-2.06l4.16,0l0,2.06l0,2.88l2.92,0l1.88,0l0,4.12l-1.88,0l-2.92,0l0,2.88l0,1.65l-4.16,0l0,-1.65zm7.08,-28.2l4.66,0l5.91,5.83l-0.76,0.75l0.22,0.22l-10.03,0l0,-6.8zm18.32,18.32l-6.87,0l0,-9.3l1.18,-1.15l5.69,5.63l0,4.82zm-12.49,-8.64l2.7,0l0,3.31l-2.7,0l0,-3.31zm-2.91,0l0,6.19l5.61,0l0,2.45l-8.53,0l0,-8.64l2.92,0zm-2.92,18.52l8.53,0l0,2.24l-5.61,0l0,5.99l-2.92,0l0,-8.23zm8.53,5.13l0,3.1l-2.7,0l0,-3.1l2.7,0zm2.93,3.75l-0.01,0.01l0,-8.89l6.87,0l0,4.41l-5.69,5.63l-1.17,-1.16zm4.43,-36.51l-3.26,3.23l-6.76,-6.69l-5.87,0l0,-4.55l7.78,0l8.11,8.01zm-18.81,-3.46l0,2.89l0,6.8l0,2.88l0,3.7l-4.16,0l0,-3.7l0,-2.88l0,-6.8l0,-2.89l0,-4.55l4.16,0l0,4.55zm-14.85,-4.55l7.78,0l0,4.55l-5.87,0l-6.55,6.48l-3.26,-3.22l7.9,-7.81zm-18.06,17.86l8.1,-8.02l3.26,3.23l-6.76,6.68l0,6.01l-4.6,0l0,-7.9zm0,17.78l4.6,0l0,5.6l6.76,6.69l-3.26,3.21l-8.1,-8.01l0,-7.49zm10.16,17.54l3.26,-3.22l6.55,6.48l5.87,0l0,4.55l-7.78,0l-7.9,-7.81zm18.59,3.26l0,-2.89l0,-6.8l0,-2.88l0,-3.7l4.16,0l0,3.7l0,2.88l0,6.8l0,2.89l0,4.55l-4.16,0l0,-4.55zm14.86,4.55l-7.78,0l0,-4.55l5.87,0l6.76,-6.69l3.26,3.23l-8.11,8.01zm18.06,-17.86l-7.89,7.81l-3.26,-3.22l6.55,-6.48l0,-5.6l4.6,0l0,7.49z" fill="#FFFFFF" id="svg_16"/>
        </g>
       </g>
      </g>
      <g id="svg_17">
       <g id="svg_18">
        <g id="svg_19">
         <path d="m1278.34,71.01l-27.96,0l-19.77,19.56l0,27.65l19.77,19.56l27.96,0l19.78,-19.56l0,-27.65l-19.78,-19.56zm16.86,28.65l-4.61,0l0,-6.01l-6.54,-6.48l3.25,-3.22l7.9,7.81l0,7.9zm0,7l-4.61,0l-2.91,0l-6.88,0l-2.91,0l-3.74,0l0,-4.12l3.74,0l2.91,0l6.88,0l2.91,0l4.61,0l0,4.12zm-25.84,13.99l9.59,0l0.97,0.96l-5.9,5.84l-4.66,0l0,-6.8zm-9.99,6.8l-4.67,0l-5.69,-5.63l1.18,-1.17l9.18,0l0,6.8zm-25.84,-24.91l4.6,0l2.91,0l6.88,0l2.92,0l3.75,0l0,4.12l-3.75,0l-2.92,0l-6.88,0l-2.91,0l-4.6,0l0,-4.12zm25.84,-14.41l-9.18,0l-1.18,-1.17l5.69,-5.63l4.67,0l0,6.8zm0,11.53l-8.53,0l0,-2.45l6.34,0l0,-6.19l2.19,0l0,8.64zm-8.53,-5.33l0,-3.31l3.43,0l0,3.31l-3.43,0zm-2.92,-4.37l0,9.7l-6.88,0l0,-4.82l5.91,-5.84l0.97,0.96zm6.35,27.81l-3.43,0l0,-3.11l3.43,0l0,3.11zm-13.23,-8.23l6.88,0l0,9.28l-0.97,0.96l-5.91,-5.83l0,-4.41zm16.14,8.23l0,-5.99l-6.34,0l0,-2.24l8.53,0l0,8.23l-2.19,0zm5.1,-8.23l0,-2.88l-2.91,0l-1.87,0l0,-4.12l1.87,0l2.91,0l0,-2.88l0,-2.06l4.16,0l0,2.06l0,2.88l2.92,0l1.88,0l0,4.12l-1.88,0l-2.92,0l0,2.88l0,1.64l-4.16,0l0,-1.64zm7.08,-28.21l4.66,0l5.9,5.84l-0.75,0.75l0.22,0.21l-10.03,0l0,-6.8zm18.32,18.33l-6.88,0l0,-9.3l1.18,-1.15l5.7,5.63l0,4.82zm-12.49,-8.64l2.7,0l0,3.31l-2.7,0l0,-3.31zm-2.91,0l0,6.19l5.61,0l0,2.45l-8.53,0l0,-8.64l2.92,0zm-2.92,18.52l8.53,0l0,2.24l-5.61,0l0,5.99l-2.92,0l0,-8.23zm8.53,5.12l0,3.11l-2.7,0l0,-3.11l2.7,0zm2.92,3.76l-0.01,0.01l0,-8.89l6.88,0l0,4.41l-5.7,5.63l-1.17,-1.16zm4.43,-36.51l-3.26,3.22l-6.75,-6.68l-5.87,0l0,-4.56l7.77,0l8.11,8.02zm-18.8,-3.46l0,2.88l0,6.8l0,2.89l0,3.7l-4.16,0l0,-3.7l0,-2.89l0,-6.8l0,-2.88l0,-4.56l4.16,0l0,4.56zm-14.85,-4.56l7.78,0l0,4.56l-5.87,0l-6.55,6.48l-3.26,-3.22l7.9,-7.82zm-18.06,17.87l8.1,-8.02l3.26,3.22l-6.76,6.69l0,6.01l-4.6,0l0,-7.9zm0,17.78l4.6,0l0,5.6l6.76,6.68l-3.26,3.22l-8.11,-8.01l0,-7.49l0.01,0zm10.16,17.54l3.26,-3.22l6.55,6.48l5.87,0l0,4.55l-7.78,0l-7.9,-7.81zm18.59,3.26l0,-2.88l0,-6.81l0,-2.88l0,-3.7l4.16,0l0,3.7l0,2.88l0,6.81l0,2.88l0,4.55l-4.16,0l0,-4.55zm14.85,4.55l-7.77,0l0,-4.56l5.87,0l6.75,-6.68l3.26,3.22l-8.11,8.02zm18.07,-17.86l-7.9,7.81l-3.25,-3.22l6.54,-6.48l0,-5.6l4.61,0l0,7.49z" fill="#FFFFFF" id="svg_20"/>
        </g>
       </g>
      </g>
      <g id="svg_21">
       <g id="svg_22">
        <g id="svg_23">
         <path d="m1472.89,-4.91l-27.97,0l-19.77,19.55l0,27.66l19.77,19.55l27.97,0l19.77,-19.55l0,-27.66l-19.77,-19.55zm16.85,28.65l-4.6,0l0,-6.01l-6.55,-6.48l3.26,-3.22l7.89,7.81l0,7.9zm0,7l-4.6,0l-2.92,0l-6.87,0l-2.92,0l-3.73,0l0,-4.12l3.73,0l2.92,0l6.87,0l2.92,0l4.6,0l0,4.12zm-25.84,13.99l9.6,0l0.97,0.96l-5.91,5.84l-4.66,0l0,-6.8zm-9.99,6.8l-4.66,0l-5.7,-5.63l1.19,-1.17l9.17,0l0,6.8zm-25.84,-24.91l4.6,0l2.92,0l6.88,0l2.91,0l3.75,0l0,4.12l-3.75,0l-2.91,0l-6.88,0l-2.92,0l-4.6,0l0,-4.12zm25.84,-14.41l-9.18,0l-1.18,-1.17l5.7,-5.63l4.66,0l0,6.8zm0,11.53l-8.53,0l0,-2.45l6.35,0l0,-6.2l2.18,0l0,8.65zm-8.53,-5.33l0,-3.32l3.44,0l0,3.32l-3.44,0zm-2.91,-4.37l0,9.7l-6.88,0l0,-4.82l5.9,-5.84l0.98,0.96zm6.34,27.81l-3.43,0l0,-3.11l3.43,0l0,3.11zm-13.22,-8.23l6.88,0l0,9.28l-0.98,0.96l-5.9,-5.84l0,-4.4zm16.14,8.23l0,-5.99l-6.35,0l0,-2.24l8.53,0l0,8.23l-2.18,0zm5.1,-8.23l0,-2.88l-2.92,0l-1.86,0l0,-4.12l1.86,0l2.92,0l0,-2.88l0,-2.06l4.15,0l0,2.06l0,2.88l2.92,0l1.88,0l0,4.12l-1.88,0l-2.92,0l0,2.88l0,1.64l-4.15,0l0,-1.64zm7.07,-28.21l4.66,0l5.91,5.84l-0.76,0.75l0.22,0.21l-10.03,0l0,-6.8zm18.32,18.33l-6.87,0l0,-9.31l1.18,-1.15l5.69,5.64l0,4.82zm-12.48,-8.65l2.69,0l0,3.32l-2.69,0l0,-3.32zm-2.92,0l0,6.2l5.61,0l0,2.45l-8.53,0l0,-8.65l2.92,0zm-2.92,18.53l8.53,0l0,2.24l-5.61,0l0,5.99l-2.92,0l0,-8.23zm8.53,5.12l0,3.11l-2.69,0l0,-3.11l2.69,0zm2.93,3.76l-0.01,0.01l0,-8.89l6.87,0l0,4.4l-5.69,5.63l-1.17,-1.15zm4.43,-36.51l-3.26,3.22l-6.76,-6.68l-5.87,0l0,-4.56l7.78,0l8.11,8.02zm-18.81,-3.46l0,2.88l0,6.8l0,2.88l0,3.71l-4.15,0l0,-3.71l0,-2.88l0,-6.8l0,-2.88l0,-4.56l4.15,0l0,4.56zm-14.85,-4.56l7.78,0l0,4.56l-5.87,0l-6.55,6.48l-3.26,-3.23l7.9,-7.81zm-18.06,17.87l8.1,-8.02l3.26,3.22l-6.76,6.69l0,6.01l-4.6,0l0,-7.9zm0,17.78l4.6,0l0,5.6l6.76,6.68l-3.26,3.22l-8.1,-8.01l0,-7.49zm10.16,17.54l3.26,-3.22l6.55,6.47l5.87,0l0,4.56l-7.78,0l-7.9,-7.81zm18.6,3.25l0,-2.88l0,-6.8l0,-2.88l0,-3.71l4.15,0l0,3.71l0,2.88l0,6.8l0,2.88l0,4.56l-4.15,0l0,-4.56zm14.85,4.56l-7.78,0l0,-4.56l5.87,0l6.76,-6.68l3.26,3.22l-8.11,8.02zm18.06,-17.87l-7.89,7.82l-3.26,-3.23l6.55,-6.47l0,-5.6l4.6,0l0,7.48z" fill="#FFFFFF" id="svg_24"/>
        </g>
       </g>
      </g>
      <g id="svg_25">
       <g id="svg_26">
        <g id="svg_27">
         <path d="m1768.93,33.81l-27.96,0l-19.77,19.56l0,27.65l19.77,19.56l27.96,0l19.77,-19.56l0,-27.65l-19.77,-19.56zm16.86,28.65l-4.61,0l0,-6.01l-6.55,-6.48l3.26,-3.22l7.9,7.81l0,7.9zm0,7l-4.61,0l-2.91,0l-6.88,0l-2.91,0l-3.74,0l0,-4.12l3.74,0l2.91,0l6.88,0l2.91,0l4.61,0l0,4.12zm-25.84,13.99l9.59,0l0.97,0.97l-5.9,5.83l-4.66,0l0,-6.8zm-10,6.8l-4.66,0l-5.69,-5.63l1.18,-1.17l9.18,0l0,6.8l-0.01,0zm-25.84,-24.91l4.61,0l2.91,0l6.88,0l2.91,0l3.76,0l0,4.12l-3.76,0l-2.91,0l-6.88,0l-2.91,0l-4.61,0l0,-4.12zm25.84,-14.4l-9.17,0l-1.18,-1.18l5.69,-5.63l4.66,0l0,6.81zm0,11.52l-8.52,0l0,-2.45l6.34,0l0,-6.2l2.19,0l0,8.65l-0.01,0zm-8.52,-5.33l0,-3.32l3.43,0l0,3.32l-3.43,0zm-2.92,-4.37l0,9.7l-6.88,0l0,-4.82l5.91,-5.84l0.97,0.96zm6.35,27.81l-3.44,0l0,-3.11l3.44,0l0,3.11zm-13.23,-8.23l6.88,0l0,9.28l-0.97,0.96l-5.91,-5.83l0,-4.41zm16.14,8.23l0,-5.99l-6.35,0l0,-2.24l8.53,0l0,8.23l-2.18,0zm5.1,-8.23l0,-2.88l-2.91,0l-1.87,0l0,-4.12l1.87,0l2.91,0l0,-2.88l0,-2.06l4.16,0l0,2.06l0,2.88l2.92,0l1.88,0l0,4.12l-1.88,0l-2.92,0l0,2.88l0,1.64l-4.16,0l0,-1.64zm7.08,-28.21l4.66,0l5.9,5.84l-0.75,0.75l0.21,0.22l-10.02,0l0,-6.81zm18.32,18.33l-6.88,0l0,-9.3l1.18,-1.15l5.7,5.63l0,4.82zm-12.49,-8.65l2.69,0l0,3.32l-2.69,0l0,-3.32zm-2.91,0l0,6.2l5.6,0l0,2.45l-8.52,0l0,-8.65l2.92,0zm-2.92,18.53l8.52,0l0,2.24l-5.6,0l0,5.99l-2.92,0l0,-8.23zm8.52,5.12l0,3.11l-2.69,0l0,-3.11l2.69,0zm2.93,3.76l-0.01,0.01l0,-8.89l6.88,0l0,4.41l-5.7,5.63l-1.17,-1.16zm4.43,-36.51l-3.26,3.22l-6.75,-6.68l-5.87,0l0,-4.56l7.77,0l8.11,8.02zm-18.8,-3.46l0,2.88l0,6.81l0,2.87l0,3.71l-4.16,0l0,-3.71l0,-2.87l0,-6.81l0,-2.88l0,-4.56l4.16,0l0,4.56zm-14.85,-4.56l7.77,0l0,4.56l-5.87,0l-6.54,6.48l-3.26,-3.23l7.9,-7.81zm-18.07,17.87l8.11,-8.02l3.26,3.22l-6.76,6.69l0,6.01l-4.61,0l0,-7.9zm0,17.78l4.61,0l0,5.6l6.76,6.68l-3.26,3.22l-8.11,-8.01l0,-7.49zm10.17,17.54l3.26,-3.22l6.54,6.48l5.88,0l0,4.55l-7.78,0l-7.9,-7.81zm18.59,3.26l0,-2.89l0,-6.8l0,-2.88l0,-3.71l4.16,0l0,3.71l0,2.88l0,6.8l0,2.88l0,4.56l-4.16,0l0,-4.55zm14.85,4.55l-7.77,0l0,-4.56l5.87,0l6.75,-6.68l3.26,3.22l-8.11,8.02zm18.07,-17.86l-7.9,7.81l-3.26,-3.22l6.55,-6.48l0,-5.6l4.61,0l0,7.49z" fill="#FFFFFF" id="svg_28"/>
        </g>
       </g>
      </g>
     </g>
    </g>
   </g>
   <g id="테두리">
    <path d="m1818.55,118l-1816.97,0l0,-116.5l1816.97,0l0,116.5zm-1813.93,-3.58l1810.89,0l0,-109.33l-1810.89,0l0,109.33z" fill="#7A80BE" id="svg_2" stroke="#7A80BE" stroke-miterlimit="10" stroke-width="4"/>
   </g>
  </g>
  <rect fill="#7A80BE" height="26.13" id="도형" width="362.98" x="728.51" y="74.42"/>
  <text fill="#F7F2F4" font-family="&#x27;GmarketSansTTFBold&#x27;" font-size="70" id="_x31_6자" x="734.54" y="77.43">친절한 가게</text>
 </g>
</svg>