<?xml version="1.0"?>
<svg width="1864" height="90" xmlns="http://www.w3.org/2000/svg" xmlns:svg="http://www.w3.org/2000/svg" xmlns:xlink="http://www.w3.org/1999/xlink" enable-background="new 0 0 1864 90" version="1.0" xml:space="preserve">
 <linearGradient id="SVGID_1_" x1="0" x2="1" y1="0.5" y2="0.5">
  <stop offset="0" stop-color="#030204"/>
  <stop offset="1" stop-color="#1A1615"/>
 </linearGradient>
 <g class="layer">
  <title>Layer 1</title>
  <rect fill="url(#SVGID_1_)" height="90" id="svg_3" width="1286.39" x="577.61"/>
  <g id="svg_4">
   <g id="svg_7">
    <path d="m1461.57,51.7c3.55,0.87 7.12,-0.95 8.59,-4.15l-14.34,-3.48c-0.14,3.52 2.2,6.77 5.75,7.63z" fill="#F99B3E" id="svg_8"/>
    <path d="m1465.12,37.08c-3.55,-0.86 -7.12,0.96 -8.59,4.15l14.34,3.48c0.14,-3.51 -2.2,-6.76 -5.75,-7.63z" fill="#F99B3E" id="svg_9"/>
   </g>
   <g id="svg_10">
    <path d="m1819.6,51.2c3.55,0.87 7.12,-0.95 8.59,-4.15l-14.34,-3.48c-0.15,3.52 2.19,6.77 5.75,7.63z" fill="#F99B3E" id="svg_11"/>
    <path d="m1823.14,36.58c-3.55,-0.86 -7.12,0.95 -8.6,4.15l14.34,3.48c0.15,-3.52 -2.19,-6.76 -5.74,-7.63z" fill="#F99B3E" id="svg_12"/>
   </g>
   <g id="svg_13">
    <path d="m1501.97,53.35c-1.88,0 -2.68,-0.81 -2.68,-2.61l0,-11.58c0,-0.47 -0.13,-0.84 -0.37,-1.14l8.03,0c3.96,0 5.53,1.12 5.53,3.92c0,1.63 -1.07,3.06 -2.57,3.45c2.18,0.52 3.08,1.59 3.08,3.69c0,2.91 -1.88,4.27 -5.85,4.27l-5.17,0zm4.03,-8.41c1.84,0 2.76,-0.98 2.76,-2.91c0,-1.93 -0.92,-2.89 -2.77,-2.89l-2.99,0l0,5.79l3,0l0,0.01zm-3,1.12l0,5.25c0,0.66 0.28,0.92 1.01,0.92l2.21,0c2.03,0 3.04,-1.03 3.04,-3.09c0,-2.04 -0.99,-3.07 -3,-3.07l-3.26,0l0,-0.01z" fill="#F99B3E" id="svg_14"/>
    <path d="m1518.1,53.35c-1.88,0 -2.68,-0.81 -2.68,-2.61l0,-11.58c0,-0.47 -0.13,-0.84 -0.38,-1.14l11.81,0l0,1.12l-7.69,0l0,5.98l7.31,0l0,1.12l-7.31,0l0,5.06c0,0.66 0.28,0.92 1.01,0.92l6.86,0l0,1.13l-8.93,0z" fill="#F99B3E" id="svg_15"/>
    <path d="m1534.08,46.94c-3.52,-1.2 -4.97,-2.64 -4.97,-4.97c0,-2.83 2.08,-4.24 6.23,-4.24c4.12,0 6.09,1.46 6.09,4.48l-3.75,0c0,-2.46 -0.66,-3.36 -2.47,-3.36c-1.56,0 -2.34,0.64 -2.34,1.89c0,1.59 0.96,2.48 4.2,3.56c3.51,1.26 4.93,2.59 4.93,4.86c0,2.92 -2.29,4.46 -6.69,4.46c-4.35,0 -6.75,-1.57 -6.75,-4.48l3.75,0c0,2.23 1.05,3.36 3.13,3.36c1.67,0 2.81,-0.79 2.81,-1.99c-0.01,-1.69 -0.94,-2.46 -4.17,-3.57z" fill="#F99B3E" id="svg_16"/>
    <path d="m1547.9,53.35l0,-14.21l-4.59,0l0,-1.12l12.94,0l0,1.12l-4.59,0l0,14.21l-3.76,0z" fill="#F99B3E" id="svg_17"/>
    <path d="m1562.82,45.69c0,-5.19 2.44,-7.95 6.94,-7.95c4.01,0 6.56,1.86 6.56,4.95l-3.75,0c0,-2.72 -0.86,-3.83 -2.81,-3.83c-2.19,0 -3.19,2.06 -3.19,6.86s0.99,6.79 3.19,6.79c2.01,0 3.19,-1.56 3.19,-4.35l3.75,0c0,3.3 -2.81,5.47 -6.94,5.47c-4.51,0 -6.94,-2.75 -6.94,-7.94z" fill="#F99B3E" id="svg_18"/>
    <path d="m1579.36,53.35l-1.54,0c0.21,-0.09 0.41,-0.34 0.58,-0.75l6.02,-14.59l1.8,0l6.96,15.34l-4.65,0c0.32,-0.19 0.47,-0.43 0.47,-0.71c0,-0.13 -0.04,-0.28 -0.09,-0.43l-0.86,-1.91l-7.41,0l-1.28,3.05zm1.74,-4.18l6.43,0l-3.32,-7.37l-3.11,7.37z" fill="#F99B3E" id="svg_19"/>
    <path d="m1594.5,38.02l11.62,0l0,1.12l-7.5,0l0,6.17l7.12,0l0,1.12l-7.12,0l0,6.92l-3.75,0l0,-14.19c0,-0.47 -0.13,-0.84 -0.37,-1.14z" fill="#F99B3E" id="svg_20"/>
    <path d="m1611.06,53.35c-1.88,0 -2.68,-0.81 -2.68,-2.61l0,-11.58c0,-0.47 -0.13,-0.84 -0.38,-1.14l11.81,0l0,1.12l-7.69,0l0,5.98l7.31,0l0,1.12l-7.31,0l0,5.06c0,0.66 0.28,0.92 1.01,0.92l6.86,0l0,1.13l-8.93,0z" fill="#F99B3E" id="svg_21"/>
    <path d="m1629.01,39.14l-1.88,0l0,-1.12l7.5,0l0,1.12l-1.88,0l0,12.3c0,0.6 0.23,0.79 0.88,0.79l1.37,0l0,1.13l-8.25,0l0,-1.13l1.37,0c0.66,0 0.88,-0.19 0.88,-0.79l0,-12.3l0.01,0z" fill="#F99B3E" id="svg_22"/>
    <path d="m1648.6,39.16c0,-0.47 -0.13,-0.84 -0.37,-1.14l1.59,0l0,15.34l-1.69,0l-9.47,-13.39l0,13.39l-1.22,0l0,-14.2c0,-0.47 -0.13,-0.84 -0.38,-1.14l4.52,0l7.01,9.77l0,-8.63l0.01,0z" fill="#F99B3E" id="svg_23"/>
    <path d="m1661.17,53.35l0,-14.21l-4.59,0l0,-1.12l12.94,0l0,1.12l-4.59,0l0,14.21l-3.76,0z" fill="#F99B3E" id="svg_24"/>
    <path d="m1680.77,38.02l4.12,0l0,15.34l-3.75,0l0,-7.29l-5.81,0l0,7.29l-3.75,0l0,-14.2c0,-0.47 -0.13,-0.84 -0.37,-1.14l4.12,0l0,6.92l5.81,0l0,-5.78c0,-0.47 -0.13,-0.84 -0.37,-1.14z" fill="#F99B3E" id="svg_25"/>
    <path d="m1690.21,53.35c-1.88,0 -2.68,-0.81 -2.68,-2.61l0,-11.58c0,-0.47 -0.13,-0.84 -0.37,-1.14l11.81,0l0,1.12l-7.69,0l0,5.98l7.31,0l0,1.12l-7.31,0l0,5.06c0,0.66 0.28,0.92 1.01,0.92l6.86,0l0,1.13l-8.94,0z" fill="#F99B3E" id="svg_26"/>
    <path d="m1720.96,48.74l2.72,-9.58c0.04,-0.13 0.06,-0.26 0.06,-0.37c0,-0.21 0,-0.49 -0.43,-0.77l2.1,0l-4.8,15.34l-1.61,0l-3.45,-10.24l-3.6,10.24l-1.61,0l-4.31,-14.59c-0.13,-0.39 -0.39,-0.66 -0.68,-0.75l4.01,0l3.06,10.61l2.49,-7.39l-0.83,-2.48c-0.13,-0.39 -0.39,-0.66 -0.68,-0.75l4.01,0l3.55,10.73z" fill="#F99B3E" id="svg_27"/>
    <path d="m1735.63,37.74c4.57,0 7.12,2.76 7.12,7.95c0,4.95 -2.76,7.95 -7.12,7.95c-4.57,0 -7.12,-2.76 -7.12,-7.95c0,-5.2 2.55,-7.95 7.12,-7.95zm0,14.81c2.32,0 3.41,-2.12 3.41,-6.86c0,-4.74 -1.09,-6.86 -3.41,-6.86s-3.41,2.12 -3.41,6.86c0,4.74 1.09,6.86 3.41,6.86z" fill="#F99B3E" id="svg_28"/>
    <path d="m1745.2,39.16c0,-0.47 -0.13,-0.84 -0.38,-1.14l8.16,0c3.69,0 5.53,1.78 5.53,5.32c0,2.29 -0.75,3.84 -2.27,4.67l2.66,5.34l-3.84,0l-2.33,-4.67l-3.79,0l0,4.67l-3.75,0l0,-14.19l0.01,0zm5.74,8.4c2.64,0 3.86,-1.35 3.86,-4.22c0,-2.85 -1.18,-4.16 -3.86,-4.18l-1.99,0l0,8.4l1.99,0z" fill="#F99B3E" id="svg_29"/>
    <path d="m1760.79,38.02l4.12,0l0,14.21l7.5,0l0,1.13l-11.25,0l0,-14.2c0,-0.47 -0.13,-0.84 -0.37,-1.14z" fill="#F99B3E" id="svg_30"/>
    <path d="m1777.16,53.35c-1.88,0 -2.68,-0.81 -2.68,-2.61l0,-11.58c0,-0.47 -0.13,-0.84 -0.37,-1.14l5.7,0c5.57,0 8.17,2.4 8.17,7.67s-2.61,7.67 -8.17,7.67l-2.65,0l0,-0.01zm7.1,-7.66c0,-4.82 -1.29,-6.54 -4.82,-6.54l-1.26,0l0,12.17c0,0.66 0.28,0.92 1.01,0.92c3.71,-0.01 5.07,-1.74 5.07,-6.55z" fill="#F99B3E" id="svg_31"/>
   </g>
  </g>
  <g id="svg_5">
   <defs>
    <rect height="90" id="SVGID_00000178921505446050605270000006774319262618199477_" width="1864"/>
   </defs>
   <clipPath id="SVGID_00000042711347056305699730000017873104695153373358_">
    <use id="svg_32" overflow="visible" xlink:href="#SVGID_00000178921505446050605270000006774319262618199477_"/>
   </clipPath>
   <g clip-path="url(#SVGID_00000042711347056305699730000017873104695153373358_)" id="svg_33" transform="matrix(1 0 0 1 0 0)">
    <image height="451.4" id="svg_1" overflow="visible" preserveAspectRatio="none" transform="matrix(1,0,0,1,0,0)" width="601.94" x="0" xlink:href="F32B8DC6.jpg" y="-115.07"/>
   </g>
  </g>
  <path d="m927.01,19.14c0.66,-0.19 1.29,-0.49 1.95,-0.7c0.54,-0.17 1.13,-0.21 1.64,-0.44c0,0 15.26,-7.05 15.26,-7.05c5.79,-3.21 10.03,1.37 7.8,3.15c-0.5,0.4 -1.05,0.61 -1.7,0.48c-0.06,-0.14 -0.13,-0.24 -0.15,-0.36c-0.34,-2.38 -2.78,-1.26 -2.4,0.45c0.17,0.78 0.52,1.4 1.37,1.72c1.47,0.55 3.81,0.38 4.62,-0.53c3.88,-4.3 -0.05,-10.37 -8.11,-10.41c-1.14,0 -2.28,0.13 -3.42,0.18c-9.04,0.41 -14.43,4.64 -18.48,5.93c-0.03,-3.9 -3.04,-5.35 -5.76,-3.05c-0.61,0.51 -0.7,1.76 -0.27,2.37c0.41,0.58 1.22,0.59 2.06,0.05c0.06,-0.04 0.15,-0.01 0.23,-0.02c0.59,0.78 0.68,0.93 0.28,1.35c-4.38,4.46 -10.86,3.74 -12.24,2.98c-0.67,-0.37 -0.7,-0.61 -0.46,-1.52c0,0 0,0 0,-0.01c-0.91,-0.02 -0.68,0.11 -0.79,-0.65c0.36,0.29 0.58,0.47 0.79,0.64c0,0 0,0 0,0.01c0,0 0,0 0,0c0,0 0,0 0,0.01c0.24,1.47 2.52,-0.47 1.61,-1.78c-0.99,-1.42 -3.32,-1.27 -3.71,1.21c-0.57,3.5 6.63,9.81 19.88,5.99zm27.9,-8.48c-0.45,-0.47 -0.91,-0.94 -1.39,-1.44c0.75,0.22 1.03,0.48 1.39,1.44zm-8.37,-2.81c0.88,-0.12 1.78,-0.12 2.68,-0.13c0.15,0 0.3,0.27 0.46,0.41c0.95,-0.61 1.77,-0.11 2.61,0.3c-11.43,-1.46 -18.41,7.65 -29.58,8.82c0.52,-0.28 1,-0.67 1.56,-0.84c5.62,-1.72 12.66,-7.28 22.27,-8.56zm-22.98,4.22c-0.24,-0.91 -0.46,-1.78 -0.71,-2.74c1.02,0.39 1.87,2.19 0.71,2.74zm12.05,-2.94c0.03,0.08 0.06,0.16 0.09,0.24c-4.72,2.3 -14.91,7.65 -18.55,7.48c15.9,-6.45 10.38,-4.95 18.46,-7.72z" fill="#F99B3E" id="svg_6"/>
  <text fill="#F4E2CE" font-family="&#x27;62570&#x27;" font-size="47" id="svg_2" transform="matrix(1,0,0,1,0,0)" x="837.25" y="65.41">지니카페</text>
 </g>
</svg>