<?xml version="1.0" encoding="utf-8"?>
<!-- Generator: Adobe Illustrator 16.0.0, SVG Export Plug-In . SVG Version: 6.00 Build 0)  -->
<!DOCTYPE svg PUBLIC "-//W3C//DTD SVG 1.1//EN" "http://www.w3.org/Graphics/SVG/1.1/DTD/svg11.dtd">
<svg version="1.1" id="Layer_1" xmlns="http://www.w3.org/2000/svg" xmlns:xlink="http://www.w3.org/1999/xlink" x="0px" y="0px"
	 width="44.39px" height="42.54px" viewBox="0 0 44.39 42.54" enable-background="new 0 0 44.39 42.54" xml:space="preserve">
<g>
	<path fill="#FDBA33" d="M41.554,14.586l-11.865-1.725L24.384,2.11c-0.896-1.813-3.48-1.813-4.373,0l-5.305,10.751L2.841,14.586
		c-2.001,0.29-2.799,2.748-1.354,4.159l8.586,8.368L8.048,38.928c-0.341,1.995,1.748,3.513,3.537,2.572l10.612-5.579L32.81,41.5
		c1.789,0.94,3.878-0.577,3.537-2.572l-2.025-11.814l8.583-8.368C44.353,17.334,43.555,14.876,41.554,14.586z"/>
	<path fill="#2D2E2D" d="M33.945,42.535L33.945,42.535c-0.516,0-1.016-0.125-1.484-0.371l-10.264-5.396l-10.264,5.396
		c-1.322,0.695-2.976,0.354-3.928-0.773c-0.611-0.725-0.858-1.644-0.697-2.589l1.959-11.427l-8.304-8.093
		c-0.875-0.854-1.184-2.107-0.805-3.271c0.378-1.162,1.364-1.993,2.574-2.168l11.475-1.668l5.13-10.397
		C19.878,0.682,20.974,0,22.196,0s2.318,0.682,2.86,1.778l5.13,10.397l11.475,1.668c1.21,0.176,2.196,1.007,2.574,2.169
		c0.378,1.163,0.068,2.416-0.808,3.27l-8.301,8.093l1.959,11.426c0.161,0.946-0.086,1.865-0.697,2.59
		C35.775,42.118,34.884,42.535,33.945,42.535z M22.197,35.171c0.12,0,0.24,0.028,0.349,0.086l10.612,5.579
		c0.707,0.372,1.581,0.184,2.084-0.413c0.321-0.381,0.451-0.866,0.365-1.369L33.582,27.24c-0.042-0.243,0.039-0.491,0.216-0.664
		l8.583-8.368c0.472-0.459,0.631-1.106,0.428-1.731s-0.712-1.054-1.362-1.148l-11.865-1.725c-0.245-0.035-0.456-0.188-0.565-0.41
		L23.711,2.442C23.42,1.853,22.854,1.5,22.196,1.5s-1.223,0.352-1.513,0.941l-5.305,10.752c-0.109,0.222-0.32,0.375-0.565,0.41
		L2.948,15.328c-0.65,0.095-1.16,0.523-1.363,1.148s-0.044,1.272,0.427,1.731l8.585,8.368c0.177,0.172,0.258,0.421,0.216,0.664
		L8.787,39.055c-0.086,0.502,0.044,0.987,0.365,1.368c0.503,0.597,1.378,0.786,2.084,0.413l10.612-5.579
		C21.957,35.199,22.077,35.171,22.197,35.171z"/>
</g>
</svg>
