<?xml version="1.0" encoding="utf-8"?>
<!-- Generator: Adobe Illustrator 16.0.0, SVG Export Plug-In . SVG Version: 6.00 Build 0)  -->
<!DOCTYPE svg PUBLIC "-//W3C//DTD SVG 1.1//EN" "http://www.w3.org/Graphics/SVG/1.1/DTD/svg11.dtd">
<svg version="1.1" id="Layer_1" xmlns="http://www.w3.org/2000/svg" xmlns:xlink="http://www.w3.org/1999/xlink" x="0px" y="0px"
	 width="44.3px" height="42.48px" viewBox="0 0 44.3 42.48" enable-background="new 0 0 44.3 42.48" xml:space="preserve">
<g>
	<path fill="#2CAF9F" d="M22.147,34.637c1.047,0,2.09,0.258,3.017,0.744l7.982,4.197c0.141,0.074,0.275,0.109,0.411,0.109
		c0.251,0,0.515-0.127,0.688-0.334c0.168-0.199,0.228-0.43,0.181-0.705l-1.524-8.889c-0.361-2.104,0.336-4.248,1.864-5.738
		l6.458-6.295c0.342-0.332,0.286-0.709,0.223-0.904c-0.063-0.195-0.239-0.531-0.712-0.6l-8.925-1.297
		c-2.112-0.307-3.937-1.633-4.881-3.547l-3.991-8.087C22.728,2.863,22.353,2.8,22.147,2.8l0,0V34.637L22.147,34.637z"/>
	<path fill="#47C0B9" d="M21.356,3.291l-3.991,8.087c-0.944,1.914-2.769,3.24-4.88,3.547L3.56,16.222
		c-0.473,0.068-0.648,0.404-0.713,0.6c-0.063,0.195-0.117,0.572,0.224,0.904l6.458,6.295c1.529,1.49,2.225,3.635,1.865,5.738
		l-1.525,8.889c-0.047,0.275,0.013,0.506,0.182,0.705c0.174,0.207,0.438,0.334,0.688,0.334c0.137,0,0.271-0.035,0.411-0.109
		l7.982-4.197c0.927-0.486,1.97-0.744,3.017-0.744V2.8C21.942,2.8,21.567,2.863,21.356,3.291z"/>
	<g>
		<path fill="none" d="M21.356,3.291l-3.991,8.087c-0.944,1.914-2.769,3.24-4.88,3.547L3.56,16.222
			c-0.473,0.068-0.648,0.404-0.713,0.6c-0.063,0.195-0.117,0.572,0.224,0.904l6.458,6.295c1.529,1.49,2.225,3.635,1.865,5.738
			l-1.525,8.889c-0.047,0.275,0.013,0.506,0.182,0.705c0.174,0.207,0.438,0.334,0.688,0.334c0.137,0,0.271-0.035,0.411-0.109
			l7.982-4.197c0.927-0.486,1.97-0.744,3.017-0.744V2.8C21.942,2.8,21.567,2.863,21.356,3.291z"/>
		<path fill="none" d="M22.147,34.637c1.047,0,2.09,0.258,3.017,0.744l7.982,4.197c0.141,0.074,0.275,0.109,0.411,0.109
			c0.251,0,0.515-0.127,0.688-0.334c0.168-0.199,0.228-0.43,0.181-0.705l-1.524-8.889c-0.361-2.104,0.336-4.248,1.864-5.738
			l6.458-6.295c0.342-0.332,0.286-0.709,0.223-0.904c-0.063-0.195-0.239-0.531-0.712-0.6l-8.925-1.297
			c-2.112-0.307-3.937-1.633-4.881-3.547l-3.991-8.087C22.728,2.863,22.353,2.8,22.147,2.8l0,0V34.637L22.147,34.637z"/>
		<path fill="#E5E8EA" d="M43.929,15.5c-0.142-0.297-0.322-0.576-0.539-0.826c-0.365-0.426-0.84-0.764-1.396-0.986
			c-0.267-0.105-0.549-0.191-0.854-0.236l-8.926-1.297c-0.3-0.043-0.589-0.123-0.863-0.234c-0.549-0.225-1.035-0.578-1.418-1.031
			c-0.191-0.227-0.356-0.477-0.491-0.748l-3.991-8.088c-0.169-0.342-0.378-0.641-0.616-0.897c-0.172-0.186-0.363-0.34-0.563-0.48
			c-0.078-0.056-0.155-0.115-0.237-0.164C23.457,0.17,22.802,0,22.147,0l0,0v2.8l0,0c0.205,0,0.58,0.063,0.791,0.491l3.991,8.087
			c0.944,1.914,2.769,3.24,4.881,3.547l8.925,1.297c0.473,0.068,0.649,0.404,0.712,0.6c0.063,0.195,0.119,0.572-0.223,0.904
			l-6.458,6.295c-1.528,1.49-2.226,3.635-1.864,5.738l1.524,8.889c0.047,0.275-0.013,0.506-0.181,0.705
			c-0.174,0.207-0.438,0.334-0.688,0.334c-0.136,0-0.271-0.035-0.411-0.109l-7.982-4.197c-0.927-0.486-1.97-0.744-3.017-0.744l0,0
			v2.801l0,0c0.589,0,1.178,0.141,1.714,0.422l7.982,4.197c0,0,0.001,0,0.002,0.002c0.156,0.082,0.313,0.148,0.472,0.205
			c0.053,0.02,0.104,0.033,0.156,0.049c0.107,0.035,0.216,0.066,0.324,0.09c0.06,0.012,0.119,0.021,0.179,0.031
			c0.103,0.018,0.205,0.029,0.308,0.037c0.059,0.006,0.117,0.01,0.175,0.012c0.063,0.002,0.127-0.002,0.19-0.004
			c0.221-0.006,0.438-0.027,0.649-0.072c0.021-0.006,0.042-0.006,0.062-0.01c0.226-0.053,0.442-0.131,0.652-0.223
			c0.049-0.021,0.096-0.043,0.143-0.064c0.205-0.102,0.403-0.215,0.586-0.35c0.02-0.014,0.036-0.031,0.056-0.045
			c0.168-0.129,0.322-0.273,0.467-0.43c0.033-0.035,0.067-0.07,0.099-0.107c0.147-0.172,0.28-0.355,0.394-0.555
			c0.022-0.037,0.04-0.078,0.062-0.117c0.098-0.184,0.18-0.377,0.245-0.58c0.011-0.035,0.026-0.068,0.036-0.104
			c0.065-0.225,0.104-0.461,0.124-0.705c0.004-0.055,0.006-0.109,0.008-0.164c0.009-0.254,0.002-0.512-0.044-0.777l-1.525-8.889
			c-0.102-0.598-0.054-1.201,0.128-1.762c0.182-0.559,0.498-1.076,0.932-1.498l3.229-3.148l3.229-3.147
			c0.684-0.666,1.035-1.486,1.104-2.313C44.337,16.757,44.211,16.093,43.929,15.5z"/>
		<path fill="#FFFFFF" d="M19.131,35.381l-7.982,4.197c-0.141,0.074-0.274,0.109-0.411,0.109c-0.25,0-0.514-0.127-0.688-0.334
			c-0.169-0.199-0.229-0.43-0.182-0.705l1.525-8.889c0.359-2.104-0.336-4.248-1.865-5.738L3.07,17.726
			c-0.341-0.332-0.286-0.709-0.224-0.904c0.064-0.195,0.24-0.531,0.713-0.6l8.926-1.297c2.111-0.307,3.936-1.633,4.88-3.547
			l3.991-8.087C21.567,2.863,21.942,2.8,22.147,2.8V0c-1.116,0-2.229,0.499-2.953,1.488c-0.129,0.175-0.248,0.358-0.349,0.563
			l-3.991,8.088c-0.135,0.271-0.3,0.521-0.491,0.748c-0.383,0.453-0.869,0.807-1.418,1.031c-0.274,0.111-0.563,0.191-0.863,0.234
			l-8.925,1.297c-1.511,0.219-2.567,1.258-2.973,2.506c-0.355,1.094-0.213,2.348,0.561,3.357c0.111,0.145,0.234,0.285,0.371,0.418
			l6.458,6.295c0.218,0.211,0.405,0.445,0.561,0.697c0.312,0.504,0.497,1.076,0.542,1.668c0.021,0.295,0.008,0.596-0.043,0.895
			l-1.525,8.889c-0.045,0.266-0.053,0.523-0.044,0.777c0.002,0.055,0.003,0.109,0.008,0.164c0.02,0.244,0.06,0.48,0.124,0.705
			c0.01,0.035,0.024,0.068,0.035,0.102c0.065,0.203,0.148,0.398,0.247,0.584c0.021,0.037,0.038,0.078,0.06,0.115
			c0.114,0.197,0.247,0.383,0.395,0.555c0.031,0.037,0.065,0.07,0.098,0.105c0.146,0.156,0.301,0.303,0.471,0.434
			c0.018,0.014,0.033,0.029,0.052,0.043c0.184,0.135,0.382,0.248,0.588,0.35c0.046,0.021,0.094,0.043,0.142,0.064
			c0.21,0.092,0.427,0.17,0.652,0.223c0.02,0.004,0.041,0.004,0.062,0.01c0.212,0.045,0.43,0.066,0.649,0.072
			c0.063,0.002,0.127,0.006,0.19,0.004c0.059-0.002,0.116-0.006,0.175-0.012c0.103-0.008,0.205-0.02,0.309-0.037
			c0.059-0.01,0.117-0.02,0.177-0.031c0.108-0.023,0.218-0.055,0.326-0.09c0.052-0.016,0.104-0.029,0.155-0.049
			c0.158-0.057,0.316-0.123,0.472-0.205c0.001-0.002,0.001-0.002,0.002-0.002l7.983-4.197c0.268-0.141,0.549-0.246,0.837-0.316
			s0.582-0.105,0.876-0.105v-2.801C21.101,34.637,20.058,34.895,19.131,35.381z"/>
	</g>
</g>
</svg>
