<?xml version="1.0" encoding="utf-8"?>
<!-- Generator: Adobe Illustrator 16.0.0, SVG Export Plug-In . SVG Version: 6.00 Build 0)  -->
<!DOCTYPE svg PUBLIC "-//W3C//DTD SVG 1.1//EN" "http://www.w3.org/Graphics/SVG/1.1/DTD/svg11.dtd">
<svg version="1.1" id="Layer_1" xmlns="http://www.w3.org/2000/svg" xmlns:xlink="http://www.w3.org/1999/xlink" x="0px" y="0px"
	 width="95.37px" height="24.44px" viewBox="0 0 95.37 24.44" enable-background="new 0 0 95.37 24.44" xml:space="preserve">
<g>
	<g>
		<path fill="#EE3432" d="M59.453,4.475c0.003-0.017,0.004-0.038,0.002-0.065C59.449,4.437,59.449,4.457,59.453,4.475z"/>
		<path fill="#EE3432" d="M54.759,4.706l0.05-0.039C54.774,4.677,54.763,4.69,54.759,4.706z"/>
		<path fill="#EE3432" d="M62.256,4.28l-0.005,0.016c0.043-0.003,0.102-0.008,0.197-0.014L62.256,4.28z"/>
		<path fill="#EE3432" d="M44.809,5.728l0.062-0.013C44.842,5.719,44.823,5.715,44.809,5.728z"/>
		<path fill="#EE3432" d="M50.71,5.14c-0.015,0.03-0.043,0.045-0.072,0.059C50.677,5.196,50.706,5.187,50.71,5.14z"/>
		<path fill="#EE3432" d="M63.905,5.486l-0.091-0.085C63.821,5.442,63.854,5.481,63.905,5.486z"/>
		<path fill="#EE3432" d="M66.673,4.747c-0.004-0.007-0.006-0.012-0.011-0.021C66.659,4.735,66.665,4.741,66.673,4.747z"/>
		<path fill="#EE3432" d="M65.523,4.507c-0.022,0.012-0.048,0.031-0.073,0.051C65.483,4.551,65.525,4.546,65.523,4.507z"/>
		<path fill="#EE3432" d="M65.415,4.587l0.035-0.029C65.429,4.563,65.412,4.569,65.415,4.587z"/>
		<path fill="#EE3432" d="M9.221,12.831c-0.081,0.014-0.134,0.099-0.194,0.172L9.221,12.831z"/>
		<path fill="#EE3432" d="M35.871,7.149l0.011-0.041C35.867,7.124,35.867,7.138,35.871,7.149z"/>
		<path fill="#EE3432" d="M9.295,13.662l-0.061-0.007C9.258,13.666,9.278,13.667,9.295,13.662z"/>
		<path fill="#EE3432" d="M62.449,5.936C62.38,6.038,62.198,5.95,62.212,6.04C62.296,6.014,62.427,6.067,62.449,5.936z"/>
		<path fill="#EE3432" d="M34.594,10.946l-0.053,0.014C34.566,10.956,34.582,10.952,34.594,10.946z"/>
		<path fill="#EE3432" d="M9.295,13.662l0.07,0.009c-0.011-0.016-0.02-0.029-0.029-0.042C9.324,13.646,9.311,13.657,9.295,13.662z"
			/>
		<polygon fill="#EE3432" points="26.587,8.773 26.59,8.772 26.605,8.753 		"/>
		<path fill="#EE3432" d="M26.068,8.718c0.032-0.017,0.063-0.032,0.099-0.05C26.11,8.669,26.084,8.69,26.068,8.718z"/>
		<path fill="#EE3432" d="M9.027,13.003l-0.11,0.099C8.96,13.081,8.995,13.044,9.027,13.003z"/>
		<path fill="#EE3432" d="M20.8,9.866c0.017-0.006,0.032-0.012,0.047-0.021C20.825,9.849,20.811,9.855,20.8,9.866z"/>
		<path fill="#EE3432" d="M51.094,5.139c0.014,0.007,0.03,0.009,0.046,0.014C51.142,5.13,51.136,5.115,51.094,5.139z"/>
		<polygon fill="#EE3432" points="47.794,8.151 47.793,8.151 47.793,8.153 		"/>
		<path fill="#EE3432" d="M47.972,8.007c-0.064-0.012-0.142,0.068-0.178,0.145C47.855,8.142,47.91,8.114,47.972,8.007z"/>
		<path fill="#EE3432" d="M47.366,8.169l0.025,0.008C47.382,8.172,47.374,8.169,47.366,8.169z"/>
		<polygon fill="#EE3432" points="51.332,7.754 51.33,7.744 51.329,7.753 		"/>
		<path fill="#EE3432" d="M50.554,7.886c-0.017-0.016-0.037-0.027-0.06-0.033C50.51,7.868,50.53,7.882,50.554,7.886z"/>
		<polygon fill="#EE3432" points="45.468,8.731 45.468,8.728 45.464,8.729 		"/>
		<path fill="#EE3432" d="M38.249,10.613c0.725-0.179,1.646-0.522,2.385-0.591c0.127-0.216,0.357-0.261,0.583-0.342l0.066,0.248
			l0.18-0.113c0.092,0.063-0.141,0.072,0.015,0.145l0.047-0.169c0.03,0.088,0.508-0.023,0.212,0.212l0.754-0.122
			c0.168-0.019,0.063-0.226,0.257-0.193c0.05,0.067-0.058,0.062-0.027,0.149c0.583,0.098,0.56-0.592,1.094-0.56l-0.038,0.04
			c0.077-0.08,0.245-0.099,0.242-0.135c-0.107-0.244-0.071,0.152-0.253,0.027c-0.021-0.216,0.178-0.146,0.142-0.308
			c0.134,0.058,0.185-0.075,0.288-0.104c0.201,0.105,0.443-0.031,0.605,0.114c0.077-0.081,0.143-0.308,0.33-0.347
			c0.162,0.146-0.007,0.166,0.188,0.198l0.011-0.129c0.154-0.005,0.136,0.033,0.14,0.093c0.162-0.02,0.107-0.193,0.323-0.145
			l-0.095,0.139c0.143-0.07,0.207-0.059,0.418-0.08c0.007,0.072-0.078,0.08-0.143,0.068c0.143,0.167,0.182-0.109,0.246-0.099
			c-0.025-0.052-0.174-0.054-0.123-0.187c0.107,0.006,0.195-0.203,0.292-0.068l-0.095,0.138c0.201-0.13,0.092-0.173,0.348-0.163
			c-0.012,0.011-0.001,0.041-0.002,0.068c0.132-0.184,0.36-0.071,0.595-0.096l-0.039,0.041c0.087-0.058,0.121-0.176,0.173-0.176
			c-0.144-0.051-0.112-0.093-0.144-0.211c0.207,0.179,0.231-0.279,0.536-0.201c0.006,0.071-0.05,0.168-0.14,0.105
			c-0.065,0.226-0.05,0.406-0.209,0.531c0.101-0.065,0.224-0.114,0.211-0.021l0.004-0.201c0.064-0.016,0.118-0.012,0.168-0.02
			c0.009-0.127-0.164-0.182-0.024-0.286c0.161-0.091,0.122,0.187,0.135,0.095c0.225-0.115,0.065-0.227,0.303-0.196
			c-0.021,0.02-0.059,0.061-0.082,0.045C48.3,7.862,48.52,7.712,48.604,7.94c-0.017,0.057-0.01,0.128-0.075,0.117l-0.003-0.037
			c-0.152,0.199,0.143-0.068,0.119,0.152c-0.032-0.125,0.202-0.131,0.309-0.124l-0.055-0.14c0.277-0.484,0.024,0.289,0.355,0.181
			c0.201-0.13-0.087-0.027,0.029-0.149c0.149,0.003,0.224,0.124,0.428,0.029c0.068,0.049,0.201,0.107,0.235,0.268
			c0.12-0.084,0.404,0.015,0.454-0.154c-0.241-0.103-0.195,0.203-0.485,0.03l0.049-0.168c0.181-0.019,0.398-0.132,0.53-0.093
			c-0.029-0.027-0.047-0.066-0.036-0.103c0.246-0.097,0.297-0.267,0.553-0.255c0.054,0.14-0.096,0.137-0.199,0.164
			c0.178,0.092,0.169-0.016,0.425-0.006c0.031,0.125-0.169,0.018-0.18,0.146l0.27-0.081l0.004,0.026
			c0.009-0.218,0.213-0.013,0.372-0.101c0.398-0.059,0.418-0.352,0.614-0.553c0.067,0.048,0.093,0.1,0.076,0.156
			c-0.112-0.08-0.084-0.008-0.11,0.052c0.132-0.042,0.325,0.163,0.263,0.261c0.205-0.094-0.093-0.101,0.028-0.186l0.295-0.029
			c-0.051-0.104-0.157-0.111-0.018-0.217c0.123-0.049,0.188-0.036,0.356-0.053c-0.016,0.057,0.077,0.156-0.05,0.168
			c0.087,0.029,0.214,0.017,0.248-0.096c-0.198-0.072,0.286-0.136,0.125-0.284l0.198,0.072c-0.043,0.004-0.037,0.076-0.102,0.063
			c0.076,0.157,0.144-0.067,0.205-0.092c0.069,0.021,0.238,0.013,0.262,0.074c0.051-0.054,0.197-0.038,0.236,0.042
			c0.081-0.045-0.009-0.108,0.009-0.165l0.295-0.027c0.028,0.088,0.09,0.338,0.05,0.377c0.099-0.1,0.001-0.273,0.17-0.289
			c-0.071,0.189,0.241,0.105,0.132,0.334c0.114,0.115,0.387,0.072,0.53,0.004c0.073-0.152-0.174-0.056-0.185-0.201
			c0.416-0.111,0.386-0.51,0.706-0.484l-0.086-0.029c0.182-0.108,0.163-0.088,0.259-0.225c-0.028,0.186,0.287,0.445,0.601,0.363
			c0.015-0.093-0.202-0.146-0.17-0.293l0.208-0.057c0.018,0.013-0.002,0.045-0.026,0.072c0.182-0.09,0.386,0.183,0.411-0.033
			l0.229,0.234l-0.092-0.102c0.014-0.092,0.223-0.146,0.263-0.188c0.203-0.127,0.293-0.062,0.428,0.035
			c-0.048-0.068-0.166-0.222,0.002-0.272c0.038,0.288,0.373,0.058,0.389,0.208c0.068-0.014,0.203,0.06,0.194-0.061l0.014,0.181
			c-0.019-0.253,0.234-0.275,0.421-0.347c0.003,0.346,0.208-0.055,0.336,0.242c0.005-0.235,0.329-0.137,0.337-0.338
			c0.146-0.032,0.161,0.186,0.209,0.254l0.058-0.096c0.089,0.098,0.37,0.076,0.545,0.129l0.127-0.224l0.069,0.085
			c0.019-0.055,0.143-0.102,0.053-0.168l0.085,0.002c-0.023-0.225,0.108-0.077,0.263-0.193c0.044,0.029,0.041,0.084,0.008,0.119
			c0.084-0.009,0.063,0.109,0.119,0.179c-0.066-0.05,0.246-0.438,0.009-0.51c-0.028-0.089,0.094-0.173,0.182-0.144l0.076,0.193
			l0.07-0.223c0.124-0.047,0.195,0.074,0.303,0.084c-0.104,0.025-0.186,0.416,0.088,0.374c-0.141,0.045-0.196,0.166-0.266,0.218
			c0.059,0,0.089,0.016,0.012,0.112c0.206-0.091,0.056-0.132,0.264-0.186c0.013,0.181,0.079,0.229,0.272,0.268l-0.156-0.114
			c0.004-0.021,0.011-0.039,0.021-0.051c-0.056-0.013-0.074-0.039-0.094-0.105c0.042-0.004,0.216-0.255,0.266-0.15
			c-0.25-0.252,0.344-0.266,0.186-0.416c0.017-0.055,0.164-0.085,0.191,0.003c-0.16,0.159,0.16,0.187,0.147,0.315
			c0.06-0.061-0.156-0.115-0.076-0.194c0.104-0.026,0.195,0.075,0.262,0.123l-0.039,0.04l0.173,0.059
			c0.016-0.093-0.178-0.131-0.033-0.197c0.045,0.032,0.189-0.033,0.193,0.038c-0.056,0.132,0.019,0.289-0.105,0.337
			c0.104-0.027,0.439-0.092,0.281-0.242l0.127-0.011c-0.089-0.065-0.329-0.172-0.078-0.229l0.002,0.035l0.16-0.158l0.089,0.082
			c-0.009-0.045,0.014-0.09,0.08-0.096c0.024,0.052,0.089,0.065,0.093,0.138c0.189-0.032,0.162-0.122,0.181-0.177
			c0.104-0.027,0.149,0.006,0.113,0.117c0.148,0.006,0.4-0.049,0.512,0.033c0.185-0.105-0.045-0.032,0.054-0.168
			c0.209,0.292,0.66,0.039,0.974-0.04c-0.121-0.263,0.083-0.042,0.109-0.298c-0.058,0.094,0.329,0.174,0.061,0.285l0.166-0.05
			c0.136,0.136-0.267,0.147-0.065,0.332c0.189-0.032,0.277-0.349,0.515-0.275c-0.052,0.203,0.164-0.086,0.135,0.134
			c-0.037,0.076-0.103,0.063-0.164,0.086l0.044,0.033c0.425,0.004,0.093-0.244,0.295-0.404c0.251-0.057,0.22,0.127,0.246,0.217
			c0.044,0.033,0.168-0.014,0.229-0.072c-0.141,0.138-0.303-0.086-0.246-0.217c0.139,0.207,0.38-0.03,0.438-0.126
			c-0.393-0.188-0.254,0.021-0.627-0.188c-0.038,0.076-0.005,0.273-0.221,0.218c0.116-0.115-0.022-0.109-0.063-0.137
			c0.054,0.109-0.137,0.064-0.193,0.12c-0.068-0.085,0.09-0.278-0.124-0.299l-0.005,0.272c-0.087-0.029,0.01-0.2-0.155-0.114
			c0.075-0.151-0.056-0.214,0.173-0.286c-0.308-0.193-0.413,0.178-0.618,0.303c0.021-0.02,0.019-0.057,0.038-0.076
			c-0.038,0.076-0.123,0.082-0.185,0.105c-0.151-0.043,0.098-0.135,0.052-0.204l-0.231,0.036c-0.006-0.008-0.008-0.013-0.009-0.018
			c-0.057,0.043-0.111,0.075-0.142,0.012c0.059-0.096,0.074-0.188,0.112-0.264l-0.221,0.217c0.016-0.092-0.221-0.127-0.056-0.213
			l-0.356,0.082l-0.054-0.178c-0.082,0.043-0.08,0.08,0.026,0.088c-0.129-0.025-0.507,0.386-0.487,0.021
			c-0.265,0.184-0.374,0.137-0.705,0.273c0.242-0.201-0.33-0.172-0.061-0.285c-0.174-0.058-0.183,0.143-0.308,0.189
			c-0.131-0.061-0.101-0.246,0.022-0.329l-0.144,0.103l-0.002-0.036l-0.12,0.12c-0.153-0.078-0.054-0.178-0.203-0.184l-0.011,0.164
			l-0.111-0.08c0.047,0.068-0.035,0.111-0.14,0.139L62.455,4.39L62.33,4.438c0.114-0.114-0.123-0.019-0.079-0.142
			c-0.111,0.007-0.113,0.01-0.309,0.064l0.05,0.104c-0.247,0.13-0.032-0.161-0.244-0.143l0.029,0.124
			c-0.33-0.172-0.498,0.188-0.739,0.08c0.124-0.046,0.072-0.188,0.074-0.151c-0.187,0.071-0.505,0.079-0.685,0.257
			c-0.097-0.174-0.121-0.226-0.338-0.28c-0.147,0.03-0.167,0.052-0.201,0.163c-0.154-0.051-0.41,0.092-0.436-0.04
			c-0.02,0.11-0.133-0.003-0.2,0.097l-0.024-0.053l0.03,0.125c-0.295-0.246-0.41,0.218-0.702,0.008l0.04-0.039l-0.103,0.063
			c-0.024-0.052,0.015-0.093,0.01-0.165l-0.508,0.046l0.112,0.081c-0.104,0.027-0.159,0.159-0.291,0.098
			c0.176-0.215-0.169,0.016-0.222-0.125l0.102-0.064c-0.146,0.032-0.146,0.032-0.117,0.157c-0.186,0.07-0.165-0.222-0.323-0.063
			l0.127-0.011c0.048,0.068-0.028,0.184-0.113,0.191c-0.022-0.017-0.09-0.064-0.028-0.089c-0.145,0.068-0.381,0.034-0.44,0.095
			c-0.087-0.029-0.072-0.121-0.033-0.161c-0.308,0.155-0.149-0.005-0.458,0.149l-0.005-0.072l-0.099,0.102l-0.181-0.129l0.07,0.084
			c-0.104,0.028-0.164,0.088-0.293,0.064l0.034-0.112c-0.291,0.101-0.371-0.128-0.635,0.061c-0.022-0.017,0.017-0.057,0.037-0.077
			C55,4.94,55.015,4.575,54.777,4.816c0.011-0.038-0.024-0.078-0.019-0.11l-0.11,0.086l-0.012-0.145l-0.068,0.226l-0.096-0.137
			l-0.036,0.075c-0.169-0.256-0.322-0.023-0.528-0.203l0.057,0.176c-0.392,0.438-1.05-0.065-1.563,0.186l-0.012-0.144l-0.197,0.201
			c-0.136-0.095,0.054-0.133,0.006-0.2c-0.227,0.113-0.068,0.226-0.338,0.307c-0.155-0.075,0.033-0.111,0.093-0.173
			c-0.249,0.108-0.619,0.243-0.814,0.191c-0.001,0.02-0.009,0.046,0.002,0.054c-0.163,0.09-0.4,0.059-0.589,0.096
			c-0.006-0.066,0.04-0.084,0.085-0.104c-0.069,0.001-0.17-0.031-0.218,0.045l0.053-0.135c-0.149-0.002-0.414,0.152-0.469,0.012
			c0.026,0.053,0.035,0.16-0.092,0.173c-0.103-0.208-0.33,0.144-0.55,0.056c0.017-0.056,0.163-0.089,0.121-0.086
			c-0.11-0.042-0.186,0.074-0.265,0.154l0.014-0.092l-0.453,0.191c-0.104-0.207-0.439,0.102-0.432-0.063
			c-0.17,0.018,0.155,0.074-0.053,0.133c-0.071-0.083-0.186,0.074-0.199-0.07l0.021-0.02L47.97,5.53l0.072-0.154
			c-0.124,0.051-0.196,0.205-0.187,0.313c-0.133-0.06-0.296,0.031-0.37-0.088l0.039-0.041C47.192,5.667,46.9,5.261,46.67,5.541
			c-0.023-0.017-0.026-0.052,0.016-0.058l-0.212,0.023l0.033-0.113L46.185,5.61l-0.007-0.072c-0.235,0.007-0.589,0.1-0.882,0.166
			l0.039-0.04c-0.306,0.161-0.322-0.019-0.547,0.097c0.006-0.02,0.013-0.028,0.021-0.033l-0.212,0.037l0.036-0.078
			c-0.134,0.18-0.482-0.128-0.364-0.014c-0.078,0.082-0.219,0.189-0.231,0.281c-0.23,0.045-0.071-0.083-0.225-0.121
			c-0.168,0.02-0.179,0.147-0.416,0.12L43.39,5.881c-0.104,0.03-0.162,0.091-0.308,0.126l0.038-0.041
			c-0.217,0.188-0.335-0.162-0.475,0.18c-0.11-0.041-0.295,0.033-0.31-0.111c-0.285,0.142-0.513,0.222-0.802,0.327
			c-0.086-0.227-0.062,0.025-0.264-0.078l0.033,0.123c-0.419,0.087-0.954-0.144-1.411-0.016l-0.034-0.124l-0.07,0.154
			c-0.511,0.023-1.167,0.082-1.567,0.146c-0.119,0.088-0.293,0.271-0.508,0.262l0.019-0.021c-0.349,0.135-0.722,0.253-1.129,0.248
			c0.016-0.057-0.029-0.087,0.009-0.129c-0.07,0.155-0.23,0.047-0.315,0.059l0.115,0.076c-0.092,0.139-0.272,0.052-0.345-0.03
			l-0.154,0.165c-0.014-0.011-0.035-0.027-0.041-0.047l-0.021,0.072l-0.122-0.149c-0.038,0.041-0.266,0.124-0.312,0.294
			c-0.026-0.051-0.2-0.066-0.077-0.118L34.684,7.31l0.111,0.042c0.034,0.123-0.146,0.236-0.257,0.196
			c0.114-0.124-0.02-0.18-0.093-0.264c-0.076,0.084,0.097,0.098,0.062,0.176c-0.096,0.103-0.322,0.186-0.391,0.141l0.058-0.063
			c-0.143,0.072-0.25-0.133-0.396-0.096c-0.115,0.124-0.23,0.049-0.165,0.259c-0.184,0.078-0.1-0.133-0.165-0.144
			c-0.072,0.119-0.353,0.101-0.406-0.003c-0.049,0.335-0.537-0.022-0.529,0.251l-0.185-0.123c0.008,0.072,0.005,0.238-0.118,0.29
			c-0.134-0.056-0.127-0.185-0.177-0.251l-0.034,0.277c-0.744-0.16-1.627,0.191-2.429,0.099c-0.329,0.118-0.734,0.318-1.137,0.354
			l0.038-0.042h-0.407l0.308,0.068c-0.08,0.047-0.138,0.11-0.222,0.121c-0.451-0.029-1.054-0.061-1.561,0.174
			c-0.287,0.369-0.278-0.225-0.567,0.059c0.023-0.033,0.025-0.079,0.046-0.113c-0.337,0.168-0.52,0.256-0.841,0.502
			c-0.017-0.309-0.23,0.051-0.229-0.114l-0.006,0.128c-0.094-0.06-0.285-0.051-0.274-0.144l-0.128,0.183l-0.037-0.123
			c-0.21,0.029-0.637,0.217-0.795-0.018c-0.479,0.285-1.302,0.389-1.957,0.465c-0.07,0.12-0.258,0.166-0.402,0.205l-0.187-0.119
			c-0.141,0.075-0.264,0.295-0.422,0.226c-0.002-0.018,0.001-0.031,0.009-0.042c-0.146,0.061-0.306,0.01-0.421,0.176
			c-0.169,0.023-0.347-0.023-0.322-0.172c0.032,0.25-0.36,0.033-0.36,0.033s-2.171,0.273-4.566,0.779s-5.012,1.256-5.909,2.148
			c-0.044,0.137-0.22,0.257-0.115,0.387c-0.139,0.076-0.254-0.124-0.257,0.004c0.22,0.039,0.005,0.329,0.236,0.439l-0.121,0.057
			c-0.007,0.092,0.152-0.136,0.155,0.029l-0.013-0.236c0.111,0.013,0.178,0.049,0.23,0.118c0.078-0.11,0.073-0.433,0.334-0.347
			L9.609,13.31c0.187-0.049,0.147,0.123,0.194,0.152l-0.042,0.007l0.184,0.081c-0.137-0.051-0.296,0.176-0.194,0.141
			c0.238,0.016-0.07-0.043,0.092-0.106c0.102-0.034,0.099,0.094,0.109,0.165l0.186-0.048c0.016,0.107-0.125,0.021-0.026,0.114
			l0.213-0.162c0.101,0.258,0.23-0.185,0.392,0.045c-0.156,0.1,0.034,0.088,0.026,0.18l0.413-0.104
			c0.048,0.029-0.092,0.106-0.031,0.079c0.094,0.058,0.115-0.093,0.157-0.1c0.052,0.065,0.311-0.069,0.337,0.111
			c0.308,0.06,0.071-0.251,0.356-0.205c0.058,0.101-0.204,0.069-0.063,0.157l0.265-0.098c-0.014,0.057-0.017,0.186-0.123,0.184
			c0.769-0.015,1.286,0.475,1.931,0.189c0.122,0.109-0.051,0.101-0.101,0.199c0.454-0.271,0.746,0.141,1.159,0.039l-0.014-0.107
			c0.648,0.211,1.306-0.133,1.99-0.127l-0.094-0.059c0.069-0.12,0.213-0.16,0.312-0.229c0.027,0.05-0.032,0.243,0.149,0.16
			c-0.047-0.03-0.136-0.054-0.122-0.11c0.62,0.164,1.796-0.143,2.749-0.194c1.237-0.329,2.639-0.384,3.858-0.689
			c-0.187,0.045-0.157-0.233-0.004-0.2c0.473,0.372,0.657-0.201,1.111,0.027c0.691-0.279,1.405-0.014,2.01-0.481l0.036,0.124
			c0.11,0.038,0.121-0.055,0.224-0.087l0.004,0.036c0.256,0,0.532-0.184,0.686-0.148l-0.017-0.144
			c0.145-0.039,0.097,0.096,0.232-0.013l0.009,0.072l0.151-0.168c0.028,0.252,0.419-0.056,0.558,0.035
			c0.183-0.079,0.524-0.253,0.822-0.256c0.077,0.118,0.432,0.052,0.669,0.074c0.434-0.112,1.055-0.269,1.624-0.321l-0.039-0.159
			l0.145-0.037c0.004,0.035,0.026,0.051,0.008,0.072c0.146,0.163,0.327-0.116,0.466-0.023c-0.101-0.133-0.107-0.005-0.191,0.006
			c-0.134-0.056-0.047-0.231,0.13-0.181l0.003,0.036l0.096-0.104c0.035,0.124,0.146,0.165,0.181,0.288
			c0.477-0.115,0.766-0.391,1.273-0.42c-0.026,0.15,0.352-0.099,0.294,0.163c0.282-0.146-0.084-0.188,0.022-0.386
			c0.084-0.01,0.16-0.094,0.19-0.006c-0.028,0.066,0.094,0.137,0.03,0.172l0.196-0.055c0.022,0.016-0.016,0.057-0.035,0.077
			c0.382-0.212,0.749,0.036,1.089-0.17c0.012-0.093-0.149,0-0.138-0.093c0.336-0.242,0.352,0.104,0.672-0.082l-0.05,0.133
			c0.096-0.103,0.126-0.216,0.325-0.148c0.057,0.139-0.135,0.145-0.21,0.227c0.126-0.016,0.435-0.107,0.316-0.221
			c0.142-0.074,0.218,0.045,0.306,0.07c-0.004-0.035-0.156-0.072-0.08-0.153c0.217,0.046,0.531-0.011,0.782-0.042
			c0.004,0.037,0.03,0.088,0.012,0.109C37.947,10.376,37.98,10.7,38.249,10.613z"/>
		<path fill="#EE3432" d="M51.437,7.761l-0.104-0.007c0.005,0.032,0.006,0.069-0.036,0.111L51.437,7.761z"/>
		<path fill="#EE3432" d="M46.638,8.399c-0.011,0.013-0.021,0.025-0.03,0.044C46.631,8.433,46.637,8.416,46.638,8.399z"/>
		<path fill="#EE3432" d="M45.516,8.833c0.078-0.045-0.002-0.071-0.048-0.102C45.47,8.761,45.478,8.796,45.516,8.833z"/>
		<path fill="#EE3432" d="M54.094,6.981c-0.016,0.016-0.024,0.037-0.017,0.066C54.097,7.019,54.1,6.999,54.094,6.981z"/>
		<path fill="#EE3432" d="M61.617,6.044c-0.011-0.007-0.019-0.011-0.033-0.019C61.591,6.035,61.603,6.04,61.617,6.044z"/>
		<path fill="#EE3432" d="M61.17,5.872c-0.02,0.002-0.046,0.01-0.082,0.031C61.126,5.907,61.151,5.892,61.17,5.872z"/>
		<path fill="#EE3432" d="M52.282,7.299c-0.026,0.009-0.053,0.024-0.071,0.058C52.253,7.347,52.271,7.323,52.282,7.299z"/>
		<path fill="#EE3432" d="M61.006,5.947l-0.106-0.001c0,0.01,0.001,0.016,0.002,0.027L61.006,5.947z"/>
		<path fill="#EE3432" d="M61.751,6.044c-0.041,0-0.097,0.008-0.134,0C61.675,6.075,61.716,6.071,61.751,6.044z"/>
		<path fill="#EE3432" d="M56.822,6.403l-0.011,0.004C56.739,6.481,56.786,6.448,56.822,6.403z"/>
		<path fill="#EE3432" d="M60.581,6.255c0,0-0.01-0.002-0.016-0.004l-0.024,0.043L60.581,6.255z"/>
		<path fill="#EE3432" d="M62.212,6.04c-0.02,0.006-0.037,0.014-0.049,0.033c0.018,0.002,0.037,0.005,0.062,0.008
			C62.217,6.063,62.213,6.052,62.212,6.04z"/>
		<path fill="#EE3432" d="M58.426,6.409c0.022-0.059,0.028-0.096,0.026-0.123C58.417,6.292,58.398,6.319,58.426,6.409z"/>
	</g>
	<g>
		<path fill="#EE3432" d="M64.957,10.8c0.005-0.018,0.007-0.039,0.006-0.066C64.954,10.761,64.953,10.782,64.957,10.8z"/>
		<path fill="#EE3432" d="M58.906,11.149l0.065-0.041C58.927,11.119,58.911,11.134,58.906,11.149z"/>
		<path fill="#EE3432" d="M68.574,10.564c-0.004,0.006-0.004,0.011-0.007,0.017c0.056-0.004,0.132-0.009,0.255-0.018L68.574,10.564z
			"/>
		<path fill="#EE3432" d="M46.068,12.608l0.079-0.016C46.111,12.599,46.087,12.596,46.068,12.608z"/>
		<path fill="#EE3432" d="M53.678,11.731c-0.02,0.03-0.058,0.047-0.095,0.061C53.633,11.79,53.671,11.778,53.678,11.731z"/>
		<path fill="#EE3432" d="M70.624,11.757l-0.112-0.084C70.518,11.714,70.559,11.753,70.624,11.757z"/>
		<path fill="#EE3432" d="M74.228,11.009c-0.004-0.006-0.005-0.012-0.012-0.021C74.211,10.997,74.218,11.004,74.228,11.009z"/>
		<path fill="#EE3432" d="M72.766,10.771c-0.03,0.012-0.064,0.031-0.099,0.051C72.71,10.814,72.766,10.81,72.766,10.771z"/>
		<path fill="#EE3432" d="M72.621,10.851l0.046-0.029C72.64,10.827,72.618,10.834,72.621,10.851z"/>
		<path fill="#EE3432" d="M0.469,23.477c-0.103,0.024-0.169,0.119-0.245,0.202L0.469,23.477z"/>
		<path fill="#EE3432" d="M34.551,14.659l0.015-0.043C34.547,14.632,34.546,14.646,34.551,14.659z"/>
		<path fill="#EE3432" d="M0.573,24.308L0.496,24.31C0.526,24.317,0.551,24.315,0.573,24.308z"/>
		<path fill="#EE3432" d="M68.726,12.225c-0.095,0.104-0.322,0.018-0.311,0.107C68.525,12.306,68.69,12.356,68.726,12.225z"/>
		<path fill="#EE3432" d="M32.828,18.592l-0.067,0.02C32.794,18.605,32.813,18.599,32.828,18.592z"/>
		<path fill="#EE3432" d="M0.573,24.308l0.09-0.002c-0.012-0.015-0.025-0.025-0.039-0.037C0.61,24.286,0.593,24.3,0.573,24.308z"/>
		<polygon fill="#EE3432" points="22.626,17.153 22.63,17.153 22.649,17.131 		"/>
		<path fill="#EE3432" d="M21.963,17.153c0.041-0.02,0.082-0.039,0.127-0.061C22.017,17.1,21.982,17.124,21.963,17.153z"/>
		<path fill="#EE3432" d="M0.224,23.679l-0.139,0.116C0.14,23.769,0.183,23.726,0.224,23.679z"/>
		<path fill="#EE3432" d="M15.218,18.911l0.06-0.026C15.25,18.89,15.23,18.899,15.218,18.911z"/>
		<path fill="#EE3432" d="M54.172,11.714c0.017,0.006,0.039,0.008,0.059,0.012C54.233,11.704,54.228,11.688,54.172,11.714z"/>
		<polygon fill="#EE3432" points="49.81,14.896 49.808,14.896 49.808,14.897 		"/>
		<path fill="#EE3432" d="M50.043,14.74c-0.082-0.008-0.185,0.077-0.233,0.155C49.889,14.882,49.96,14.851,50.043,14.74z"/>
		<path fill="#EE3432" d="M49.261,14.935c0.011,0.002,0.02,0.004,0.031,0.006C49.28,14.937,49.271,14.935,49.261,14.935z"/>
		<polygon fill="#EE3432" points="54.362,14.336 54.361,14.326 54.359,14.335 		"/>
		<path fill="#EE3432" d="M53.359,14.5c-0.021-0.015-0.048-0.025-0.075-0.03C53.304,14.485,53.329,14.497,53.359,14.5z"/>
		<polygon fill="#EE3432" points="46.805,15.599 46.806,15.595 46.801,15.597 		"/>
		<path fill="#EE3432" d="M37.508,17.966c0.932-0.236,2.121-0.642,3.067-0.763c0.169-0.228,0.465-0.288,0.756-0.386l0.077,0.246
			l0.234-0.127c0.115,0.057-0.183,0.082,0.014,0.145l0.065-0.174c0.036,0.086,0.649-0.059,0.265,0.199l0.968-0.172
			c0.216-0.029,0.088-0.231,0.336-0.211c0.061,0.066-0.076,0.066-0.041,0.152c0.743,0.064,0.736-0.629,1.42-0.629l-0.051,0.043
			c0.102-0.086,0.317-0.114,0.314-0.15c-0.129-0.24-0.096,0.158-0.324,0.043c-0.019-0.217,0.232-0.159,0.191-0.318
			c0.169,0.05,0.239-0.088,0.373-0.123c0.254,0.094,0.569-0.059,0.771,0.079c0.102-0.087,0.192-0.319,0.435-0.37
			c0.202,0.139-0.014,0.168,0.233,0.189l0.018-0.131c0.197-0.015,0.173,0.025,0.176,0.086c0.209-0.03,0.145-0.203,0.419-0.164
			l-0.126,0.144c0.186-0.078,0.269-0.069,0.539-0.102c0.006,0.072-0.103,0.085-0.186,0.077c0.177,0.16,0.237-0.12,0.319-0.113
			c-0.031-0.05-0.222-0.045-0.15-0.182c0.137,0.002,0.257-0.214,0.376-0.082l-0.126,0.143c0.263-0.141,0.124-0.18,0.451-0.182
			c-0.016,0.012-0.002,0.041-0.005,0.068c0.177-0.191,0.465-0.09,0.766-0.125l-0.052,0.042c0.114-0.062,0.163-0.183,0.229-0.185
			c-0.183-0.045-0.142-0.088-0.176-0.205c0.258,0.169,0.307-0.293,0.694-0.23c0.005,0.072-0.069,0.173-0.184,0.113
			c-0.092,0.23-0.079,0.412-0.287,0.546c0.131-0.071,0.291-0.126,0.271-0.032l0.013-0.203c0.083-0.019,0.151-0.018,0.216-0.027
			c0.017-0.129-0.203-0.176-0.021-0.288c0.212-0.099,0.149,0.183,0.17,0.089c0.292-0.127,0.093-0.23,0.396-0.213
			c-0.027,0.021-0.079,0.064-0.107,0.049c0.223,0.047,0.511-0.117,0.609,0.109c-0.023,0.058-0.018,0.129-0.101,0.121l-0.002-0.035
			c-0.204,0.207,0.185-0.078,0.146,0.146c-0.035-0.125,0.264-0.143,0.4-0.141l-0.064-0.139c0.376-0.502,0.021,0.291,0.449,0.165
			c0.263-0.142-0.111-0.023,0.043-0.152c0.192-0.004,0.282,0.115,0.547,0.013c0.086,0.045,0.254,0.1,0.292,0.26
			c0.156-0.091,0.518-0.003,0.589-0.174c-0.306-0.094-0.259,0.211-0.625,0.049l0.07-0.17c0.232-0.026,0.517-0.149,0.685-0.115
			c-0.037-0.027-0.058-0.064-0.042-0.102c0.32-0.108,0.392-0.28,0.719-0.279c0.063,0.139-0.127,0.141-0.262,0.174
			c0.224,0.085,0.217-0.023,0.545-0.023c0.035,0.124-0.218,0.023-0.236,0.153l0.35-0.093l0.004,0.026
			c0.02-0.219,0.272-0.021,0.48-0.116c0.515-0.074,0.552-0.37,0.813-0.582c0.085,0.047,0.115,0.097,0.091,0.154
			c-0.14-0.074-0.106-0.004-0.143,0.057c0.17-0.047,0.409,0.152,0.324,0.252c0.268-0.102-0.115-0.098,0.044-0.188l0.38-0.042
			c-0.06-0.103-0.196-0.105-0.013-0.218c0.161-0.055,0.244-0.041,0.461-0.064c-0.023,0.058,0.092,0.155-0.071,0.171
			c0.109,0.026,0.273,0.01,0.321-0.104c-0.25-0.066,0.375-0.145,0.175-0.289l0.25,0.066c-0.054,0.005-0.05,0.078-0.132,0.067
			c0.09,0.155,0.187-0.073,0.267-0.1c0.088,0.021,0.306,0.006,0.333,0.067c0.068-0.057,0.256-0.045,0.302,0.034
			c0.106-0.048-0.006-0.108,0.019-0.165l0.38-0.037c0.032,0.088,0.099,0.336,0.046,0.378c0.132-0.104,0.015-0.275,0.232-0.296
			c-0.101,0.191,0.304,0.098,0.152,0.331c0.142,0.112,0.493,0.06,0.681-0.013c0.102-0.156-0.221-0.051-0.228-0.196
			c0.539-0.125,0.521-0.524,0.931-0.51l-0.109-0.026c0.239-0.115,0.214-0.094,0.344-0.234c-0.046,0.188,0.347,0.438,0.753,0.35
			c0.023-0.094-0.252-0.143-0.203-0.291l0.27-0.061c0.021,0.012-0.004,0.045-0.037,0.072c0.237-0.094,0.486,0.175,0.53-0.042
			l0.282,0.229l-0.112-0.1c0.022-0.092,0.294-0.152,0.347-0.193c0.268-0.133,0.38-0.068,0.547,0.025
			c-0.058-0.066-0.2-0.219,0.018-0.273c0.033,0.289,0.477,0.051,0.488,0.2c0.089-0.015,0.258,0.056,0.253-0.065l0.008,0.182
			c-0.011-0.253,0.316-0.281,0.56-0.356c-0.015,0.347,0.271-0.06,0.418,0.236c0.019-0.237,0.431-0.146,0.451-0.348
			c0.19-0.034,0.197,0.183,0.254,0.251l0.079-0.098c0.109,0.096,0.472,0.068,0.694,0.121l0.175-0.227l0.085,0.085
			c0.025-0.056,0.188-0.104,0.076-0.169h0.109c-0.017-0.225,0.144-0.078,0.35-0.197c0.054,0.03,0.047,0.086,0.003,0.12
			c0.107-0.01,0.075,0.11,0.143,0.179c-0.083-0.049,0.341-0.443,0.04-0.512c-0.031-0.09,0.131-0.175,0.241-0.146l0.087,0.193
			l0.104-0.225c0.162-0.049,0.248,0.072,0.384,0.08c-0.136,0.027-0.261,0.42,0.093,0.375c-0.184,0.047-0.263,0.168-0.354,0.221
			c0.074,0,0.113,0.016,0.009,0.113c0.27-0.093,0.079-0.133,0.35-0.189c0.005,0.182,0.088,0.23,0.334,0.266l-0.193-0.111
			c0.006-0.023,0.016-0.041,0.028-0.053c-0.07-0.012-0.092-0.038-0.114-0.105c0.054-0.004,0.293-0.258,0.351-0.154
			c-0.307-0.248,0.457-0.27,0.262-0.418c0.025-0.057,0.217-0.088,0.246,0c-0.215,0.161,0.195,0.186,0.171,0.314
			c0.08-0.061-0.194-0.113-0.086-0.193c0.135-0.027,0.247,0.072,0.329,0.12l-0.053,0.04l0.219,0.057
			c0.025-0.093-0.221-0.129-0.031-0.197c0.056,0.032,0.245-0.036,0.247,0.036c-0.079,0.134,0.005,0.29-0.157,0.339
			c0.137-0.027,0.571-0.098,0.376-0.246l0.165-0.012c-0.111-0.064-0.414-0.169-0.088-0.23l0.001,0.037l0.215-0.162l0.109,0.082
			c-0.008-0.045,0.023-0.091,0.109-0.098c0.027,0.052,0.109,0.065,0.111,0.139c0.245-0.034,0.215-0.123,0.242-0.179
			c0.136-0.026,0.191,0.007,0.139,0.118c0.19,0.006,0.518-0.051,0.656,0.031c0.244-0.105-0.056-0.031,0.079-0.168
			c0.25,0.293,0.846,0.038,1.254-0.042c-0.14-0.263,0.109-0.042,0.16-0.3c-0.08,0.096,0.412,0.174,0.059,0.287l0.218-0.051
			c0.165,0.136-0.353,0.148-0.105,0.334c0.246-0.033,0.378-0.351,0.678-0.278c-0.078,0.204,0.218-0.087,0.166,0.135
			c-0.054,0.076-0.136,0.063-0.217,0.086l0.055,0.033c0.545,0.003,0.134-0.245,0.404-0.406c0.327-0.058,0.274,0.128,0.302,0.217
			c0.055,0.033,0.218-0.014,0.3-0.073c-0.189,0.139-0.383-0.085-0.303-0.217c0.166,0.207,0.491-0.031,0.572-0.127
			c-0.492-0.188-0.327,0.021-0.793-0.187c-0.054,0.076-0.024,0.274-0.298,0.218c0.157-0.114-0.022-0.109-0.072-0.137
			c0.063,0.109-0.18,0.066-0.256,0.121c-0.083-0.086,0.134-0.279-0.14-0.299l-0.024,0.273c-0.109-0.029,0.025-0.201-0.192-0.115
			c0.106-0.152-0.058-0.214,0.241-0.287c-0.385-0.193-0.544,0.179-0.814,0.305c0.027-0.02,0.026-0.057,0.053-0.076
			c-0.053,0.076-0.162,0.082-0.244,0.106c-0.191-0.042,0.135-0.136,0.079-0.205l-0.3,0.037c-0.007-0.009-0.009-0.013-0.009-0.019
			c-0.076,0.045-0.148,0.076-0.183,0.012c0.08-0.095,0.106-0.188,0.16-0.264l-0.298,0.218c0.026-0.092-0.275-0.128-0.058-0.214
			l-0.464,0.084l-0.058-0.178c-0.109,0.043-0.108,0.079,0.027,0.088c-0.164-0.025-0.675,0.387-0.628,0.021
			c-0.352,0.186-0.49,0.137-0.924,0.279c0.323-0.205-0.414-0.169-0.061-0.286c-0.221-0.056-0.244,0.146-0.407,0.194
			c-0.165-0.061-0.114-0.246,0.048-0.331l-0.189,0.104l-0.001-0.036l-0.161,0.122c-0.193-0.077-0.059-0.178-0.251-0.182
			l-0.023,0.164l-0.138-0.079c0.056,0.068-0.053,0.112-0.188,0.141l-0.001-0.036l-0.163,0.049c0.154-0.115-0.157-0.018-0.094-0.141
			c-0.144,0.008-0.146,0.01-0.4,0.068l0.057,0.104c-0.325,0.133-0.031-0.16-0.305-0.14l0.03,0.124
			c-0.415-0.169-0.651,0.193-0.956,0.09c0.163-0.049,0.104-0.189,0.105-0.154c-0.245,0.074-0.655,0.086-0.896,0.267
			c-0.116-0.173-0.145-0.225-0.42-0.277c-0.191,0.033-0.218,0.056-0.269,0.169c-0.195-0.049-0.532,0.1-0.558-0.031
			c-0.03,0.11-0.17-0.001-0.263,0.102l-0.028-0.053l0.031,0.125c-0.365-0.242-0.539,0.228-0.903,0.023l0.054-0.041l-0.135,0.066
			c-0.029-0.053,0.024-0.094,0.021-0.166l-0.656,0.057l0.141,0.079c-0.136,0.03-0.213,0.163-0.38,0.104
			c0.237-0.221-0.219,0.02-0.278-0.121l0.134-0.066c-0.19,0.035-0.19,0.035-0.158,0.16c-0.243,0.074-0.201-0.22-0.413-0.056
			l0.164-0.015c0.057,0.068-0.047,0.186-0.156,0.196c-0.028-0.017-0.113-0.063-0.032-0.089c-0.189,0.072-0.491,0.043-0.571,0.104
			c-0.11-0.025-0.087-0.119-0.034-0.16c-0.404,0.162-0.192-0.002-0.598,0.161l-0.002-0.073l-0.133,0.105l-0.225-0.124l0.085,0.083
			c-0.135,0.031-0.214,0.094-0.38,0.073l0.051-0.114c-0.38,0.111-0.472-0.117-0.82,0.081c-0.027-0.017,0.025-0.058,0.052-0.078
			c-0.319,0.213-0.283-0.155-0.6,0.095c0.017-0.038-0.026-0.077-0.018-0.109l-0.147,0.09l-0.007-0.145l-0.099,0.229l-0.116-0.135
			l-0.052,0.076c-0.204-0.252-0.412-0.013-0.669-0.188l0.064,0.176c-0.524,0.453-1.349-0.035-2.02,0.238l-0.008-0.145l-0.263,0.211
			c-0.17-0.092,0.075-0.137,0.017-0.203c-0.296,0.124-0.098,0.23-0.449,0.324c-0.196-0.07,0.049-0.115,0.127-0.18
			c-0.324,0.121-0.807,0.271-1.055,0.227c-0.003,0.02-0.014,0.047,0,0.055c-0.214,0.096-0.518,0.075-0.762,0.121
			c-0.004-0.067,0.056-0.087,0.114-0.109c-0.09,0.004-0.217-0.023-0.282,0.055l0.074-0.137c-0.192,0.003-0.54,0.169-0.604,0.03
			c0.031,0.052,0.038,0.16-0.126,0.178c-0.123-0.205-0.431,0.157-0.709,0.078c0.022-0.056,0.213-0.096,0.158-0.091
			c-0.14-0.038-0.242,0.082-0.347,0.166l0.021-0.094l-0.591,0.215c-0.123-0.204-0.568,0.123-0.552-0.043
			c-0.219,0.027,0.197,0.068-0.073,0.137c-0.088-0.08-0.241,0.084-0.252-0.061l0.026-0.021l-0.19,0.042l0.1-0.159
			c-0.161,0.057-0.26,0.216-0.252,0.324c-0.169-0.053-0.381,0.046-0.473-0.07l0.053-0.043c-0.431,0.126-0.79-0.269-1.099,0.025
			c-0.029-0.016-0.031-0.051,0.022-0.059l-0.273,0.034l0.048-0.115l-0.423,0.233l-0.006-0.072c-0.302,0.02-0.761,0.131-1.14,0.213
			l0.051-0.043c-0.398,0.178-0.413,0-0.705,0.13c0.008-0.021,0.017-0.03,0.027-0.036l-0.273,0.051l0.048-0.08
			c-0.177,0.188-0.613-0.1-0.467,0.008c-0.104,0.088-0.287,0.203-0.307,0.297c-0.297,0.059-0.089-0.078-0.284-0.107
			c-0.218,0.029-0.234,0.159-0.538,0.146L44.24,12.85c-0.135,0.036-0.211,0.103-0.4,0.146l0.051-0.044
			c-0.285,0.203-0.425-0.144-0.615,0.21c-0.141-0.035-0.381,0.053-0.394-0.092c-0.372,0.158-0.666,0.253-1.041,0.377
			c-0.104-0.223-0.08,0.03-0.337-0.061l0.04,0.122c-0.541,0.116-1.222-0.077-1.812,0.083l-0.04-0.122l-0.095,0.159
			c-0.657,0.061-1.502,0.166-2.017,0.259c-0.156,0.098-0.385,0.292-0.66,0.302l0.025-0.023c-0.452,0.164-0.933,0.313-1.454,0.341
			c0.021-0.059-0.036-0.086,0.014-0.131c-0.094,0.161-0.296,0.065-0.405,0.083l0.146,0.068c-0.121,0.147-0.351,0.074-0.442-0.004
			l-0.201,0.18c-0.018-0.01-0.045-0.023-0.052-0.043l-0.027,0.073l-0.154-0.141c-0.05,0.044-0.344,0.146-0.406,0.322
			c-0.033-0.05-0.255-0.052-0.096-0.114l-0.843,0.115l0.142,0.033c0.041,0.121-0.193,0.25-0.334,0.218
			c0.149-0.134-0.021-0.18-0.113-0.257c-0.1,0.089,0.121,0.09,0.075,0.171c-0.126,0.111-0.418,0.214-0.505,0.175l0.075-0.068
			c-0.184,0.086-0.317-0.111-0.505-0.063c-0.15,0.137-0.296,0.07-0.216,0.277c-0.238,0.096-0.125-0.125-0.21-0.131
			c-0.095,0.127-0.453,0.134-0.52,0.033c-0.07,0.344-0.688,0.027-0.684,0.301l-0.234-0.106c0.009,0.072,0.002,0.239-0.156,0.302
			c-0.171-0.043-0.16-0.175-0.223-0.237l-0.049,0.284c-0.951-0.096-2.089,0.336-3.113,0.326c-0.423,0.151-0.944,0.395-1.461,0.469
			l0.049-0.045l-0.521,0.04l0.394,0.039c-0.104,0.055-0.179,0.124-0.286,0.144c-0.578,0.016-1.35,0.041-2,0.334
			c-0.372,0.404-0.354-0.199-0.727,0.119c0.03-0.035,0.033-0.082,0.06-0.119c-0.433,0.207-0.667,0.316-1.081,0.6
			c-0.018-0.311-0.295,0.076-0.291-0.091l-0.009,0.13c-0.119-0.05-0.363-0.021-0.35-0.115l-0.165,0.197l-0.047-0.119
			c-0.269,0.053-0.816,0.288-1.017,0.069c-0.616,0.337-1.667,0.542-2.504,0.696c-0.092,0.129-0.33,0.197-0.517,0.254l-0.237-0.098
			c-0.181,0.092-0.338,0.328-0.539,0.277c-0.004-0.018,0.001-0.031,0.011-0.043c-0.187,0.078-0.392,0.046-0.539,0.227
			c-0.215,0.045-0.442,0.018-0.411-0.136c0.04,0.251-0.461,0.077-0.461,0.077s-2.772,0.545-5.828,1.379
			c-3.055,0.832-6.38,1.98-7.51,3.019c-0.054,0.145-0.277,0.292-0.142,0.408C0.15,23.983,0.001,23.796,0,23.927
			c0.281,0.007,0.01,0.333,0.306,0.41l-0.153,0.076c-0.008,0.094,0.192-0.16,0.197,0.006l-0.02-0.236
			c0.141-0.004,0.226,0.022,0.294,0.086c0.098-0.123,0.088-0.449,0.421-0.4l-0.077,0.037c0.237-0.076,0.188,0.103,0.249,0.125
			l-0.054,0.014l0.234,0.055c-0.174-0.031-0.374,0.223-0.246,0.172c0.303-0.019-0.09-0.033,0.116-0.122
			c0.129-0.05,0.126,0.081,0.141,0.152l0.236-0.077c0.021,0.107-0.16,0.04-0.032,0.12l0.269-0.196
			c0.131,0.248,0.291-0.22,0.499-0.01c-0.198,0.123,0.045,0.083,0.035,0.178l0.525-0.166C3,24.173,2.823,24.271,2.9,24.235
			c0.12,0.044,0.145-0.111,0.2-0.125c0.066,0.06,0.394-0.115,0.429,0.064c0.391,0.015,0.088-0.266,0.45-0.261
			c0.074,0.094-0.258,0.101-0.079,0.169l0.335-0.139c-0.017,0.061-0.019,0.191-0.155,0.205c0.976-0.129,1.638,0.299,2.456-0.078
			c0.156,0.094-0.063,0.108-0.126,0.215c0.575-0.337,0.95,0.041,1.474-0.117l-0.019-0.107c0.825,0.127,1.657-0.316,2.529-0.396
			l-0.119-0.048c0.088-0.131,0.271-0.189,0.396-0.271c0.035,0.047-0.041,0.249,0.19,0.143c-0.06-0.023-0.173-0.037-0.155-0.096
			c0.789,0.087,2.285-0.373,3.497-0.545c1.576-0.482,3.361-0.699,4.915-1.152c-0.237,0.068-0.198-0.218-0.004-0.202
			c0.601,0.325,0.841-0.274,1.418-0.093c0.883-0.355,1.79-0.164,2.565-0.702l0.045,0.12c0.141,0.027,0.155-0.066,0.286-0.111
			l0.005,0.037c0.326-0.029,0.681-0.24,0.876-0.221l-0.021-0.143c0.187-0.055,0.123,0.086,0.298-0.037l0.01,0.072l0.195-0.184
			c0.033,0.252,0.536-0.098,0.711-0.02c0.234-0.098,0.673-0.307,1.054-0.339c0.097,0.111,0.55,0.011,0.852,0.011
			c0.556-0.158,1.351-0.376,2.078-0.478l-0.047-0.157l0.186-0.051c0.005,0.036,0.034,0.049,0.009,0.072
			c0.184,0.152,0.421-0.146,0.596-0.064c-0.126-0.125-0.137,0.004-0.244,0.023c-0.17-0.045-0.056-0.23,0.169-0.194l0.003,0.036
			l0.124-0.113c0.042,0.121,0.184,0.152,0.226,0.273c0.61-0.158,0.986-0.461,1.635-0.535c-0.037,0.152,0.45-0.131,0.372,0.139
			c0.363-0.172-0.104-0.184,0.036-0.393c0.107-0.018,0.206-0.108,0.244-0.022c-0.038,0.069,0.117,0.13,0.034,0.17l0.252-0.071
			c0.028,0.013-0.021,0.059-0.046,0.08c0.492-0.244,0.956-0.023,1.396-0.258c0.017-0.094-0.19,0.012-0.175-0.083
			c0.436-0.271,0.448,0.077,0.862-0.136l-0.067,0.139c0.125-0.111,0.167-0.229,0.419-0.176c0.069,0.136-0.175,0.156-0.274,0.244
			c0.162-0.025,0.56-0.142,0.41-0.248c0.183-0.084,0.277,0.029,0.389,0.049c-0.003-0.036-0.197-0.061-0.099-0.148
			c0.277,0.029,0.68-0.054,1.002-0.104c0.004,0.035,0.036,0.085,0.012,0.107C37.129,17.751,37.163,18.075,37.508,17.966z"/>
		<path fill="#EE3432" d="M54.496,14.339l-0.134-0.003c0.005,0.032,0.004,0.069-0.051,0.114L54.496,14.339z"/>
		<path fill="#EE3432" d="M48.317,15.202c-0.015,0.014-0.028,0.027-0.04,0.047C48.308,15.237,48.315,15.22,48.317,15.202z"/>
		<path fill="#EE3432" d="M46.863,15.697c0.102-0.05,0-0.071-0.059-0.099C46.808,15.628,46.815,15.661,46.863,15.697z"/>
		<path fill="#EE3432" d="M57.941,13.458c-0.021,0.017-0.032,0.037-0.024,0.066C57.943,13.495,57.947,13.475,57.941,13.458z"/>
		<path fill="#EE3432" d="M67.651,12.343c-0.014-0.006-0.023-0.01-0.041-0.018C67.618,12.335,67.633,12.341,67.651,12.343z"/>
		<path fill="#EE3432" d="M67.087,12.176c-0.026,0.003-0.061,0.011-0.107,0.032C67.028,12.212,67.062,12.196,67.087,12.176z"/>
		<path fill="#EE3432" d="M55.603,13.839c-0.036,0.011-0.069,0.027-0.096,0.061C55.563,13.889,55.587,13.864,55.603,13.839z"/>
		<path fill="#EE3432" d="M66.871,12.253h-0.137c0,0.01,0,0.017,0.001,0.029L66.871,12.253z"/>
		<path fill="#EE3432" d="M67.823,12.341c-0.053,0.002-0.125,0.01-0.172,0.002C67.723,12.374,67.776,12.369,67.823,12.341z"/>
		<path fill="#EE3432" d="M61.473,12.794l-0.014,0.005C61.361,12.874,61.424,12.839,61.473,12.794z"/>
		<polygon fill="#EE3432" points="66.308,12.567 66.289,12.563 66.254,12.607 		"/>
		<path fill="#EE3432" d="M68.415,12.332c-0.024,0.007-0.048,0.015-0.064,0.034c0.022,0.002,0.047,0.004,0.079,0.008
			C68.42,12.356,68.417,12.344,68.415,12.332z"/>
		<path fill="#EE3432" d="M63.532,12.765c0.032-0.059,0.042-0.096,0.04-0.124C63.527,12.647,63.502,12.677,63.532,12.765z"/>
	</g>
	<g>
		<path fill="#EE3432" d="M87.302,12.488c-0.008-0.009-0.017-0.017-0.03-0.021C87.282,12.483,87.292,12.489,87.302,12.488z"/>
		<path fill="#EE3432" d="M85.638,18.19l0.035-0.003C85.651,18.182,85.643,18.183,85.638,18.19z"/>
		<path fill="#EE3432" d="M87.93,8.155c0.002,0.007,0.004,0.008,0.007,0.012c0.01-0.066,0.022-0.158,0.043-0.305L87.93,8.155z"/>
		<path fill="#EE3432" d="M78.698,5.286l0.02,0.088C78.709,5.333,78.706,5.308,78.698,5.286z"/>
		<path fill="#EE3432" d="M82.267,13.454c-0.026-0.018-0.056-0.055-0.084-0.092C82.212,13.413,82.239,13.452,82.267,13.454z"/>
		<path fill="#EE3432" d="M88.916,5.948l-0.063,0.117C88.874,6.065,88.9,6.024,88.916,5.948z"/>
		<path fill="#EE3432" d="M89.094,1.456c-0.003,0.004-0.005,0.006-0.009,0.014C89.091,1.476,89.093,1.468,89.094,1.456z"/>
		<path fill="#EE3432" d="M88.867,3.216c0.002,0.035,0.004,0.08,0.006,0.127C88.879,3.29,88.886,3.223,88.867,3.216z"/>
		<path fill="#EE3432" d="M88.878,3.403l-0.005-0.061C88.871,3.376,88.87,3.403,88.878,3.403z"/>
		<path fill="#EE3432" d="M88.043,2.71c0.104-0.018,0.186-0.072,0.277-0.111C88.226,2.629,88.134,2.671,88.043,2.71z"/>
		<path fill="#EE3432" d="M88.2,7.124l-0.033,0.008C88.194,7.136,88.201,7.13,88.2,7.124z"/>
		<path fill="#EE3432" d="M88.1,2.277l0.085-0.005C88.152,2.269,88.125,2.272,88.1,2.277z"/>
		<path fill="#EE3432" d="M88.752,8.298c0.03,0.133-0.058,0.387-0.012,0.391C88.749,8.552,88.808,8.366,88.752,8.298z"/>
		<path fill="#EE3432" d="M91.604,6.485l0.081,0.025C91.646,6.499,91.624,6.491,91.604,6.485z"/>
		<path fill="#EE3432" d="M88.1,2.277L88,2.286l0.034,0.017C88.054,2.292,88.076,2.283,88.1,2.277z"/>
		<polygon fill="#EE3432" points="87.04,10.656 87.045,10.655 87.072,10.642 		"/>
		<path fill="#EE3432" d="M86.262,10.735c0.053-0.016,0.104-0.031,0.16-0.047C86.335,10.7,86.291,10.718,86.262,10.735z"/>
		<path fill="#EE3432" d="M88.32,2.599c0.054-0.021,0.109-0.037,0.164-0.051C88.424,2.554,88.371,2.575,88.32,2.599z"/>
		<path fill="#EE3432" d="M78.105,12.429l0.063-0.014C78.141,12.417,78.12,12.423,78.105,12.429z"/>
		<path fill="#EE3432" d="M82.556,13.962l0.027,0.062C82.596,14.023,82.6,14.016,82.556,13.962z"/>
		<polygon fill="#EE3432" points="78.673,9.483 78.672,9.481 78.671,9.481 		"/>
		<path fill="#EE3432" d="M78.859,9.741c-0.032-0.093-0.123-0.205-0.187-0.258C78.715,9.573,78.764,9.651,78.859,9.741z"/>
		<path fill="#EE3432" d="M78.415,8.854c0.004,0.013,0.006,0.023,0.01,0.037C78.421,8.876,78.418,8.866,78.415,8.854z"/>
		<polygon fill="#EE3432" points="81.323,14.47 81.328,14.468 81.322,14.467 		"/>
		<path fill="#EE3432" d="M80.661,13.405c-0.004-0.023-0.014-0.053-0.026-0.084C80.638,13.344,80.646,13.372,80.661,13.405z"/>
		<polygon fill="#EE3432" points="77.255,5.878 77.258,5.878 77.255,5.872 		"/>
		<path fill="#EE3432" d="M86.265,4.391c-1.107-0.372-2.563-0.8-3.643-1.221c-0.27,0.005-0.615-0.118-0.97-0.224l0.007-0.133
			l-0.304-0.067c-0.104-0.079,0.23,0.059,0.039-0.063l-0.137,0.035c-0.007-0.052-0.732-0.298-0.216-0.208l-1.124-0.409
			c-0.248-0.094-0.182,0.048-0.446-0.082c-0.043-0.056,0.107,0.013,0.101-0.039c-0.06-0.034-0.269-0.116-0.438-0.177
			c-0.168-0.061-0.32-0.113-0.458-0.148c-0.28-0.069-0.486-0.048-0.657-0.003c-0.309,0.085-0.735,0.293-0.987,0.819l0.03-0.104
			c-0.087,0.182-0.116,0.656-0.116,0.656c0.163-0.088-0.052-0.305,0.151-0.604c0.051,0.083-0.069,0.495,0.014,0.518
			c-0.097,0.264-0.039,0.476-0.034,0.74c-0.045,0.264-0.033,0.419-0.034,0.602c0.004,0.178,0.015,0.346-0.018,0.467
			c0.055,0.145,0.175,0.298,0.236,0.608c-0.042,0.239-0.09-0.039-0.064,0.274l0.073,0.036c0.045,0.25,0.019,0.215-0.012,0.212
			c0.055,0.269,0.137,0.199,0.18,0.539l-0.106-0.168c0.085,0.238,0.105,0.338,0.2,0.674c-0.037,0.004-0.076-0.131-0.094-0.233
			c-0.038,0.21,0.134,0.298,0.154,0.397c0.018-0.035-0.044-0.268,0.051-0.174c0.042,0.166,0.192,0.318,0.164,0.457l-0.119-0.156
			c0.166,0.32,0.134,0.155,0.253,0.545c-0.012-0.02-0.022-0.004-0.038-0.008c0.166,0.213,0.22,0.551,0.363,0.9l-0.043-0.059
			c0.079,0.132,0.163,0.186,0.192,0.262c-0.054-0.209-0.012-0.164,0.036-0.205c0.018,0.301,0.282,0.346,0.418,0.786
			c-0.036,0.009-0.122-0.073-0.14-0.204c-0.163-0.099-0.253-0.079-0.413-0.317c0.094,0.151,0.191,0.333,0.133,0.312l0.113,0.01
			c0.043,0.096,0.077,0.172,0.109,0.246c0.075,0.014,0.004-0.238,0.144-0.033c0.146,0.234-0.029,0.176,0.029,0.195
			c0.198,0.324,0.163,0.096,0.29,0.438c-0.023-0.029-0.069-0.086-0.074-0.117c0.076,0.252,0.3,0.566,0.226,0.688
			c-0.041-0.022-0.076-0.013-0.111-0.106l0.019-0.005c-0.205-0.22,0.128,0.204-0.009,0.173c0.047-0.047,0.203,0.287,0.269,0.439
			l0.041-0.08c0.447,0.389-0.146,0.042,0.136,0.512c0.207,0.282-0.044-0.125,0.102,0.038c0.101,0.212,0.081,0.321,0.277,0.605
			c0.021,0.097,0.081,0.286,0.019,0.341c0.129,0.167,0.284,0.569,0.412,0.633c-0.118-0.344-0.255-0.266-0.366-0.682l0.126,0.063
			c0.14,0.252,0.357,0.552,0.436,0.737c-0.008-0.043,0.001-0.068,0.028-0.056c0.237,0.337,0.363,0.397,0.554,0.747
			c-0.034,0.084-0.147-0.121-0.241-0.263c0.085,0.249,0.138,0.231,0.327,0.583c-0.042,0.051-0.138-0.23-0.216-0.237l0.252,0.364
			l-0.011,0.008c0.124-0.004,0.174,0.289,0.348,0.498c0.354,0.535,0.527,0.536,0.799,0.777c0.03,0.095,0.023,0.134-0.021,0.115
			c-0.05-0.155-0.064-0.111-0.118-0.141c0.131,0.172,0.182,0.449,0.078,0.375c0.223,0.262-0.026-0.134,0.122,0.019l0.268,0.387
			c0.012-0.077-0.074-0.218,0.101-0.045c0.13,0.158,0.182,0.243,0.337,0.46c-0.044-0.015-0.017,0.118-0.133-0.046
			c0.06,0.116,0.178,0.281,0.267,0.312c-0.136-0.264,0.328,0.354,0.265,0.129l0.137,0.262c-0.039-0.053-0.072-0.037-0.124-0.121
			c-0.015,0.115,0.163,0.176,0.232,0.252c0.052,0.09,0.211,0.305,0.199,0.342c0.075,0.059,0.201,0.248,0.196,0.307
			c0.1,0.096,0.049-0.025,0.095-0.012l0.317,0.4c-0.012,0.059-0.058,0.201-0.143,0.128c0.214,0.175,0.148-0.015,0.424,0.253
			c-0.228-0.051,0.385,0.367,0.078,0.279c0.084,0.096,0.281,0.229,0.523,0.273c0.243,0.049,0.513-0.002,0.679-0.086
			c0.195-0.137-0.384,0.087-0.373-0.025c0.495-0.079,0.662-0.359,0.788-0.543c0.119-0.203,0.198-0.385,0.375-0.66
			c-0.029,0.042-0.064,0.092-0.103,0.137c0.161-0.362,0.123-0.295,0.155-0.507c0.041,0.128,0.391-0.267,0.49-0.81
			c-0.032-0.055-0.156,0.273-0.204,0.17l0.068-0.348c0.013-0.023,0.02,0.018,0.021,0.064c0.036-0.313,0.222-0.553,0.131-0.658
			l0.174-0.291l-0.072,0.115c-0.037-0.049-0.007-0.389-0.017-0.459c-0.006-0.347,0.048-0.465,0.127-0.645
			c-0.044,0.055-0.146,0.191-0.126-0.078c0.145,0.021,0.124-0.555,0.197-0.537c0.012-0.109,0.081-0.295,0.022-0.314l0.088,0.029
			c-0.123-0.041-0.067-0.436-0.053-0.74c0.162,0.09,0.028-0.332,0.2-0.447c-0.108-0.071,0.021-0.541-0.07-0.607
			c0.023-0.232,0.128-0.196,0.172-0.251l-0.029-0.114c0.069-0.109,0.132-0.545,0.201-0.8l-0.072-0.255l0.058-0.083
			c-0.021-0.042-0.011-0.245-0.064-0.125l0.022-0.13c-0.11-0.024-0.008-0.187-0.022-0.455c0.025-0.058,0.05-0.038,0.058,0.021
			c0.018-0.13,0.067-0.067,0.113-0.134c-0.04,0.089-0.141-0.494-0.235-0.148c-0.048,0.018-0.056-0.191-0.02-0.316l0.109-0.066
			l-0.086-0.166c0.01-0.203,0.085-0.28,0.116-0.441c-0.015,0.167,0.146,0.394,0.197-0.035c-0.015,0.227,0.027,0.344,0.033,0.464
			c0.016-0.089,0.03-0.132,0.056,0.012c0.011-0.339-0.047-0.12-0.019-0.452c0.087,0.029,0.127-0.061,0.194-0.347l-0.093,0.209
			c-0.01-0.012-0.016-0.027-0.019-0.044c-0.021,0.08-0.037,0.102-0.074,0.115c0.01-0.065-0.063-0.398-0.002-0.447
			c-0.181,0.316-0.035-0.596-0.146-0.394c-0.021-0.041,0.002-0.274,0.05-0.292c0.033,0.286,0.128-0.196,0.186-0.144
			c-0.014-0.106-0.094,0.21-0.11,0.066c0.015-0.167,0.085-0.28,0.125-0.37l0.008,0.072l0.072-0.251
			c-0.04-0.048-0.107,0.237-0.101-0.001c0.026-0.059,0.032-0.297,0.067-0.286c0.048,0.12,0.14,0.049,0.13,0.251
			c0.014-0.167,0.07-0.697-0.041-0.494L88.936,6.4c-0.054,0.12-0.165,0.46-0.128,0.06l0.018,0.006l-0.033-0.285l0.062-0.115
			c-0.023,0.001-0.039-0.045-0.024-0.147c0.03-0.023,0.053-0.119,0.088-0.106c0.032-0.299-0.016-0.28-0.037-0.322
			c0.015-0.168,0.041-0.228,0.084-0.143c0.04-0.227,0.078-0.627,0.146-0.777c-0.003-0.31-0.027,0.061-0.065-0.125
			c0.188-0.246,0.191-0.994,0.223-1.514c-0.15,0.126-0.002-0.143-0.121-0.248c0.037,0.117,0.136-0.486,0.148-0.027V2.374
			c0.086-0.189,0.033,0.47,0.151,0.184c0.012-0.322-0.132-0.532-0.108-0.918c0.11,0.122-0.062-0.296,0.054-0.211
			c0.048,0.078,0.043,0.189,0.062,0.301l0.013-0.071c-0.059-0.745-0.135-0.201-0.264-0.567c-0.117-0.432-0.026-0.367,0.016-0.408
			c-0.002-0.075-0.104-0.297-0.187-0.396c0.186,0.242,0.137,0.516,0.039,0.411C89.121,0.463,88.792,0.066,88.681,0
			c0.22,0.608,0.241,0.396,0.302,0.987c0.051,0.066,0.157,0.031,0.173,0.384c-0.08-0.206-0.052,0.023-0.062,0.085
			c0.052-0.072,0.053,0.232,0.079,0.334c-0.043,0.095-0.141-0.191-0.15,0.145l0.137,0.061c-0.021,0.134-0.099-0.055-0.067,0.227
			c-0.07-0.151-0.105,0.042-0.134-0.33c-0.103,0.441,0.053,0.68,0.071,1.033c-0.005-0.036-0.021-0.041-0.027-0.077
			c0.027,0.077,0.014,0.211,0.01,0.313c-0.057,0.223-0.041-0.186-0.085-0.13l-0.038,0.365c-0.005,0.006-0.011,0.008-0.011,0.008
			c0.007,0.098,0.008,0.189-0.03,0.219c-0.029-0.113-0.068-0.161-0.095-0.238l0.046,0.393c-0.039-0.047-0.115,0.306-0.114,0.03
			l-0.052,0.567l-0.097,0.035c0,0.138,0.017,0.144,0.048-0.017c-0.044,0.19,0.052,0.875-0.113,0.751
			c0.019,0.452-0.03,0.608-0.052,1.15c-0.032-0.423-0.165,0.459-0.149,0.018c-0.071,0.251,0.021,0.316,0.01,0.52
			c-0.062,0.185-0.14,0.09-0.147-0.119l0.011,0.245L88.126,6.95l0.024,0.215C88.074,7.38,88.054,7.2,88.013,7.428l0.074,0.06
			l-0.066,0.148c0.044-0.053,0.044,0.084,0.029,0.25L88.032,7.88l-0.01,0.204c-0.023-0.206-0.04,0.182-0.086,0.083
			c-0.025,0.172-0.025,0.176-0.05,0.488l0.062-0.047c-0.003,0.411-0.083,0.006-0.129,0.334l0.065-0.012
			c-0.165,0.459-0.04,0.811-0.151,1.15c0.01-0.202-0.069-0.16-0.052-0.154c-0.015,0.305-0.093,0.793-0.056,1.115
			c-0.105,0.102-0.137,0.125-0.218,0.441c-0.023,0.232-0.019,0.268,0.024,0.352c-0.063,0.221-0.063,0.65-0.131,0.653
			c0.046,0.059-0.036,0.202-0.007,0.331l-0.03,0.023l0.065-0.012c-0.191,0.383-0.005,0.686-0.179,1.074l-0.008-0.072l0.004,0.173
			c-0.031,0.023-0.04-0.048-0.074-0.06l-0.11,0.787l0.066-0.148c-0.014,0.166,0.033,0.285-0.029,0.471
			c-0.055-0.327-0.036,0.262-0.116,0.305l-0.003-0.174c-0.023,0.232-0.023,0.232,0.043,0.222c-0.016,0.303-0.146,0.192-0.113,0.475
			l0.027-0.195c0.044-0.054,0.078,0.095,0.061,0.225c-0.015,0.03-0.055,0.118-0.049,0.019c-0.005,0.236-0.091,0.573-0.085,0.676
			c-0.042,0.117-0.079,0.068-0.083,0.001c-0.042,0.48-0.048,0.213-0.115,0.681l-0.033-0.018l-0.007,0.165
			c-0.05,0.062-0.097,0.124-0.149,0.181l0.073-0.055c-0.05,0.139-0.062,0.236-0.16,0.377l-0.015-0.084
			c-0.145,0.307-0.198,0.197-0.34,0.422c-0.017-0.003,0.007-0.04,0.017-0.061c-0.158,0.189-0.146-0.023-0.327,0.039
			c0.016-0.016,0.002-0.051,0.013-0.064c-0.026,0-0.054-0.004-0.081-0.01l0.033-0.072c-0.029,0.024-0.063,0.045-0.098,0.061
			c-0.002-0.037-0.001-0.073,0.003-0.107l-0.043,0.006c0.078-0.122-0.193-0.292-0.288-0.573l-0.042,0.094
			c-0.583-0.425-0.89-1.313-1.442-1.94l0.067-0.029l-0.27-0.232c-0.058-0.186,0.114,0.057,0.112-0.014
			c-0.243-0.279-0.175-0.064-0.436-0.406c-0.085-0.209,0.087,0.033,0.167,0.104c-0.259-0.309-0.619-0.783-0.738-1.046
			c-0.012-0.001-0.032-0.009-0.027,0.007c-0.175-0.207-0.334-0.525-0.493-0.775c0.032-0.011,0.075,0.049,0.12,0.107
			c-0.052-0.093-0.11-0.227-0.186-0.287l0.111,0.063c-0.106-0.2-0.379-0.547-0.342-0.627c-0.01,0.038-0.063,0.057-0.158-0.115
			c0.042-0.149-0.309-0.438-0.407-0.742c0.041,0.02,0.158,0.218,0.128,0.16c-0.052-0.151-0.165-0.25-0.263-0.354l0.06,0.016
			l-0.401-0.615c0.046-0.147-0.331-0.606-0.237-0.599c-0.116-0.234,0.057,0.217-0.105-0.071c0.002-0.1-0.153-0.258-0.082-0.277
			l0.022,0.028l-0.107-0.205l0.128,0.1c-0.102-0.172-0.23-0.271-0.282-0.257c-0.046-0.188-0.189-0.415-0.168-0.521l0.045,0.057
			c-0.251-0.469-0.187-0.871-0.454-1.199c-0.003-0.032,0.015-0.035,0.039,0.023l-0.117-0.297l0.078,0.05l-0.268-0.46l0.036-0.006
			c-0.108-0.33-0.299-0.832-0.42-1.252l0.032,0.059c-0.173-0.446-0.078-0.451-0.188-0.779c0.012,0.01,0.018,0.021,0.021,0.033
			l-0.057-0.303l0.047,0.061c-0.118-0.214,0.014-0.65-0.035-0.504c-0.045-0.122-0.11-0.336-0.152-0.371
			c-0.019-0.326,0.042-0.094,0.064-0.277c0.004-0.042-0.061-0.075-0.023-0.135l0.036,0.023c-0.003-0.031-0.033-0.074-0.017-0.123
			l0.009,0.03c-0.003-0.153,0.127,0.089,0.111-0.086c0.041,0.046,0.102,0.044,0.09,0.117c-0.034-0.037,0.262,0.052,0.448,0.104
			c0.204,0.06,0.405,0.118,0.632,0.185c0.03,0.138,0.098,0.027,0.343,0.188l0.002-0.066c0.63,0.22,1.296,0.628,1.995,0.854
			l-0.002,0.068l0.162-0.016c0.734,0.298,1.688,0.671,2.281,0.887c0.205,0.039,0.526,0.074,0.827,0.208l-0.035-0.003
			c0.55,0.16,1.127,0.341,1.7,0.588c-0.045,0.012,0.007,0.051-0.065,0.043c0.164-0.016,0.346,0.122,0.471,0.17l-0.131-0.1
			c0.188,0.004,0.406,0.146,0.475,0.221l0.288,0.031C88.177,7.093,88.2,7.112,88.2,7.124l0.059-0.016l0.111,0.13
			c0.071,0.008,0.427,0.114,0.563,0.078c0.016,0.036,0.254,0.146,0.059,0.091l0.954,0.373l-0.14-0.083
			c0.003-0.066,0.306,0.001,0.445,0.083c-0.214-0.023-0.047,0.078,0.021,0.152c0.143,0.016-0.095-0.094-0.014-0.102
			c0.179,0.02,0.534,0.125,0.611,0.184l-0.106-0.012c0.231,0.06,0.297,0.201,0.519,0.275c0.215,0.024,0.345,0.121,0.342,0.004
			c0.293,0.083,0.085,0.109,0.174,0.154c0.151-0.001,0.54,0.176,0.572,0.246c0.21-0.094,0.759,0.334,0.821,0.221
			c0.058,0.051,0.104,0.1,0.091,0.123c0.019-0.031,0.067-0.1,0.125-0.082c0.011,0.057-0.055,0.091-0.079,0.12
			c0.043-0.024,0.09-0.046,0.14-0.062c0.006,0.029,0.007,0.059,0.004,0.087c-0.007,0.06-0.035,0.114-0.076,0.149
			c-0.02,0.018-0.041,0.031-0.063,0.044l-0.16,0.079c-0.196,0.083-0.41,0.146-0.641,0.182c-0.284,0.047-0.564,0.086-0.834,0.113
			c-0.521,0.134-1.174,0.328-1.792,0.434l0.064-0.031l-0.619,0.087l0.457-0.028c-0.131,0.041-0.229,0.088-0.359,0.111
			c-0.682,0.08-1.591,0.193-2.405,0.426c-0.504,0.26-0.382-0.063-0.872,0.15c0.041-0.022,0.053-0.047,0.089-0.07
			c-0.542,0.161-0.836,0.248-1.371,0.447c0.033-0.163-0.359,0.076-0.325-0.014l-0.034,0.07c-0.131-0.012-0.423,0.033-0.39-0.02
			l-0.229,0.125l-0.034-0.059c-0.323,0.061-1.008,0.251-1.203,0.158c-0.782,0.255-2.052,0.48-3.062,0.658
			c-0.132,0.079-0.424,0.143-0.652,0.193l-0.26-0.025c-0.244,0.073-0.428,0.209-0.615,0.18c0-0.009,0.007-0.016,0.019-0.021
			c-0.197,0.04-0.381,0.006-0.553,0.069c-0.206-0.013-0.354-0.089-0.29-0.147c-0.068,0.124-0.27-0.103-0.233-0.095
			c-0.008-0.01-0.015-0.007-0.017-0.035c0.025-0.038-0.09,0.06,0.204-0.346c0.265-0.333,0.979-0.869,1.601-1.407
			c0.648-0.551,1.352-1.146,2.074-1.76c1.438-1.232,2.941-2.549,4.217-3.725c1.284-1.234,2.293-1.987,2.935-2.273
			c0.075-0.082,0.33-0.16,0.222-0.218c0.205-0.054,0.302,0.067,0.34-0.003C88.32,2.463,88.693,2.324,88.4,2.261l0.189-0.024
			c0.037-0.046-0.256,0.063-0.215-0.021l-0.042,0.123c-0.151-0.002-0.238-0.01-0.299-0.036c-0.138,0.074-0.18,0.243-0.52,0.29
			l0.086-0.038c-0.259,0.101-0.187-0.009-0.249-0.005l0.059-0.023c-0.082,0.011-0.164,0.024-0.246,0.043
			c0.181-0.046,0.435-0.236,0.287-0.175c-0.336,0.1,0.094-0.007-0.143,0.103c-0.146,0.069-0.129-0.004-0.138-0.04
			c-0.089,0.042-0.178,0.085-0.264,0.133c-0.016-0.053,0.176-0.088,0.044-0.083c-0.104,0.074-0.204,0.15-0.302,0.23
			c-0.134-0.086-0.312,0.268-0.523,0.257c0.207-0.178-0.047-0.025-0.036-0.085c-0.183,0.129-0.362,0.262-0.537,0.398
			c-0.063,0.023,0.114-0.139,0.038-0.072c-0.124,0.046-0.145,0.152-0.198,0.193c-0.071,0.004-0.391,0.31-0.43,0.23
			c-0.383,0.245-0.073,0.213-0.426,0.445c-0.077-0.006,0.246-0.227,0.068-0.15l-0.32,0.3c0.014-0.046,0.009-0.124,0.141-0.222
			c-0.944,0.71-1.616,0.9-2.393,1.66c-0.158,0.049,0.055-0.105,0.11-0.209c-0.541,0.576-0.933,0.605-1.437,1.046l0.025,0.05
			c-0.818,0.477-1.606,1.281-2.455,1.912l0.121-0.053c-0.075,0.133-0.25,0.289-0.365,0.419c-0.039-0.003,0.019-0.168-0.199,0.048
			c0.061-0.027,0.172-0.096,0.161-0.051c-0.392,0.24-0.945,0.678-1.548,1.17c-0.307,0.263-0.666,0.584-0.967,1.065
			c-0.147,0.246-0.282,0.53-0.333,0.901c-0.048,0.357,0.015,0.716,0.147,1.031c0.181,0.41,0.601,0.775,0.971,0.936
			c0.372,0.172,0.722,0.232,1.049,0.263c0.631,0.062,1.307-0.046,1.795-0.144c1.021-0.188,2.04-0.374,3-0.584
			c-0.293,0.063-0.194-0.093,0.033-0.107c0.65,0.102,1.043-0.248,1.692-0.221c1.109-0.296,2.15-0.305,3.161-0.685l0.033,0.059
			c0.161-0.003,0.195-0.055,0.357-0.094v0.019c0.392-0.055,0.848-0.212,1.075-0.227v-0.073c0.229-0.052,0.131,0.03,0.358-0.058
			v0.037l0.262-0.122c-0.002,0.13,0.65-0.12,0.846-0.101c0.293-0.082,0.848-0.249,1.304-0.314c0.097,0.047,0.65-0.065,1.01-0.104
			c0.171-0.039,0.36-0.08,0.562-0.125c0.189-0.04,0.503-0.114,0.753-0.208c0.134-0.048,0.269-0.104,0.405-0.167l0.205-0.105
			c0.072-0.04,0.197-0.109,0.274-0.171c0.361-0.245,0.655-0.569,0.812-0.938h-0.09c0.052-0.122,0.091-0.251,0.11-0.383
			c0.017,0.009,0.035-0.044,0.034,0.018c0.104-0.174,0.061-0.479-0.012-0.744c-0.069-0.187-0.149-0.355-0.207-0.481
			c0.043,0.208,0.125,0.257,0.2,0.481l0.001,0.002c0.012,0.202-0.032,0.167-0.078,0.018c-0.045-0.109-0.09-0.215-0.163-0.392h0.021
			c-0.063-0.081-0.135-0.157-0.211-0.226c0.038-0.063-0.137-0.285-0.126-0.351c-0.252-0.223-0.658-0.401-0.826-0.458
			c-0.202-0.07-0.365-0.111-0.518-0.153c-0.314-0.087-0.63-0.181-0.996-0.329c0.101-0.039-0.541-0.178-0.349-0.239
			c-0.463-0.118,0.039,0.121-0.194,0.13c-0.124-0.048-0.267-0.063-0.274-0.115c0.069-0.006-0.075-0.107,0.03-0.08l-0.302-0.1
			c-0.025-0.02,0.046-0.012,0.082-0.008c-0.632-0.153-1.05-0.467-1.619-0.598c-0.057,0.027,0.212,0.091,0.156,0.119
			c-0.579-0.114-0.457-0.252-0.99-0.377l0.127-0.02c-0.18-0.021-0.271,0.004-0.525-0.143c-0.022-0.086,0.251,0.027,0.395,0.043
			c-0.187-0.07-0.665-0.224-0.544-0.109c-0.231-0.059-0.29-0.148-0.404-0.211c-0.01,0.015,0.192,0.121,0.05,0.105
			c-0.29-0.149-0.761-0.318-1.131-0.459c0.01-0.016-0.007-0.052,0.028-0.048C86.596,4.662,86.683,4.521,86.265,4.391z"/>
		<path fill="#EE3432" d="M81.402,14.612l-0.079-0.143c-0.014,0.01-0.033,0.013-0.089-0.041L81.402,14.612z"/>
		<path fill="#EE3432" d="M77.902,7.751c-0.013-0.018-0.025-0.034-0.04-0.049C77.88,7.739,77.893,7.749,77.902,7.751z"/>
		<path fill="#EE3432" d="M77.214,5.941c0.046,0.134,0.038,0.007,0.041-0.063C77.24,5.878,77.224,5.885,77.214,5.941z"/>
		<path fill="#EE3432" d="M84.083,18.042c-0.022-0.018-0.041-0.025-0.05-0.012C84.066,18.052,84.08,18.052,84.083,18.042z"/>
		<path fill="#EE3432" d="M88.589,9.601c-0.006,0.014-0.01,0.025-0.017,0.045C88.578,9.638,88.584,9.622,88.589,9.601z"/>
		<path fill="#EE3432" d="M88.395,10.238c-0.005,0.032-0.007,0.073-0.007,0.134C88.399,10.315,88.398,10.272,88.395,10.238z"/>
		<path fill="#EE3432" d="M82.335,15.718c-0.027-0.035-0.057-0.068-0.091-0.091C82.284,15.683,82.313,15.705,82.335,15.718z"/>
		<path fill="#EE3432" d="M88.388,10.51l-0.028,0.163c0,0,0.008,0.003,0.014,0.005L88.388,10.51z"/>
		<path fill="#EE3432" d="M88.623,9.395c-0.011,0.063-0.024,0.146-0.034,0.206C88.618,9.521,88.627,9.456,88.623,9.395z"/>
		<path fill="#EE3432" d="M87.471,17.063l-0.002,0.02C87.469,17.223,87.476,17.136,87.471,17.063z"/>
		<polygon fill="#EE3432" points="88.422,11.243 88.416,11.266 88.43,11.315 		"/>
		<path fill="#EE3432" d="M88.74,8.688c-0.003,0.031-0.003,0.06,0.003,0.084c0.005-0.027,0.012-0.057,0.02-0.093
			C88.752,8.687,88.745,8.688,88.74,8.688z"/>
		<path fill="#EE3432" d="M87.936,14.583c-0.021-0.049-0.037-0.069-0.051-0.072C87.879,14.565,87.887,14.602,87.936,14.583z"/>
	</g>
</g>
</svg>
