<?xml version="1.0" encoding="utf-8"?>
<!-- Generator: Adobe Illustrator 16.0.0, SVG Export Plug-In . SVG Version: 6.00 Build 0)  -->
<!DOCTYPE svg PUBLIC "-//W3C//DTD SVG 1.1//EN" "http://www.w3.org/Graphics/SVG/1.1/DTD/svg11.dtd">
<svg version="1.1" id="Layer_1" xmlns="http://www.w3.org/2000/svg" xmlns:xlink="http://www.w3.org/1999/xlink" x="0px" y="0px"
	 width="38.34px" height="36.77px" viewBox="0 0 38.34 36.77" enable-background="new 0 0 38.34 36.77" xml:space="preserve">
<path fill="#FAAF42" d="M38.022,13.416c-0.122-0.256-0.278-0.498-0.466-0.715c-0.316-0.367-0.727-0.66-1.208-0.853
	c-0.231-0.093-0.477-0.167-0.741-0.206l-7.725-1.122c-0.261-0.038-0.511-0.106-0.748-0.204c-0.475-0.193-0.896-0.5-1.227-0.891
	c-0.166-0.195-0.31-0.414-0.425-0.649l-3.455-6.999c-0.146-0.296-0.327-0.556-0.534-0.778c-0.148-0.16-0.314-0.294-0.487-0.416
	c-0.068-0.048-0.135-0.099-0.205-0.141C20.304,0.148,19.737,0,19.17,0c-0.967,0-1.929,0.432-2.557,1.288
	c-0.111,0.151-0.214,0.311-0.302,0.489l-3.455,6.999c-0.115,0.235-0.259,0.454-0.425,0.649c-0.33,0.391-0.753,0.697-1.227,0.891
	c-0.237,0.098-0.488,0.166-0.748,0.204l-7.726,1.122c-1.307,0.189-2.222,1.089-2.572,2.17c-0.307,0.945-0.185,2.031,0.486,2.906
	c0.096,0.125,0.202,0.246,0.32,0.36l5.589,5.451c0.189,0.182,0.351,0.385,0.486,0.604c0.27,0.436,0.431,0.932,0.469,1.443
	c0.019,0.256,0.007,0.516-0.038,0.773l-1.318,7.693c-0.04,0.23-0.047,0.455-0.039,0.674c0.002,0.047,0.002,0.096,0.007,0.143
	c0.018,0.211,0.051,0.414,0.106,0.609c0.01,0.031,0.022,0.059,0.032,0.088c0.056,0.176,0.127,0.344,0.214,0.504
	c0.017,0.035,0.031,0.068,0.051,0.102c0.099,0.172,0.214,0.332,0.342,0.48c0.027,0.033,0.056,0.061,0.084,0.092
	c0.125,0.135,0.261,0.262,0.407,0.373c0.016,0.014,0.029,0.027,0.045,0.037c0.159,0.119,0.331,0.217,0.509,0.305
	c0.04,0.02,0.081,0.037,0.123,0.055c0.182,0.08,0.368,0.148,0.563,0.191c0.019,0.006,0.036,0.006,0.055,0.01
	c0.183,0.039,0.371,0.057,0.562,0.063c0.056,0.002,0.108,0.004,0.165,0.004c0.051-0.002,0.101-0.006,0.151-0.01
	c0.089-0.006,0.178-0.018,0.268-0.033c0.05-0.008,0.102-0.016,0.151-0.027c0.096-0.02,0.189-0.047,0.283-0.076
	c0.045-0.014,0.09-0.027,0.134-0.043c0.138-0.049,0.274-0.107,0.409-0.178l0.001-0.002l6.91-3.633
	c0.232-0.121,0.476-0.213,0.725-0.273c0.25-0.061,0.504-0.092,0.759-0.092c0.509,0,1.019,0.123,1.482,0.365l6.911,3.633l0.001,0.002
	c0.135,0.07,0.271,0.129,0.408,0.178c0.045,0.016,0.091,0.029,0.136,0.043c0.093,0.029,0.187,0.057,0.279,0.076
	c0.053,0.012,0.104,0.02,0.154,0.029c0.09,0.014,0.179,0.025,0.267,0.031c0.051,0.004,0.102,0.008,0.152,0.01
	c0.056,0,0.109-0.002,0.165-0.004c0.19-0.006,0.379-0.023,0.562-0.063c0.019-0.004,0.036-0.004,0.054-0.01
	c0.195-0.043,0.383-0.111,0.564-0.191c0.042-0.018,0.083-0.035,0.123-0.055c0.178-0.088,0.35-0.186,0.509-0.303
	c0.016-0.012,0.03-0.027,0.046-0.039c0.146-0.111,0.28-0.238,0.405-0.373c0.028-0.029,0.058-0.061,0.085-0.092
	c0.127-0.15,0.243-0.309,0.341-0.48c0.02-0.033,0.035-0.068,0.053-0.102c0.085-0.16,0.156-0.328,0.213-0.502
	c0.009-0.029,0.022-0.059,0.031-0.09c0.057-0.195,0.091-0.398,0.107-0.609c0.004-0.047,0.005-0.096,0.007-0.143
	c0.007-0.219,0.001-0.443-0.039-0.674l-1.319-7.693c-0.089-0.518-0.047-1.039,0.111-1.523c0.156-0.486,0.429-0.932,0.807-1.297
	l2.794-2.725l2.795-2.726c0.591-0.576,0.896-1.286,0.954-2.001C38.376,14.505,38.268,13.929,38.022,13.416z"/>
</svg>
