<?xml version="1.0" encoding="utf-8"?>
<!-- Generator: Adobe Illustrator 16.0.0, SVG Export Plug-In . SVG Version: 6.00 Build 0)  -->
<!DOCTYPE svg PUBLIC "-//W3C//DTD SVG 1.1//EN" "http://www.w3.org/Graphics/SVG/1.1/DTD/svg11.dtd">
<svg version="1.1" id="Layer_1" xmlns="http://www.w3.org/2000/svg" xmlns:xlink="http://www.w3.org/1999/xlink" x="0px" y="0px"
	 width="47.55px" height="45.23px" viewBox="0 0 47.55 45.23" enable-background="new 0 0 47.55 45.23" xml:space="preserve">
<g>
	<polygon fill="#FEE000" points="23.776,0 32.107,13.534 47.553,17.276 37.256,29.379 38.471,45.225 23.776,39.174 9.082,45.225 
		10.297,29.379 0,17.276 15.445,13.534 	"/>
	<polygon fill="#FDC20F" points="10.297,29.379 37.256,29.379 38.471,45.225 23.776,39.174 9.082,45.225 	"/>
	<polygon fill="#FBAA19" points="23.776,29.379 9.74,44.496 23.776,39.174 	"/>
	<polygon fill="#FBAA19" points="37.256,29.379 23.776,29.379 38.471,44.496 	"/>
	<polygon fill="#FDC20F" points="23.776,0 23.776,29.379 15.445,13.534 	"/>
	<polygon fill="#FDC20F" points="47.553,17.651 23.776,29.379 37.322,30.25 37.256,29.379 	"/>
	<g>
		<g>
			<path fill="#010101" d="M15.903,18.993c-0.998,0-1.809,0.807-1.809,1.805c0,1,0.811,1.807,1.809,1.807
				c0.996,0,1.804-0.807,1.804-1.807C17.707,19.799,16.899,18.993,15.903,18.993z"/>
			<circle fill="#010101" cx="31.479" cy="20.798" r="1.806"/>
			<path fill="#010101" d="M26.635,20.807c-0.008,0-0.013,0-0.013,0c-0.401,0.008-0.715,0.34-0.712,0.736
				c0,0.014-0.003,0.428-0.349,0.773c-0.367,0.369-1.021,0.563-1.898,0.563c-0.861,0-1.493-0.186-1.824-0.543
				c-0.302-0.32-0.282-0.711-0.279-0.744c0.037-0.393-0.249-0.746-0.64-0.789c-0.411-0.047-0.758,0.244-0.803,0.641
				c-0.012,0.104-0.092,1.041,0.628,1.844c0.619,0.693,1.602,1.042,2.918,1.042c1.313,0,2.31-0.345,2.961-1.027
				c0.756-0.787,0.738-1.711,0.733-1.813C27.34,21.102,27.021,20.807,26.635,20.807z"/>
		</g>
		<path fill="#F8B4B6" d="M14.268,23.969c0,1.25-1.014,2.261-2.264,2.261c-1.251,0-2.264-1.012-2.264-2.261
			c0-1.252,1.013-2.266,2.264-2.266C13.254,21.704,14.268,22.717,14.268,23.969z"/>
		<path fill="#F8B4B6" d="M33.284,23.969c0,1.25,1.015,2.261,2.265,2.261s2.264-1.012,2.264-2.261c0-1.252-1.014-2.266-2.264-2.266
			S33.284,22.717,33.284,23.969z"/>
	</g>
</g>
</svg>
