<?xml version="1.0" encoding="utf-8"?>
<!-- Generator: Adobe Illustrator 16.0.0, SVG Export Plug-In . SVG Version: 6.00 Build 0)  -->
<!DOCTYPE svg PUBLIC "-//W3C//DTD SVG 1.1//EN" "http://www.w3.org/Graphics/SVG/1.1/DTD/svg11.dtd">
<svg version="1.1" id="Layer_1" xmlns="http://www.w3.org/2000/svg" xmlns:xlink="http://www.w3.org/1999/xlink" x="0px" y="0px"
	 width="47.77px" height="47.13px" viewBox="0 0 47.77 47.13" enable-background="new 0 0 47.77 47.13" xml:space="preserve">
<g>
	<g>
		<path fill="#EE3432" d="M29.484,31.251c-0.018-0.02-0.038-0.034-0.066-0.041C29.445,31.247,29.467,31.257,29.484,31.251z"/>
		<path fill="#EE3432" d="M27.796,41.754l0.079,0.028C27.83,41.748,27.809,41.745,27.796,41.754z"/>
		<path fill="#EE3432" d="M29.331,20.421c0.006,0.015,0.01,0.014,0.017,0.024c-0.006-0.167-0.012-0.394-0.023-0.762L29.331,20.421z"
			/>
		<path fill="#EE3432" d="M9.493,10.926l0.038,0.035C9.516,10.946,9.516,10.938,9.493,10.926z"/>
		<path fill="#EE3432" d="M18.762,29.864c-0.061-0.045-0.127-0.143-0.191-0.237C18.638,29.756,18.701,29.853,18.762,29.864z"/>
		<path fill="#EE3432" d="M30.439,14.62l-0.077,0.315C30.402,14.926,30.439,14.815,30.439,14.62z"/>
		<path fill="#EE3432" d="M29.229,3.655c-0.007,0.01-0.012,0.013-0.019,0.031C29.221,3.702,29.226,3.683,29.229,3.655z"/>
		<path fill="#EE3432" d="M29.209,7.976c0.02,0.09,0.042,0.196,0.066,0.305C29.262,8.15,29.248,7.984,29.209,7.976z"/>
		<path fill="#EE3432" d="M29.311,8.425l-0.035-0.145C29.284,8.363,29.293,8.429,29.311,8.425z"/>
		<path fill="#EE3432" d="M30.044,1.781c0.227-0.218,0.367-0.457,0.528-0.698L30.044,1.781z"/>
		<path fill="#EE3432" d="M33.768,19.467l-0.081,0.008C33.754,19.49,33.77,19.482,33.768,19.467z"/>
		<path fill="#EE3432" d="M29.742,0.915l0.174-0.143C29.846,0.819,29.791,0.866,29.742,0.915z"/>
		<path fill="#EE3432" d="M31,20.443c0.105,0.314,0.022,0.973,0.113,0.964C31.084,21.07,31.134,20.588,31,20.443z"/>
		<path fill="#EE3432" d="M41.91,18.674l0.199,0.056C42.016,18.701,41.956,18.684,41.91,18.674z"/>
		<path fill="#EE3432" d="M29.742,0.915l-0.2,0.166c0.028-0.003,0.059-0.014,0.089-0.021C29.662,1.009,29.699,0.96,29.742,0.915z"/>
		<path fill="#EE3432" d="M24.563,25.622c0,0,0.006-0.002,0.012-0.004c0.022-0.016,0.039-0.026,0.063-0.042L24.563,25.622z"/>
		<path fill="#EE3432" d="M22.668,26.175c0.124-0.061,0.244-0.119,0.379-0.184C22.836,26.064,22.734,26.122,22.668,26.175z"/>
		<path fill="#EE3432" d="M30.572,1.083l0.301-0.399C30.754,0.816,30.66,0.95,30.572,1.083z"/>
		<path fill="#EE3432" d="M6.291,33.843l0.041-0.02C6.32,33.823,6.308,33.83,6.291,33.843z"/>
		<path fill="#EE3432" d="M19.465,31.123c0.021,0.044,0.047,0.102,0.069,0.152C19.563,31.279,19.569,31.262,19.465,31.123z"/>
		<polygon fill="#EE3432" points="10.776,19.451 10.774,19.446 10.772,19.447 		"/>
		<path fill="#EE3432" d="M11.184,20.112c-0.075-0.229-0.271-0.52-0.408-0.661C10.871,19.673,10.979,19.875,11.184,20.112z"/>
		<path fill="#EE3432" d="M10.172,17.929c0.009,0.029,0.015,0.053,0.025,0.087C10.19,17.984,10.183,17.958,10.172,17.929z"/>
		<path fill="#EE3432" d="M16.93,32.001l0.009-0.005c-0.005-0.002-0.012-0.003-0.012-0.003L16.93,32.001z"/>
		<path fill="#EE3432" d="M15.346,29.318c-0.01-0.058-0.034-0.132-0.065-0.209C15.29,29.164,15.31,29.234,15.346,29.318z"/>
		<path fill="#EE3432" d="M5.124,10.777c0.007,0.005,0.012,0.005,0.012,0.005c-0.013-0.01-0.017-0.012-0.03-0.021L5.124,10.777z"/>
		<path fill="#EE3432" d="M29.166,13.136c-2.602-1.232-6.118-2.782-8.938-3.849c-0.676-0.049-1.584-0.343-2.52-0.574l-0.027-0.272
			l-0.8-0.134c-0.298-0.158,0.612,0.109,0.075-0.13l-0.334,0.079c-0.037-0.117-1.995-0.527-0.639-0.407
			c-1.017-0.237-2.035-0.434-3.051-0.596c-0.672-0.11-0.426,0.146-1.158-0.021C11.634,7.137,12.048,7.218,12,7.119
			c-0.539-0.121-0.972-0.173-1.348-0.184C9.938,6.88,9.345,6.889,8.803,6.894C7.704,6.917,6.84,6.986,5.129,6.812
			C5.111,6.838,5.087,6.874,5.063,6.91l0.025-0.134l0.067-0.003c-0.021,0-0.043,0.001-0.069,0.002
			c-0.094,0.403-0.341,0.724-0.31,0.752C5.16,7.551,4.765,7.271,5.211,6.881c0.01,0.002,0.023,0.005,0.036,0.007
			c0.009,0.011,0.014,0.021,0.006,0.028c0.095,0.14,0.027,0.298-0.039,0.435C5.154,7.473,5.102,7.55,5.194,7.604
			C5.031,7.681,4.949,7.792,4.878,7.873C4.813,7.943,4.752,8.01,4.653,8.074c-0.134,0.06-0.246,0.1-0.36,0.158
			C4.251,8.26,4.149,8.287,4.16,8.32l0.094,0.1c0.08,0.078,0.134,0.172,0.117,0.248c0.101,0.142,0.395,0.396,0.567,0.932
			c-0.193,0.41-0.227-0.175-0.297,0.458l0.22,0.141c-0.001,0.09-0.012,0.189-0.019,0.227c0.57,0.48,0.408,0.389,0.293,0.357
			C5.412,11,5.624,11.156,5.802,11.281c0.178,0.124,0.247,0.21,0.366,0.307c0.214,0.193,0.439,0.397,0.836,0.927
			c-0.191-0.176-0.415-0.353-0.632-0.54c0.384,0.386,0.624,0.649,0.839,0.979c0.185,0.271,0.279,0.405,0.487,0.756
			c-0.073,0.027-0.223-0.243-0.336-0.432c0.076,0.439,0.448,0.553,0.555,0.753c0.013-0.082-0.25-0.547-0.006-0.393
			c0.189,0.33,0.57,0.62,0.581,0.934l-0.316-0.307c0.487,0.65,0.354,0.296,0.753,1.144c-0.032-0.04-0.048-0.004-0.082-0.011
			c0.416,0.456,0.63,1.223,0.983,2.044L9.73,17.3c0.186,0.312,0.372,0.445,0.441,0.629c-0.141-0.497-0.052-0.384,0.04-0.476
			c0.086,0.702,0.64,0.853,0.967,1.933c-0.073,0.011-0.259-0.203-0.31-0.516c-0.346-0.268-0.531-0.239-0.892-0.817
			c0.213,0.363,0.438,0.807,0.313,0.746l0.234,0.044c0.098,0.236,0.176,0.424,0.25,0.603c0.158,0.052-0.016-0.559,0.294-0.042
			c0.324,0.595-0.046,0.409,0.077,0.471c0.438,0.823,0.348,0.271,0.646,1.119c-0.051-0.075-0.153-0.223-0.167-0.301
			c0.185,0.622,0.665,1.438,0.531,1.706c-0.089-0.065-0.162-0.053-0.246-0.284l0.038-0.006c-0.448-0.578,0.286,0.522,0.002,0.407
			c0.096-0.098,0.449,0.741,0.599,1.123l0.078-0.18c0.972,1.051-0.299,0.058,0.336,1.253c0.462,0.73-0.104-0.31,0.217,0.12
			c0.232,0.531,0.199,0.788,0.645,1.515c0.056,0.236,0.206,0.702,0.079,0.813c0.286,0.435,0.671,1.427,0.95,1.61
			c-0.294-0.845-0.582-0.692-0.859-1.713l0.273,0.185c0.315,0.642,0.833,1.403,1.013,1.866c-0.021-0.104-0.005-0.162,0.055-0.123
			c0.542,0.863,0.837,1.032,1.283,1.915c-0.062,0.188-0.328-0.328-0.548-0.688c0.22,0.611,0.313,0.59,0.792,1.459
			c-0.081,0.11-0.343-0.573-0.506-0.609l0.605,0.92c-0.009,0-0.014,0.009-0.022,0.014c0.27,0.021,0.408,0.732,0.836,1.26
			c0.862,1.344,1.247,1.38,1.889,2.002c0.088,0.228,0.084,0.316-0.018,0.266c-0.145-0.375-0.166-0.275-0.289-0.355
			c0.323,0.428,0.5,1.087,0.258,0.891c0.549,0.661-0.089-0.315,0.27,0.071l0.688,0.949c0.006-0.178-0.221-0.521,0.207-0.086
			c0.328,0.392,0.454,0.604,0.869,1.127c-0.103-0.043,0.002,0.268-0.307-0.129c0.17,0.277,0.481,0.676,0.686,0.761
			c-0.381-0.631,0.824,0.873,0.613,0.341l0.4,0.616c-0.107-0.128-0.175-0.095-0.319-0.295c0.009,0.265,0.427,0.422,0.604,0.604
			c0.145,0.215,0.566,0.732,0.563,0.811c0.192,0.139,0.551,0.575,0.563,0.711c0.259,0.229,0.098-0.054,0.205-0.018
			c0.264,0.286,0.52,0.581,0.799,0.853c-0.021,0.108-0.132,0.357-0.283,0.257c0.379,0.253,0.306-0.079,0.777,0.397
			c-0.1-0.036-0.116-0.009-0.094,0.048c0.021,0.054,0.08,0.139,0.189,0.272c0.187,0.238,0.367,0.477-0.011,0.253
			c0.35,0.552,1.742,1.7,2.46,2.27c0.432,0.19-0.782-0.778-0.713-0.909c1.953,1.64,1.865,0.983,3.171,2.169l-0.366-0.354
			c0.459,0.458,0.266-0.197,0.289-0.325c-0.014-0.207-0.035-0.374-0.083-0.759c0.079,0.286,0.198,0.228,0.304-0.19
			c0.104-0.411,0.199-1.188,0.208-2.119c-0.082-0.203-0.199,0.835-0.328,0.404l-0.001-1.12c0.015-0.071,0.043,0.068,0.063,0.231
			c-0.023-0.525,0.041-0.961,0.085-1.35c0.044-0.385,0.069-0.709-0.034-0.782l0.27-0.754l-0.115,0.299
			c-0.086-0.104-0.106-0.939-0.143-1.112c-0.096-0.854-0.018-1.162,0.099-1.629c-0.075,0.148-0.244,0.518-0.27-0.152
			c0.294,0.007,0.106-1.406,0.257-1.387c-0.006-0.271,0.083-0.752-0.037-0.782l0.181,0.044c-0.255-0.062-0.241-1.049-0.298-1.804
			c0.344,0.167-0.037-0.83,0.271-1.169c-0.234-0.14-0.107-1.342-0.311-1.472c-0.022-0.582,0.195-0.527,0.267-0.677l-0.092-0.27
			c0.102-0.296,0.103-1.39,0.157-2.041l-0.223-0.6l0.088-0.227c-0.055-0.096-0.1-0.597-0.167-0.283l0.003-0.327
			c-0.227-0.021-0.071-0.456-0.189-1.108c0.031-0.152,0.086-0.114,0.121,0.027c-0.01-0.326,0.111-0.19,0.18-0.371
			c-0.05,0.232-0.443-1.16-0.514-0.278c-0.09,0.063-0.174-0.446-0.145-0.768l0.194-0.202l-0.226-0.377
			c-0.047-0.5,0.074-0.719,0.079-1.126c0.03,0.414,0.427,0.909,0.377-0.165c0.05,0.563,0.174,0.837,0.226,1.128
			c0-0.223,0.016-0.335,0.113,0.009c-0.092-0.838-0.135-0.276-0.193-1.105c0.182,0.038,0.23-0.196,0.262-0.925l-0.109,0.549
			c-0.023-0.025-0.041-0.062-0.053-0.103c-0.012,0.207-0.037,0.267-0.104,0.313c-0.005-0.164-0.265-0.953-0.161-1.097
			c-0.245,0.848-0.277-1.447-0.426-0.906c-0.057-0.092-0.096-0.672-0.009-0.735c0.171,0.688,0.18-0.532,0.312-0.426
			c-0.064-0.256-0.107,0.552-0.193,0.206c-0.032-0.413,0.064-0.722,0.109-0.955l0.043,0.171l0.049-0.644
			c-0.095-0.1-0.122,0.627-0.197,0.041c0.03-0.157-0.048-0.744,0.024-0.729c0.14,0.273,0.294,0.061,0.35,0.562
			c-0.032-0.416-0.132-1.74-0.269-1.195l-0.023-0.497c-0.058,0.316-0.145,1.195-0.227,0.201l0.037,0.007l-0.177-0.685l0.076-0.307
			c-0.046,0.012-0.093-0.096-0.104-0.352c0.05-0.07,0.058-0.313,0.131-0.299c-0.057-0.744-0.145-0.678-0.203-0.771
			c-0.041-0.415-0.013-0.573,0.105-0.386c-0.014-0.571-0.098-1.564-0.031-1.96c-0.137-0.757-0.027,0.159-0.182-0.277
			c0.268-0.682-0.058-2.529-0.201-3.769c-0.248,0.36-0.059-0.337-0.327-0.544c0.108,0.261,0.118-1.197,0.282-0.116L29.751,5.8
			c0.114-0.467,0.202,1.089,0.353,0.386c-0.067-0.745-0.416-1.206-0.39-2.092c0.22,0.276-0.123-0.669,0.11-0.47
			C29.91,3.8,29.91,4.045,29.947,4.293l0.023-0.158c-0.086-1.637-0.27-0.451-0.479-1.294c-0.12-0.99,0.079-0.797,0.165-0.863
			c0.023-0.158-0.055-0.656-0.131-0.912c0.177,0.595-0.016,1.132-0.164,0.864c0.18-0.458-0.123-1.476-0.236-1.736
			c-0.099,1.439,0.083,0.983-0.042,2.338c0.086,0.177,0.286,0.128,0.274,0.935c-0.143-0.493-0.108,0.044-0.128,0.188
			c0.101-0.164,0.097,0.551,0.165,0.79c-0.074,0.23-0.307-0.455-0.282,0.357l0.282,0.13c-0.012,0.32-0.209-0.118-0.085,0.551
			c-0.173-0.352-0.209,0.128-0.331-0.78c-0.133,1.106,0.267,1.659,0.432,2.499c-0.023-0.086-0.061-0.093-0.086-0.176
			c0.086,0.176,0.107,0.504,0.144,0.753c-0.017,0.563-0.157-0.433-0.22-0.282l0.08,0.904c-0.008,0.02-0.012,0.024-0.018,0.024
			c0.057,0.234,0.097,0.46,0.035,0.548c-0.105-0.262-0.204-0.361-0.289-0.537l0.259,0.937c-0.097-0.098-0.097,0.795-0.211,0.124
			l0.14,1.402L29.07,11.03c0.057,0.335,0.094,0.342,0.086-0.063c-0.002,0.482,0.459,2.11,0.086,1.88
			c0.221,1.095,0.189,1.496,0.355,2.828c-0.227-1.019-0.146,1.19-0.285,0.105c-0.043,0.643,0.161,0.764,0.221,1.265
			c-0.053,0.476-0.242,0.274-0.338-0.231l0.115,0.594l-0.036-0.009l0.128,0.515c-0.069,0.556-0.176,0.125-0.174,0.696l0.168,0.115
			l-0.075,0.391c0.067-0.148,0.116,0.187,0.149,0.6l-0.037-0.008l0.055,0.501c-0.119-0.492-0.016,0.461-0.141,0.237
			c0.01,0.43,0.012,0.438,0.074,1.213l0.104-0.141c0.138,1.009-0.162,0.049-0.138,0.869l0.125-0.057
			c-0.165,1.187,0.191,1.998,0.086,2.874c-0.047-0.499-0.189-0.368-0.152-0.359c0.075,0.75,0.07,1.975,0.245,2.749
			c-0.177,0.288-0.228,0.356-0.293,1.158c0.022,0.58,0.042,0.664,0.151,0.853c-0.061,0.563,0.066,1.617-0.066,1.646
			c0.108,0.129-0.016,0.506,0.078,0.814l-0.055,0.066l0.127-0.05c-0.274,1,0.186,1.683-0.061,2.692l-0.034-0.174l0.052,0.424
			c-0.056,0.067-0.09-0.104-0.163-0.124l-0.015,1.968l0.094-0.388c0.016,0.414,0.137,0.693,0.057,1.167
			c-0.188-0.788-0.009,0.654-0.156,0.78l-0.049-0.422c0.01,0.576,0.01,0.576,0.138,0.529c0.042,0.749-0.244,0.512-0.109,1.203
			l0.007-0.491c0.075-0.145,0.178,0.21,0.174,0.538c-0.021,0.077-0.08,0.31-0.093,0.059c0.021,0.295,0.013,0.664,0.005,0.991
			c-0.006,0.255-0.012,0.388,0.013,0.489c-0.042,0.186-0.131,0.071-0.163-0.032c0.102,0.772-0.026,0.274,0.07,1.106l-0.071-0.101
			l0.08,0.362c-0.052,0.05-0.104,0.084-0.156,0.103c0.031,0.016,0.063,0.027,0.094,0.036c0.009,0.25,0.055,0.508,0.009,0.7
			l-0.102-0.333c0.002,0.044,0.004,0.086,0.006,0.126l-0.074-0.058c-0.051-0.048-0.098-0.091-0.141-0.131
			c-0.09-0.091-0.17-0.184-0.243-0.268c-0.149-0.173-0.266-0.287-0.46-0.36c-0.031-0.055,0.027-0.048,0.055-0.046
			c-0.172-0.041-0.26-0.186-0.318-0.298c-0.068-0.12-0.105-0.206-0.328-0.268c0.037-0.016,0.019-0.094,0.046-0.11l-0.188-0.087
			l0.099-0.106c-0.09,0.012-0.146,0.056-0.29,0.014l-0.098-0.305l-0.176-0.076c-0.16-0.532-0.785-0.894-1.089-1.527l-0.056,0.208
			c-1.451-0.987-2.414-3.049-3.755-4.599l0.138-0.056l-0.641-0.583c-0.167-0.44,0.256,0.154,0.236-0.008
			c-0.584-0.697-0.391-0.187-1.028-1.032c-0.228-0.499,0.196,0.096,0.383,0.274c-0.635-0.762-1.488-1.959-1.797-2.596
			c-0.024-0.004-0.069-0.027-0.058,0.009c-0.395-0.537-0.813-1.306-1.174-1.942c0.066-0.018,0.166,0.134,0.268,0.285
			c-0.123-0.232-0.262-0.566-0.432-0.729l0.244,0.177c-0.26-0.495-0.889-1.382-0.813-1.566c-0.018,0.086-0.125,0.113-0.35-0.316
			c0.063-0.337-0.708-1.12-0.95-1.873c0.089,0.06,0.358,0.563,0.288,0.418c-0.125-0.374-0.376-0.639-0.594-0.915l0.127,0.055
			l-0.908-1.581c0.075-0.332-0.752-1.544-0.556-1.497c-0.264-0.595,0.139,0.536-0.227-0.201c-0.008-0.236-0.351-0.657-0.203-0.686
			l0.05,0.073l-0.24-0.521l0.273,0.274c-0.226-0.44-0.5-0.716-0.609-0.696c-0.116-0.459-0.441-1.049-0.406-1.3l0.101,0.148
			c-0.573-1.202-0.515-2.201-1.185-3.084c-0.016-0.081,0.021-0.088,0.091,0.066l-0.354-0.775l0.183,0.138
			c-0.249-0.402-0.513-0.805-0.78-1.202l0.073-0.017c-0.204-0.427-0.502-0.963-0.842-1.52c-0.18-0.275-0.366-0.558-0.549-0.836
			l-0.254-0.35l-0.065-0.077l0.055,0.018c-0.213-0.145-0.162-0.206-0.202-0.266c-0.014-0.021-0.043-0.045-0.106-0.085
			c0.035,0.012,0.051,0.019,0.062,0.024c-0.042-0.039-0.081-0.082-0.126-0.119l0.152,0.063c-0.181-0.077-0.159-0.115-0.081-0.093
			c0.077,0.017,0.194,0.063,0.062,0.013c-0.13-0.063-0.312-0.153-0.449-0.22c-0.144-0.069-0.25-0.121-0.318-0.154
			c0.102-0.025,0.279,0.112,0.519,0.188c0.12,0.018-0.097-0.129,0.208-0.037l0.115,0.085c0.025-0.005,0.029-0.022,0.044-0.038
			c0.012-0.015,0.035-0.027,0.086-0.027l0.004,0.035c0.011-0.076,0.136-0.01,0.199,0.029c0.075,0.041,0.089,0.055,0.136-0.099
			c0.063,0.036,0.09,0.042,0.186,0.068c0.224,0.042,0.394,0.089,0.367,0.158c1.147,0.054,2.031,0.146,3.148,0.3
			c0.132,0.266,0.24,0.033,0.878,0.303l-0.022-0.135c1.567,0.316,3.189,1.122,4.832,1.696v0.137l0.376-0.003
			c1.734,0.729,3.953,1.845,5.344,2.531c0.485,0.162,1.247,0.37,1.957,0.773l-0.084-0.022c1.304,0.564,2.682,1.189,4.088,1.912
			c-0.112,0.009,0.015,0.107-0.16,0.065c0.4,0.026,0.846,0.38,1.156,0.518l-0.325-0.248c0.46,0.07,1.001,0.438,1.177,0.611
			l0.708,0.15c0.038,0.03,0.097,0.077,0.099,0.1l0.142-0.015l0.286,0.298c0.175,0.038,1.064,0.346,1.396,0.301
			c0.043,0.079,0.646,0.355,0.156,0.201c0.802,0.323,1.606,0.642,2.419,0.94l-0.362-0.189c-0.005-0.137,0.756,0.044,1.117,0.229
			c-0.532-0.073-0.101,0.159,0.085,0.318c0.356,0.047-0.255-0.204-0.056-0.211c0.446,0.063,1.349,0.311,1.556,0.434l-0.268-0.032
			c0.586,0.14,0.786,0.431,1.357,0.594c0.54,0.056,0.892,0.253,0.847,0.013c0.751,0.171,0.244,0.227,0.478,0.314
			c0.377-0.001,1.396,0.345,1.503,0.484c0.484-0.196,1.985,0.615,2.203,0.386l0.33,0.166l0.187-3.433l-0.277-0.031
			c-0.012,0.074-0.116,0.251-0.619,0.345c-0.486-0.017-0.389-0.156-0.544-0.211l-0.285,0.307c-2.789,0.074-6.361,0.907-9.371,1.378
			c-1.311,0.368-2.935,0.911-4.468,1.305l0.159-0.081l-1.532,0.374l1.133-0.206c-0.322,0.128-0.563,0.253-0.884,0.344
			c-1.687,0.373-3.927,0.968-5.88,1.831c-1.18,0.775-0.961,0.048-2.107,0.747c0.094-0.068,0.117-0.125,0.201-0.19
			c-1.288,0.615-1.982,0.957-3.217,1.687c0.027-0.349-0.848,0.372-0.793,0.177L18.6,28.201c-0.318,0.061-1.008,0.343-0.947,0.217
			l-0.507,0.4l-0.103-0.094c-0.757,0.348-2.326,1.208-2.826,1.187c-1.794,1.082-4.586,2.646-6.776,3.468
			c-0.133,0.105-0.359,0.236-0.614,0.342c-0.086,0.035-0.087,0.039-0.093,0.044l-0.033,0.02l-0.074,0.034
			c-0.032-0.044-0.05-0.092-0.054-0.146c-0.045,0.064-0.331,0.336-0.335,0.224c0.021-0.023,0.039-0.041,0.054-0.054
			c-0.14,0.056-0.08-0.046-0.426,0.143c0.083-0.133,0.268-0.296,0.487-0.396c-0.212,0.118-0.167,0.057-0.086-0.004
			c0.083-0.064,0.191-0.108,0.191-0.108s0.026-0.027,0.071-0.076l0.015-0.014c0.004-0.005,0.001,0.002,0.011-0.013l0.106-0.177
			c0.144-0.24,0.3-0.502,0.467-0.781c0.343-0.553,0.733-1.181,1.161-1.869c1.723-2.75,4.154-6.43,6.903-10.196
			c2.749-3.767,5.808-7.618,8.534-10.896c2.721-3.286,5.108-5.999,6.321-7.674c0.108-0.28,0.594-0.872,0.282-0.774
			c0.387-0.445,0.732-0.476,0.727-0.645c-0.628,0.5-0.048-0.406-0.714,0.03l0.337-0.374c0.012-0.136-0.416,0.551-0.441,0.35
			l0.063,0.266c-0.315,0.261-0.508,0.382-0.666,0.426c-0.209,0.335-0.162,0.727-0.906,1.272l0.168-0.189
			c-0.516,0.535-0.426,0.219-0.563,0.302l0.117-0.115l-0.522,0.365c0.388-0.284,0.803-0.979,0.524-0.676
			c-0.667,0.589,0.201-0.124-0.244,0.372c-0.28,0.304-0.287,0.133-0.326,0.069l-0.514,0.537c-0.06-0.094,0.349-0.348,0.058-0.211
			l-0.573,0.75c-0.322-0.069-0.612,0.823-1.09,0.958c0.414-0.534-0.109-0.02-0.1-0.158l-1.122,1.214
			c-0.136,0.088,0.235-0.374,0.074-0.182c-0.269,0.176-0.304,0.416-0.417,0.54c-0.151,0.056-0.826,0.916-0.93,0.761
			c-0.844,0.75-0.146,0.504-0.924,1.209c-0.176,0.028,0.537-0.633,0.141-0.364l-0.689,0.839c0.025-0.109,0.006-0.277,0.291-0.568
			c-2.039,2.111-3.523,2.944-5.1,5.139c-0.341,0.213,0.103-0.269,0.206-0.533c-1.096,1.623-1.94,1.968-2.949,3.297l0.068,0.09
			c-1.675,1.645-3.175,4.019-4.767,6.11l0.24-0.216c-0.119,0.357-0.439,0.845-0.644,1.227c-0.082,0.024-0.016-0.388-0.408,0.268
			c0.119-0.11,0.336-0.352,0.326-0.243c-0.74,0.86-1.771,2.285-2.824,3.912c-0.539,0.806-1.078,1.665-1.61,2.518
			c-0.267,0.425-0.533,0.848-0.794,1.264c-0.317,0.518-0.628,1.026-0.929,1.518c-1.267,2.102-1.838,3.75-2.692,5.596l-0.152,0.342
			c-0.01,0.047-0.085,0.137-0.042,0.148l0.196-0.007l0.788-0.026l1.497-0.057c0.967-0.036,1.978-0.09,3.103-0.333
			c0.552-0.106,1.131-0.285,1.698-0.439c0.143-0.043,0.286-0.089,0.431-0.142l0.354-0.123l0.489-0.181
			c0.65-0.242,1.268-0.518,1.876-0.793c1.205-0.563,2.333-1.163,3.399-1.745c-0.654,0.355-0.498-0.03,0.024-0.236
			c1.553-0.294,2.284-1.272,3.812-1.652c2.458-1.33,4.897-1.934,7.19-3.179l0.093,0.103c0.384-0.08,0.45-0.199,0.827-0.353
			l0.002,0.037c0.912-0.3,1.975-0.779,2.514-0.908l-0.014-0.148c0.538-0.194,0.316,0.014,0.848-0.245l0.006,0.074l0.608-0.339
			c0.011,0.253,1.543-0.464,2.017-0.475c0.691-0.263,2.019-0.73,3.115-0.969c0.235,0.081,1.564-0.264,2.433-0.389
			c1.65-0.42,4.032-0.93,6.18-1.233l-0.064-0.156l0.559-0.095c-0.003,0.037,0.076,0.044-0.006,0.074
			c0.461,0.122,1.282-0.26,1.751-0.197c-0.304-0.112-0.396,0.027-0.716,0.072c-0.471-0.006-0.055-0.236,0.579-0.239l-0.008,0.037
			l0.414-0.139c0.064,0.12,0.458,0.13,0.523,0.25c0.368-0.061,0.713-0.117,1.033-0.169l0.206-3.768
			c-1.326-0.233-2.442-0.379-3.906-0.84c0.228-0.079-1.334-0.349-0.895-0.479c-1.127-0.243,0.124,0.248-0.429,0.264
			c-0.308-0.099-0.651-0.132-0.68-0.236c0.162-0.013-0.205-0.221,0.051-0.166l-0.738-0.215c-0.064-0.04,0.107-0.021,0.193-0.011
			c-1.537-0.343-2.579-1.034-3.94-1.394c-0.129,0.046,0.513,0.22,0.386,0.269c-1.389-0.332-1.111-0.593-2.381-0.968l0.3-0.012
			c-0.426-0.081-0.641-0.053-1.246-0.419c-0.055-0.184,0.593,0.124,0.931,0.188c-0.441-0.187-1.572-0.631-1.285-0.364
			c-0.547-0.188-0.687-0.389-0.953-0.554c-0.024,0.03,0.451,0.308,0.115,0.233c-0.682-0.396-1.78-0.902-2.646-1.339
			c0.023-0.028-0.014-0.107,0.069-0.086C29.932,13.831,30.15,13.578,29.166,13.136z"/>
		<path fill="#EE3432" d="M17.122,32.358l-0.191-0.357c-0.027,0.017-0.069,0.021-0.196-0.12L17.122,32.358z"/>
		<path fill="#EE3432" d="M8.847,15.397c-0.033-0.036-0.064-0.072-0.099-0.102C8.797,15.374,8.826,15.393,8.847,15.397z"/>
		<path fill="#EE3432" d="M5.178,10.944c0.642,0.463,0.161,0.047-0.054-0.167C5.064,10.765,5.016,10.769,5.178,10.944z"/>
		<path fill="#EE3432" d="M23.889,40.829c-0.059-0.042-0.102-0.061-0.116-0.031C23.857,40.849,23.885,40.851,23.889,40.829z"/>
		<path fill="#EE3432" d="M31.129,23.705c-0.006,0.038-0.012,0.071-0.019,0.118C31.12,23.801,31.126,23.759,31.129,23.705z"/>
		<path fill="#EE3432" d="M30.957,25.345c0.002,0.08,0.011,0.184,0.031,0.332C30.992,25.531,30.977,25.428,30.957,25.345z"/>
		<path fill="#EE3432" d="M19.357,35.168c-0.068-0.089-0.139-0.172-0.218-0.232C19.24,35.074,19.306,35.133,19.357,35.168z"/>
		<path fill="#EE3432" d="M31.03,26.015l-0.005,0.411c0.01,0.002,0.018,0.007,0.029,0.007L31.03,26.015z"/>
		<path fill="#EE3432" d="M31.129,23.186c0,0.161,0.008,0.379,0,0.519C31.16,23.499,31.156,23.336,31.129,23.186z"/>
		<path fill="#EE3432" d="M31.037,42.899c0.001,0.019,0.002,0.039,0.003,0.062C31.096,43.45,31.073,43.151,31.037,42.899z"/>
		<polygon fill="#EE3432" points="31.328,27.807 31.324,27.862 31.367,27.981 		"/>
		<path fill="#EE3432" d="M31.113,21.407c0.006,0.077,0.016,0.148,0.035,0.204c0.002-0.064,0.004-0.139,0.006-0.234
			C31.137,21.4,31.125,21.406,31.113,21.407z"/>
		<path fill="#EE3432" d="M31.304,36.196c-0.054-0.116-0.091-0.16-0.118-0.164C31.188,36.169,31.213,36.257,31.304,36.196z"/>
	</g>
</g>
</svg>
