<?xml version="1.0"?>
<svg width="1820" height="118" xmlns="http://www.w3.org/2000/svg" xmlns:svg="http://www.w3.org/2000/svg" xmlns:xlink="http://www.w3.org/1999/xlink" enable-background="new 0 0 1820 118" version="1.1" xml:space="preserve">
 <g class="layer">
  <title>Layer 1</title>
  <g id="svg_33">
   <polygon fill="#A1C43A" id="배경" points="1820.083,117.897 0.083,117.692 0.083,-0.103 1820.083,-0.103 "/>
   <rect fill="none" height="98.17" id="고정" opacity="0.4" stroke="#FFFFFF" stroke-miterlimit="10" stroke-width="3" transform="matrix(1 0 0 1 0 0)" width="1799.83" x="11.25" y="10.67"/>
   <g id="svg_1">
    <defs>
     <rect height="118.5" id="SVGID_1_" width="281" x="1539"/>
    </defs>
    <clipPath id="SVGID_2_">
     <use id="svg_3" overflow="visible" xlink:href="#SVGID_1_"/>
    </clipPath>
    <g clip-path="url(#SVGID_2_)" id="svg_4">
     <defs>
      <polygon id="SVGID_3_" points="1758.082,123 1572.082,115 1571.082,0.001 1754.082,0.001 			"/>
     </defs>
     <clipPath id="SVGID_4_">
      <use id="svg_5" overflow="visible" xlink:href="#SVGID_3_"/>
     </clipPath>
    </g>
    <circle clip-path="url(#SVGID_2_)" cx="1685.62" cy="51.36" fill="#E4E984" id="svg_6" r="14.76"/>
    <g clip-path="url(#SVGID_2_)" id="svg_7">
     <path d="m1765.32,68.47c-7.14,1.95 -14.64,2.99 -22.38,2.99c-41.32,0 -76,-29.69 -85.48,-69.72" fill="none" id="svg_8" stroke="#FFFFFF" stroke-miterlimit="10"/>
     <ellipse cx="1639.79" cy="60.58" fill="#FDDDBD" id="svg_9" rx="8.08" ry="8.42"/>
     <ellipse cx="1616.93" cy="31.45" fill="none" id="svg_10" rx="3.25" ry="3.39" stroke="#FFFFFF" stroke-miterlimit="10"/>
    </g>
    <g clip-path="url(#SVGID_2_)" id="svg_11">
     <path d="m1769.82,52.52c-18.03,-17.2 -29.28,-41.44 -29.32,-68.31l53.77,0c-0.13,3.17 -1.46,30.03 -10.75,47.52c-4.45,8.38 -9.03,15.19 -13.7,20.79z" fill="#FDDDBD" id="svg_12"/>
     <path d="m1717.74,81.06c17.52,-4.2 35.4,-8.59 52.08,-28.54c2.49,2.38 5.13,4.62 7.87,6.72c0,0 0,0 0,0.01c-20.86,29.2 -26.05,59.25 -26.05,59.25l83.46,0l-203.17,0c11.96,-26.54 63.39,-32.06 85.81,-37.44z" fill="#F6F3E3" id="svg_13"/>
     <path d="m1834.94,15.58c0,0 -34.74,12.16 -57.25,43.66c-2.74,-2.1 -5.38,-4.34 -7.87,-6.73c4.67,-5.59 9.25,-12.4 13.7,-20.78c9.29,-17.49 10.62,-44.35 10.75,-47.52l40.83,0l0,94.44c-0.02,0 -0.04,0 -0.06,0l-0.1,-63.07z" fill="#FBBC99" id="svg_14"/>
     <path d="m1835.1,15.58l0,63.07c-21.57,-0.01 -41.5,-7.24 -57.41,-19.41c22.51,-31.5 57.41,-43.66 57.41,-43.66z" fill="#C0A6CF" id="svg_15"/>
     <g id="svg_16">
      <path d="m1638.32,87.3c17.62,0 32.02,13.82 32.95,31.2l-65.89,0c0.93,-17.38 15.32,-31.2 32.94,-31.2z" fill="#FDDDBD" id="svg_17"/>
     </g>
     <path d="m1777.69,59.24c0,0 0,0 0,0c15.91,12.17 35.84,19.4 57.41,19.41l0,39.85l-83.46,0c0,0 5.19,-30.05 26.05,-59.26z" fill="#D2BCDA" id="svg_18"/>
    </g>
   </g>
   <g id="svg_2">
    <defs>
     <rect height="118" id="SVGID_5_" width="252.92" y="-0.1"/>
    </defs>
    <clipPath id="SVGID_6_">
     <use id="svg_19" overflow="visible" xlink:href="#SVGID_5_"/>
    </clipPath>
    <g clip-path="url(#SVGID_6_)" id="svg_20">
     <ellipse cx="127.21" cy="58.98" fill="#FDDDBD" id="svg_21" rx="8.08" ry="8.43"/>
     <ellipse cx="150.07" cy="29.86" fill="none" id="svg_22" rx="3.25" ry="3.39" stroke="#FFFFFF" stroke-miterlimit="10"/>
     <path d="m124.39,-7.5c0,69.81 -56.6,126.41 -126.41,126.41" fill="none" id="svg_23" stroke="#D2BCDA" stroke-miterlimit="10"/>
     <path d="m140.89,-7.5c0,61.88 -39.34,114.58 -94.37,134.45" fill="none" id="svg_24" stroke="#FDDDBD" stroke-linecap="round" stroke-linejoin="round" stroke-miterlimit="10"/>
     <path d="m63.27,60.96c18.02,-17.19 29.27,-41.43 29.31,-68.3l-53.77,0c0.13,3.16 1.46,30.03 10.76,47.52c4.45,8.37 9.02,15.19 13.7,20.78z" fill="#FDDDBD" id="svg_25"/>
     <path d="m115.34,89.51c-17.51,-4.2 -35.39,-8.59 -52.07,-28.55c-2.5,2.38 -5.13,4.63 -7.88,6.73c0,0 0,0 0,0c20.86,29.21 26.05,59.26 26.05,59.26l-83.46,0l203.17,0c-11.96,-26.54 -63.38,-32.06 -85.81,-37.44z" fill="#F6F3E3" id="svg_26"/>
     <path d="m-1.86,24.03c0,0 34.74,12.15 57.25,43.66c2.75,-2.1 5.38,-4.35 7.88,-6.73c-4.68,-5.59 -9.25,-12.41 -13.71,-20.78c-9.29,-17.49 -10.62,-44.36 -10.75,-47.52l-40.83,0l0,94.44c0.02,0 0.04,0 0.06,0l0.1,-63.07z" fill="#FBBC99" id="svg_27"/>
     <g id="svg_28">
      <path d="m194.76,95.75c-17.62,0 -32.01,13.81 -32.94,31.2l65.88,0c-0.93,-17.39 -15.32,-31.2 -32.94,-31.2z" fill="#FDDDBD" id="svg_29"/>
     </g>
     <path d="m58.7,126.92c0,-12.26 9.95,-22.2 22.21,-22.2c12.26,0 22.21,9.94 22.21,22.2" fill="none" id="svg_30" stroke="#FFFFFF" stroke-miterlimit="10"/>
     <path d="m55.39,67.69c0,0 0,0 0,0c-15.91,12.16 -35.84,19.4 -57.41,19.41l0,39.85l83.46,0c0,0 -5.19,-30.05 -26.05,-59.26z" fill="#D2BCDA" id="svg_31"/>
     <path d="m-1.96,24.17l0,63.06c21.57,-0.01 41.5,-7.24 57.41,-19.4c-22.51,-31.51 -57.41,-43.66 -57.41,-43.66z" fill="#C0A6CF" id="svg_32"/>
    </g>
   </g>
  </g>
  <text fill="#FFFFFF" font-family="&#x27;ROKAF-Slab-Serif-Bold&#x27;" font-size="75" id="_x31_6자" x="713.5" y="83">친절한 가게</text>
 </g>
</svg>