<?xml version="1.0"?>
<svg width="1820.0000000000002" height="118" xmlns="http://www.w3.org/2000/svg" xmlns:svg="http://www.w3.org/2000/svg" enable-background="new 0 0 1820 118" version="1.1" xml:space="preserve">
 <g class="layer">
  <title>Layer 1</title>
  <rect fill="#236063" height="118.01" id="배경1" width="1820.01"/>
  <g id="svg_1">
   <g id="svg_2">
    <path d="m89.36,115.02c-2.97,0 -5.33,-2.33 -7.62,-4.58c-1.6,-1.57 -3.25,-3.2 -4.79,-3.61c-1.65,-0.44 -3.96,0.15 -6.2,0.73c-3.04,0.78 -6.19,1.58 -8.65,0.16c-2.5,-1.45 -3.38,-4.61 -4.23,-7.67c-0.61,-2.2 -1.24,-4.47 -2.41,-5.64c-1.17,-1.17 -3.45,-1.8 -5.65,-2.41c-3.05,-0.85 -6.22,-1.73 -7.66,-4.23c-1.43,-2.46 -0.62,-5.61 0.16,-8.66c0.58,-2.23 1.17,-4.54 0.73,-6.19c-0.41,-1.54 -2.04,-3.19 -3.61,-4.79c-2.25,-2.29 -4.58,-4.65 -4.58,-7.62c0,-2.96 2.33,-5.33 4.58,-7.62c1.57,-1.6 3.2,-3.24 3.61,-4.79c0.44,-1.65 -0.15,-3.96 -0.73,-6.19c-0.78,-3.05 -1.59,-6.2 -0.16,-8.66c1.44,-2.5 4.61,-3.38 7.66,-4.22c2.2,-0.61 4.48,-1.24 5.65,-2.42c1.17,-1.17 1.8,-3.44 2.41,-5.64c0.85,-3.06 1.72,-6.22 4.23,-7.67c2.46,-1.42 5.61,-0.62 8.65,0.17c2.24,0.57 4.55,1.17 6.19,0.73c1.55,-0.42 3.2,-2.04 4.8,-3.61c2.29,-2.26 4.66,-4.59 7.62,-4.59c2.96,0 5.33,2.33 7.62,4.58c1.6,1.57 3.25,3.2 4.79,3.61c1.65,0.44 3.96,-0.15 6.2,-0.73c3.04,-0.78 6.19,-1.59 8.65,-0.16c2.51,1.44 3.38,4.6 4.23,7.66c0.61,2.2 1.24,4.48 2.41,5.65c1.17,1.17 3.45,1.8 5.64,2.41c3.06,0.85 6.23,1.73 7.67,4.23c1.43,2.46 0.62,5.61 -0.16,8.65c-0.57,2.23 -1.17,4.55 -0.73,6.19c0.41,1.55 2.04,3.2 3.61,4.8c2.25,2.29 4.58,4.65 4.58,7.61c0,2.97 -2.33,5.33 -4.58,7.63c-1.57,1.59 -3.2,3.24 -3.61,4.79c-0.44,1.64 0.15,3.95 0.73,6.19c0.78,3.04 1.59,6.19 0.16,8.66c-1.44,2.5 -4.61,3.37 -7.67,4.22c-2.19,0.61 -4.47,1.24 -5.64,2.41c-1.17,1.18 -1.8,3.45 -2.41,5.65c-0.85,3.06 -1.73,6.22 -4.23,7.67c-2.46,1.42 -5.61,0.61 -8.66,-0.17c-2.23,-0.57 -4.54,-1.17 -6.19,-0.73c-1.54,0.42 -3.19,2.04 -4.79,3.61c-2.29,2.26 -4.65,4.59 -7.62,4.59z" fill="#CCDB5E" id="svg_3"/>
   </g>
   <path d="m89.36,107.78c-2.81,0 -4.93,-2.09 -6.98,-4.1c-1.31,-1.29 -2.65,-2.62 -3.81,-2.93c-1.23,-0.33 -3.13,0.16 -4.95,0.63c-2.74,0.7 -5.57,1.43 -7.91,0.07c-2.37,-1.37 -3.15,-4.21 -3.91,-6.95c-0.5,-1.8 -1.02,-3.66 -1.9,-4.54c-0.88,-0.88 -2.73,-1.39 -4.53,-1.89c-2.74,-0.76 -5.58,-1.55 -6.96,-3.92c-1.35,-2.34 -0.62,-5.17 0.08,-7.9c0.47,-1.83 0.95,-3.72 0.62,-4.96c-0.31,-1.15 -1.64,-2.5 -2.92,-3.8c-2.02,-2.06 -4.11,-4.18 -4.11,-6.98c0,-2.81 2.09,-4.93 4.11,-6.98c1.28,-1.3 2.61,-2.65 2.92,-3.81c0.33,-1.24 -0.15,-3.13 -0.62,-4.95c-0.7,-2.74 -1.43,-5.57 -0.08,-7.9c1.38,-2.38 4.21,-3.16 6.96,-3.93c1.8,-0.49 3.66,-1.01 4.54,-1.89c0.87,-0.88 1.39,-2.73 1.88,-4.53c0.77,-2.75 1.55,-5.58 3.93,-6.95c2.34,-1.36 5.16,-0.63 7.9,0.07c1.83,0.47 3.72,0.95 4.95,0.62c1.16,-0.31 2.51,-1.64 3.81,-2.92c2.05,-2.02 4.18,-4.1 6.98,-4.1c2.81,0 4.93,2.08 6.98,4.1c1.31,1.28 2.65,2.61 3.81,2.92c1.24,0.33 3.13,-0.15 4.95,-0.62c2.74,-0.71 5.56,-1.43 7.9,-0.08c2.38,1.38 3.16,4.21 3.92,6.96c0.5,1.79 1.02,3.65 1.9,4.53c0.88,0.88 2.73,1.4 4.53,1.89c2.75,0.76 5.58,1.55 6.96,3.93c1.35,2.33 0.62,5.16 -0.08,7.89c-0.47,1.84 -0.95,3.72 -0.62,4.96c0.31,1.16 1.64,2.51 2.92,3.81c2.02,2.05 4.1,4.17 4.1,6.98s-2.08,4.93 -4.1,6.98c-1.28,1.3 -2.61,2.65 -2.92,3.8c-0.33,1.24 0.15,3.13 0.62,4.96c0.7,2.74 1.43,5.56 0.08,7.9c-1.38,2.38 -4.21,3.16 -6.96,3.92c-1.8,0.5 -3.65,1.02 -4.53,1.89c-0.88,0.88 -1.4,2.74 -1.9,4.54c-0.76,2.74 -1.54,5.58 -3.92,6.95c-2.34,1.36 -5.16,0.63 -7.89,-0.07l-0.02,-0.01c-1.82,-0.46 -3.71,-0.94 -4.94,-0.61c-1.15,0.31 -2.5,1.63 -3.81,2.91c-2.05,2.02 -4.17,4.11 -6.98,4.11zm-11.73,-8.46c0.45,0 0.89,0.05 1.29,0.15c1.49,0.4 2.96,1.86 4.39,3.26c1.86,1.83 3.79,3.73 6.05,3.73c2.27,0 4.19,-1.9 6.05,-3.73c1.43,-1.4 2.9,-2.86 4.4,-3.25c1.56,-0.43 3.62,0.1 5.61,0.61l0.02,0c2.47,0.64 5.03,1.3 6.9,0.22c1.91,-1.11 2.62,-3.68 3.31,-6.16c0.54,-1.97 1.11,-4 2.23,-5.12c1.13,-1.13 3.16,-1.69 5.12,-2.23c2.48,-0.69 5.06,-1.4 6.16,-3.31c1.08,-1.87 0.43,-4.43 -0.21,-6.9c-0.51,-2 -1.04,-4.06 -0.62,-5.64c0.4,-1.49 1.85,-2.97 3.25,-4.39c1.84,-1.86 3.73,-3.79 3.73,-6.05c0,-2.26 -1.89,-4.19 -3.72,-6.05c-1.41,-1.43 -2.86,-2.9 -3.26,-4.39c-0.42,-1.58 0.11,-3.64 0.62,-5.63c0.64,-2.48 1.29,-5.04 0.21,-6.91c-1.1,-1.91 -3.67,-2.62 -6.16,-3.31c-1.96,-0.54 -3.99,-1.1 -5.12,-2.23c-1.12,-1.13 -1.69,-3.16 -2.23,-5.12c-0.69,-2.48 -1.4,-5.06 -3.31,-6.16c-1.87,-1.08 -4.43,-0.42 -6.9,0.21c-2,0.51 -4.06,1.04 -5.63,0.62c-1.49,-0.4 -2.97,-1.85 -4.4,-3.25c-1.86,-1.84 -3.78,-3.73 -6.05,-3.73c-2.26,0 -4.19,1.89 -6.05,3.72c-1.42,1.41 -2.9,2.86 -4.39,3.26c-1.57,0.42 -3.63,-0.11 -5.62,-0.62l-0.01,0c-2.48,-0.64 -5.04,-1.29 -6.91,-0.21c-1.9,1.1 -2.61,3.67 -3.3,6.16c-0.55,1.97 -1.11,3.99 -2.24,5.12c-1.12,1.12 -3.15,1.69 -5.12,2.23c-2.48,0.69 -5.05,1.4 -6.16,3.31c-1.08,1.87 -0.42,4.42 0.21,6.9c0.52,2 1.05,4.06 0.63,5.63c-0.4,1.49 -1.86,2.97 -3.26,4.4c-1.83,1.86 -3.73,3.78 -3.73,6.04c0,2.27 1.9,4.19 3.73,6.05c1.4,1.43 2.86,2.91 3.26,4.4c0.42,1.57 -0.11,3.63 -0.62,5.63c-0.64,2.47 -1.3,5.03 -0.22,6.9c1.11,1.91 3.68,2.62 6.16,3.31c1.97,0.55 4,1.11 5.12,2.23c1.13,1.13 1.69,3.16 2.24,5.12c0.68,2.49 1.4,5.06 3.3,6.16c1.87,1.08 4.43,0.43 6.91,-0.21c1.48,-0.38 3.01,-0.77 4.34,-0.77z" fill="#FFFFFF" id="svg_4"/>
  </g>
  <text fill="#FFFFFF" font-family="&#x27;Nexen_B&#x27;" font-size="25" id="_x38_자_3_" transform="matrix(1, 0,0,1, 0,0)" x="64.69" y="60.06">고객</text>
  <text fill="#FFFFFF" font-family="&#x27;Nexen_B&#x27;" font-size="25" id="_x38_자_2_" transform="matrix(1, 0,0,1, 0,0)" x="65.48" y="86.68">감사</text>
  <polygon fill="#07513A" id="배경2" points="1567.617,22.643 1583.195,10.443 1563.332,10.402 219.231,9.646 199.371,9.604 
	214.905,21.87 199.328,34.064 214.863,46.32 199.285,58.518 214.818,70.773 199.243,82.975 214.778,95.229 199.2,107.43 
	219.06,107.471 1563.164,108.232 1583.027,108.266 1567.492,96.004 1583.068,83.814 1567.535,71.549 1583.113,59.359 
	1567.574,47.102 1583.156,34.9 "/>
  <polygon fill="#45BF9C" id="배경3" points="1494.18,24.387 1509.941,13.122 1489.84,13.082 289.079,12.3 268.979,12.259 
	284.702,23.586 268.938,34.848 284.661,46.167 268.896,57.434 284.618,68.75 268.854,80.02 284.578,91.336 268.813,102.604 
	288.911,102.641 1489.676,103.43 1509.779,103.463 1494.057,92.141 1509.816,80.881 1494.098,69.553 1509.861,58.295 
	1494.137,46.975 1509.902,35.708 "/>
  <text fill="#F7F9E4" font-family="&#x27;VITRO-CORE-TTF&#x27;" font-size="70" id="_x31_6자" x="644.34" y="78.88">아리따움미용실</text>
  <polygon fill="#B07FF7" id="도형" points="1675.398,0 1675.398,75.211 1660.732,75.211 1719.916,105.582 1784.387,75.211 
	1770.219,75.211 1770.219,0 "/>
  <text fill="#FFFFFF" font-family="&#x27;Nexen_B&#x27;" font-size="25" id="_x38_자" transform="matrix(1, 0,0,1, 0,0)" x="1697.7" y="45.5">할인</text>
  <text fill="#FFFFFF" font-family="&#x27;Nexen_B&#x27;" font-size="25" id="_x38_자_1_" transform="matrix(1, 0,0,1, 0,0)" x="1687.57" y="77.84">이벤트</text>
 </g>
</svg>