<?xml version="1.0"?>
<svg width="356" height="837" xmlns="http://www.w3.org/2000/svg" xmlns:svg="http://www.w3.org/2000/svg" xmlns:xlink="http://www.w3.org/1999/xlink" enable-background="new 0 0 356 837" version="1.0" xml:space="preserve">
 <g class="layer">
  <title>Layer 1</title>
  <image height="837" id="svg_1" overflow="visible" preserveAspectRatio="none" width="356" xlink:href="320FCD86.jpg"/>
  <image height="437" id="svg_2" overflow="visible" preserveAspectRatio="none" transform="matrix(1 0 0 1 0 0) matrix(0.163 0.0303 -0.0303 0.163 30.4164 144.587)" width="1892" xlink:href="320FCD8A.png"/>
  <text fill="#DFAC69" font-family="&#x27;SF_HambakSnow&#x27;" font-size="23" id="svg_17" transform="matrix(1 0 0 1 0 0)" x="250.06" y="621.33">25,000</text>
  <text fill="#DFAC69" font-family="&#x27;SF_HambakSnow&#x27;" font-size="23" id="svg_15" transform="matrix(1 0 0 1 0 0)" x="249.95" y="567.1">25,000</text>
  <text fill="#DFAC69" font-family="&#x27;SF_HambakSnow&#x27;" font-size="23" id="svg_13" transform="matrix(1 0 0 1 0 0)" x="249.95" y="512.88">25,000</text>
  <text fill="#DFAC69" font-family="&#x27;SF_HambakSnow&#x27;" font-size="23" id="svg_11" transform="matrix(1 0 0 1 0 0)" x="249.95" y="458.56">25,000</text>
  <text fill="#DFAC69" font-family="&#x27;SF_HambakSnow&#x27;" font-size="23" id="svg_9" transform="matrix(1 0 0 1 0 0)" x="249.95" y="404.23">25,000</text>
  <text fill="#DFAC69" font-family="&#x27;SF_HambakSnow&#x27;" font-size="23" id="svg_7" transform="matrix(1 0 0 1 0 0)" x="249.95" y="349.91">25,000</text>
  <text fill="#DFAC69" font-family="&#x27;SF_HambakSnow&#x27;" font-size="23" id="svg_5" transform="matrix(1 0 0 1 0 0)" x="249.95" y="295.59">25,000</text>
  <text fill="#F4E2CE" font-family="&#x27;SF_HambakSnow&#x27;" font-size="29" id="svg_16" transform="matrix(1 0 0 1 0 0)" x="46.24" y="621.33">토시살</text>
  <text fill="#F4E2CE" font-family="&#x27;SF_HambakSnow&#x27;" font-size="29" id="svg_14" transform="matrix(1 0 0 1 0 0)" x="46.13" y="567.1">채끝등심</text>
  <text fill="#F4E2CE" font-family="&#x27;SF_HambakSnow&#x27;" font-size="29" id="svg_12" transform="matrix(1 0 0 1 0 0)" x="46.13" y="512.88">차돌박이</text>
  <text fill="#F4E2CE" font-family="&#x27;SF_HambakSnow&#x27;" font-size="29" id="svg_10" transform="matrix(1 0 0 1 0 0)" x="46.13" y="458.56">갈비살</text>
  <text fill="#F4E2CE" font-family="&#x27;SF_HambakSnow&#x27;" font-size="29" id="svg_8" transform="matrix(1 0 0 1 0 0)" x="46.13" y="404.23">꽃등심</text>
  <text fill="#F4E2CE" font-family="&#x27;SF_HambakSnow&#x27;" font-size="29" id="svg_6" transform="matrix(1 0 0 1 0 0)" x="46.13" y="349.91">안심</text>
  <text fill="#F4E2CE" font-family="&#x27;SF_HambakSnow&#x27;" font-size="29" id="svg_4" x="46.13" y="295.59">한우모듬</text>
  <text fill="#DFAC69" font-family="&#x27;Typo_SsangmunDong_B&#x27;" font-size="42" id="svg_3" transform="matrix(1,0,0,1,0,0)" x="66.7" y="182.34">지니 소고기</text>
 </g>
</svg>