<?xml version="1.0"?>
<svg width="1920" height="1080" xmlns="http://www.w3.org/2000/svg" xmlns:svg="http://www.w3.org/2000/svg" xmlns:xlink="http://www.w3.org/1999/xlink" enable-background="new 0 0 1920 1080" version="1.1" xml:space="preserve">
 <g class="layer">
  <title>Layer 1</title>
  <rect fill="#CDA772" height="1080" id="svg_36" transform="matrix(1 0 0 1 0 0) matrix(1 0 0 1 0 0)" width="1920"/>
  <g id="svg_100">
   <polygon fill="#F3F1EE" id="svg_37" points="33.5,31 33.5,1049 1769.501,1049 1769.501,931 1887.5,931 1887.5,31 "/>
   <polygon fill="#DDDDDC" id="svg_46" points="1769.001,1049 1769.001,931 1887,931 "/>
   <g id="svg_38">
    <path d="m202.53,713.94c-0.96,0.24 -1.86,0.77 -2.82,1.03c-6.63,1.77 -12.1,6.36 -18.57,8.57c-3.97,1.35 -7.81,3.13 -11.71,4.72c-1.68,0.69 -3.48,1.31 -4.37,3.06c-0.41,0.81 -0.7,2.07 -0.36,2.73c0.34,0.65 1.52,0.92 2.39,1.1c0.5,0.11 1.14,-0.27 1.7,-0.49c4.49,-1.72 8.96,-3.48 13.47,-5.17c0.56,-0.2 1.24,-0.03 2.42,-0.04c-10.08,12.96 -15.62,27.31 -21,41.72c-5.47,14.68 -5.05,29.88 -6.06,44.72c-0.47,0.51 -0.72,0.85 -1.03,1.1c-9.3,7.37 -16.1,16.75 -21.05,27.32c-7.71,16.48 -6.33,32.83 -0.63,48.72c2.17,6.02 5.35,11.61 8.17,17.35c1.71,3.52 4.06,6.56 7.14,8.95c0.43,0.34 1.01,0.51 1.55,0.71c0.12,0.04 0.39,-0.06 0.47,-0.17c0.2,-0.31 0.51,-0.73 0.44,-0.98c-0.15,-0.53 -0.41,-1.11 -0.81,-1.47c-4.45,-3.91 -7,-9.1 -9.22,-14.53c-4.46,-10.92 -7.02,-22.26 -6.78,-34.43c0.15,-7.31 1.45,-14.34 4.6,-21.02c3.94,-8.32 9.21,-15.8 15.83,-22.28c0.64,-0.62 1.58,-0.9 2.68,-1.51c0.79,2.85 1.45,5.29 2.15,7.71c1.24,4.33 2.72,8.55 5.12,12.34c2.77,4.35 6.49,7.59 11.37,9.35c6.35,2.29 10.84,0.86 15.19,-4.76c5.1,-6.61 5.78,-14.04 5.03,-21.72c-0.72,-7.22 -4.72,-12.16 -10.35,-15.99c-3.31,-2.24 -6.98,-3.15 -11.05,-2.85c-3.19,0.24 -6.21,1.21 -9.19,2.49c-1.41,0.6 -2.67,1.9 -4.73,1.47c-0.04,-1.07 -0.21,-2.2 -0.12,-3.32c0.44,-5.37 0.88,-10.75 1.45,-16.11c0.82,-7.59 2.59,-15.01 5.69,-22.14c3.23,-7.42 6.25,-14.94 9.8,-22.22c4.3,-8.8 10.19,-16.62 16.55,-24.09c1.39,-1.64 3,-2.65 5.49,-2.28c-1.51,5.46 -3.07,10.83 -4.46,16.24c-1.55,6.04 -2.99,12.1 -4.34,18.17c-0.57,2.53 -0.67,5.11 0.45,8.22c2.79,-3.11 2.7,-3.13 3.48,-6.68c0.78,-3.52 1.36,-7.16 2.73,-10.48c3.25,-7.88 5.56,-16.01 8.3,-24.03c0.45,-1.33 0.9,-2.72 0.99,-4.08c0.27,-3.66 -2.45,-5.86 -6,-4.95zm-32.97,102.05c10.93,-4.99 20.93,0.54 22.11,12.25c0.24,2.33 0.22,4.76 -0.14,7.1c-0.36,2.33 -1.01,4.73 -2.03,6.89c-2.76,5.84 -6.69,7.21 -11.94,3.91c-5.59,-3.5 -10.32,-7.91 -11.93,-14.85c-0.84,-3.59 -1.76,-7.16 -2.83,-11.46c2.62,-1.5 4.61,-2.86 6.76,-3.84z" fill="#CDA772" id="svg_53"/>
   </g>
   <g id="svg_39">
    <g id="svg_54">
     <line fill="#00000000" id="svg_55" stroke="#121421" stroke-linecap="round" stroke-linejoin="round" stroke-width="2" x1="864" x2="865" y1="212.5" y2="212.5"/>
     <line fill="#00000000" id="svg_56" stroke="#121421" stroke-dasharray="2,8" stroke-linecap="round" stroke-linejoin="round" stroke-width="2" x1="873" x2="1669" y1="212.5" y2="212.5"/>
     <line fill="#00000000" id="svg_57" stroke="#121421" stroke-linecap="round" stroke-linejoin="round" stroke-width="2" x1="1673" x2="1674" y1="212.5" y2="212.5"/>
    </g>
   </g>
   <g id="svg_40">
    <g id="svg_58">
     <line fill="#00000000" id="svg_59" stroke="#121421" stroke-linecap="round" stroke-linejoin="round" stroke-width="2" x1="864" x2="865" y1="276" y2="276"/>
     <line fill="#00000000" id="svg_60" stroke="#121421" stroke-dasharray="2,8" stroke-linecap="round" stroke-linejoin="round" stroke-width="2" x1="873" x2="1669" y1="276" y2="276"/>
     <line fill="#00000000" id="svg_61" stroke="#121421" stroke-linecap="round" stroke-linejoin="round" stroke-width="2" x1="1673" x2="1674" y1="276" y2="276"/>
    </g>
   </g>
   <g id="svg_41">
    <g id="svg_62">
     <line fill="#00000000" id="svg_63" stroke="#121421" stroke-linecap="round" stroke-linejoin="round" stroke-width="2" x1="864.49" x2="865.49" y1="339.74" y2="339.74"/>
     <line fill="#00000000" id="svg_64" stroke="#121421" stroke-dasharray="2,8" stroke-linecap="round" stroke-linejoin="round" stroke-width="2" x1="873.49" x2="1669.49" y1="339.74" y2="339.74"/>
     <line fill="#00000000" id="svg_65" stroke="#121421" stroke-linecap="round" stroke-linejoin="round" stroke-width="2" x1="1673.49" x2="1674.49" y1="339.74" y2="339.74"/>
    </g>
   </g>
   <g id="svg_42">
    <g id="svg_66">
     <line fill="#00000000" id="svg_67" stroke="#121421" stroke-linecap="round" stroke-linejoin="round" stroke-width="2" x1="864.25" x2="865.25" y1="559.25" y2="559.25"/>
     <line fill="#00000000" id="svg_68" stroke="#121421" stroke-dasharray="2,8" stroke-linecap="round" stroke-linejoin="round" stroke-width="2" x1="873.25" x2="1669.25" y1="559.25" y2="559.25"/>
     <line fill="#00000000" id="svg_69" stroke="#121421" stroke-linecap="round" stroke-linejoin="round" stroke-width="2" x1="1673.25" x2="1674.25" y1="559.25" y2="559.25"/>
    </g>
   </g>
   <g id="svg_43">
    <g id="svg_70">
     <line fill="#00000000" id="svg_71" stroke="#121421" stroke-linecap="round" stroke-linejoin="round" stroke-width="2" x1="864" x2="865" y1="622.75" y2="622.75"/>
     <line fill="#00000000" id="svg_72" stroke="#121421" stroke-dasharray="2,8" stroke-linecap="round" stroke-linejoin="round" stroke-width="2" x1="873" x2="1669" y1="622.75" y2="622.75"/>
     <line fill="#00000000" id="svg_73" stroke="#121421" stroke-linecap="round" stroke-linejoin="round" stroke-width="2" x1="1673" x2="1674" y1="622.75" y2="622.75"/>
    </g>
   </g>
   <g id="svg_44">
    <g id="svg_74">
     <line fill="#00000000" id="svg_75" stroke="#121421" stroke-linecap="round" stroke-linejoin="round" stroke-width="2" x1="864" x2="865" y1="895.2" y2="895.2"/>
     <line fill="#00000000" id="svg_76" stroke="#121421" stroke-dasharray="2,8" stroke-linecap="round" stroke-linejoin="round" stroke-width="2" x1="873" x2="1669" y1="895.2" y2="895.2"/>
     <line fill="#00000000" id="svg_77" stroke="#121421" stroke-linecap="round" stroke-linejoin="round" stroke-width="2" x1="1673" x2="1674" y1="895.2" y2="895.2"/>
    </g>
   </g>
   <g id="svg_45">
    <g id="svg_78">
     <line fill="#00000000" id="svg_79" stroke="#121421" stroke-linecap="round" stroke-linejoin="round" stroke-width="2" x1="864" x2="865" y1="958.7" y2="958.7"/>
     <line fill="#00000000" id="svg_80" stroke="#121421" stroke-dasharray="2,8" stroke-linecap="round" stroke-linejoin="round" stroke-width="2" x1="873" x2="1669" y1="958.7" y2="958.7"/>
     <line fill="#00000000" id="svg_81" stroke="#121421" stroke-linecap="round" stroke-linejoin="round" stroke-width="2" x1="1673" x2="1674" y1="958.7" y2="958.7"/>
    </g>
   </g>
   <g id="svg_48">
    <g id="svg_84">
     <line fill="#00000000" id="svg_85" stroke="#121421" stroke-linecap="round" stroke-linejoin="round" stroke-width="2" x1="855.13" x2="856.13" y1="686.25" y2="686.25"/>
     <line fill="#00000000" id="svg_86" stroke="#121421" stroke-dasharray="2,8" stroke-linecap="round" stroke-linejoin="round" stroke-width="2" x1="864.13" x2="1660.13" y1="686.25" y2="686.25"/>
     <line fill="#00000000" id="svg_87" stroke="#121421" stroke-linecap="round" stroke-linejoin="round" stroke-width="2" x1="1664.13" x2="1665.13" y1="686.25" y2="686.25"/>
    </g>
   </g>
   <g id="svg_49">
    <g id="svg_88">
     <line fill="#00000000" id="svg_89" stroke="#121421" stroke-linecap="round" stroke-linejoin="round" stroke-width="2" x1="855.13" x2="856.13" y1="749.75" y2="749.75"/>
     <line fill="#00000000" id="svg_90" stroke="#121421" stroke-dasharray="2,8" stroke-linecap="round" stroke-linejoin="round" stroke-width="2" x1="864.13" x2="1660.13" y1="749.75" y2="749.75"/>
     <line fill="#00000000" id="svg_91" stroke="#121421" stroke-linecap="round" stroke-linejoin="round" stroke-width="2" x1="1664.13" x2="1665.13" y1="749.75" y2="749.75"/>
    </g>
   </g>
   <g id="svg_50">
    <g id="svg_92">
     <line fill="#00000000" id="svg_93" stroke="#121421" stroke-linecap="round" stroke-linejoin="round" stroke-width="2" x1="864" x2="865" y1="1022.2" y2="1022.2"/>
     <line fill="#00000000" id="svg_94" stroke="#121421" stroke-dasharray="2,8" stroke-linecap="round" stroke-linejoin="round" stroke-width="2" x1="873" x2="1669" y1="1022.2" y2="1022.2"/>
     <line fill="#00000000" id="svg_95" stroke="#121421" stroke-linecap="round" stroke-linejoin="round" stroke-width="2" x1="1673" x2="1674" y1="1022.2" y2="1022.2"/>
    </g>
   </g>
   <g id="svg_51">
    <g id="svg_96">
     <line fill="#00000000" id="svg_97" stroke="#121421" stroke-linecap="round" stroke-linejoin="round" stroke-width="2" x1="864" x2="865" y1="403" y2="403"/>
     <line fill="#00000000" id="svg_98" stroke="#121421" stroke-dasharray="2,8" stroke-linecap="round" stroke-linejoin="round" stroke-width="2" x1="873" x2="1669" y1="403" y2="403"/>
     <line fill="#00000000" id="svg_99" stroke="#121421" stroke-linecap="round" stroke-linejoin="round" stroke-width="2" x1="1673" x2="1674" y1="403" y2="403"/>
    </g>
   </g>
  </g>
  <polygon fill="#CDA772" id="svg_52" points="179.833,86.162 179.833,86.965 198.583,105.313 217.333,123.662 198.583,142.011 179.833,160.359 
	179.833,161.162 721.042,161.162 721.042,160.359 702.292,142.01 683.542,123.662 702.292,105.313 721.042,86.965 721.042,86.162 
	"/>
  <g id="svg_47">
   <defs>
    <rect height="344.8" id="SVGID_1_" width="459.74" x="220.57" y="418.6"/>
   </defs>
   <clipPath id="SVGID_2_">
    <use id="svg_82" overflow="visible" xlink:href="#SVGID_1_"/>
   </clipPath>
   <g clip-path="url(#SVGID_2_)" id="svg_83" transform="matrix(1 0 0 1 0 3.051758e-005)">
    <image height="504.25" id="svg_1" overflow="visible" preserveAspectRatio="none" transform="matrix(1,0,0,1,0,0)" width="576.84" x="179" xlink:href="D73134E.png" y="314"/>
   </g>
  </g>
  <text fill="#121421" font-family="&#x27;NEXONLv1GothicRegular&#x27;" font-size="38" id="svg_6" transform="matrix(1,0,0,1,0,0)" x="865.74" y="195.89">후라이드 치킨</text>
  <text fill="#121421" font-family="&#x27;NEXONLv1GothicBold&#x27;" font-size="38" id="svg_13" transform="matrix(1,0,0,1,0,0)" x="1590.08" y="195.73">16.0</text>
  <text fill="#010101" font-family="&#x27;NEXONLv1GothicRegular&#x27;" font-size="38" id="svg_7" transform="matrix(1,0,0,1,0,0)" x="865.74" y="259.34">양념 치킨</text>
  <text fill="#010101" font-family="&#x27;NEXONLv1GothicBold&#x27;" font-size="38" id="svg_14" transform="matrix(1,0,0,1,0,0)" x="1590.08" y="259.2">17.0</text>
  <text fill="#010101" font-family="&#x27;NEXONLv1GothicRegular&#x27;" font-size="38" id="svg_8" transform="matrix(1,0,0,1,0,0)" x="865.74" y="322.38">반반 치킨</text>
  <text fill="#010101" font-family="&#x27;NEXONLv1GothicBold&#x27;" font-size="38" id="svg_15" transform="matrix(1,0,0,1,0,0)" x="1590.08" y="322.24">17.0</text>
  <text fill="#010101" font-family="&#x27;NEXONLv1GothicRegular&#x27;" font-size="38" id="svg_27" transform="matrix(1,0,0,1,0,0)" x="865.74" y="386.05">파닭 치킨</text>
  <text fill="#010101" font-family="&#x27;NEXONLv1GothicBold&#x27;" font-size="38" id="svg_28" transform="matrix(1,0,0,1,0,0)" x="1587.8" y="385.9">18.0</text>
  <text fill="#010101" font-family="&#x27;NEXONLv1GothicRegular&#x27;" font-size="38" id="svg_9" transform="matrix(1,0,0,1,0,0)" x="865.74" y="539.71">골뱅이무침</text>
  <text fill="#010101" font-family="&#x27;NEXONLv1GothicBold&#x27;" font-size="38" id="svg_16" transform="matrix(1,0,0,1,0,0)" x="1588.33" y="539.57">14.0</text>
  <text fill="#010101" font-family="&#x27;NEXONLv1GothicRegular&#x27;" font-size="38" id="svg_10" transform="matrix(1,0,0,1,0,0)" x="865.74" y="606.38">어묵탕</text>
  <text fill="#010101" font-family="&#x27;NEXONLv1GothicBold&#x27;" font-size="38" id="svg_17" transform="matrix(1,0,0,1,0,0)" x="1590.08" y="606.23">12.0</text>
  <text fill="#010101" font-family="&#x27;NEXONLv1GothicRegular&#x27;" font-size="38" id="svg_18" transform="matrix(1,0,0,1,0,0)" x="865.74" y="669.79">모듬튀김</text>
  <text fill="#010101" font-family="&#x27;NEXONLv1GothicBold&#x27;" font-size="38" id="svg_20" transform="matrix(1,0,0,1,0,0)" x="1590.08" y="669.65">12.0</text>
  <text fill="#010101" font-family="&#x27;NEXONLv1GothicRegular&#x27;" font-size="38" id="svg_19" transform="matrix(1,0,0,1,0,0)" x="865.74" y="733.29">마른안주</text>
  <text fill="#010101" font-family="&#x27;NEXONLv1GothicBold&#x27;" font-size="38" id="svg_21" transform="matrix(1,0,0,1,0,0)" x="1590.08" y="733.15">12.0</text>
  <text fill="#010101" font-family="&#x27;NEXONLv1GothicRegular&#x27;" font-size="38" id="svg_11" transform="matrix(1,0,0,1,0,0)" x="865.74" y="875.67">맥주</text>
  <text fill="#010101" font-family="&#x27;NEXONLv1GothicBold&#x27;" font-size="38" id="svg_22" transform="matrix(1,0,0,1,0,0)" x="1611.13" y="875.53">6.0</text>
  <text fill="#010101" font-family="&#x27;NEXONLv1GothicRegular&#x27;" font-size="38" id="svg_12" transform="matrix(1 0 0 1 0 0) matrix(1 0 0 1 0 0)" x="865.74" y="942.29">소주</text>
  <text fill="#010101" font-family="&#x27;NEXONLv1GothicBold&#x27;" font-size="38" id="svg_23" transform="matrix(1,0,0,1,0,0)" x="1611.13" y="942.15">5.0</text>
  <text fill="#010101" font-family="&#x27;NEXONLv1GothicRegular&#x27;" font-size="38" id="svg_24" transform="matrix(1,0,0,1,0,0)" x="865.74" y="1006.51">음료(콜라·사이다)</text>
  <text fill="#010101" font-family="&#x27;NEXONLv1GothicBold&#x27;" font-size="38" id="svg_25" transform="matrix(1 0 0 1 0 0) matrix(1 0 0 1 0 0)" x="1611.13" y="1005.57">5.0</text>
  <text fill="#CCA771" font-family="&#x27;RixVitaM&#x27;" font-size="48" id="svg_33" transform="matrix(1 0 0 1 0 0)" x="1153.11" y="134.42">치킨(국내산)</text>
  <text fill="#CCA771" font-family="&#x27;RixVitaM&#x27;" font-size="48" id="svg_34" transform="matrix(1 0 0 1 0 0)" x="1056.73" y="469.96">안주류</text>
  <text fill="#CCA771" font-family="&#x27;RixVitaM&#x27;" font-size="48" id="svg_35" transform="matrix(1 0 0 1 0 0)" x="1071.55" y="817.61">음료·주류</text>
  <text fill="#72583D" font-family="&#x27;ROKAF-Slab-Serif-Medium&#x27;" font-size="72" id="svg_30" transform="matrix(1 0 0 1 0 0)" x="862.29" y="137.7">Chicken</text>
  <text fill="#72583D" font-family="&#x27;ROKAF-Slab-Serif-Medium&#x27;" font-size="72" id="svg_31" transform="matrix(1 0 0 1 0 0)" x="862.29" y="478.24">Food</text>
  <text fill="#72583D" font-family="&#x27;ROKAF-Slab-Serif-Medium&#x27;" font-size="72" id="svg_32" transform="matrix(1 0 0 1 0 0)" x="862.29" y="820.04">Drink</text>
  <text fill="#010101" font-family="&#x27;VITRO-CORE-TTF&#x27;" font-size="52" id="svg_26" transform="matrix(1 0 0 1 0 0)" x="330.76" y="1001.97">\ 18,000</text>
  <text fill="#CDA772" font-family="&#x27;GangwonEduAllBold&#x27;" font-size="91" id="svg_5" transform="matrix(1 0 0 1 0 0)" x="245.69" y="930.04">허니갈릭치킨</text>
  <text fill="#CDA772" font-family="&#x27;THEFACESHOP&#x27;" font-size="65" id="svg_4" x="303.8" y="837.34">겉바속촉 맛있는</text>
  <text fill="#F3F1EE" font-family="&#x27;GmarketSansTTFBold&#x27;" font-size="50" id="svg_29" transform="matrix(1 0 0 1 0 0) matrix(1 0 0 1 0 0)" x="268.09" y="139.13">이달의 추천 메뉴</text>
  <text fill="#73583E" font-family="&#x27;ROKAF-Slab-Serif-Medium&#x27;" font-size="94" id="svg_2" transform="matrix(1 0 0 1 0 0)" x="204.16" y="276.16">특별한 날의</text>
  <text fill="#73583E" font-family="&#x27;ROKAF-Slab-Serif-Medium&#x27;" font-size="94" id="svg_3" x="251.16" y="379.34">필수 메뉴</text>
 </g>
</svg>